<svg version="1.1" id="Livello_2" 
	 xmlns="http://www.w3.org/2000/svg" xmlns:xlink="http://www.w3.org/1999/xlink" x="0px" y="0px" width="196px" height="264px"
	 viewBox="0 0 196 264" style="enable-background:new 0 0 196 264;" xml:space="preserve">
<g>
	<g>
		<path class="st0" d="M186.4,86c-2.8-9.7-17.7-61.8-21.5-75.5c-3.8-13.7-17.8-6.7-17.8-6.7S42.8,38.8,23.7,44.8
			c-22.6,7.9-21,10-19.1,14.9C9.3,72,36.8,143,36.8,143s5.6,16,19.3,10.4c24.6-10.2,28.9-12.5,43.7-16.6
			c9.9-1.2,11.9,11.7,12.2,22.7c0.3,10.9,2.6,102,2.6,102s1.9,0,4.4,0c2.5,0,6.3-6.3,6.3-6.3l3.3-107c0,0-0.7-21.7,11.9-27.4
			c14.8-5.7,27.8-10.7,38.5-14.8C189.7,101.8,189.2,95.7,186.4,86z M175.2,104.8c-10.2,3.9-22.6,8.7-36.8,14.2
			c0,0-69.4,25.5-82.3,31.1c-12.9,5.7-16.8-9.9-16.8-9.9S13,72.3,8.5,60.6c-1.8-4.7-3.4-6.7,18.2-14.2c18.3-5.7,118-39.2,118-39.2
			s13.4-6.8,17,6.4c3.6,13.1,17.9,62.9,20.5,72.2C184.9,95,185.4,100.9,175.2,104.8z"/>
	</g>
	<g>
		<path class="st2" d="M186.4,86c-2.8-9.7-17.7-61.8-21.5-75.5c-3.8-13.7-17.8-6.7-17.8-6.7S42.8,38.8,23.7,44.8
			c-22.6,7.9-21,10-19.1,14.9C9.3,72,36.8,143,36.8,143s5.6,16,19.3,10.4c24.6-10.2,28.9-12.5,43.7-16.6
			c9.9-1.2,11.9,11.7,12.2,22.7c0.3,10.9,2.6,102,2.6,102s1.9,0,4.4,0c2.5,0,6.3-6.3,6.3-6.3l3.3-107c0,0-0.7-21.7,11.9-27.4
			c14.8-5.7,27.8-10.7,38.5-14.8C189.7,101.8,189.2,95.7,186.4,86z M175.2,104.8c-10.2,3.9-22.6,8.7-36.8,14.2
			c0,0-69.4,25.5-82.3,31.1c-12.9,5.7-16.8-9.9-16.8-9.9S13,72.3,8.5,60.6c-1.8-4.7-3.4-6.7,18.2-14.2c18.3-5.7,118-39.2,118-39.2
			s13.4-6.8,17,6.4c3.6,13.1,17.9,62.9,20.5,72.2C184.9,95,185.4,100.9,175.2,104.8z"/>
	</g>
</g>
<g>
	<g>
		<g>
			<path class="st1" d="M112.7,262.2c0,0-18-28.9-32.5-37.5c-9.8-5.8,21.8,9.3,28.2,14.4C114.7,244,112.7,262.2,112.7,262.2z"/>
		</g>
		<g>
			<path class="st1" d="M119.3,262.3c0,0,15-31.2,20.2-38.5c5.2-7.3-13.6,14.6-17.3,19.9C118.5,248.9,119.3,262.3,119.3,262.3z"/>
		</g>
		<g>
			<path class="st1" d="M115.5,259.4c0,0,8.9-31.5,13.1-40.2c4.1-8.7-8.8,14.8-11.8,21.1C113.8,246.6,115.5,259.4,115.5,259.4z"/>
		</g>
	</g>
</g>
<g>
	<g>
		<path d="M48.7,64L48,53.1l0.8-0.3l6.5,8.8l-1,0.3l-1.9-2.7l-3,1.1l0.2,3.3L48.7,64z M49,54.5c0.1,1.3,0.2,2.6,0.3,3.7l0.1,1
			l2.4-0.9l-0.6-0.8C50.4,56.6,49.7,55.6,49,54.5L49,54.5z"/>
		<path d="M57.4,59.5c-0.1-0.6-0.1-1.3-0.2-2.1l-0.4-4.2l0.8-0.3l0.6,7.7l-0.9,0.3l-4.5-6.3l0.8-0.3l2.4,3.5
			C56.6,58.5,57,59,57.4,59.5L57.4,59.5z"/>
		<path d="M63.3,57.8c0.3-0.1,0.5-0.2,0.7-0.4c0.2-0.1,0.4-0.3,0.6-0.5l0.3,0.9c-0.1,0.2-0.3,0.4-0.6,0.5c-0.2,0.2-0.5,0.3-0.8,0.4
			c-0.4,0.1-0.7,0.2-1.1,0.2c-0.4,0-0.7-0.1-1.1-0.3c-0.3-0.2-0.7-0.5-1-0.9c-0.3-0.4-0.6-0.9-0.8-1.6c-0.2-0.6-0.4-1.2-0.4-1.7
			c0-0.5,0-1,0.1-1.4c0.1-0.4,0.3-0.7,0.5-1c0.2-0.3,0.5-0.4,0.8-0.5c0.3-0.1,0.6-0.1,0.9-0.1c0.3,0,0.6,0.2,0.9,0.4
			c0.3,0.2,0.6,0.5,0.8,0.9s0.5,0.9,0.7,1.5c0,0.1,0,0.1,0.1,0.2c0,0,0,0.1,0.1,0.3L60.5,56c0.2,0.4,0.3,0.8,0.6,1.1
			c0.2,0.3,0.4,0.5,0.7,0.6c0.2,0.1,0.5,0.2,0.8,0.2S63,57.9,63.3,57.8z M60.9,52.6c-0.2,0.1-0.4,0.2-0.5,0.3
			c-0.1,0.2-0.2,0.4-0.3,0.6s-0.1,0.5-0.1,0.7c0,0.3,0.1,0.5,0.1,0.8l2.6-0.9c-0.1-0.3-0.2-0.5-0.4-0.7s-0.3-0.4-0.5-0.5
			c-0.2-0.1-0.3-0.2-0.5-0.3C61.3,52.5,61.1,52.5,60.9,52.6z"/>
		<path d="M66.9,50.6L66.9,50.6l-2.8,1l-0.4-1l3.9-1.4l0.3,0.7L67,56.2l0,0l3-1.1l0.4,1l-4.1,1.5L66,57L66.9,50.6z"/>
		<path d="M75,53.1c-0.1-0.6-0.1-1.3-0.2-2.1l-0.4-4.2l0.8-0.3l0.6,7.7L75,54.5l-4.5-6.3l0.8-0.3l2.4,3.5
			C74.3,52.1,74.7,52.7,75,53.1L75,53.1z"/>
		<path d="M82.1,48c0.2,0.5,0.3,1.1,0.4,1.6c0,0.5,0,0.9-0.1,1.3c-0.1,0.4-0.3,0.7-0.5,1c-0.2,0.3-0.5,0.5-0.9,0.6
			c-0.4,0.1-0.8,0.2-1.1,0.1c-0.4-0.1-0.7-0.2-1-0.5c-0.3-0.2-0.6-0.6-0.9-1c-0.3-0.4-0.5-0.9-0.7-1.4c-0.2-0.6-0.3-1.1-0.4-1.6
			c0-0.5,0-0.9,0.1-1.3c0.1-0.4,0.3-0.7,0.5-1c0.2-0.3,0.5-0.5,0.9-0.6c0.4-0.1,0.7-0.2,1.1-0.1c0.4,0.1,0.7,0.2,1,0.5
			c0.3,0.2,0.6,0.6,0.9,1C81.7,46.9,81.9,47.4,82.1,48z M81.3,48.3c-0.2-0.4-0.3-0.8-0.5-1.1c-0.2-0.3-0.4-0.6-0.6-0.7
			c-0.2-0.2-0.4-0.3-0.7-0.4c-0.2-0.1-0.5,0-0.7,0c-0.2,0.1-0.4,0.2-0.6,0.4c-0.1,0.2-0.2,0.4-0.3,0.7c-0.1,0.3-0.1,0.6,0,1
			c0,0.4,0.1,0.8,0.3,1.2c0.2,0.4,0.3,0.8,0.5,1.1c0.2,0.3,0.4,0.6,0.6,0.7c0.2,0.2,0.5,0.3,0.7,0.3c0.2,0.1,0.5,0,0.7,0
			c0.2-0.1,0.4-0.2,0.6-0.4c0.1-0.2,0.2-0.4,0.3-0.7s0.1-0.6,0-1S81.4,48.7,81.3,48.3z"/>
		<path d="M86.8,50.4c-0.3,0.1-0.5,0.1-0.8,0.1c-0.2,0-0.5,0-0.7-0.1c-0.2-0.1-0.4-0.2-0.6-0.4c-0.2-0.2-0.3-0.3-0.5-0.6
			c-0.1-0.2-0.2-0.3-0.3-0.5c-0.1-0.2-0.2-0.4-0.3-0.7L82.1,44l0.8-0.3l1.5,4.3c0.1,0.4,0.3,0.7,0.5,0.9c0.2,0.3,0.4,0.4,0.7,0.5
			c0.3,0.1,0.5,0.1,0.8,0c0.3-0.1,0.5-0.3,0.7-0.6c0.1-0.3,0.2-0.6,0.1-0.9c0-0.3-0.1-0.6-0.2-0.9l-1.5-4.3l0.8-0.3l1.5,4.3
			c0.1,0.2,0.2,0.5,0.2,0.7c0.1,0.2,0.1,0.4,0.1,0.6c0,0.3,0,0.5,0,0.8c0,0.2-0.1,0.5-0.2,0.7c-0.1,0.2-0.3,0.4-0.4,0.5
			S87.1,50.3,86.8,50.4z"/>
		<path d="M89.2,43.6c0.1,0.2,0.2,0.3,0.3,0.4c0.1,0.1,0.2,0.2,0.3,0.2c0.1,0,0.3,0.1,0.4,0.1s0.3,0,0.5,0c0.2,0,0.4,0,0.6,0
			c0.2,0,0.4,0.1,0.6,0.1c0.2,0.1,0.4,0.2,0.6,0.5c0.2,0.2,0.3,0.5,0.5,0.9c0.1,0.4,0.2,0.7,0.2,1c0,0.3-0.1,0.6-0.2,0.8
			c-0.1,0.3-0.3,0.5-0.5,0.7c-0.2,0.2-0.5,0.3-0.8,0.4c-0.2,0.1-0.4,0.1-0.5,0.1c-0.2,0-0.3,0-0.4,0c-0.1,0-0.2,0-0.3,0
			c-0.1,0-0.2,0-0.2-0.1l-0.3-1c0.3,0,0.5,0.1,0.7,0.1c0.2,0,0.5-0.1,0.7-0.1c0.2-0.1,0.4-0.2,0.5-0.3c0.1-0.1,0.3-0.2,0.3-0.4
			s0.1-0.3,0.1-0.5c0-0.2,0-0.3-0.1-0.5c-0.1-0.2-0.2-0.3-0.3-0.5c-0.1-0.1-0.2-0.2-0.3-0.2s-0.3-0.1-0.4-0.1c-0.1,0-0.3,0-0.4,0
			c-0.2,0-0.4,0-0.6,0c-0.2,0-0.4,0-0.6-0.1c-0.2-0.1-0.4-0.2-0.6-0.4c-0.2-0.2-0.3-0.5-0.5-0.8c-0.1-0.4-0.2-0.7-0.2-1
			c0-0.3,0.1-0.6,0.2-0.8c0.1-0.2,0.2-0.4,0.4-0.6s0.4-0.3,0.6-0.4c0.3-0.1,0.6-0.2,0.8-0.2c0.3,0,0.5,0,0.8,0l0.3,1
			c-0.3,0-0.5-0.1-0.7,0c-0.2,0-0.5,0-0.7,0.1c-0.2,0.1-0.3,0.2-0.5,0.3s-0.2,0.2-0.3,0.3c-0.1,0.1-0.1,0.3-0.1,0.4
			C89.1,43.3,89.1,43.4,89.2,43.6z"/>
		<path d="M100.4,41.2c0.2,0.7,0.4,1.2,0.4,1.8c0,0.5,0,1-0.1,1.4c-0.1,0.4-0.3,0.7-0.5,1c-0.2,0.2-0.5,0.4-0.8,0.5
			C99.2,45.9,99,46,98.8,46c-0.2,0-0.4-0.1-0.5-0.1c-0.2-0.1-0.3-0.1-0.4-0.2c-0.1-0.1-0.2-0.2-0.2-0.2l0,0l0.1,0.8l-0.6,0.2
			l-3.8-10.6l0.8-0.3l1.6,4.3l0,0c0.1-0.3,0.2-0.6,0.4-0.8c0.2-0.2,0.4-0.4,0.8-0.5c0.1-0.1,0.3-0.1,0.5-0.1c0.2,0,0.4,0,0.6,0
			c0.2,0,0.4,0.1,0.6,0.3c0.2,0.1,0.4,0.3,0.6,0.5c0.2,0.2,0.4,0.5,0.6,0.8S100.2,40.8,100.4,41.2z M99.5,41.6
			c-0.2-0.6-0.4-1-0.6-1.3c-0.2-0.3-0.4-0.5-0.7-0.7c-0.2-0.1-0.4-0.2-0.6-0.2c-0.2,0-0.4,0-0.5,0.1c-0.3,0.1-0.5,0.3-0.6,0.5
			s-0.3,0.5-0.4,0.8l1.3,3.7c0.1,0.1,0.2,0.2,0.3,0.2c0.1,0.1,0.3,0.1,0.4,0.2c0.1,0.1,0.3,0.1,0.5,0.1c0.2,0,0.3,0,0.5-0.1
			c0.2-0.1,0.4-0.2,0.6-0.4c0.1-0.2,0.2-0.4,0.3-0.7c0-0.3,0-0.6,0-1C99.8,42.4,99.7,42,99.5,41.6z"/>
		<path d="M105.1,42.7c0.3-0.1,0.5-0.2,0.7-0.4c0.2-0.1,0.4-0.3,0.6-0.5l0.3,0.9c-0.1,0.2-0.3,0.4-0.6,0.5c-0.2,0.2-0.5,0.3-0.8,0.4
			c-0.4,0.1-0.7,0.2-1.1,0.2c-0.4,0-0.7-0.1-1.1-0.3c-0.3-0.2-0.7-0.5-1-0.9c-0.3-0.4-0.6-0.9-0.8-1.6c-0.2-0.6-0.4-1.2-0.4-1.7
			s0-1,0.1-1.4c0.1-0.4,0.3-0.7,0.5-1c0.2-0.3,0.5-0.4,0.8-0.5c0.3-0.1,0.6-0.1,0.9-0.1c0.3,0,0.6,0.2,0.9,0.4
			c0.3,0.2,0.6,0.5,0.8,0.9c0.3,0.4,0.5,0.9,0.7,1.5c0,0.1,0,0.1,0.1,0.2c0,0,0,0.1,0.1,0.3l-3.5,1.3c0.2,0.4,0.3,0.8,0.6,1.1
			c0.2,0.3,0.4,0.5,0.7,0.6c0.2,0.1,0.5,0.2,0.8,0.2C104.6,42.8,104.8,42.8,105.1,42.7z M102.7,37.5c-0.2,0.1-0.4,0.2-0.5,0.3
			c-0.1,0.2-0.2,0.4-0.3,0.6s-0.1,0.5-0.1,0.7c0,0.3,0.1,0.5,0.1,0.8l2.6-0.9c-0.1-0.3-0.2-0.5-0.4-0.7c-0.1-0.2-0.3-0.4-0.5-0.5
			c-0.2-0.1-0.3-0.2-0.5-0.3C103.1,37.4,102.9,37.4,102.7,37.5z"/>
		<path d="M107.2,37.1c0.1,0.2,0.2,0.3,0.3,0.4c0.1,0.1,0.2,0.2,0.3,0.2s0.3,0.1,0.4,0.1c0.1,0,0.3,0,0.5,0c0.2,0,0.4,0,0.6,0
			s0.4,0.1,0.6,0.1c0.2,0.1,0.4,0.2,0.6,0.5c0.2,0.2,0.3,0.5,0.5,0.9c0.1,0.4,0.2,0.7,0.2,1c0,0.3-0.1,0.6-0.2,0.8
			c-0.1,0.3-0.3,0.5-0.5,0.7c-0.2,0.2-0.5,0.3-0.8,0.4c-0.2,0.1-0.4,0.1-0.5,0.1c-0.2,0-0.3,0-0.4,0c-0.1,0-0.2,0-0.3,0
			s-0.2,0-0.2-0.1l-0.3-1c0.3,0,0.5,0.1,0.7,0.1c0.2,0,0.5-0.1,0.7-0.1c0.2-0.1,0.4-0.2,0.5-0.3c0.1-0.1,0.3-0.2,0.3-0.4
			c0.1-0.1,0.1-0.3,0.1-0.5c0-0.2,0-0.3-0.1-0.5c-0.1-0.2-0.2-0.3-0.3-0.5c-0.1-0.1-0.2-0.2-0.3-0.2s-0.3-0.1-0.4-0.1
			c-0.1,0-0.3,0-0.4,0c-0.2,0-0.4,0-0.6,0s-0.4,0-0.6-0.1c-0.2-0.1-0.4-0.2-0.6-0.4c-0.2-0.2-0.3-0.5-0.5-0.8
			c-0.1-0.4-0.2-0.7-0.2-1c0-0.3,0-0.6,0.2-0.8c0.1-0.2,0.2-0.4,0.4-0.6c0.2-0.2,0.4-0.3,0.6-0.4c0.3-0.1,0.6-0.2,0.8-0.2
			c0.3,0,0.5,0,0.8,0l0.4,1c-0.3,0-0.5-0.1-0.7,0c-0.2,0-0.5,0-0.7,0.1c-0.2,0.1-0.3,0.2-0.5,0.3c-0.1,0.1-0.2,0.2-0.3,0.3
			c-0.1,0.1-0.1,0.3-0.1,0.4C107.1,36.8,107.1,36.9,107.2,37.1z"/>
		<path d="M116.2,35.7c0.2,0.5,0.3,1.1,0.4,1.6c0,0.5,0,0.9-0.1,1.3c-0.1,0.4-0.3,0.7-0.5,1c-0.2,0.3-0.5,0.5-0.9,0.6
			c-0.4,0.1-0.8,0.2-1.1,0.1c-0.4-0.1-0.7-0.2-1-0.5c-0.3-0.2-0.6-0.6-0.9-1c-0.3-0.4-0.5-0.9-0.7-1.4c-0.2-0.6-0.3-1.1-0.4-1.6
			c0-0.5,0-0.9,0.1-1.3c0.1-0.4,0.3-0.7,0.5-1c0.2-0.3,0.5-0.5,0.9-0.6c0.4-0.1,0.7-0.2,1.1-0.1c0.4,0.1,0.7,0.2,1,0.5
			c0.3,0.2,0.6,0.6,0.9,1S116,35.1,116.2,35.7z M115.3,36c-0.2-0.4-0.3-0.8-0.5-1.1c-0.2-0.3-0.4-0.6-0.6-0.7
			c-0.2-0.2-0.4-0.3-0.7-0.4c-0.2-0.1-0.5,0-0.7,0c-0.2,0.1-0.4,0.2-0.6,0.4c-0.1,0.2-0.2,0.4-0.3,0.7c-0.1,0.3-0.1,0.6,0,1
			c0,0.4,0.1,0.8,0.3,1.2c0.2,0.4,0.3,0.8,0.5,1.1c0.2,0.3,0.4,0.6,0.6,0.7c0.2,0.2,0.5,0.3,0.7,0.3c0.2,0.1,0.5,0,0.7,0
			c0.2-0.1,0.4-0.2,0.6-0.4c0.1-0.2,0.2-0.4,0.3-0.7c0.1-0.3,0.1-0.6,0-1C115.6,36.8,115.5,36.4,115.3,36z"/>
		<path d="M115.7,30.1l-0.5-1.3l0.8-0.3l0.5,1.3L115.7,30.1z M118.8,38.7l-2.5-7l0.8-0.3l2.5,7L118.8,38.7z"/>
		<path d="M120,31.5L120,31.5c0.1-0.2,0.1-0.4,0.2-0.6c0.1-0.2,0.1-0.3,0.2-0.5c0.1-0.2,0.2-0.3,0.4-0.4c0.1-0.1,0.3-0.2,0.5-0.3
			c0.2-0.1,0.5-0.1,0.7-0.1c0.2,0,0.5,0.1,0.7,0.2c0.2,0.1,0.4,0.4,0.6,0.6c0.2,0.3,0.4,0.7,0.6,1.1l1.7,4.7l-0.8,0.3l-1.6-4.5
			c-0.2-0.6-0.5-1-0.7-1.2c-0.3-0.2-0.6-0.2-0.9-0.1c-0.3,0.1-0.5,0.3-0.7,0.6c-0.2,0.3-0.3,0.7-0.4,1.2l1.8,5l-0.8,0.3l-2.5-7
			l0.6-0.2L120,31.5z"/>
		<path d="M39.6,82.5c-0.2-0.5-0.3-0.9-0.4-1.3s-0.1-0.8-0.1-1.1c0-0.3,0.1-0.6,0.1-0.8c0.1-0.2,0.2-0.5,0.3-0.6
			c0.1-0.2,0.3-0.3,0.4-0.4c0.2-0.1,0.3-0.2,0.5-0.3c0.3-0.1,0.6-0.1,0.9-0.1c0.3,0.1,0.6,0.2,0.8,0.4l0,0l-1.6-4.3l0.8-0.3
			l3.8,10.6l-0.6,0.2l-0.5-0.7l0,0c0,0.1-0.1,0.3-0.1,0.4c0,0.1-0.1,0.3-0.2,0.4c-0.1,0.1-0.2,0.3-0.3,0.4c-0.1,0.1-0.3,0.2-0.5,0.3
			c-0.3,0.1-0.6,0.1-0.9,0.1c-0.3,0-0.6-0.2-0.9-0.4c-0.3-0.2-0.6-0.5-0.9-0.9C40.1,83.7,39.9,83.2,39.6,82.5z M40.5,82.2
			c0.1,0.4,0.3,0.8,0.5,1.1c0.2,0.3,0.4,0.5,0.6,0.7c0.2,0.2,0.4,0.3,0.7,0.4c0.2,0.1,0.5,0,0.7,0c0.2-0.1,0.3-0.2,0.4-0.3
			c0.1-0.1,0.2-0.2,0.3-0.4c0.1-0.1,0.1-0.3,0.2-0.4c0-0.1,0.1-0.3,0.1-0.4l-1.3-3.7c-0.3-0.2-0.5-0.3-0.8-0.4s-0.5,0-0.8,0
			c-0.2,0.1-0.3,0.2-0.5,0.3c-0.1,0.1-0.3,0.3-0.3,0.6c-0.1,0.3-0.1,0.6-0.1,1C40.2,81.2,40.3,81.6,40.5,82.2z"/>
		<path d="M43.9,73.7l0.9-0.3l0.4,4l-0.8,0.3L43.9,73.7z"/>
		<path d="M51.6,82.3c-0.3,0.1-0.5,0.1-0.8,0.1c-0.2,0-0.5,0-0.7-0.1c-0.2-0.1-0.4-0.2-0.6-0.4c-0.2-0.2-0.3-0.3-0.5-0.6
			c-0.1-0.2-0.2-0.3-0.3-0.5c-0.1-0.2-0.2-0.4-0.3-0.7l-1.5-4.3l0.8-0.3l1.5,4.3c0.1,0.4,0.3,0.7,0.5,0.9c0.2,0.3,0.4,0.4,0.7,0.5
			c0.3,0.1,0.5,0.1,0.8,0c0.3-0.1,0.5-0.3,0.7-0.6c0.1-0.3,0.2-0.6,0.1-0.9c0-0.3-0.1-0.6-0.2-0.9l-1.5-4.3l0.8-0.3l1.5,4.3
			c0.1,0.2,0.2,0.5,0.2,0.7c0.1,0.2,0.1,0.4,0.1,0.6c0,0.3,0,0.5,0,0.8c0,0.2-0.1,0.5-0.2,0.7c-0.1,0.2-0.3,0.4-0.4,0.5
			C52.1,82,51.8,82.2,51.6,82.3z"/>
		<path d="M53.8,74.4L53.8,74.4c0.1-0.2,0.1-0.4,0.2-0.6c0.1-0.2,0.1-0.3,0.2-0.5s0.2-0.3,0.4-0.4c0.1-0.1,0.3-0.2,0.5-0.3
			c0.2-0.1,0.5-0.1,0.7-0.1s0.5,0.1,0.7,0.2c0.2,0.1,0.4,0.4,0.6,0.6c0.2,0.3,0.4,0.7,0.6,1.1l1.7,4.7l-0.8,0.3L56.9,75
			c-0.2-0.6-0.5-1-0.7-1.2s-0.6-0.2-0.9-0.1c-0.3,0.1-0.5,0.3-0.7,0.6c-0.2,0.3-0.3,0.7-0.4,1.2l1.8,5l-0.8,0.3l-2.5-7l0.6-0.2
			L53.8,74.4z"/>
		<path d="M62.8,69.9c0.2-0.1,0.5-0.1,0.7-0.1c0.3,0,0.5,0,0.7,0.1l0.3,0.9c-0.3,0-0.5,0-0.7,0c-0.2,0-0.4,0-0.6,0.1
			c-0.2,0.1-0.4,0.2-0.6,0.4c-0.2,0.2-0.3,0.4-0.4,0.7c-0.1,0.3-0.1,0.6-0.1,1s0.1,0.8,0.3,1.4c0.1,0.4,0.3,0.7,0.5,1
			c0.2,0.3,0.4,0.5,0.6,0.7c0.2,0.2,0.5,0.3,0.7,0.3c0.3,0,0.5,0,0.8-0.1c0.2-0.1,0.4-0.2,0.6-0.3s0.4-0.3,0.5-0.5l0.3,0.9
			c0,0.1-0.1,0.1-0.2,0.2c-0.1,0.1-0.2,0.2-0.3,0.2c-0.1,0.1-0.2,0.2-0.3,0.2c-0.1,0.1-0.3,0.1-0.4,0.2c-0.3,0.1-0.7,0.2-1.1,0.1
			c-0.4,0-0.7-0.2-1-0.4c-0.3-0.2-0.7-0.5-0.9-0.9c-0.3-0.4-0.6-0.9-0.8-1.5c-0.2-0.5-0.3-0.9-0.3-1.3c-0.1-0.4-0.1-0.8-0.1-1.1
			c0-0.3,0.1-0.6,0.2-0.9c0.1-0.3,0.2-0.5,0.3-0.7c0.1-0.2,0.3-0.4,0.5-0.5C62.4,70.1,62.6,70,62.8,69.9z"/>
		<path d="M71.3,71c0.2,0.5,0.3,1.1,0.4,1.6c0,0.5,0,0.9-0.1,1.3c-0.1,0.4-0.3,0.7-0.5,1c-0.2,0.3-0.5,0.5-0.9,0.6
			c-0.4,0.1-0.8,0.2-1.1,0.1c-0.4-0.1-0.7-0.2-1-0.5c-0.3-0.2-0.6-0.6-0.9-1c-0.3-0.4-0.5-0.9-0.7-1.4c-0.2-0.6-0.3-1.1-0.4-1.6
			c0-0.5,0-0.9,0.1-1.3c0.1-0.4,0.3-0.7,0.5-1c0.2-0.3,0.5-0.5,0.9-0.6c0.4-0.1,0.7-0.2,1.1-0.1c0.4,0.1,0.7,0.2,1,0.5
			c0.3,0.2,0.6,0.6,0.9,1C70.9,70,71.1,70.4,71.3,71z M70.5,71.3c-0.2-0.4-0.3-0.8-0.5-1.1c-0.2-0.3-0.4-0.6-0.6-0.7
			c-0.2-0.2-0.4-0.3-0.7-0.4c-0.2-0.1-0.5,0-0.7,0c-0.2,0.1-0.4,0.2-0.6,0.4s-0.2,0.4-0.3,0.7c-0.1,0.3-0.1,0.6,0,1
			c0,0.4,0.1,0.8,0.3,1.2c0.2,0.4,0.3,0.8,0.5,1.1c0.2,0.3,0.4,0.6,0.6,0.7c0.2,0.2,0.5,0.3,0.7,0.3c0.2,0.1,0.5,0,0.7,0
			c0.2-0.1,0.4-0.2,0.6-0.4s0.2-0.4,0.3-0.7c0.1-0.3,0.1-0.6,0-1C70.7,72.1,70.6,71.7,70.5,71.3z"/>
		<path d="M76,73.4c-0.3,0.1-0.5,0.1-0.8,0.1c-0.2,0-0.5,0-0.7-0.1c-0.2-0.1-0.4-0.2-0.6-0.4c-0.2-0.2-0.3-0.3-0.5-0.6
			c-0.1-0.2-0.2-0.3-0.3-0.5c-0.1-0.2-0.2-0.4-0.3-0.7L71.3,67l0.8-0.3l1.5,4.3c0.1,0.4,0.3,0.7,0.5,0.9c0.2,0.3,0.4,0.4,0.7,0.5
			c0.3,0.1,0.5,0.1,0.8,0c0.3-0.1,0.5-0.3,0.7-0.6c0.1-0.3,0.2-0.6,0.1-0.9c0-0.3-0.1-0.6-0.2-0.9l-1.5-4.3l0.8-0.3l1.5,4.3
			c0.1,0.2,0.2,0.5,0.2,0.7s0.1,0.4,0.1,0.6c0,0.3,0,0.5,0,0.8c0,0.2-0.1,0.5-0.2,0.7c-0.1,0.2-0.3,0.4-0.4,0.5
			C76.5,73.2,76.3,73.3,76,73.4z"/>
		<path d="M82.9,66.7c0.2,0.5,0.3,0.9,0.4,1.3s0.1,0.8,0.1,1.1c0,0.3-0.1,0.6-0.2,0.8c-0.1,0.2-0.2,0.5-0.3,0.6
			c-0.1,0.2-0.3,0.3-0.4,0.4c-0.2,0.1-0.3,0.2-0.5,0.3c-0.3,0.1-0.6,0.1-0.9,0.1c-0.3-0.1-0.6-0.2-0.8-0.4l0,0l1.5,4.1l-0.8,0.3
			L77.1,65l0.6-0.2l0.5,0.7l0,0c0-0.1,0-0.2,0.1-0.4s0.1-0.3,0.2-0.4c0.1-0.2,0.2-0.3,0.3-0.4c0.1-0.1,0.3-0.2,0.5-0.3
			c0.3-0.1,0.6-0.1,0.9-0.1c0.3,0,0.6,0.2,0.9,0.4c0.3,0.2,0.6,0.5,0.9,0.9C82.4,65.6,82.6,66.1,82.9,66.7z M82,67.1
			c-0.1-0.4-0.3-0.8-0.5-1.1c-0.2-0.3-0.4-0.5-0.6-0.7c-0.2-0.2-0.4-0.3-0.7-0.4c-0.2-0.1-0.5,0-0.7,0c-0.2,0.1-0.3,0.2-0.4,0.3
			s-0.2,0.2-0.3,0.4c-0.1,0.1-0.1,0.3-0.2,0.4c0,0.1-0.1,0.3-0.1,0.4l1.3,3.7c0.3,0.2,0.5,0.3,0.8,0.4c0.3,0.1,0.5,0,0.8,0
			c0.2-0.1,0.3-0.2,0.5-0.3s0.3-0.3,0.3-0.6c0.1-0.3,0.1-0.6,0.1-1S82.2,67.6,82,67.1z"/>
		<path d="M86.1,65.7c-0.2-0.5-0.3-0.9-0.4-1.3c-0.1-0.4-0.1-0.8-0.1-1.1c0-0.3,0.1-0.6,0.2-0.8c0.1-0.2,0.2-0.5,0.3-0.6
			c0.1-0.2,0.3-0.3,0.4-0.4c0.2-0.1,0.3-0.2,0.5-0.3c0.3-0.1,0.6-0.1,0.9-0.1c0.3,0.1,0.6,0.2,0.8,0.4l0,0l-1.6-4.3l0.8-0.3
			l3.8,10.6l-0.6,0.2L90.8,67l0,0c0,0.1-0.1,0.3-0.1,0.4c0,0.1-0.1,0.3-0.2,0.4s-0.2,0.3-0.3,0.4c-0.1,0.1-0.3,0.2-0.5,0.3
			c-0.3,0.1-0.6,0.1-0.9,0.1c-0.3,0-0.6-0.2-0.9-0.4c-0.3-0.2-0.6-0.5-0.9-0.9C86.6,66.9,86.4,66.4,86.1,65.7z M87,65.4
			c0.1,0.4,0.3,0.8,0.5,1.1c0.2,0.3,0.4,0.5,0.6,0.7c0.2,0.2,0.4,0.3,0.7,0.4c0.2,0.1,0.5,0,0.7,0c0.2-0.1,0.3-0.2,0.4-0.3
			s0.2-0.2,0.3-0.4c0.1-0.1,0.1-0.3,0.2-0.4c0-0.1,0.1-0.3,0.1-0.4l-1.3-3.7c-0.3-0.2-0.5-0.3-0.8-0.4s-0.5,0-0.8,0
			c-0.2,0.1-0.3,0.2-0.5,0.3c-0.1,0.1-0.3,0.3-0.3,0.6c-0.1,0.3-0.1,0.6-0.1,1C86.7,64.4,86.8,64.9,87,65.4z"/>
		<path d="M95.7,65.2c0.3-0.1,0.5-0.2,0.7-0.4s0.4-0.3,0.6-0.5l0.3,0.9c-0.1,0.2-0.3,0.4-0.6,0.5c-0.2,0.2-0.5,0.3-0.8,0.4
			c-0.4,0.1-0.7,0.2-1.1,0.2c-0.4,0-0.7-0.1-1.1-0.3c-0.3-0.2-0.7-0.5-1-0.9c-0.3-0.4-0.6-0.9-0.8-1.6c-0.2-0.6-0.4-1.2-0.4-1.7
			c0-0.5,0-1,0.1-1.4c0.1-0.4,0.3-0.7,0.5-1s0.5-0.4,0.8-0.6c0.3-0.1,0.6-0.1,0.9-0.1c0.3,0,0.6,0.2,0.9,0.4
			c0.3,0.2,0.6,0.5,0.8,0.9c0.3,0.4,0.5,0.9,0.7,1.5c0,0.1,0,0.1,0.1,0.2c0,0,0,0.1,0.1,0.3l-3.5,1.3c0.2,0.4,0.3,0.8,0.6,1.1
			c0.2,0.3,0.4,0.5,0.7,0.6c0.2,0.1,0.5,0.2,0.8,0.2C95.2,65.4,95.4,65.3,95.7,65.2z M93.3,60c-0.2,0.1-0.4,0.2-0.5,0.3
			c-0.1,0.2-0.2,0.4-0.3,0.6c-0.1,0.2-0.1,0.5-0.1,0.7c0,0.3,0.1,0.5,0.1,0.8l2.6-0.9c-0.1-0.3-0.2-0.5-0.4-0.7
			c-0.1-0.2-0.3-0.4-0.5-0.5c-0.2-0.1-0.3-0.2-0.5-0.3C93.7,59.9,93.5,59.9,93.3,60z"/>
		<path d="M105.4,62.6l-0.8,0.3l-1.6-4.5c-0.1-0.3-0.2-0.6-0.4-0.7s-0.3-0.3-0.4-0.4s-0.3-0.2-0.4-0.2s-0.3,0-0.5,0.1
			c-0.3,0.1-0.5,0.3-0.7,0.6c-0.2,0.3-0.3,0.7-0.3,1.1l1.8,5l-0.8,0.3l-2.5-7l0.6-0.2l0.5,0.9l0,0c0-0.2,0.1-0.4,0.1-0.6
			c0.1-0.2,0.1-0.3,0.2-0.5c0.1-0.2,0.2-0.3,0.4-0.4c0.1-0.1,0.3-0.2,0.5-0.3c0.4-0.1,0.7-0.1,1.1,0c0.3,0.2,0.7,0.4,1,0.8l0,0
			c0.1-0.5,0.2-1,0.4-1.3c0.2-0.4,0.5-0.6,0.9-0.7c0.2-0.1,0.4-0.1,0.6-0.1c0.2,0,0.5,0.1,0.7,0.2c0.2,0.1,0.5,0.3,0.7,0.6
			c0.2,0.3,0.4,0.7,0.6,1.2l1.7,4.7l-0.8,0.3l-1.6-4.5c-0.1-0.3-0.2-0.6-0.4-0.7c-0.1-0.2-0.3-0.3-0.4-0.4c-0.1-0.1-0.3-0.2-0.4-0.2
			s-0.3,0-0.5,0.1c-0.3,0.1-0.5,0.3-0.7,0.6s-0.3,0.7-0.3,1.1L105.4,62.6z"/>
		<path d="M113.1,59L113.1,59c0,0.2-0.1,0.3-0.2,0.5c-0.1,0.2-0.1,0.3-0.2,0.4c-0.1,0.1-0.2,0.3-0.4,0.4c-0.1,0.1-0.3,0.2-0.5,0.3
			c-0.2,0.1-0.5,0.1-0.7,0.1c-0.2,0-0.5-0.1-0.7-0.2c-0.2-0.1-0.4-0.3-0.6-0.6c-0.2-0.3-0.3-0.6-0.5-0.9c-0.1-0.3-0.2-0.7-0.2-1
			c0-0.3,0-0.6,0.1-0.8c0.1-0.3,0.2-0.5,0.4-0.7c0.2-0.2,0.4-0.3,0.7-0.4c0.3-0.1,0.5-0.1,0.8-0.2c0.2,0,0.5,0,0.7,0l0,0l-0.2-0.5
			c-0.1-0.2-0.1-0.4-0.2-0.5c-0.1-0.1-0.1-0.3-0.2-0.4c-0.2-0.2-0.4-0.3-0.7-0.4c-0.3-0.1-0.6-0.1-0.9,0.1c-0.3,0.1-0.5,0.2-0.7,0.4
			s-0.4,0.3-0.6,0.5l-0.3-1c0.1-0.1,0.1-0.2,0.2-0.3c0.1-0.1,0.2-0.2,0.3-0.3c0.1-0.1,0.2-0.2,0.4-0.2c0.1-0.1,0.3-0.1,0.4-0.2
			c0.5-0.2,1-0.2,1.4-0.1c0.4,0.1,0.8,0.4,1.1,0.7c0.1,0.1,0.2,0.3,0.3,0.5c0.1,0.2,0.2,0.4,0.3,0.6l1.7,4.7l-0.7,0.3L113.1,59z
			 M112.2,56.7c-0.2,0-0.4,0-0.6,0c-0.2,0-0.5,0.1-0.7,0.2c-0.4,0.1-0.6,0.3-0.7,0.6c-0.1,0.3-0.1,0.6,0,1.1
			c0.1,0.2,0.2,0.4,0.3,0.5c0.1,0.1,0.2,0.3,0.4,0.3s0.3,0.1,0.4,0.1c0.1,0,0.3,0,0.4-0.1c0.2-0.1,0.3-0.2,0.5-0.3
			c0.1-0.1,0.2-0.3,0.3-0.4c0.1-0.1,0.2-0.3,0.2-0.4c0-0.1,0.1-0.2,0.1-0.3L112.2,56.7z"/>
		<path d="M112.7,50.3l-0.5-1.3l0.8-0.3l0.5,1.3L112.7,50.3z M115.8,58.9l-2.5-7l0.8-0.3l2.5,7L115.8,58.9z"/>
		<path d="M117,51.7L117,51.7c0.1-0.2,0.1-0.4,0.2-0.6c0.1-0.2,0.1-0.3,0.2-0.5c0.1-0.2,0.2-0.3,0.4-0.4c0.1-0.1,0.3-0.2,0.5-0.3
			c0.2-0.1,0.5-0.1,0.7-0.1c0.2,0,0.5,0.1,0.7,0.2c0.2,0.1,0.4,0.4,0.6,0.6c0.2,0.3,0.4,0.7,0.6,1.1l1.7,4.7l-0.8,0.3l-1.6-4.5
			c-0.2-0.6-0.5-1-0.7-1.2s-0.6-0.2-0.9-0.1c-0.3,0.1-0.5,0.3-0.7,0.6s-0.3,0.7-0.4,1.2l1.8,5l-0.8,0.3l-2.5-7l0.6-0.2L117,51.7z"/>
		<path d="M129.6,49.9c0.2,0.5,0.3,0.9,0.4,1.3c0.1,0.4,0.1,0.8,0.1,1.1c0,0.3-0.1,0.6-0.2,0.8s-0.2,0.5-0.3,0.6
			c-0.1,0.2-0.3,0.3-0.4,0.4s-0.3,0.2-0.5,0.3c-0.3,0.1-0.6,0.1-0.9,0.1c-0.3-0.1-0.6-0.2-0.8-0.4l0,0l1.5,4.1l-0.8,0.3l-3.8-10.4
			l0.6-0.2l0.5,0.7l0,0c0-0.1,0-0.2,0.1-0.4c0-0.1,0.1-0.3,0.2-0.4c0.1-0.1,0.2-0.3,0.3-0.4c0.1-0.1,0.3-0.2,0.5-0.3
			c0.3-0.1,0.6-0.1,0.9-0.1c0.3,0,0.6,0.2,0.9,0.4c0.3,0.2,0.6,0.5,0.9,0.9C129.1,48.7,129.4,49.2,129.6,49.9z M128.7,50.2
			c-0.1-0.4-0.3-0.8-0.5-1.1c-0.2-0.3-0.4-0.5-0.6-0.7c-0.2-0.2-0.4-0.3-0.7-0.4c-0.2-0.1-0.5,0-0.7,0c-0.2,0.1-0.3,0.2-0.4,0.3
			c-0.1,0.1-0.2,0.2-0.3,0.4c-0.1,0.1-0.1,0.3-0.2,0.4c0,0.1-0.1,0.3-0.1,0.4l1.3,3.7c0.3,0.2,0.5,0.3,0.8,0.4c0.3,0.1,0.5,0,0.8,0
			c0.2-0.1,0.3-0.2,0.5-0.3c0.1-0.1,0.3-0.3,0.3-0.6c0.1-0.3,0.1-0.6,0.1-1S128.9,50.8,128.7,50.2z"/>
		<path d="M135.5,47.8c0.2,0.5,0.3,1.1,0.4,1.6c0,0.5,0,0.9-0.1,1.3c-0.1,0.4-0.3,0.7-0.5,1c-0.2,0.3-0.5,0.5-0.9,0.6
			c-0.4,0.1-0.8,0.2-1.1,0.1c-0.4-0.1-0.7-0.2-1-0.5c-0.3-0.2-0.6-0.6-0.9-1s-0.5-0.9-0.7-1.4c-0.2-0.6-0.3-1.1-0.4-1.6
			c0-0.5,0-0.9,0.1-1.3c0.1-0.4,0.3-0.7,0.5-1c0.2-0.3,0.5-0.5,0.9-0.6c0.4-0.1,0.7-0.2,1.1-0.1c0.4,0.1,0.7,0.2,1,0.5
			c0.3,0.2,0.6,0.6,0.9,1S135.3,47.3,135.5,47.8z M134.6,48.2c-0.2-0.4-0.3-0.8-0.5-1.1c-0.2-0.3-0.4-0.6-0.6-0.7S133,46,132.8,46
			c-0.2-0.1-0.5,0-0.7,0c-0.2,0.1-0.4,0.2-0.6,0.4s-0.2,0.4-0.3,0.7c-0.1,0.3-0.1,0.6,0,1s0.1,0.8,0.3,1.2c0.2,0.4,0.3,0.8,0.5,1.1
			c0.2,0.3,0.4,0.6,0.6,0.7c0.2,0.2,0.5,0.3,0.7,0.3c0.2,0.1,0.5,0,0.7,0c0.2-0.1,0.4-0.2,0.6-0.4s0.2-0.4,0.3-0.7s0.1-0.6,0-1
			C134.9,49,134.8,48.6,134.6,48.2z"/>
		<path d="M140.2,50.3c-0.3,0.1-0.5,0.1-0.8,0.1c-0.2,0-0.5,0-0.7-0.1s-0.4-0.2-0.6-0.4c-0.2-0.2-0.3-0.3-0.5-0.6
			c-0.1-0.2-0.2-0.3-0.3-0.5c-0.1-0.2-0.2-0.4-0.3-0.7l-1.5-4.3l0.8-0.3l1.5,4.3c0.1,0.4,0.3,0.7,0.5,0.9c0.2,0.3,0.4,0.4,0.7,0.5
			c0.3,0.1,0.5,0.1,0.8,0c0.3-0.1,0.5-0.3,0.7-0.6c0.1-0.3,0.2-0.6,0.1-0.9c0-0.3-0.1-0.6-0.2-0.9l-1.5-4.3l0.8-0.3l1.5,4.3
			c0.1,0.2,0.2,0.5,0.2,0.7c0.1,0.2,0.1,0.4,0.1,0.6c0,0.3,0,0.5,0,0.8c0,0.2-0.1,0.5-0.2,0.7c-0.1,0.2-0.3,0.4-0.4,0.5
			S140.5,50.2,140.2,50.3z"/>
		<path d="M144.4,41.7L144.4,41.7c-0.3,0.1-0.4,0.2-0.6,0.3c-0.2,0.1-0.3,0.3-0.5,0.4c-0.1,0.2-0.2,0.3-0.3,0.5
			c-0.1,0.2-0.1,0.4-0.1,0.6l1.8,4.9l-0.8,0.3l-2.5-7l0.6-0.2l0.6,1.1l0,0c0-0.2,0.1-0.4,0.1-0.6c0.1-0.2,0.1-0.4,0.3-0.6
			c0.1-0.2,0.2-0.3,0.4-0.5s0.3-0.2,0.5-0.3c0,0,0.1,0,0.1,0c0,0,0.1,0,0.1,0L144.4,41.7z"/>
		<path d="M50.3,97.8c-0.2-0.5-0.3-0.9-0.4-1.3c-0.1-0.4-0.1-0.8-0.1-1.1c0-0.3,0.1-0.6,0.1-0.8c0.1-0.2,0.2-0.5,0.3-0.6
			c0.1-0.2,0.3-0.3,0.4-0.4c0.2-0.1,0.3-0.2,0.5-0.3c0.3-0.1,0.6-0.1,0.9-0.1c0.3,0.1,0.6,0.2,0.8,0.4l0,0l-1.6-4.3l0.8-0.3
			l3.8,10.6l-0.6,0.2L55,99.1l0,0c0,0.1-0.1,0.3-0.1,0.4c0,0.1-0.1,0.3-0.2,0.4s-0.2,0.3-0.3,0.4c-0.1,0.1-0.3,0.2-0.5,0.3
			c-0.3,0.1-0.6,0.1-0.9,0.1c-0.3,0-0.6-0.2-0.9-0.4c-0.3-0.2-0.6-0.5-0.9-0.9C50.8,99,50.6,98.4,50.3,97.8z M51.2,97.5
			c0.1,0.4,0.3,0.8,0.5,1.1c0.2,0.3,0.4,0.5,0.6,0.7c0.2,0.2,0.4,0.3,0.7,0.4c0.2,0.1,0.5,0,0.7,0c0.2-0.1,0.3-0.2,0.4-0.3
			c0.1-0.1,0.2-0.2,0.3-0.4c0.1-0.1,0.1-0.3,0.2-0.4c0-0.1,0.1-0.3,0.1-0.4l-1.3-3.7c-0.3-0.2-0.5-0.3-0.8-0.4c-0.3-0.1-0.5,0-0.8,0
			c-0.2,0.1-0.3,0.2-0.5,0.3c-0.1,0.1-0.3,0.3-0.3,0.6c-0.1,0.3-0.1,0.6-0.1,1C50.9,96.4,51,96.9,51.2,97.5z"/>
		<path d="M59.9,97.3c0.3-0.1,0.5-0.2,0.7-0.4s0.4-0.3,0.6-0.5l0.3,0.9c-0.1,0.2-0.3,0.4-0.6,0.5c-0.2,0.2-0.5,0.3-0.8,0.4
			c-0.4,0.1-0.7,0.2-1.1,0.2c-0.4,0-0.7-0.1-1.1-0.3c-0.3-0.2-0.7-0.5-1-0.9s-0.6-0.9-0.8-1.6c-0.2-0.6-0.4-1.2-0.4-1.7s0-1,0.1-1.4
			c0.1-0.4,0.3-0.7,0.5-1s0.5-0.4,0.8-0.6c0.3-0.1,0.6-0.1,0.9-0.1c0.3,0,0.6,0.2,0.9,0.4s0.6,0.5,0.8,0.9c0.3,0.4,0.5,0.9,0.7,1.5
			c0,0.1,0,0.1,0.1,0.2c0,0,0,0.1,0.1,0.3l-3.5,1.3c0.2,0.4,0.3,0.8,0.6,1.1c0.2,0.3,0.4,0.5,0.7,0.6c0.2,0.1,0.5,0.2,0.8,0.2
			C59.3,97.4,59.6,97.4,59.9,97.3z M57,87l0.1,2.9l-0.7,0.3l-0.3-2.8L57,87z M57.5,92.1c-0.2,0.1-0.4,0.2-0.5,0.3
			c-0.1,0.2-0.2,0.4-0.3,0.6c-0.1,0.2-0.1,0.5-0.1,0.7c0,0.3,0.1,0.5,0.1,0.8l2.6-0.9c-0.1-0.3-0.2-0.5-0.4-0.7
			c-0.1-0.2-0.3-0.4-0.5-0.5c-0.2-0.1-0.3-0.2-0.5-0.3C57.9,92,57.7,92,57.5,92.1z"/>
		<path d="M67.4,95.5l-0.8,0.3l-1.6-4.5c-0.1-0.3-0.2-0.6-0.4-0.7c-0.1-0.2-0.3-0.3-0.4-0.5c-0.1-0.1-0.3-0.2-0.4-0.2
			c-0.1,0-0.3,0-0.5,0.1c-0.3,0.1-0.5,0.3-0.7,0.6c-0.2,0.3-0.3,0.7-0.3,1.1l1.8,5L63.2,97l-2.5-7l0.6-0.2l0.5,0.9l0,0
			c0-0.2,0.1-0.4,0.1-0.6c0.1-0.2,0.1-0.3,0.2-0.5c0.1-0.2,0.2-0.3,0.4-0.4c0.1-0.1,0.3-0.2,0.5-0.3c0.4-0.1,0.7-0.1,1.1,0
			c0.3,0.2,0.7,0.4,0.9,0.8l0,0c0.1-0.5,0.2-1,0.4-1.3c0.2-0.4,0.5-0.6,0.9-0.7c0.2-0.1,0.4-0.1,0.6-0.1c0.2,0,0.5,0.1,0.7,0.2
			c0.2,0.1,0.5,0.3,0.7,0.6c0.2,0.3,0.4,0.7,0.6,1.2l1.7,4.7l-0.8,0.3l-1.6-4.5c-0.1-0.3-0.2-0.6-0.4-0.7c-0.1-0.2-0.3-0.3-0.4-0.5
			c-0.1-0.1-0.3-0.2-0.4-0.2s-0.3,0-0.5,0.1c-0.3,0.1-0.5,0.3-0.7,0.6c-0.2,0.3-0.3,0.7-0.3,1.1L67.4,95.5z"/>
		<path d="M75.1,91.8L75.1,91.8c0,0.1-0.1,0.3-0.2,0.5s-0.1,0.3-0.2,0.4c-0.1,0.1-0.2,0.3-0.4,0.4c-0.1,0.1-0.3,0.2-0.5,0.3
			c-0.2,0.1-0.5,0.1-0.7,0.1s-0.5-0.1-0.7-0.2c-0.2-0.1-0.4-0.3-0.6-0.6c-0.2-0.3-0.3-0.6-0.5-0.9c-0.1-0.3-0.2-0.7-0.2-1
			c0-0.3,0-0.6,0.1-0.8c0.1-0.2,0.2-0.5,0.4-0.7c0.2-0.2,0.4-0.3,0.7-0.4c0.3-0.1,0.5-0.1,0.8-0.2c0.2,0,0.5,0,0.7,0l0,0l-0.2-0.5
			c-0.1-0.2-0.1-0.4-0.2-0.5c-0.1-0.1-0.1-0.3-0.2-0.4c-0.2-0.2-0.4-0.3-0.7-0.4c-0.3-0.1-0.6-0.1-0.9,0.1c-0.3,0.1-0.5,0.2-0.7,0.4
			c-0.2,0.1-0.4,0.3-0.6,0.5l-0.3-1c0.1-0.1,0.1-0.2,0.2-0.3c0.1-0.1,0.2-0.2,0.3-0.3c0.1-0.1,0.2-0.2,0.4-0.2
			c0.1-0.1,0.3-0.1,0.4-0.2c0.5-0.2,1-0.2,1.4-0.1c0.4,0.1,0.8,0.4,1.1,0.7c0.1,0.1,0.2,0.3,0.3,0.5c0.1,0.2,0.2,0.4,0.3,0.6
			l1.7,4.7l-0.7,0.3L75.1,91.8z M74.2,89.6c-0.2,0-0.4,0-0.6,0c-0.2,0-0.5,0.1-0.7,0.2c-0.4,0.1-0.6,0.3-0.7,0.6
			c-0.1,0.3-0.1,0.6,0,1.1c0.1,0.2,0.2,0.4,0.3,0.5c0.1,0.1,0.2,0.3,0.4,0.3c0.1,0.1,0.3,0.1,0.4,0.1c0.1,0,0.3,0,0.4-0.1
			c0.2-0.1,0.3-0.2,0.5-0.3c0.1-0.1,0.2-0.3,0.3-0.4s0.2-0.3,0.2-0.4c0-0.1,0.1-0.2,0.1-0.3L74.2,89.6z"/>
		<path d="M78.4,84.7L78.4,84.7c-0.3,0.1-0.4,0.2-0.6,0.3s-0.3,0.3-0.5,0.4c-0.1,0.2-0.2,0.3-0.3,0.5c-0.1,0.2-0.1,0.4-0.1,0.6
			l1.8,4.9l-0.8,0.3l-2.5-7l0.6-0.2l0.6,1.1l0,0c0-0.2,0.1-0.4,0.1-0.6c0.1-0.2,0.1-0.4,0.3-0.6c0.1-0.2,0.2-0.3,0.4-0.5
			c0.2-0.1,0.3-0.2,0.5-0.3c0,0,0.1,0,0.1,0s0.1,0,0.1,0L78.4,84.7z"/>
		<path d="M82.1,83.3L82.1,83.3c-0.3,0.1-0.4,0.2-0.6,0.3c-0.2,0.1-0.3,0.3-0.5,0.4c-0.1,0.2-0.2,0.3-0.3,0.5
			c-0.1,0.2-0.1,0.4-0.1,0.6l1.8,4.9l-0.8,0.3l-2.5-7l0.6-0.2l0.6,1.1l0,0c0-0.2,0.1-0.4,0.1-0.6c0.1-0.2,0.1-0.4,0.3-0.6
			c0.1-0.2,0.2-0.3,0.4-0.5c0.2-0.1,0.3-0.2,0.5-0.3c0,0,0.1,0,0.1,0s0.1,0,0.1,0L82.1,83.3z"/>
		<path d="M87.3,87.4c0.3-0.1,0.5-0.2,0.7-0.4c0.2-0.1,0.4-0.3,0.6-0.5l0.3,0.9c-0.1,0.2-0.3,0.4-0.6,0.5c-0.2,0.2-0.5,0.3-0.8,0.4
			c-0.4,0.1-0.7,0.2-1.1,0.2c-0.4,0-0.7-0.1-1.1-0.3c-0.3-0.2-0.7-0.5-1-0.9s-0.6-0.9-0.8-1.6c-0.2-0.6-0.4-1.2-0.4-1.7
			c0-0.5,0-1,0.1-1.4c0.1-0.4,0.3-0.7,0.5-1c0.2-0.3,0.5-0.4,0.8-0.6c0.3-0.1,0.6-0.1,0.9-0.1c0.3,0,0.6,0.2,0.9,0.4
			c0.3,0.2,0.6,0.5,0.8,0.9c0.3,0.4,0.5,0.9,0.7,1.5c0,0.1,0,0.1,0.1,0.2c0,0,0,0.1,0.1,0.3l-3.5,1.3c0.2,0.4,0.3,0.8,0.6,1.1
			c0.2,0.3,0.4,0.5,0.7,0.6c0.2,0.1,0.5,0.2,0.8,0.2C86.7,87.5,87,87.5,87.3,87.4z M84.9,82.2c-0.2,0.1-0.4,0.2-0.5,0.3
			c-0.1,0.2-0.2,0.4-0.3,0.6s-0.1,0.5-0.1,0.7c0,0.3,0.1,0.5,0.1,0.8l2.6-0.9c-0.1-0.3-0.2-0.5-0.4-0.7s-0.3-0.4-0.5-0.5
			c-0.2-0.1-0.3-0.2-0.5-0.3C85.3,82.1,85.1,82.1,84.9,82.2z"/>
		<path d="M91.2,80L91.2,80c-0.3,0.1-0.4,0.2-0.6,0.3c-0.2,0.1-0.3,0.3-0.5,0.4c-0.1,0.2-0.2,0.3-0.3,0.5c-0.1,0.2-0.1,0.4-0.1,0.6
			l1.8,4.9l-0.8,0.3l-2.5-7l0.6-0.2l0.6,1.1l0,0c0-0.2,0.1-0.4,0.1-0.6c0.1-0.2,0.1-0.4,0.3-0.6c0.1-0.2,0.2-0.3,0.4-0.5
			c0.2-0.1,0.3-0.2,0.5-0.3c0,0,0.1,0,0.1,0s0.1,0,0.1,0L91.2,80z"/>
		<path d="M97.8,83.2c-0.1-0.6-0.1-1.3-0.2-2.1l-0.4-4.3l0.8-0.3l0.6,7.7l-0.9,0.3l-4.5-6.3l0.8-0.3l2.4,3.5
			C97.1,82.1,97.5,82.7,97.8,83.2L97.8,83.2z"/>
		<path d="M104.9,78c0.2,0.5,0.3,1.1,0.4,1.6s0,0.9-0.1,1.3c-0.1,0.4-0.3,0.7-0.5,1c-0.2,0.3-0.5,0.5-0.9,0.6
			c-0.4,0.1-0.8,0.2-1.1,0.1c-0.4-0.1-0.7-0.2-1-0.5c-0.3-0.2-0.6-0.6-0.9-1s-0.5-0.9-0.7-1.4c-0.2-0.6-0.3-1.1-0.4-1.6
			c0-0.5,0-0.9,0.1-1.3c0.1-0.4,0.3-0.7,0.5-1c0.2-0.3,0.5-0.5,0.9-0.6c0.4-0.1,0.7-0.2,1.1-0.1c0.4,0.1,0.7,0.2,1,0.5
			c0.3,0.2,0.6,0.6,0.9,1C104.5,77,104.7,77.5,104.9,78z M104,78.3c-0.2-0.4-0.3-0.8-0.5-1.1c-0.2-0.3-0.4-0.6-0.6-0.7
			c-0.2-0.2-0.4-0.3-0.7-0.4c-0.2-0.1-0.5,0-0.7,0c-0.2,0.1-0.4,0.2-0.6,0.4c-0.1,0.2-0.2,0.4-0.3,0.7c-0.1,0.3-0.1,0.6,0,1
			c0,0.4,0.1,0.8,0.3,1.2c0.2,0.4,0.3,0.8,0.5,1.1c0.2,0.3,0.4,0.6,0.6,0.7c0.2,0.2,0.5,0.3,0.7,0.3c0.2,0.1,0.5,0,0.7,0
			c0.2-0.1,0.4-0.2,0.6-0.4c0.1-0.2,0.2-0.4,0.3-0.7c0.1-0.3,0.1-0.6,0-1C104.3,79.1,104.2,78.8,104,78.3z"/>
		<path d="M110.2,80.1c-0.1,0.1-0.2,0.1-0.3,0.2c-0.1,0.1-0.3,0.2-0.5,0.2c-0.3,0.1-0.5,0.1-0.7,0.1c-0.2,0-0.4-0.1-0.6-0.2
			c-0.2-0.1-0.4-0.3-0.5-0.5s-0.3-0.5-0.4-0.8l-1.5-4.2l-1,0.4l-0.4-1l1-0.4l-0.7-1.9l0.8-0.3l0.7,1.9l1.5-0.6l0.4,1l-1.5,0.6
			l1.5,4.1c0.1,0.2,0.1,0.3,0.2,0.4c0.1,0.1,0.2,0.2,0.3,0.3c0.1,0.1,0.2,0.1,0.4,0.1c0.1,0,0.3,0,0.4-0.1c0.1,0,0.2-0.1,0.3-0.2
			c0.1-0.1,0.2-0.1,0.3-0.2L110.2,80.1z"/>
		<path d="M111.9,72.6L111.9,72.6c-0.3,0.1-0.4,0.2-0.6,0.3c-0.2,0.1-0.3,0.3-0.5,0.4c-0.1,0.2-0.2,0.3-0.3,0.5
			c-0.1,0.2-0.1,0.4-0.1,0.6l1.8,4.9l-0.8,0.3l-2.5-7l0.6-0.2l0.6,1.1l0,0c0-0.2,0.1-0.4,0.1-0.6c0.1-0.2,0.1-0.4,0.3-0.6
			c0.1-0.2,0.2-0.3,0.4-0.5c0.2-0.1,0.3-0.2,0.5-0.3c0,0,0.1,0,0.1,0c0,0,0.1,0,0.1,0L111.9,72.6z"/>
		<path d="M117.1,76.6c0.3-0.1,0.5-0.2,0.7-0.4c0.2-0.1,0.4-0.3,0.6-0.5l0.3,0.9c-0.1,0.2-0.3,0.4-0.6,0.5s-0.5,0.3-0.8,0.4
			c-0.4,0.1-0.7,0.2-1.1,0.2c-0.4,0-0.7-0.1-1.1-0.3c-0.3-0.2-0.7-0.5-1-0.9s-0.6-0.9-0.8-1.6c-0.2-0.6-0.4-1.2-0.4-1.7
			c0-0.5,0-1,0.1-1.4s0.3-0.7,0.5-1s0.5-0.4,0.8-0.6c0.3-0.1,0.6-0.1,0.9-0.1c0.3,0,0.6,0.2,0.9,0.4c0.3,0.2,0.6,0.5,0.8,0.9
			c0.3,0.4,0.5,0.9,0.7,1.5c0,0.1,0,0.1,0.1,0.2c0,0,0,0.1,0.1,0.3l-3.5,1.3c0.2,0.4,0.3,0.8,0.6,1.1c0.2,0.3,0.4,0.5,0.7,0.6
			c0.2,0.1,0.5,0.2,0.8,0.2C116.6,76.8,116.9,76.7,117.1,76.6z M114.8,71.4c-0.2,0.1-0.4,0.2-0.5,0.3c-0.1,0.2-0.2,0.4-0.3,0.6
			c-0.1,0.2-0.1,0.5-0.1,0.7c0,0.3,0.1,0.5,0.1,0.8l2.6-0.9c-0.1-0.3-0.2-0.5-0.4-0.7s-0.3-0.4-0.5-0.5c-0.2-0.1-0.3-0.2-0.5-0.3
			C115.1,71.3,115,71.3,114.8,71.4z"/>
		<path d="M119.6,66.9l-0.5-1.3l0.8-0.3l0.5,1.3L119.6,66.9z M122.7,75.5l-2.5-7l0.8-0.3l2.5,7L122.7,75.5z"/>
		<path d="M123.7,71.3c-0.2-0.5-0.3-0.9-0.4-1.3c-0.1-0.4-0.1-0.8-0.1-1.1c0-0.3,0.1-0.6,0.1-0.8c0.1-0.2,0.2-0.5,0.3-0.6
			c0.1-0.2,0.3-0.3,0.4-0.4c0.2-0.1,0.3-0.2,0.5-0.3c0.3-0.1,0.6-0.1,0.9-0.1c0.3,0.1,0.6,0.2,0.8,0.4l0,0l-1.6-4.3l0.8-0.3
			l3.8,10.6l-0.6,0.2l-0.5-0.7l0,0c0,0.1-0.1,0.3-0.1,0.4c0,0.1-0.1,0.3-0.2,0.4s-0.2,0.3-0.3,0.4c-0.1,0.1-0.3,0.2-0.5,0.3
			c-0.3,0.1-0.6,0.1-0.9,0.1c-0.3,0-0.6-0.2-0.9-0.4c-0.3-0.2-0.6-0.5-0.9-0.9C124.2,72.5,124,72,123.7,71.3z M124.6,71
			c0.1,0.4,0.3,0.8,0.5,1.1c0.2,0.3,0.4,0.5,0.6,0.7c0.2,0.2,0.4,0.3,0.7,0.4c0.2,0.1,0.5,0,0.7,0c0.2-0.1,0.3-0.2,0.4-0.3
			c0.1-0.1,0.2-0.2,0.3-0.4c0.1-0.1,0.1-0.3,0.2-0.4c0-0.1,0.1-0.3,0.1-0.4l-1.3-3.7c-0.3-0.2-0.5-0.3-0.8-0.4c-0.3-0.1-0.5,0-0.8,0
			c-0.2,0.1-0.3,0.2-0.5,0.3c-0.1,0.1-0.3,0.3-0.3,0.6c-0.1,0.3-0.1,0.6-0.1,1C124.3,70,124.4,70.4,124.6,71z"/>
		<path d="M133.3,70.8c0.3-0.1,0.5-0.2,0.7-0.4c0.2-0.1,0.4-0.3,0.6-0.5l0.3,0.9c-0.1,0.2-0.3,0.4-0.6,0.5c-0.2,0.2-0.5,0.3-0.8,0.4
			c-0.4,0.1-0.7,0.2-1.1,0.2c-0.4,0-0.7-0.1-1.1-0.3s-0.7-0.5-1-0.9c-0.3-0.4-0.6-0.9-0.8-1.6c-0.2-0.6-0.4-1.2-0.4-1.7
			c0-0.5,0-1,0.1-1.4c0.1-0.4,0.3-0.7,0.5-1s0.5-0.4,0.8-0.6c0.3-0.1,0.6-0.1,0.9-0.1c0.3,0,0.6,0.2,0.9,0.4
			c0.3,0.2,0.6,0.5,0.8,0.9c0.3,0.4,0.5,0.9,0.7,1.5c0,0.1,0,0.1,0.1,0.2c0,0,0,0.1,0.1,0.3l-3.5,1.3c0.2,0.4,0.3,0.8,0.6,1.1
			c0.2,0.3,0.4,0.5,0.7,0.6c0.2,0.1,0.5,0.2,0.8,0.2C132.8,70.9,133,70.9,133.3,70.8z M130.4,60.5l0.1,2.9l-0.7,0.3l-0.3-2.8
			L130.4,60.5z M130.9,65.6c-0.2,0.1-0.4,0.2-0.5,0.3c-0.1,0.2-0.2,0.4-0.3,0.6s-0.1,0.5-0.1,0.7c0,0.3,0.1,0.5,0.1,0.8l2.6-0.9
			c-0.1-0.3-0.2-0.5-0.4-0.7c-0.1-0.2-0.3-0.4-0.5-0.5s-0.3-0.2-0.5-0.3C131.3,65.5,131.1,65.5,130.9,65.6z"/>
		<path d="M138.8,68.8c0.3-0.1,0.5-0.2,0.7-0.4c0.2-0.1,0.4-0.3,0.6-0.5l0.3,0.9c-0.1,0.2-0.3,0.4-0.6,0.5c-0.2,0.2-0.5,0.3-0.8,0.4
			c-0.4,0.1-0.7,0.2-1.1,0.2c-0.4,0-0.7-0.1-1.1-0.3c-0.3-0.2-0.7-0.5-1-0.9s-0.6-0.9-0.8-1.6c-0.2-0.6-0.4-1.2-0.4-1.7
			c0-0.5,0-1,0.1-1.4c0.1-0.4,0.3-0.7,0.5-1s0.5-0.4,0.8-0.6c0.3-0.1,0.6-0.1,0.9-0.1c0.3,0,0.6,0.2,0.9,0.4s0.6,0.5,0.8,0.9
			c0.3,0.4,0.5,0.9,0.7,1.5c0,0.1,0,0.1,0.1,0.2c0,0,0,0.1,0.1,0.3l-3.5,1.3c0.2,0.4,0.3,0.8,0.6,1.1c0.2,0.3,0.4,0.5,0.7,0.6
			c0.2,0.1,0.5,0.2,0.8,0.2C138.2,69,138.5,68.9,138.8,68.8z M136.4,63.6c-0.2,0.1-0.4,0.2-0.5,0.3c-0.1,0.2-0.2,0.4-0.3,0.6
			c-0.1,0.2-0.1,0.5-0.1,0.7c0,0.3,0.1,0.5,0.1,0.8l2.6-0.9c-0.1-0.3-0.2-0.5-0.4-0.7c-0.1-0.2-0.3-0.4-0.5-0.5
			c-0.2-0.1-0.3-0.2-0.5-0.3C136.8,63.5,136.6,63.5,136.4,63.6z"/>
		<path d="M144.9,58.8c0.1,0.3,0.2,0.6,0.2,0.8c0,0.3,0,0.5,0,0.7s-0.1,0.4-0.2,0.6c-0.1,0.2-0.2,0.4-0.2,0.6
			c-0.1,0.2-0.1,0.3-0.2,0.5c-0.1,0.2-0.1,0.4-0.1,0.6c0,0.2,0,0.4,0,0.6c0,0.2,0.1,0.5,0.2,0.7l0,0.1l-0.7,0.3
			c-0.1-0.1-0.1-0.2-0.1-0.3c-0.1-0.3-0.2-0.6-0.2-0.9c0-0.3,0-0.6,0-0.8c0-0.3,0.1-0.5,0.2-0.7c0.1-0.2,0.2-0.4,0.3-0.6
			c0.1-0.1,0.1-0.3,0.2-0.4c0-0.1,0.1-0.3,0.1-0.4c0-0.1,0-0.3,0-0.5c0-0.2-0.1-0.3-0.1-0.5c-0.1-0.2-0.2-0.4-0.3-0.5
			c-0.1-0.1-0.3-0.3-0.4-0.3c-0.2-0.1-0.3-0.1-0.5-0.1c-0.2,0-0.4,0-0.6,0.1c-0.3,0.1-0.5,0.2-0.7,0.4s-0.4,0.4-0.6,0.6l-0.3-1
			c0.1-0.2,0.3-0.4,0.6-0.6c0.2-0.2,0.5-0.3,0.8-0.4c0.3-0.1,0.7-0.2,1-0.2s0.6,0.1,0.9,0.2c0.3,0.1,0.5,0.3,0.7,0.6
			C144.6,58.2,144.8,58.5,144.9,58.8z M144.7,67.6l-0.5-1.4l0.8-0.3l0.5,1.4L144.7,67.6z"/>
		<path d="M62.7,111.4c0.8,0.7,1.5,1.4,2.3,2.2l0,0c-0.4-0.9-0.8-1.9-1.1-2.9l-1.9-5.2l0.9-0.3l3.5,9.8l-0.9,0.3l-4.8-4.5
			c-0.8-0.8-1.6-1.5-2.3-2.2l0,0c0.4,0.9,0.8,1.9,1.2,3.1l1.8,5l-0.9,0.3l-3.5-9.8l0.9-0.3L62.7,111.4z"/>
		<path d="M64.9,104.4l0.9-0.3l0.4,4l-0.8,0.3L64.9,104.4z"/>
		<path d="M69.2,107.1L69.2,107.1c0.1-0.2,0.1-0.4,0.2-0.6c0.1-0.2,0.1-0.3,0.3-0.5s0.2-0.3,0.4-0.4c0.1-0.1,0.3-0.2,0.5-0.3
			c0.2-0.1,0.4-0.1,0.6-0.1c0.2,0,0.4,0.1,0.7,0.2s0.5,0.3,0.7,0.6c0.2,0.3,0.4,0.7,0.6,1.2l1.7,4.7l-0.8,0.3l-1.6-4.5
			c-0.2-0.6-0.4-1-0.7-1.2c-0.3-0.2-0.6-0.3-0.9-0.1c-0.3,0.1-0.5,0.3-0.7,0.6s-0.3,0.7-0.4,1.1l1.8,5l-0.8,0.3l-3.8-10.6l0.8-0.3
			L69.2,107.1z"/>
		<path d="M78.5,109.7c0.3-0.1,0.5-0.2,0.7-0.4c0.2-0.1,0.4-0.3,0.6-0.5l0.3,0.9c-0.1,0.2-0.3,0.4-0.6,0.5c-0.2,0.2-0.5,0.3-0.8,0.4
			c-0.4,0.1-0.7,0.2-1.1,0.2s-0.7-0.1-1.1-0.3s-0.7-0.5-1-0.9c-0.3-0.4-0.6-0.9-0.8-1.6c-0.2-0.6-0.4-1.2-0.4-1.7c0-0.5,0-1,0.1-1.4
			c0.1-0.4,0.3-0.7,0.5-1s0.5-0.4,0.8-0.6c0.3-0.1,0.6-0.1,0.9-0.1c0.3,0,0.6,0.2,0.9,0.4c0.3,0.2,0.6,0.5,0.8,0.9
			c0.3,0.4,0.5,0.9,0.7,1.5c0,0.1,0,0.1,0.1,0.2c0,0,0,0.1,0.1,0.3l-3.5,1.3c0.2,0.4,0.3,0.8,0.6,1.1c0.2,0.3,0.4,0.5,0.7,0.6
			c0.2,0.1,0.5,0.2,0.8,0.2C78,109.8,78.3,109.8,78.5,109.7z M75.7,99.4l0.1,2.9l-0.7,0.3l-0.3-2.8L75.7,99.4z M76.1,104.5
			c-0.2,0.1-0.4,0.2-0.5,0.3c-0.1,0.2-0.2,0.4-0.3,0.6c-0.1,0.2-0.1,0.5-0.1,0.7c0,0.3,0.1,0.5,0.1,0.8L78,106
			c-0.1-0.3-0.2-0.5-0.4-0.7c-0.1-0.2-0.3-0.4-0.5-0.5c-0.2-0.1-0.3-0.2-0.5-0.3C76.5,104.4,76.3,104.4,76.1,104.5z"/>
		<path d="M80.6,104.1c0.1,0.2,0.2,0.3,0.3,0.4c0.1,0.1,0.2,0.2,0.3,0.2c0.1,0,0.3,0.1,0.4,0.1c0.1,0,0.3,0,0.5,0c0.2,0,0.4,0,0.6,0
			s0.4,0.1,0.6,0.1c0.2,0.1,0.4,0.2,0.6,0.5c0.2,0.2,0.3,0.5,0.5,0.9c0.1,0.4,0.2,0.7,0.2,1c0,0.3-0.1,0.6-0.2,0.8
			c-0.1,0.3-0.3,0.5-0.5,0.7c-0.2,0.2-0.5,0.3-0.8,0.4c-0.2,0.1-0.4,0.1-0.5,0.1s-0.3,0-0.4,0c-0.1,0-0.2,0-0.3,0
			c-0.1,0-0.2,0-0.2-0.1l-0.3-1c0.3,0,0.5,0.1,0.7,0.1c0.2,0,0.5-0.1,0.7-0.1c0.2-0.1,0.4-0.2,0.5-0.3c0.1-0.1,0.3-0.2,0.3-0.4
			c0.1-0.1,0.1-0.3,0.1-0.5c0-0.2,0-0.3-0.1-0.5c-0.1-0.2-0.2-0.3-0.3-0.5c-0.1-0.1-0.2-0.2-0.3-0.2s-0.3-0.1-0.4-0.1s-0.3,0-0.4,0
			c-0.2,0-0.4,0-0.6,0c-0.2,0-0.4,0-0.6-0.1c-0.2-0.1-0.4-0.2-0.6-0.4c-0.2-0.2-0.3-0.5-0.5-0.8c-0.1-0.4-0.2-0.7-0.2-1
			c0-0.3,0.1-0.6,0.2-0.8c0.1-0.2,0.2-0.4,0.4-0.6c0.2-0.2,0.4-0.3,0.6-0.4c0.3-0.1,0.6-0.2,0.8-0.2c0.3,0,0.5,0,0.8,0l0.3,1
			c-0.3,0-0.5-0.1-0.7,0c-0.2,0-0.5,0-0.7,0.1c-0.2,0.1-0.3,0.2-0.5,0.3c-0.1,0.1-0.2,0.2-0.3,0.3c-0.1,0.1-0.1,0.3-0.1,0.4
			C80.5,103.8,80.6,103.9,80.6,104.1z"/>
		<path d="M83.2,99.2l-0.5-1.3l0.8-0.3l0.5,1.3L83.2,99.2z M86.4,107.8l-2.5-7l0.8-0.3l2.5,7L86.4,107.8z"/>
		<path d="M91.6,105.9c-0.1,0.1-0.2,0.1-0.3,0.2c-0.1,0.1-0.3,0.2-0.5,0.2c-0.3,0.1-0.5,0.1-0.7,0.1c-0.2,0-0.4-0.1-0.6-0.2
			c-0.2-0.1-0.4-0.3-0.5-0.5c-0.2-0.2-0.3-0.5-0.4-0.8l-1.5-4.2l-1,0.4l-0.4-1l1-0.4l-0.7-1.9l0.8-0.3l0.7,1.9l1.5-0.6l0.4,1
			l-1.5,0.6l1.5,4.1c0.1,0.2,0.1,0.3,0.2,0.4c0.1,0.1,0.2,0.2,0.3,0.3c0.1,0.1,0.2,0.1,0.4,0.1c0.1,0,0.3,0,0.4-0.1
			c0.1,0,0.2-0.1,0.3-0.2c0.1-0.1,0.2-0.1,0.3-0.2L91.6,105.9z"/>
		<path d="M94.8,103.8c0.3-0.1,0.5-0.2,0.7-0.4c0.2-0.1,0.4-0.3,0.6-0.5l0.3,0.9c-0.1,0.2-0.3,0.4-0.6,0.5c-0.2,0.2-0.5,0.3-0.8,0.4
			c-0.4,0.1-0.7,0.2-1.1,0.2c-0.4,0-0.7-0.1-1.1-0.3c-0.3-0.2-0.7-0.5-1-0.9c-0.3-0.4-0.6-0.9-0.8-1.6c-0.2-0.6-0.4-1.2-0.4-1.7
			c0-0.5,0-1,0.1-1.4c0.1-0.4,0.3-0.7,0.5-1s0.5-0.4,0.8-0.6c0.3-0.1,0.6-0.1,0.9-0.1c0.3,0,0.6,0.2,0.9,0.4
			c0.3,0.2,0.6,0.5,0.8,0.9c0.3,0.4,0.5,0.9,0.7,1.5c0,0.1,0,0.1,0.1,0.2c0,0,0,0.1,0.1,0.3l-3.5,1.3c0.2,0.4,0.3,0.8,0.6,1.1
			c0.2,0.3,0.4,0.5,0.7,0.6c0.2,0.1,0.5,0.2,0.8,0.2C94.3,103.9,94.6,103.9,94.8,103.8z M92.5,98.6c-0.2,0.1-0.4,0.2-0.5,0.3
			c-0.1,0.2-0.2,0.4-0.3,0.6c-0.1,0.2-0.1,0.5-0.1,0.7c0,0.3,0.1,0.5,0.1,0.8l2.6-0.9c-0.1-0.3-0.2-0.5-0.4-0.7
			c-0.1-0.2-0.3-0.4-0.5-0.5c-0.2-0.1-0.3-0.2-0.5-0.3C92.8,98.5,92.7,98.5,92.5,98.6z"/>
		<path d="M98.5,96.6L98.5,96.6l-2.8,1l-0.4-1l3.9-1.4l0.3,0.7l-0.9,6.3l0,0l3-1.1l0.4,1l-4.1,1.5l-0.2-0.6L98.5,96.6z"/>
		<path d="M108.5,95.7c0.2,0.5,0.3,0.9,0.4,1.3c0.1,0.4,0.1,0.8,0.1,1.1c0,0.3-0.1,0.6-0.2,0.8c-0.1,0.2-0.2,0.5-0.3,0.6
			c-0.1,0.2-0.3,0.3-0.4,0.4c-0.2,0.1-0.3,0.2-0.5,0.3c-0.3,0.1-0.6,0.1-0.9,0.1s-0.6-0.2-0.8-0.4l0,0l1.5,4.1l-0.8,0.3L102.8,94
			l0.6-0.2l0.5,0.7l0,0c0-0.1,0-0.2,0.1-0.4s0.1-0.3,0.2-0.4s0.2-0.3,0.3-0.4s0.3-0.2,0.5-0.3c0.3-0.1,0.6-0.1,0.9-0.1
			c0.3,0,0.6,0.2,0.9,0.4c0.3,0.2,0.6,0.5,0.9,0.9S108.3,95.1,108.5,95.7z M107.7,96.1c-0.1-0.4-0.3-0.8-0.5-1.1
			c-0.2-0.3-0.4-0.5-0.6-0.7c-0.2-0.2-0.4-0.3-0.7-0.4s-0.5,0-0.7,0c-0.2,0.1-0.3,0.2-0.4,0.3c-0.1,0.1-0.2,0.2-0.3,0.4
			c-0.1,0.1-0.1,0.3-0.2,0.4c0,0.1-0.1,0.3-0.1,0.4l1.3,3.7c0.3,0.2,0.5,0.3,0.8,0.4c0.3,0.1,0.5,0,0.8,0c0.2-0.1,0.3-0.2,0.5-0.3
			c0.1-0.1,0.3-0.3,0.3-0.6c0.1-0.3,0.1-0.6,0.1-1C108,97.1,107.9,96.6,107.7,96.1z"/>
		<path d="M113.8,97L113.8,97c0,0.1-0.1,0.3-0.2,0.4c-0.1,0.2-0.1,0.3-0.2,0.4c-0.1,0.1-0.2,0.3-0.4,0.4c-0.1,0.1-0.3,0.2-0.5,0.3
			c-0.2,0.1-0.5,0.1-0.7,0.1s-0.5-0.1-0.7-0.2c-0.2-0.1-0.4-0.3-0.6-0.6c-0.2-0.2-0.3-0.6-0.5-0.9c-0.1-0.3-0.2-0.7-0.2-1
			c0-0.3,0-0.6,0.1-0.8c0.1-0.2,0.2-0.5,0.4-0.7c0.2-0.2,0.4-0.3,0.7-0.4c0.3-0.1,0.5-0.1,0.8-0.2c0.2,0,0.5,0,0.7,0l0,0l-0.2-0.5
			c-0.1-0.2-0.1-0.4-0.2-0.5c-0.1-0.1-0.1-0.3-0.2-0.4c-0.2-0.2-0.4-0.3-0.7-0.4c-0.3-0.1-0.6-0.1-0.9,0.1c-0.3,0.1-0.5,0.2-0.7,0.4
			s-0.4,0.3-0.6,0.5l-0.3-1c0.1-0.1,0.1-0.2,0.2-0.3c0.1-0.1,0.2-0.2,0.3-0.3c0.1-0.1,0.2-0.2,0.4-0.2c0.1-0.1,0.3-0.1,0.4-0.2
			c0.5-0.2,1-0.2,1.4-0.1c0.4,0.1,0.8,0.4,1.1,0.7c0.1,0.1,0.2,0.3,0.3,0.5c0.1,0.2,0.2,0.4,0.3,0.6l1.7,4.7l-0.7,0.3L113.8,97z
			 M113,94.7c-0.2,0-0.4,0-0.6,0c-0.2,0-0.5,0.1-0.7,0.2c-0.4,0.1-0.6,0.3-0.7,0.6c-0.1,0.3-0.1,0.6,0,1.1c0.1,0.2,0.2,0.4,0.3,0.5
			c0.1,0.1,0.2,0.3,0.4,0.3c0.1,0.1,0.3,0.1,0.4,0.1c0.1,0,0.3,0,0.4-0.1c0.2-0.1,0.3-0.2,0.5-0.3c0.1-0.1,0.2-0.3,0.3-0.4
			c0.1-0.1,0.2-0.3,0.2-0.4c0-0.1,0.1-0.2,0.1-0.3L113,94.7z"/>
		<path d="M115.3,91.6c0.1,0.2,0.2,0.3,0.3,0.4c0.1,0.1,0.2,0.2,0.3,0.2c0.1,0,0.3,0.1,0.4,0.1c0.1,0,0.3,0,0.5,0c0.2,0,0.4,0,0.6,0
			c0.2,0,0.4,0.1,0.6,0.1c0.2,0.1,0.4,0.2,0.6,0.5c0.2,0.2,0.3,0.5,0.5,0.9c0.1,0.4,0.2,0.7,0.2,1c0,0.3-0.1,0.6-0.2,0.8
			c-0.1,0.3-0.3,0.5-0.5,0.7c-0.2,0.2-0.5,0.3-0.8,0.4c-0.2,0.1-0.4,0.1-0.5,0.1c-0.2,0-0.3,0-0.4,0c-0.1,0-0.2,0-0.3,0
			c-0.1,0-0.2,0-0.2,0l-0.3-1c0.3,0,0.5,0.1,0.7,0.1c0.2,0,0.5-0.1,0.7-0.1c0.2-0.1,0.4-0.2,0.5-0.3c0.1-0.1,0.3-0.2,0.3-0.4
			s0.1-0.3,0.1-0.5s0-0.3-0.1-0.5c-0.1-0.2-0.2-0.3-0.3-0.5c-0.1-0.1-0.2-0.2-0.3-0.2c-0.1,0-0.3-0.1-0.4-0.1c-0.1,0-0.3,0-0.4,0
			c-0.2,0-0.4,0-0.6,0c-0.2,0-0.4,0-0.6-0.1c-0.2-0.1-0.4-0.2-0.6-0.4s-0.3-0.5-0.5-0.8c-0.1-0.4-0.2-0.7-0.2-1
			c0-0.3,0.1-0.6,0.2-0.8c0.1-0.2,0.2-0.4,0.4-0.6c0.2-0.2,0.4-0.3,0.6-0.4c0.3-0.1,0.6-0.2,0.8-0.2c0.3,0,0.5,0,0.8,0l0.3,1
			c-0.3,0-0.5-0.1-0.7,0c-0.2,0-0.5,0-0.7,0.1c-0.2,0.1-0.3,0.2-0.5,0.3s-0.2,0.2-0.3,0.3s-0.1,0.3-0.1,0.4
			C115.2,91.2,115.2,91.4,115.3,91.6z"/>
		<path d="M120.9,83.1l1.6,2.3l-0.7,0.3l-1.8-2.3L120.9,83.1z M125.9,92.6L125.9,92.6c0,0.1-0.1,0.3-0.2,0.4
			c-0.1,0.2-0.1,0.3-0.2,0.4c-0.1,0.1-0.2,0.3-0.4,0.4c-0.1,0.1-0.3,0.2-0.5,0.3c-0.2,0.1-0.5,0.1-0.7,0.1c-0.2,0-0.5-0.1-0.7-0.2
			c-0.2-0.1-0.4-0.3-0.6-0.6c-0.2-0.2-0.3-0.6-0.5-0.9c-0.1-0.3-0.2-0.7-0.2-1c0-0.3,0-0.6,0.1-0.8c0.1-0.3,0.2-0.5,0.4-0.7
			c0.2-0.2,0.4-0.3,0.7-0.4c0.3-0.1,0.5-0.1,0.8-0.2c0.2,0,0.5,0,0.7,0l0,0l-0.2-0.5c-0.1-0.2-0.1-0.4-0.2-0.5
			c-0.1-0.1-0.1-0.3-0.2-0.4c-0.2-0.2-0.4-0.3-0.7-0.4c-0.3-0.1-0.6-0.1-0.9,0.1c-0.3,0.1-0.5,0.2-0.7,0.4c-0.2,0.1-0.4,0.3-0.6,0.5
			l-0.3-1c0.1-0.1,0.1-0.2,0.2-0.3s0.2-0.2,0.3-0.3c0.1-0.1,0.2-0.2,0.4-0.2c0.1-0.1,0.3-0.1,0.4-0.2c0.5-0.2,1-0.2,1.4-0.1
			c0.4,0.1,0.8,0.4,1.1,0.7c0.1,0.1,0.2,0.3,0.3,0.5c0.1,0.2,0.2,0.4,0.3,0.6l1.7,4.7l-0.7,0.3L125.9,92.6z M125,90.4
			c-0.2,0-0.4,0-0.6,0c-0.2,0-0.5,0.1-0.7,0.2c-0.4,0.1-0.6,0.3-0.7,0.6c-0.1,0.3-0.1,0.6,0,1.1c0.1,0.2,0.2,0.4,0.3,0.5
			c0.1,0.1,0.2,0.3,0.4,0.3c0.1,0.1,0.3,0.1,0.4,0.1c0.1,0,0.3,0,0.4-0.1c0.2-0.1,0.3-0.2,0.5-0.3c0.1-0.1,0.2-0.3,0.3-0.4
			c0.1-0.1,0.2-0.3,0.2-0.4c0-0.1,0.1-0.2,0.1-0.3L125,90.4z"/>
		<path d="M129.4,85.4L129.4,85.4c0.1-0.2,0.1-0.4,0.2-0.6c0.1-0.2,0.1-0.3,0.2-0.5c0.1-0.2,0.2-0.3,0.4-0.4
			c0.1-0.1,0.3-0.2,0.5-0.3c0.2-0.1,0.5-0.1,0.7-0.1s0.5,0.1,0.7,0.2c0.2,0.1,0.4,0.4,0.6,0.6s0.4,0.7,0.6,1.1l1.7,4.7l-0.8,0.3
			l-1.6-4.5c-0.2-0.6-0.5-1-0.7-1.2s-0.6-0.2-0.9-0.1c-0.3,0.1-0.5,0.3-0.7,0.6c-0.2,0.3-0.3,0.7-0.4,1.2l1.8,5l-0.8,0.3l-2.5-7
			l0.6-0.2L129.4,85.4z"/>
		<path d="M139.9,84.5c0.2,0.5,0.3,1.1,0.4,1.6c0,0.5,0,0.9-0.1,1.3c-0.1,0.4-0.3,0.7-0.5,1s-0.5,0.5-0.9,0.6
			c-0.4,0.1-0.8,0.2-1.1,0.1s-0.7-0.2-1-0.5c-0.3-0.2-0.6-0.6-0.9-1c-0.3-0.4-0.5-0.9-0.7-1.4c-0.2-0.6-0.3-1.1-0.4-1.6
			c0-0.5,0-0.9,0.1-1.3c0.1-0.4,0.3-0.7,0.5-1c0.2-0.3,0.5-0.5,0.9-0.6c0.4-0.1,0.7-0.2,1.1-0.1c0.4,0.1,0.7,0.2,1,0.5
			c0.3,0.2,0.6,0.6,0.9,1C139.5,83.5,139.7,84,139.9,84.5z M139,84.8c-0.2-0.4-0.3-0.8-0.5-1.1s-0.4-0.6-0.6-0.7
			c-0.2-0.2-0.4-0.3-0.7-0.4s-0.5,0-0.7,0c-0.2,0.1-0.4,0.2-0.6,0.4s-0.2,0.4-0.3,0.7s-0.1,0.6,0,1s0.1,0.8,0.3,1.2
			c0.2,0.4,0.3,0.8,0.5,1.1c0.2,0.3,0.4,0.6,0.6,0.7c0.2,0.2,0.5,0.3,0.7,0.3s0.5,0,0.7,0c0.2-0.1,0.4-0.2,0.6-0.4
			c0.1-0.2,0.2-0.4,0.3-0.7c0.1-0.3,0.1-0.6,0-1S139.2,85.3,139,84.8z"/>
		<path d="M144.6,87c-0.3,0.1-0.5,0.1-0.8,0.1c-0.2,0-0.5,0-0.7-0.1c-0.2-0.1-0.4-0.2-0.6-0.4c-0.2-0.2-0.3-0.3-0.5-0.6
			c-0.1-0.2-0.2-0.3-0.3-0.5c-0.1-0.2-0.2-0.4-0.3-0.7l-1.5-4.3l0.8-0.3l1.5,4.3c0.1,0.4,0.3,0.7,0.5,0.9c0.2,0.3,0.4,0.4,0.7,0.5
			c0.3,0.1,0.5,0.1,0.8,0c0.3-0.1,0.5-0.3,0.7-0.6s0.2-0.6,0.1-0.9c0-0.3-0.1-0.6-0.2-0.9l-1.5-4.3l0.8-0.3l1.5,4.3
			c0.1,0.2,0.2,0.5,0.2,0.7c0.1,0.2,0.1,0.4,0.1,0.6c0,0.3,0,0.5,0,0.8c0,0.2-0.1,0.5-0.2,0.7c-0.1,0.2-0.3,0.4-0.4,0.5
			C145.1,86.8,144.9,86.9,144.6,87z"/>
		<path d="M146.9,80.1c0.1,0.2,0.2,0.3,0.3,0.4c0.1,0.1,0.2,0.2,0.3,0.2c0.1,0,0.3,0.1,0.4,0.1c0.1,0,0.3,0,0.5,0c0.2,0,0.4,0,0.6,0
			c0.2,0,0.4,0.1,0.6,0.1c0.2,0.1,0.4,0.2,0.6,0.5c0.2,0.2,0.3,0.5,0.5,0.9c0.1,0.4,0.2,0.7,0.2,1c0,0.3-0.1,0.6-0.2,0.8
			c-0.1,0.3-0.3,0.5-0.5,0.7c-0.2,0.2-0.5,0.3-0.8,0.4c-0.2,0.1-0.4,0.1-0.5,0.1s-0.3,0-0.4,0c-0.1,0-0.2,0-0.3,0
			c-0.1,0-0.2,0-0.2-0.1l-0.3-1c0.3,0,0.5,0.1,0.7,0.1c0.2,0,0.5-0.1,0.7-0.1c0.2-0.1,0.4-0.2,0.5-0.3c0.1-0.1,0.3-0.2,0.3-0.4
			c0.1-0.1,0.1-0.3,0.1-0.5c0-0.2,0-0.3-0.1-0.5c-0.1-0.2-0.2-0.3-0.3-0.5c-0.1-0.1-0.2-0.2-0.3-0.2c-0.1,0-0.3-0.1-0.4-0.1
			c-0.1,0-0.3,0-0.4,0c-0.2,0-0.4,0-0.6,0c-0.2,0-0.4,0-0.6-0.1c-0.2-0.1-0.4-0.2-0.6-0.4c-0.2-0.2-0.3-0.5-0.5-0.8
			c-0.1-0.4-0.2-0.7-0.2-1s0-0.6,0.2-0.8c0.1-0.2,0.2-0.4,0.4-0.6c0.2-0.2,0.4-0.3,0.6-0.4c0.3-0.1,0.6-0.2,0.8-0.2
			c0.3,0,0.5,0,0.8,0l0.3,1c-0.3,0-0.5-0.1-0.7,0c-0.2,0-0.5,0-0.7,0.1c-0.2,0.1-0.3,0.2-0.5,0.3c-0.1,0.1-0.2,0.2-0.3,0.3
			c-0.1,0.1-0.1,0.3-0.1,0.4C146.8,79.8,146.9,80,146.9,80.1z"/>
		<path d="M90.1,117.5c0.2-0.1,0.5-0.1,0.7-0.1c0.3,0,0.5,0,0.7,0.1l0.3,0.9c-0.3,0-0.5,0-0.7,0c-0.2,0-0.4,0.1-0.6,0.1
			c-0.2,0.1-0.4,0.2-0.6,0.4c-0.2,0.2-0.3,0.4-0.4,0.7c-0.1,0.3-0.1,0.6-0.1,1c0,0.4,0.1,0.8,0.3,1.4c0.1,0.4,0.3,0.7,0.5,1
			c0.2,0.3,0.4,0.5,0.6,0.7c0.2,0.2,0.5,0.3,0.7,0.3c0.3,0.1,0.5,0,0.8-0.1c0.2-0.1,0.4-0.2,0.6-0.3s0.4-0.3,0.5-0.5l0.3,0.9
			c0,0.1-0.1,0.2-0.2,0.2c-0.1,0.1-0.2,0.2-0.3,0.2c-0.1,0.1-0.2,0.2-0.3,0.2s-0.3,0.1-0.4,0.2c-0.3,0.1-0.7,0.2-1.1,0.1
			c-0.4,0-0.7-0.2-1-0.4s-0.7-0.5-0.9-0.9s-0.6-0.9-0.8-1.5c-0.2-0.5-0.3-0.9-0.3-1.3c-0.1-0.4-0.1-0.8-0.1-1.1s0.1-0.6,0.2-0.9
			c0.1-0.3,0.2-0.5,0.3-0.7c0.1-0.2,0.3-0.4,0.5-0.5C89.7,117.6,89.9,117.5,90.1,117.5z"/>
		<path d="M98.6,118.5c0.2,0.5,0.3,1.1,0.4,1.6c0,0.5,0,0.9-0.1,1.3c-0.1,0.4-0.3,0.7-0.5,1c-0.2,0.3-0.5,0.5-0.9,0.6
			c-0.4,0.1-0.8,0.2-1.1,0.1c-0.4-0.1-0.7-0.2-1-0.5c-0.3-0.2-0.6-0.6-0.9-1s-0.5-0.9-0.7-1.4c-0.2-0.6-0.3-1.1-0.4-1.6
			s0-0.9,0.1-1.3c0.1-0.4,0.3-0.7,0.5-1c0.2-0.3,0.5-0.5,0.9-0.6c0.4-0.1,0.7-0.2,1.1-0.1c0.4,0.1,0.7,0.2,1,0.5
			c0.3,0.2,0.6,0.6,0.9,1S98.4,118,98.6,118.5z M97.8,118.9c-0.2-0.4-0.3-0.8-0.5-1.1s-0.4-0.6-0.6-0.7c-0.2-0.2-0.4-0.3-0.7-0.4
			c-0.2-0.1-0.5,0-0.7,0c-0.2,0.1-0.4,0.2-0.6,0.4c-0.1,0.2-0.2,0.4-0.3,0.7c-0.1,0.3-0.1,0.6,0,1c0,0.4,0.1,0.8,0.3,1.2
			c0.2,0.4,0.3,0.8,0.5,1.1c0.2,0.3,0.4,0.6,0.6,0.7c0.2,0.2,0.5,0.3,0.7,0.3c0.2,0.1,0.5,0,0.7,0c0.2-0.1,0.4-0.2,0.6-0.4
			c0.1-0.2,0.2-0.4,0.3-0.7c0.1-0.3,0.1-0.6,0-1C98,119.7,97.9,119.3,97.8,118.9z"/>
		<path d="M99.8,115.3L99.8,115.3c0.1-0.2,0.1-0.4,0.2-0.6c0.1-0.2,0.1-0.3,0.2-0.5c0.1-0.2,0.2-0.3,0.4-0.4
			c0.1-0.1,0.3-0.2,0.5-0.3c0.2-0.1,0.5-0.1,0.7-0.1c0.2,0,0.5,0.1,0.7,0.2c0.2,0.1,0.4,0.4,0.6,0.6c0.2,0.3,0.4,0.7,0.6,1.1
			l1.7,4.7l-0.8,0.3l-1.6-4.5c-0.2-0.6-0.5-1-0.7-1.2c-0.3-0.2-0.6-0.2-0.9-0.1c-0.3,0.1-0.5,0.3-0.7,0.6c-0.2,0.3-0.3,0.7-0.4,1.2
			l1.8,5l-0.8,0.3l-2.5-7l0.6-0.2L99.8,115.3z"/>
		<path d="M109.7,118.5c-0.1,0.1-0.2,0.1-0.3,0.2c-0.1,0.1-0.3,0.2-0.5,0.2c-0.3,0.1-0.5,0.1-0.7,0.1c-0.2,0-0.4-0.1-0.6-0.2
			c-0.2-0.1-0.4-0.3-0.5-0.5c-0.2-0.2-0.3-0.5-0.4-0.8l-1.5-4.2l-1,0.4l-0.4-1l1-0.4l-0.7-1.9l0.8-0.3l0.7,1.9l1.5-0.6l0.4,1
			l-1.5,0.6l1.5,4.1c0.1,0.2,0.1,0.3,0.2,0.4c0.1,0.1,0.2,0.2,0.3,0.3c0.1,0.1,0.2,0.1,0.4,0.1c0.1,0,0.3,0,0.4-0.1
			c0.1,0,0.2-0.1,0.3-0.2c0.1-0.1,0.2-0.1,0.3-0.2L109.7,118.5z"/>
		<path d="M113.6,116.2L113.6,116.2c0,0.1-0.1,0.3-0.2,0.4c-0.1,0.2-0.1,0.3-0.2,0.4c-0.1,0.1-0.2,0.3-0.4,0.4
			c-0.1,0.1-0.3,0.2-0.5,0.3c-0.2,0.1-0.5,0.1-0.7,0.1c-0.2,0-0.5-0.1-0.7-0.2c-0.2-0.1-0.4-0.3-0.6-0.6c-0.2-0.2-0.3-0.6-0.5-0.9
			c-0.1-0.3-0.2-0.7-0.2-1c0-0.3,0-0.6,0.1-0.8c0.1-0.3,0.2-0.5,0.4-0.7c0.2-0.2,0.4-0.3,0.7-0.4c0.3-0.1,0.5-0.1,0.8-0.2
			c0.2,0,0.5,0,0.7,0l0,0l-0.2-0.5c-0.1-0.2-0.1-0.4-0.2-0.5c-0.1-0.1-0.1-0.3-0.2-0.4c-0.2-0.2-0.4-0.3-0.7-0.4
			c-0.3-0.1-0.6-0.1-0.9,0.1c-0.3,0.1-0.5,0.2-0.7,0.4c-0.2,0.1-0.4,0.3-0.6,0.5l-0.3-1c0.1-0.1,0.1-0.2,0.2-0.3
			c0.1-0.1,0.2-0.2,0.3-0.3c0.1-0.1,0.2-0.2,0.4-0.2c0.1-0.1,0.3-0.1,0.4-0.2c0.5-0.2,1-0.2,1.4-0.1c0.4,0.1,0.8,0.4,1.1,0.7
			c0.1,0.1,0.2,0.3,0.3,0.5s0.2,0.4,0.3,0.6l1.7,4.7l-0.7,0.3L113.6,116.2z M112.7,114c-0.2,0-0.4,0-0.6,0c-0.2,0-0.5,0.1-0.7,0.2
			c-0.4,0.1-0.6,0.3-0.7,0.6c-0.1,0.3-0.1,0.6,0,1.1c0.1,0.2,0.2,0.4,0.3,0.5c0.1,0.1,0.2,0.3,0.4,0.3c0.1,0.1,0.3,0.1,0.4,0.1
			c0.1,0,0.3,0,0.4-0.1c0.2-0.1,0.3-0.2,0.5-0.3c0.1-0.1,0.2-0.3,0.3-0.4c0.1-0.1,0.2-0.3,0.2-0.4c0-0.1,0.1-0.2,0.1-0.3L112.7,114z
			"/>
		<path d="M115.9,108.2c0.2-0.1,0.5-0.1,0.7-0.2c0.3,0,0.5,0,0.7,0.1l0.3,0.9c-0.3,0-0.5,0-0.7,0c-0.2,0-0.4,0.1-0.6,0.1
			c-0.2,0.1-0.4,0.2-0.6,0.4c-0.2,0.2-0.3,0.4-0.4,0.7c-0.1,0.3-0.1,0.6-0.1,1c0,0.4,0.1,0.8,0.3,1.4c0.1,0.4,0.3,0.7,0.5,1
			s0.4,0.5,0.6,0.7c0.2,0.2,0.5,0.3,0.7,0.3c0.3,0.1,0.5,0,0.8-0.1c0.2-0.1,0.4-0.2,0.6-0.3c0.2-0.1,0.4-0.3,0.5-0.5l0.3,0.9
			c0,0.1-0.1,0.1-0.2,0.2c-0.1,0.1-0.2,0.2-0.3,0.2c-0.1,0.1-0.2,0.2-0.3,0.2c-0.1,0.1-0.3,0.1-0.4,0.2c-0.3,0.1-0.7,0.2-1.1,0.1
			s-0.7-0.2-1-0.4c-0.3-0.2-0.7-0.5-0.9-0.9c-0.3-0.4-0.6-0.9-0.8-1.5c-0.2-0.5-0.3-0.9-0.3-1.3c-0.1-0.4-0.1-0.8-0.1-1.1
			c0-0.3,0.1-0.6,0.2-0.9c0.1-0.3,0.2-0.5,0.3-0.7s0.3-0.4,0.5-0.5C115.5,108.3,115.7,108.2,115.9,108.2z"/>
		<path d="M123.8,113.4c-0.1,0.1-0.2,0.1-0.3,0.2c-0.1,0.1-0.3,0.2-0.5,0.2c-0.3,0.1-0.5,0.1-0.7,0.1c-0.2,0-0.4-0.1-0.6-0.2
			c-0.2-0.1-0.4-0.3-0.5-0.5s-0.3-0.5-0.4-0.8l-1.5-4.2l-1,0.4l-0.4-1l1-0.4l-0.7-1.9l0.8-0.3l0.7,1.9l1.5-0.6l0.4,1L120,108
			l1.5,4.1c0.1,0.2,0.1,0.3,0.2,0.4c0.1,0.1,0.2,0.2,0.3,0.3c0.1,0.1,0.2,0.1,0.4,0.1c0.1,0,0.3,0,0.4-0.1c0.1,0,0.2-0.1,0.3-0.2
			c0.1-0.1,0.2-0.1,0.3-0.2L123.8,113.4z"/>
		<path d="M127,111.3c0.3-0.1,0.5-0.2,0.7-0.4c0.2-0.1,0.4-0.3,0.6-0.5l0.3,0.9c-0.1,0.2-0.3,0.4-0.6,0.5c-0.2,0.2-0.5,0.3-0.8,0.4
			c-0.4,0.1-0.7,0.2-1.1,0.2c-0.4,0-0.7-0.1-1.1-0.3s-0.7-0.5-1-0.9c-0.3-0.4-0.6-0.9-0.8-1.6c-0.2-0.6-0.4-1.2-0.4-1.7
			c0-0.5,0-1,0.1-1.4c0.1-0.4,0.3-0.7,0.5-1s0.5-0.4,0.8-0.6c0.3-0.1,0.6-0.1,0.9-0.1c0.3,0,0.6,0.2,0.9,0.4s0.6,0.5,0.8,0.9
			c0.3,0.4,0.5,0.9,0.7,1.5c0,0.1,0,0.1,0.1,0.2c0,0,0,0.1,0.1,0.3l-3.5,1.3c0.2,0.4,0.3,0.8,0.6,1.1c0.2,0.3,0.4,0.5,0.7,0.6
			c0.2,0.1,0.5,0.2,0.8,0.2C126.5,111.5,126.8,111.4,127,111.3z M124.7,106.1c-0.2,0.1-0.4,0.2-0.5,0.3c-0.1,0.2-0.2,0.4-0.3,0.6
			c-0.1,0.2-0.1,0.5-0.1,0.7s0.1,0.5,0.1,0.8l2.6-0.9c-0.1-0.3-0.2-0.5-0.4-0.7c-0.1-0.2-0.3-0.4-0.5-0.5c-0.2-0.1-0.3-0.2-0.5-0.3
			C125,106,124.9,106,124.7,106.1z"/>
		<path d="M131,104L131,104c-0.3,0.1-0.4,0.2-0.6,0.3c-0.2,0.1-0.3,0.3-0.5,0.4c-0.1,0.2-0.2,0.3-0.3,0.5c-0.1,0.2-0.1,0.4-0.1,0.6
			l1.8,4.9l-0.8,0.3l-2.5-7l0.6-0.2l0.6,1.1l0,0c0-0.2,0.1-0.4,0.1-0.6c0.1-0.2,0.2-0.4,0.3-0.6s0.2-0.3,0.4-0.5s0.3-0.2,0.5-0.3
			c0,0,0.1,0,0.1,0c0,0,0.1,0,0.1,0L131,104z"/>
		<path d="M131.7,99.5l2.3,6.7l-0.7,0.3l-2.5-6.6L131.7,99.5z M134.2,109.7l-0.5-1.4l0.8-0.3l0.5,1.4L134.2,109.7z"/>
	</g>
</g>
</svg>
