<svg version="1.1" id="Livello_2"
	 xmlns="http://www.w3.org/2000/svg" xmlns:xlink="http://www.w3.org/1999/xlink" x="0px" y="0px" width="196px" height="264px"
	 viewBox="0 0 196 264" style="enable-background:new 0 0 196 264;" xml:space="preserve">
<g>
	<g>
		<path class="st0" d="M186.4,86c-2.8-9.7-17.7-61.8-21.5-75.5c-3.8-13.7-17.8-6.7-17.8-6.7S42.8,38.8,23.7,44.8
			c-22.6,7.9-21,10-19.1,14.9C9.3,72,36.8,143,36.8,143s5.6,16,19.3,10.4c24.6-10.2,28.9-12.5,43.7-16.6
			c9.9-1.2,11.9,11.7,12.2,22.7c0.3,10.9,2.6,102,2.6,102s1.9,0,4.4,0c2.5,0,6.3-6.3,6.3-6.3l3.3-107c0,0-0.7-21.7,11.9-27.4
			c14.8-5.7,27.8-10.7,38.5-14.8C189.7,101.8,189.2,95.7,186.4,86z M175.2,104.8c-10.2,3.9-22.6,8.7-36.8,14.2
			c0,0-69.4,25.5-82.3,31.1c-12.9,5.7-16.8-9.9-16.8-9.9S13,72.3,8.5,60.6c-1.8-4.7-3.4-6.7,18.2-14.2c18.3-5.7,118-39.2,118-39.2
			s13.4-6.8,17,6.4c3.6,13.1,17.9,62.9,20.5,72.2C184.9,95,185.4,100.9,175.2,104.8z"/>
	</g>
	<g>
		<path class="st2" d="M186.4,86c-2.8-9.7-17.7-61.8-21.5-75.5c-3.8-13.7-17.8-6.7-17.8-6.7S42.8,38.8,23.7,44.8
			c-22.6,7.9-21,10-19.1,14.9C9.3,72,36.8,143,36.8,143s5.6,16,19.3,10.4c24.6-10.2,28.9-12.5,43.7-16.6
			c9.9-1.2,11.9,11.7,12.2,22.7c0.3,10.9,2.6,102,2.6,102s1.9,0,4.4,0c2.5,0,6.3-6.3,6.3-6.3l3.3-107c0,0-0.7-21.7,11.9-27.4
			c14.8-5.7,27.8-10.7,38.5-14.8C189.7,101.8,189.2,95.7,186.4,86z M175.2,104.8c-10.2,3.9-22.6,8.7-36.8,14.2
			c0,0-69.4,25.5-82.3,31.1c-12.9,5.7-16.8-9.9-16.8-9.9S13,72.3,8.5,60.6c-1.8-4.7-3.4-6.7,18.2-14.2c18.3-5.7,118-39.2,118-39.2
			s13.4-6.8,17,6.4c3.6,13.1,17.9,62.9,20.5,72.2C184.9,95,185.4,100.9,175.2,104.8z"/>
	</g>
</g>
<g>
	<g>
		<g>
			<path class="st1" d="M112.7,262.2c0,0-18-28.9-32.5-37.5c-9.8-5.8,21.8,9.3,28.2,14.4C114.7,244,112.7,262.2,112.7,262.2z"/>
		</g>
		<g>
			<path class="st1" d="M119.3,262.3c0,0,15-31.2,20.2-38.5c5.2-7.3-13.6,14.6-17.3,19.9C118.5,248.9,119.3,262.3,119.3,262.3z"/>
		</g>
		<g>
			<path class="st1" d="M115.5,259.4c0,0,8.9-31.5,13.1-40.2c4.1-8.7-8.8,14.8-11.8,21.1C113.8,246.6,115.5,259.4,115.5,259.4z"/>
		</g>
	</g>
</g>
<g>
	<g>
		<path d="M40.7,65.7c0.1,0.3,0.2,0.4,0.3,0.6c0.1,0.1,0.3,0.2,0.5,0.3c0.2,0.1,0.3,0.1,0.5,0.1c0.2,0,0.4,0,0.6,0
			c0.3,0,0.5,0,0.8,0c0.3,0,0.5,0.1,0.8,0.2c0.2,0.1,0.5,0.3,0.7,0.5c0.2,0.2,0.4,0.6,0.6,1c0.2,0.4,0.3,0.8,0.3,1.2
			c0,0.4-0.1,0.7-0.2,1c-0.1,0.3-0.3,0.5-0.6,0.8c-0.3,0.2-0.6,0.4-0.9,0.5c-0.2,0.1-0.3,0.1-0.5,0.1C43.3,72,43.1,72,43,72
			c-0.2,0-0.3,0-0.5,0c-0.1,0-0.3,0-0.4-0.1l-0.4-1c0.1,0,0.3,0.1,0.5,0.1c0.2,0,0.3,0,0.5,0c0.2,0,0.3,0,0.5-0.1
			c0.2,0,0.3-0.1,0.4-0.1c0.2-0.1,0.4-0.2,0.6-0.3c0.2-0.1,0.3-0.3,0.4-0.5c0.1-0.2,0.2-0.4,0.2-0.6c0-0.2,0-0.5-0.2-0.8
			c-0.1-0.3-0.2-0.5-0.4-0.6c-0.1-0.1-0.3-0.2-0.5-0.3c-0.2-0.1-0.4-0.1-0.5-0.1c-0.2,0-0.4,0-0.6,0c-0.3,0-0.5,0-0.8,0
			c-0.3,0-0.5-0.1-0.8-0.2c-0.2-0.1-0.5-0.3-0.7-0.5c-0.2-0.2-0.4-0.5-0.6-1c-0.2-0.4-0.2-0.8-0.3-1.2c0-0.4,0.1-0.7,0.2-1
			c0.1-0.3,0.3-0.5,0.5-0.7c0.2-0.2,0.5-0.4,0.8-0.5c0.3-0.1,0.7-0.2,1-0.2c0.3,0,0.6,0,0.9,0l0.4,1c-0.3-0.1-0.6-0.1-0.9-0.1
			c-0.3,0-0.6,0.1-0.9,0.2c-0.2,0.1-0.4,0.2-0.6,0.3c-0.1,0.1-0.3,0.3-0.3,0.5c-0.1,0.2-0.1,0.4-0.1,0.6
			C40.5,65.2,40.6,65.5,40.7,65.7z"/>
		<path d="M44.8,62.7l-0.4-1.1l0.7-0.3l0.4,1.1L44.8,62.7z M47.7,70.2l-2.3-6.1l0.7-0.3l2.3,6.1L47.7,70.2z"/>
		<path d="M52.9,67.1c-0.1-0.5-0.1-1.1-0.2-1.9l-0.4-3.7l0.7-0.3l0.6,6.7l-0.8,0.3l-4-5.4l0.7-0.3l2.2,3
			C52.2,66.2,52.6,66.7,52.9,67.1L52.9,67.1z"/>
		<path d="M59,62.5c0.2,0.5,0.3,0.9,0.3,1.4c0,0.4,0,0.8,0,1.2c-0.1,0.3-0.2,0.6-0.4,0.9c-0.2,0.3-0.5,0.4-0.8,0.6
			c-0.3,0.1-0.7,0.2-1,0.1c-0.3-0.1-0.6-0.2-0.9-0.4c-0.3-0.2-0.6-0.5-0.8-0.8c-0.2-0.4-0.5-0.8-0.6-1.2c-0.2-0.5-0.3-0.9-0.3-1.4
			s0-0.8,0-1.2c0.1-0.4,0.2-0.7,0.4-0.9c0.2-0.3,0.5-0.4,0.8-0.6c0.3-0.1,0.7-0.2,1-0.1c0.3,0.1,0.6,0.2,0.9,0.4
			c0.3,0.2,0.6,0.5,0.8,0.9S58.8,62,59,62.5z M58.3,62.8c-0.1-0.4-0.3-0.7-0.5-1c-0.2-0.3-0.4-0.5-0.6-0.6c-0.2-0.2-0.4-0.3-0.6-0.3
			c-0.2,0-0.4,0-0.6,0c-0.2,0.1-0.4,0.2-0.5,0.4c-0.1,0.2-0.2,0.4-0.3,0.6c0,0.2,0,0.5,0,0.8c0,0.3,0.1,0.7,0.3,1
			c0.1,0.4,0.3,0.7,0.5,1s0.4,0.5,0.6,0.6c0.2,0.2,0.4,0.3,0.6,0.3c0.2,0,0.4,0,0.6,0s0.4-0.2,0.5-0.4c0.1-0.2,0.2-0.4,0.3-0.6
			s0-0.5,0-0.8C58.5,63.5,58.4,63.1,58.3,62.8z"/>
		<path d="M63.1,64.5c-0.2,0.1-0.5,0.1-0.7,0.1c-0.2,0-0.4,0-0.6-0.1c-0.2-0.1-0.4-0.2-0.5-0.3c-0.2-0.1-0.3-0.3-0.4-0.5
			c-0.1-0.1-0.2-0.3-0.3-0.5c-0.1-0.2-0.2-0.4-0.3-0.6L59,59l0.7-0.3l1.4,3.7c0.1,0.3,0.3,0.6,0.4,0.8c0.2,0.2,0.4,0.4,0.6,0.5
			c0.2,0.1,0.5,0.1,0.7,0c0.3-0.1,0.5-0.3,0.6-0.5c0.1-0.2,0.1-0.5,0.1-0.8c0-0.2-0.1-0.5-0.2-0.8l-1.4-3.7l0.7-0.3l1.4,3.7
			c0.1,0.2,0.1,0.4,0.2,0.6c0,0.2,0.1,0.4,0.1,0.5c0,0.2,0,0.5,0,0.7c0,0.2-0.1,0.4-0.2,0.6c-0.1,0.2-0.2,0.3-0.4,0.5
			C63.6,64.3,63.4,64.5,63.1,64.5z"/>
		<path d="M65.1,58.5c0.1,0.2,0.1,0.3,0.2,0.4c0.1,0.1,0.2,0.1,0.3,0.2c0.1,0,0.2,0,0.4,0c0.1,0,0.3,0,0.4,0c0.2,0,0.4,0,0.5,0
			s0.3,0,0.5,0.1c0.2,0.1,0.3,0.2,0.5,0.4c0.2,0.2,0.3,0.4,0.4,0.8c0.1,0.3,0.2,0.6,0.2,0.9c0,0.3,0,0.5-0.1,0.7
			c-0.1,0.2-0.2,0.4-0.4,0.6c-0.2,0.2-0.4,0.3-0.7,0.4c-0.2,0.1-0.3,0.1-0.5,0.1c-0.1,0-0.3,0-0.4,0s-0.2,0-0.3,0
			c-0.1,0-0.2,0-0.2,0l-0.3-0.8c0.2,0,0.4,0,0.6,0c0.2,0,0.4-0.1,0.6-0.1c0.2-0.1,0.3-0.1,0.4-0.2c0.1-0.1,0.2-0.2,0.3-0.3
			c0.1-0.1,0.1-0.3,0.1-0.4c0-0.1,0-0.3-0.1-0.5c-0.1-0.2-0.1-0.3-0.2-0.4s-0.2-0.2-0.3-0.2s-0.2-0.1-0.4-0.1c-0.1,0-0.3,0-0.4,0
			c-0.2,0-0.4,0-0.5,0c-0.2,0-0.4,0-0.5-0.1c-0.2-0.1-0.3-0.2-0.5-0.3c-0.2-0.2-0.3-0.4-0.4-0.7c-0.1-0.3-0.2-0.6-0.2-0.9
			c0-0.3,0-0.5,0.1-0.7c0.1-0.2,0.2-0.4,0.4-0.5c0.2-0.1,0.3-0.3,0.6-0.3c0.2-0.1,0.5-0.1,0.7-0.2c0.2,0,0.5,0,0.7,0l0.3,0.8
			c-0.2,0-0.4,0-0.6,0c-0.2,0-0.4,0-0.6,0.1c-0.2,0.1-0.3,0.1-0.4,0.2c-0.1,0.1-0.2,0.2-0.2,0.3c0,0.1-0.1,0.2-0.1,0.4
			C65,58.3,65.1,58.4,65.1,58.5z"/>
		<path d="M73.2,59.4c-0.1-0.5-0.1-1.1-0.2-1.9l-0.4-3.7l0.7-0.3l0.6,6.7l-0.8,0.3l-4-5.4l0.7-0.3l2.2,3
			C72.5,58.5,72.9,59,73.2,59.4L73.2,59.4z"/>
		<path d="M79.3,54.8c0.2,0.5,0.3,0.9,0.3,1.4c0,0.4,0,0.8,0,1.2c-0.1,0.3-0.2,0.6-0.4,0.9c-0.2,0.3-0.5,0.4-0.8,0.6
			c-0.3,0.1-0.7,0.2-1,0.1c-0.3-0.1-0.6-0.2-0.9-0.4c-0.3-0.2-0.6-0.5-0.8-0.8c-0.2-0.4-0.5-0.8-0.6-1.2c-0.2-0.5-0.3-0.9-0.3-1.4
			c0-0.4,0-0.8,0-1.2c0.1-0.4,0.2-0.7,0.4-0.9c0.2-0.3,0.5-0.4,0.8-0.6c0.3-0.1,0.7-0.2,1-0.1c0.3,0.1,0.6,0.2,0.9,0.4
			c0.3,0.2,0.6,0.5,0.8,0.9C78.9,53.9,79.1,54.3,79.3,54.8z M78.6,55.1c-0.1-0.4-0.3-0.7-0.5-1c-0.2-0.3-0.4-0.5-0.6-0.6
			c-0.2-0.2-0.4-0.3-0.6-0.3c-0.2,0-0.4,0-0.6,0c-0.2,0.1-0.4,0.2-0.5,0.4c-0.1,0.2-0.2,0.4-0.3,0.6c0,0.2,0,0.5,0,0.8
			c0,0.3,0.1,0.7,0.3,1c0.1,0.4,0.3,0.7,0.5,1s0.4,0.5,0.6,0.6c0.2,0.2,0.4,0.3,0.6,0.3c0.2,0,0.4,0,0.6,0c0.2-0.1,0.4-0.2,0.5-0.4
			s0.2-0.4,0.3-0.6c0-0.2,0-0.5,0-0.8C78.8,55.8,78.7,55.4,78.6,55.1z"/>
		<path d="M83.4,56.9C83.2,56.9,83,57,82.8,57c-0.2,0-0.4,0-0.6-0.1c-0.2-0.1-0.4-0.2-0.5-0.3c-0.2-0.1-0.3-0.3-0.4-0.5
			c-0.1-0.1-0.2-0.3-0.3-0.5s-0.2-0.4-0.3-0.6l-1.4-3.7L80,51l1.4,3.7c0.1,0.3,0.3,0.6,0.4,0.8c0.2,0.2,0.4,0.4,0.6,0.5
			c0.2,0.1,0.5,0.1,0.7,0c0.3-0.1,0.5-0.3,0.6-0.5c0.1-0.2,0.1-0.5,0.1-0.8c0-0.2-0.1-0.5-0.2-0.8l-1.4-3.7l0.7-0.3l1.4,3.7
			c0.1,0.2,0.1,0.4,0.2,0.6c0,0.2,0.1,0.4,0.1,0.5c0,0.2,0,0.5,0,0.7c0,0.2-0.1,0.4-0.2,0.6c-0.1,0.2-0.2,0.3-0.4,0.5
			C83.9,56.7,83.7,56.8,83.4,56.9z"/>
		<path d="M86.6,55.5l-3.5-9.3l0.7-0.3l3.5,9.3L86.6,55.5z"/>
		<path d="M90.6,53.1c0.2-0.1,0.4-0.2,0.6-0.3c0.2-0.1,0.3-0.3,0.5-0.5l0.3,0.8c-0.1,0.2-0.3,0.3-0.5,0.5c-0.2,0.2-0.4,0.3-0.7,0.4
			c-0.3,0.1-0.6,0.2-1,0.2c-0.3,0-0.6-0.1-0.9-0.3c-0.3-0.2-0.6-0.4-0.8-0.8c-0.3-0.4-0.5-0.8-0.7-1.4c-0.2-0.6-0.3-1.1-0.4-1.5
			c0-0.4,0-0.8,0.1-1.2c0.1-0.3,0.2-0.6,0.4-0.9c0.2-0.2,0.4-0.4,0.7-0.5c0.2-0.1,0.5-0.1,0.8-0.1c0.3,0,0.5,0.1,0.8,0.3
			c0.3,0.2,0.5,0.4,0.7,0.8s0.5,0.8,0.7,1.3c0,0.1,0,0.1,0,0.1s0,0.1,0.1,0.2l-3.1,1.2c0.1,0.4,0.3,0.7,0.5,0.9
			c0.2,0.2,0.4,0.4,0.6,0.5c0.2,0.1,0.4,0.2,0.7,0.2C90.2,53.3,90.4,53.2,90.6,53.1z M88.5,48.6c-0.2,0.1-0.3,0.2-0.4,0.3
			c-0.1,0.1-0.2,0.3-0.2,0.5c0,0.2-0.1,0.4-0.1,0.6c0,0.2,0.1,0.5,0.1,0.7l2.3-0.9c-0.1-0.2-0.2-0.5-0.3-0.6
			c-0.1-0.2-0.3-0.3-0.4-0.5c-0.1-0.1-0.3-0.2-0.5-0.2C88.8,48.5,88.7,48.5,88.5,48.6z"/>
		<path d="M93.7,46.8L93.7,46.8l-2.5,0.9L91,46.9l3.4-1.3l0.2,0.6l-0.7,5.5l0,0l2.6-1l0.3,0.9L93.2,53L93,52.4L93.7,46.8z"/>
		<path d="M102.1,48.8L102.1,48.8c0,0.1-0.1,0.3-0.1,0.4c-0.1,0.1-0.1,0.3-0.2,0.4c-0.1,0.1-0.2,0.2-0.3,0.3
			c-0.1,0.1-0.3,0.2-0.4,0.2c-0.2,0.1-0.4,0.1-0.6,0.1c-0.2,0-0.4-0.1-0.6-0.2c-0.2-0.1-0.4-0.3-0.5-0.5c-0.2-0.2-0.3-0.5-0.4-0.8
			c-0.1-0.3-0.2-0.6-0.2-0.9c0-0.3,0-0.5,0.1-0.7s0.2-0.4,0.4-0.6c0.2-0.2,0.4-0.3,0.6-0.4c0.2-0.1,0.5-0.1,0.7-0.2
			c0.2,0,0.4,0,0.6,0l0,0l-0.2-0.4c-0.1-0.2-0.1-0.3-0.2-0.4c-0.1-0.1-0.1-0.2-0.2-0.3c-0.2-0.2-0.4-0.3-0.6-0.4
			c-0.2-0.1-0.5,0-0.8,0.1c-0.2,0.1-0.4,0.2-0.6,0.3c-0.2,0.1-0.3,0.3-0.5,0.5l-0.3-0.8c0.1-0.1,0.1-0.2,0.2-0.2
			c0.1-0.1,0.2-0.2,0.3-0.2c0.1-0.1,0.2-0.1,0.3-0.2c0.1-0.1,0.2-0.1,0.4-0.2c0.4-0.2,0.9-0.2,1.2-0.1c0.4,0.1,0.7,0.3,0.9,0.6
			c0.1,0.1,0.2,0.3,0.3,0.4c0.1,0.2,0.2,0.3,0.2,0.5l1.5,4.1l-0.6,0.2L102.1,48.8z M101.3,46.9c-0.2,0-0.3,0-0.5,0
			c-0.2,0-0.4,0.1-0.6,0.2c-0.3,0.1-0.5,0.3-0.6,0.5c-0.1,0.2-0.1,0.6,0.1,0.9c0.1,0.2,0.2,0.3,0.3,0.5c0.1,0.1,0.2,0.2,0.3,0.3
			s0.2,0.1,0.3,0.1c0.1,0,0.2,0,0.4-0.1c0.2-0.1,0.3-0.1,0.4-0.3c0.1-0.1,0.2-0.2,0.3-0.4c0.1-0.1,0.1-0.2,0.2-0.4
			c0-0.1,0.1-0.2,0.1-0.3L101.3,46.9z"/>
		<path d="M107.2,44.1c0.2,0.4,0.3,0.8,0.3,1.2c0.1,0.3,0.1,0.7,0.1,0.9c0,0.3,0,0.5-0.1,0.7c-0.1,0.2-0.2,0.4-0.3,0.6
			c-0.1,0.2-0.2,0.3-0.4,0.4c-0.1,0.1-0.3,0.2-0.4,0.2c-0.3,0.1-0.5,0.1-0.8,0.1c-0.2,0-0.5-0.2-0.7-0.3l0,0l1.3,3.5l-0.7,0.3
			l-3.4-9l0.5-0.2l0.4,0.6l0,0c0-0.1,0-0.2,0.1-0.3c0-0.1,0.1-0.2,0.2-0.4c0.1-0.1,0.2-0.3,0.3-0.4c0.1-0.1,0.3-0.2,0.5-0.3
			c0.3-0.1,0.5-0.1,0.8-0.1c0.3,0,0.6,0.1,0.8,0.3c0.3,0.2,0.5,0.5,0.8,0.8C106.8,43.1,107,43.6,107.2,44.1z M106.4,44.4
			c-0.1-0.4-0.3-0.7-0.4-0.9c-0.2-0.3-0.3-0.5-0.5-0.6c-0.2-0.2-0.4-0.3-0.6-0.3c-0.2,0-0.4,0-0.6,0.1c-0.2,0.1-0.3,0.1-0.4,0.2
			s-0.2,0.2-0.3,0.3c-0.1,0.1-0.1,0.2-0.2,0.4c0,0.1-0.1,0.2-0.1,0.3l1.2,3.2c0.2,0.2,0.5,0.3,0.7,0.3c0.2,0,0.5,0,0.7-0.1
			c0.1-0.1,0.3-0.1,0.4-0.3c0.1-0.1,0.2-0.3,0.3-0.5s0.1-0.5,0-0.9S106.6,44.9,106.4,44.4z"/>
		<path d="M112.3,42.2c0.2,0.4,0.3,0.8,0.3,1.2c0.1,0.3,0.1,0.7,0.1,0.9c0,0.3,0,0.5-0.1,0.7c-0.1,0.2-0.2,0.4-0.3,0.6
			c-0.1,0.2-0.2,0.3-0.4,0.4c-0.1,0.1-0.3,0.2-0.4,0.2c-0.3,0.1-0.5,0.1-0.8,0.1c-0.2,0-0.5-0.2-0.7-0.3l0,0l1.3,3.5l-0.7,0.3
			l-3.4-9l0.5-0.2l0.4,0.6l0,0c0-0.1,0-0.2,0.1-0.3c0-0.1,0.1-0.2,0.2-0.4c0.1-0.1,0.2-0.3,0.3-0.4c0.1-0.1,0.3-0.2,0.5-0.3
			c0.3-0.1,0.5-0.1,0.8-0.1c0.3,0,0.6,0.1,0.8,0.3c0.3,0.2,0.5,0.5,0.8,0.8C111.8,41.2,112.1,41.6,112.3,42.2z M111.5,42.5
			c-0.1-0.4-0.3-0.7-0.4-0.9c-0.2-0.3-0.3-0.5-0.5-0.6c-0.2-0.2-0.4-0.3-0.6-0.3c-0.2,0-0.4,0-0.6,0.1c-0.2,0.1-0.3,0.1-0.4,0.2
			s-0.2,0.2-0.3,0.3c-0.1,0.1-0.1,0.2-0.2,0.4s-0.1,0.2-0.1,0.3l1.2,3.2c0.2,0.2,0.5,0.3,0.7,0.3c0.2,0,0.5,0,0.7-0.1
			c0.1-0.1,0.3-0.1,0.4-0.3c0.1-0.1,0.2-0.3,0.3-0.5c0.1-0.2,0.1-0.5,0-0.9C111.8,43.4,111.7,43,111.5,42.5z"/>
		<path d="M117,43.2L117,43.2c0,0.1-0.1,0.3-0.1,0.4c-0.1,0.1-0.1,0.3-0.2,0.4c-0.1,0.1-0.2,0.2-0.3,0.3c-0.1,0.1-0.3,0.2-0.4,0.2
			c-0.2,0.1-0.4,0.1-0.6,0.1c-0.2,0-0.4-0.1-0.6-0.2c-0.2-0.1-0.4-0.3-0.5-0.5c-0.2-0.2-0.3-0.5-0.4-0.8c-0.1-0.3-0.2-0.6-0.2-0.9
			c0-0.3,0-0.5,0.1-0.7s0.2-0.4,0.4-0.6c0.2-0.2,0.4-0.3,0.6-0.4c0.2-0.1,0.5-0.1,0.7-0.2c0.2,0,0.4,0,0.6,0l0,0l-0.2-0.4
			c-0.1-0.2-0.1-0.3-0.2-0.4c-0.1-0.1-0.1-0.2-0.2-0.3c-0.2-0.2-0.4-0.3-0.6-0.4c-0.2-0.1-0.5,0-0.8,0.1c-0.2,0.1-0.4,0.2-0.6,0.3
			c-0.2,0.1-0.3,0.3-0.5,0.5l-0.3-0.8c0.1-0.1,0.1-0.2,0.2-0.2c0.1-0.1,0.2-0.2,0.3-0.2c0.1-0.1,0.2-0.1,0.3-0.2
			c0.1-0.1,0.2-0.1,0.4-0.2c0.4-0.2,0.9-0.2,1.2-0.1c0.4,0.1,0.7,0.3,0.9,0.6c0.1,0.1,0.2,0.3,0.3,0.4c0.1,0.2,0.2,0.3,0.2,0.5
			l1.5,4.1l-0.6,0.2L117,43.2z M116.2,41.2c-0.2,0-0.3,0-0.5,0c-0.2,0-0.4,0.1-0.6,0.2c-0.3,0.1-0.5,0.3-0.6,0.5
			c-0.1,0.2-0.1,0.6,0.1,0.9c0.1,0.2,0.2,0.3,0.3,0.5c0.1,0.1,0.2,0.2,0.3,0.3s0.2,0.1,0.3,0.1c0.1,0,0.2,0,0.4-0.1
			c0.2-0.1,0.3-0.1,0.4-0.3c0.1-0.1,0.2-0.2,0.3-0.4c0.1-0.1,0.1-0.2,0.2-0.4c0-0.1,0.1-0.2,0.1-0.3L116.2,41.2z"/>
		<path d="M119.7,36.9L119.7,36.9c-0.2,0.1-0.4,0.2-0.5,0.3s-0.3,0.2-0.4,0.4c-0.1,0.1-0.2,0.3-0.3,0.5c-0.1,0.2-0.1,0.4-0.1,0.6
			l1.6,4.2l-0.7,0.3L117,37l0.6-0.2l0.5,0.9l0,0c0-0.2,0-0.4,0.1-0.5s0.1-0.3,0.2-0.5c0.1-0.2,0.2-0.3,0.3-0.4
			c0.1-0.1,0.3-0.2,0.5-0.3c0,0,0.1,0,0.1,0c0,0,0.1,0,0.1,0L119.7,36.9z"/>
		<path d="M124.9,40.2L124.9,40.2c0,0.1-0.1,0.3-0.1,0.4c-0.1,0.1-0.1,0.3-0.2,0.4s-0.2,0.2-0.3,0.3c-0.1,0.1-0.3,0.2-0.4,0.2
			c-0.2,0.1-0.4,0.1-0.6,0.1c-0.2,0-0.4-0.1-0.6-0.2c-0.2-0.1-0.4-0.3-0.5-0.5s-0.3-0.5-0.4-0.8c-0.1-0.3-0.2-0.6-0.2-0.9
			c0-0.3,0-0.5,0.1-0.7c0.1-0.2,0.2-0.4,0.4-0.6c0.2-0.2,0.4-0.3,0.6-0.4c0.2-0.1,0.5-0.1,0.7-0.2c0.2,0,0.4,0,0.6,0l0,0l-0.2-0.4
			c-0.1-0.2-0.1-0.3-0.2-0.4c-0.1-0.1-0.1-0.2-0.2-0.3c-0.2-0.2-0.4-0.3-0.6-0.4c-0.2-0.1-0.5,0-0.8,0.1c-0.2,0.1-0.4,0.2-0.6,0.3
			c-0.2,0.1-0.3,0.3-0.5,0.5l-0.3-0.8c0.1-0.1,0.1-0.2,0.2-0.2c0.1-0.1,0.2-0.2,0.3-0.2c0.1-0.1,0.2-0.1,0.3-0.2s0.2-0.1,0.4-0.2
			c0.4-0.2,0.9-0.2,1.2-0.1c0.4,0.1,0.7,0.3,0.9,0.6c0.1,0.1,0.2,0.3,0.3,0.4c0.1,0.2,0.2,0.3,0.2,0.5l1.5,4.1l-0.6,0.2L124.9,40.2z
			 M124.1,38.2c-0.2,0-0.3,0-0.5,0c-0.2,0-0.4,0.1-0.6,0.2c-0.3,0.1-0.5,0.3-0.6,0.5c-0.1,0.2-0.1,0.6,0.1,0.9
			c0.1,0.2,0.2,0.3,0.3,0.5c0.1,0.1,0.2,0.2,0.3,0.3c0.1,0.1,0.2,0.1,0.3,0.1c0.1,0,0.2,0,0.4-0.1c0.2-0.1,0.3-0.1,0.4-0.3
			c0.1-0.1,0.2-0.2,0.3-0.4c0.1-0.1,0.1-0.2,0.2-0.4c0-0.1,0.1-0.2,0.1-0.3L124.1,38.2z"/>
		<path d="M124.5,30.4l1.8,1.9l-0.7,0.2l-1.3-1.3l0,0l-0.1,1.8l-0.7,0.2l0.1-2.6L124.5,30.4z M127.3,40.1L125,34l0.7-0.3l2.3,6.1
			L127.3,40.1z"/>
		<path d="M131.8,38.4c0,0.1-0.1,0.1-0.2,0.2c-0.1,0.1-0.3,0.2-0.4,0.2c-0.2,0.1-0.5,0.1-0.7,0.1s-0.4-0.1-0.6-0.2
			c-0.2-0.1-0.3-0.2-0.5-0.4c-0.1-0.2-0.3-0.4-0.3-0.7l-1.4-3.7l-0.9,0.3l-0.3-0.9l0.9-0.3l-0.6-1.7l0.7-0.3l0.6,1.7l1.3-0.5
			l0.3,0.9l-1.3,0.5l1.3,3.5c0.1,0.1,0.1,0.3,0.2,0.4c0.1,0.1,0.2,0.2,0.3,0.3c0.1,0.1,0.2,0.1,0.3,0.1c0.1,0,0.2,0,0.4-0.1
			c0.1,0,0.2-0.1,0.3-0.1c0.1-0.1,0.2-0.1,0.3-0.2L131.8,38.4z"/>
		<path d="M133.2,31.8L133.2,31.8c-0.2,0.1-0.4,0.2-0.5,0.3c-0.1,0.1-0.3,0.2-0.4,0.4c-0.1,0.1-0.2,0.3-0.3,0.5s-0.1,0.4-0.1,0.6
			l1.6,4.2l-0.7,0.3l-2.3-6.1l0.6-0.2l0.5,0.9l0,0c0-0.2,0-0.4,0.1-0.5s0.1-0.3,0.2-0.5c0.1-0.2,0.2-0.3,0.3-0.4
			c0.1-0.1,0.3-0.2,0.5-0.3c0,0,0.1,0,0.1,0c0,0,0.1,0,0.1,0L133.2,31.8z"/>
		<path d="M137.8,35.3c0.2-0.1,0.5-0.2,0.6-0.3s0.3-0.3,0.5-0.5l0.3,0.8c-0.1,0.2-0.3,0.3-0.5,0.5c-0.2,0.2-0.5,0.3-0.7,0.4
			c-0.3,0.1-0.6,0.2-1,0.2c-0.3,0-0.6-0.1-0.9-0.3c-0.3-0.2-0.6-0.4-0.8-0.8s-0.5-0.8-0.7-1.4c-0.2-0.6-0.3-1.1-0.4-1.5
			c0-0.4,0-0.8,0.1-1.2c0.1-0.3,0.2-0.6,0.4-0.9c0.2-0.2,0.4-0.4,0.7-0.5c0.2-0.1,0.5-0.1,0.8-0.1c0.3,0,0.5,0.1,0.8,0.3
			s0.5,0.4,0.7,0.8c0.2,0.3,0.5,0.8,0.7,1.3c0,0.1,0,0.1,0,0.1s0,0.1,0.1,0.2l-3.1,1.2c0.1,0.4,0.3,0.7,0.5,0.9
			c0.2,0.2,0.4,0.4,0.6,0.5c0.2,0.1,0.4,0.2,0.7,0.2C137.4,35.4,137.6,35.3,137.8,35.3z M135.7,30.7c-0.2,0.1-0.3,0.2-0.4,0.3
			c-0.1,0.1-0.2,0.3-0.2,0.5c0,0.2-0.1,0.4-0.1,0.6c0,0.2,0.1,0.5,0.1,0.7l2.3-0.9c-0.1-0.2-0.2-0.5-0.3-0.6
			c-0.1-0.2-0.3-0.3-0.4-0.5c-0.1-0.1-0.3-0.2-0.5-0.2C136,30.6,135.8,30.7,135.7,30.7z"/>
		<path d="M69,74.1c0.1,0.2,0.1,0.3,0.2,0.4c0.1,0.1,0.2,0.1,0.3,0.2c0.1,0,0.2,0,0.4,0c0.1,0,0.3,0,0.4,0c0.2,0,0.4,0,0.5,0
			c0.2,0,0.3,0,0.5,0.1c0.2,0.1,0.3,0.2,0.5,0.4c0.2,0.2,0.3,0.4,0.4,0.8c0.1,0.3,0.2,0.6,0.2,0.9c0,0.3,0,0.5-0.1,0.7
			c-0.1,0.2-0.2,0.4-0.4,0.6c-0.2,0.2-0.4,0.3-0.7,0.4c-0.2,0.1-0.3,0.1-0.5,0.1c-0.1,0-0.3,0-0.4,0c-0.1,0-0.2,0-0.3,0
			c-0.1,0-0.2,0-0.2,0l-0.3-0.8c0.2,0,0.4,0,0.6,0c0.2,0,0.4-0.1,0.6-0.1c0.2-0.1,0.3-0.1,0.4-0.2c0.1-0.1,0.2-0.2,0.3-0.3
			c0.1-0.1,0.1-0.3,0.1-0.4c0-0.1,0-0.3-0.1-0.5c-0.1-0.2-0.1-0.3-0.2-0.4c-0.1-0.1-0.2-0.2-0.3-0.2c-0.1,0-0.2-0.1-0.4-0.1
			c-0.1,0-0.3,0-0.4,0c-0.2,0-0.4,0-0.5,0c-0.2,0-0.4,0-0.5-0.1c-0.2-0.1-0.3-0.2-0.5-0.3c-0.2-0.2-0.3-0.4-0.4-0.7
			c-0.1-0.3-0.2-0.6-0.2-0.9c0-0.3,0-0.5,0.1-0.7c0.1-0.2,0.2-0.4,0.4-0.5c0.2-0.1,0.3-0.3,0.6-0.3c0.2-0.1,0.5-0.1,0.7-0.2
			c0.2,0,0.5,0,0.7,0l0.3,0.8c-0.2,0-0.4,0-0.6,0c-0.2,0-0.4,0.1-0.6,0.1c-0.2,0.1-0.3,0.1-0.4,0.2c-0.1,0.1-0.2,0.2-0.2,0.3
			c0,0.1-0.1,0.2-0.1,0.4C69,73.9,69,74,69,74.1z"/>
		<path d="M75.9,76.8c-0.2,0.1-0.5,0.1-0.7,0.1c-0.2,0-0.4,0-0.6-0.1c-0.2-0.1-0.4-0.2-0.5-0.3c-0.2-0.1-0.3-0.3-0.4-0.5
			c-0.1-0.1-0.2-0.3-0.3-0.5c-0.1-0.2-0.2-0.4-0.3-0.6l-1.4-3.7l0.7-0.3l1.4,3.7c0.1,0.3,0.3,0.6,0.4,0.8c0.2,0.2,0.4,0.4,0.6,0.5
			c0.2,0.1,0.5,0.1,0.7,0c0.3-0.1,0.5-0.3,0.6-0.5c0.1-0.2,0.1-0.5,0.1-0.8c0-0.2-0.1-0.5-0.2-0.8l-1.4-3.7l0.7-0.3l1.4,3.7
			c0.1,0.2,0.1,0.4,0.2,0.6c0,0.2,0.1,0.4,0.1,0.5c0,0.2,0,0.5,0,0.7c0,0.2-0.1,0.4-0.2,0.6c-0.1,0.2-0.2,0.3-0.4,0.5
			C76.4,76.6,76.2,76.7,75.9,76.8z"/>
		<path d="M79.5,69.3L79.5,69.3c-0.2,0.1-0.4,0.2-0.5,0.3c-0.1,0.1-0.3,0.2-0.4,0.4c-0.1,0.1-0.2,0.3-0.3,0.5
			c-0.1,0.2-0.1,0.4-0.1,0.6l1.6,4.2l-0.7,0.3l-2.3-6.1l0.6-0.2l0.5,0.9l0,0c0-0.2,0-0.4,0.1-0.5c0.1-0.2,0.1-0.3,0.2-0.5
			s0.2-0.3,0.3-0.4c0.1-0.1,0.3-0.2,0.5-0.3c0,0,0.1,0,0.1,0c0,0,0.1,0,0.1,0L79.5,69.3z"/>
		<path d="M83.7,66.5c0.2-0.1,0.4-0.1,0.7-0.1c0.2,0,0.4,0,0.6,0.1l0.3,0.8c-0.2,0-0.4,0-0.6,0c-0.2,0-0.4,0-0.5,0.1
			c-0.2,0.1-0.3,0.2-0.5,0.3c-0.1,0.1-0.3,0.3-0.3,0.6c-0.1,0.2-0.1,0.5-0.1,0.9c0,0.3,0.1,0.7,0.3,1.2c0.1,0.3,0.3,0.6,0.4,0.9
			c0.2,0.3,0.4,0.5,0.6,0.6c0.2,0.2,0.4,0.3,0.7,0.3c0.2,0,0.5,0,0.7-0.1c0.2-0.1,0.4-0.2,0.5-0.3c0.2-0.1,0.3-0.3,0.5-0.4l0.3,0.8
			c0,0.1-0.1,0.1-0.2,0.2c-0.1,0.1-0.1,0.1-0.2,0.2c-0.1,0.1-0.2,0.1-0.3,0.2c-0.1,0.1-0.2,0.1-0.3,0.2c-0.3,0.1-0.6,0.2-0.9,0.1
			c-0.3,0-0.6-0.1-0.9-0.3c-0.3-0.2-0.6-0.4-0.8-0.8c-0.3-0.3-0.5-0.8-0.7-1.3c-0.2-0.4-0.3-0.8-0.3-1.1c-0.1-0.3-0.1-0.7-0.1-0.9
			c0-0.3,0.1-0.5,0.1-0.8c0.1-0.2,0.2-0.4,0.3-0.6c0.1-0.2,0.3-0.3,0.4-0.4C83.4,66.7,83.6,66.6,83.7,66.5z"/>
		<path d="M90.2,70.4c0.2-0.1,0.4-0.2,0.6-0.3c0.2-0.1,0.3-0.3,0.5-0.5l0.3,0.8c-0.1,0.2-0.3,0.3-0.5,0.5c-0.2,0.2-0.5,0.3-0.7,0.4
			c-0.3,0.1-0.6,0.2-1,0.2c-0.3,0-0.6-0.1-0.9-0.3c-0.3-0.2-0.6-0.4-0.8-0.8c-0.3-0.4-0.5-0.8-0.7-1.4c-0.2-0.6-0.3-1.1-0.4-1.5
			c0-0.4,0-0.8,0.1-1.2c0.1-0.3,0.2-0.6,0.4-0.9c0.2-0.2,0.4-0.4,0.7-0.5c0.2-0.1,0.5-0.1,0.8-0.1c0.3,0,0.5,0.1,0.8,0.3
			c0.3,0.2,0.5,0.4,0.7,0.8c0.2,0.3,0.5,0.8,0.7,1.3c0,0.1,0,0.1,0,0.1c0,0,0,0.1,0.1,0.2l-3.1,1.2c0.1,0.4,0.3,0.7,0.5,0.9
			c0.2,0.2,0.4,0.4,0.6,0.5c0.2,0.1,0.4,0.2,0.7,0.2C89.8,70.5,90,70.5,90.2,70.4z M88.1,65.9c-0.2,0.1-0.3,0.2-0.4,0.3
			c-0.1,0.1-0.2,0.3-0.2,0.5c0,0.2-0.1,0.4-0.1,0.6c0,0.2,0.1,0.5,0.1,0.7l2.3-0.9c-0.1-0.2-0.2-0.5-0.3-0.6
			c-0.1-0.2-0.3-0.3-0.4-0.5c-0.1-0.1-0.3-0.2-0.5-0.2C88.4,65.8,88.2,65.8,88.1,65.9z"/>
		<path d="M95.5,69.2c0,0.1-0.1,0.1-0.2,0.2c-0.1,0.1-0.3,0.2-0.4,0.2c-0.2,0.1-0.5,0.1-0.7,0.1c-0.2,0-0.4-0.1-0.6-0.2
			c-0.2-0.1-0.3-0.3-0.5-0.4c-0.1-0.2-0.3-0.4-0.3-0.7l-1.4-3.7l-0.9,0.3l-0.3-0.8l0.9-0.3l-0.6-1.7l0.7-0.3l0.6,1.7l1.3-0.5
			l0.3,0.8l-1.3,0.5l1.3,3.5c0.1,0.1,0.1,0.3,0.2,0.4c0.1,0.1,0.2,0.2,0.3,0.3c0.1,0.1,0.2,0.1,0.3,0.1c0.1,0,0.2,0,0.4-0.1
			c0.1,0,0.2-0.1,0.3-0.1c0.1-0.1,0.2-0.1,0.3-0.2L95.5,69.2z"/>
		<path d="M98.8,68c0,0.1-0.1,0.1-0.2,0.2c-0.1,0.1-0.3,0.2-0.4,0.2c-0.2,0.1-0.5,0.1-0.7,0.1c-0.2,0-0.4-0.1-0.6-0.2
			c-0.2-0.1-0.3-0.2-0.5-0.4c-0.1-0.2-0.3-0.4-0.3-0.7l-1.4-3.7l-0.9,0.3L93.5,63l0.9-0.3L93.8,61l0.7-0.3l0.6,1.7l1.3-0.5l0.3,0.8
			l-1.3,0.5l1.3,3.5c0.1,0.1,0.1,0.3,0.2,0.4c0.1,0.1,0.2,0.2,0.3,0.3c0.1,0.1,0.2,0.1,0.3,0.1c0.1,0,0.2,0,0.4-0.1
			c0.1,0,0.2-0.1,0.3-0.1c0.1-0.1,0.2-0.1,0.3-0.2L98.8,68z"/>
		<path d="M101.7,66.1c0.2-0.1,0.5-0.2,0.6-0.3c0.2-0.1,0.3-0.3,0.5-0.5l0.3,0.8c-0.1,0.2-0.3,0.3-0.5,0.5c-0.2,0.2-0.5,0.3-0.7,0.4
			c-0.3,0.1-0.6,0.2-1,0.2c-0.3,0-0.6-0.1-0.9-0.3c-0.3-0.2-0.6-0.4-0.8-0.8c-0.3-0.4-0.5-0.8-0.7-1.4c-0.2-0.6-0.3-1.1-0.4-1.5
			c0-0.4,0-0.8,0.1-1.2c0.1-0.3,0.2-0.6,0.4-0.9c0.2-0.2,0.4-0.4,0.7-0.5c0.2-0.1,0.5-0.1,0.8-0.1c0.3,0,0.5,0.1,0.8,0.3
			c0.3,0.2,0.5,0.4,0.7,0.8c0.2,0.3,0.5,0.8,0.7,1.3c0,0.1,0,0.1,0,0.1c0,0,0,0.1,0.1,0.2l-3.1,1.2c0.1,0.4,0.3,0.7,0.5,0.9
			c0.2,0.2,0.4,0.4,0.6,0.5c0.2,0.1,0.4,0.2,0.7,0.2C101.2,66.2,101.4,66.2,101.7,66.1z M99.5,61.5c-0.2,0.1-0.3,0.2-0.4,0.3
			c-0.1,0.1-0.2,0.3-0.2,0.5c0,0.2-0.1,0.4-0.1,0.6c0,0.2,0.1,0.5,0.1,0.7l2.3-0.9c-0.1-0.2-0.2-0.5-0.3-0.6
			c-0.1-0.2-0.3-0.3-0.4-0.5c-0.1-0.1-0.3-0.2-0.5-0.2C99.8,61.5,99.7,61.5,99.5,61.5z"/>
		<path d="M109.3,60.4c0.2,0.4,0.3,0.8,0.3,1.2c0.1,0.3,0.1,0.7,0.1,0.9c0,0.3,0,0.5-0.1,0.7c-0.1,0.2-0.2,0.4-0.3,0.6
			c-0.1,0.2-0.2,0.3-0.4,0.4c-0.1,0.1-0.3,0.2-0.4,0.2c-0.3,0.1-0.5,0.1-0.8,0.1c-0.2,0-0.5-0.2-0.7-0.3l0,0l1.3,3.5l-0.7,0.3
			l-3.4-9l0.5-0.2l0.4,0.6l0,0c0-0.1,0-0.2,0.1-0.3c0-0.1,0.1-0.2,0.2-0.4c0.1-0.1,0.2-0.3,0.3-0.4c0.1-0.1,0.3-0.2,0.5-0.3
			c0.3-0.1,0.5-0.1,0.8-0.1c0.3,0,0.6,0.1,0.8,0.3c0.3,0.2,0.5,0.5,0.8,0.8C108.8,59.4,109,59.9,109.3,60.4z M108.5,60.7
			c-0.1-0.4-0.3-0.7-0.4-0.9c-0.2-0.3-0.3-0.5-0.5-0.6c-0.2-0.2-0.4-0.3-0.6-0.3c-0.2,0-0.4,0-0.6,0.1c-0.2,0.1-0.3,0.1-0.4,0.2
			c-0.1,0.1-0.2,0.2-0.3,0.3s-0.1,0.2-0.2,0.4s-0.1,0.2-0.1,0.3l1.2,3.2c0.2,0.2,0.5,0.3,0.7,0.3c0.2,0,0.5,0,0.7-0.1
			c0.1-0.1,0.3-0.1,0.4-0.3c0.1-0.1,0.2-0.3,0.3-0.5c0.1-0.2,0.1-0.5,0-0.9C108.8,61.6,108.7,61.2,108.5,60.7z"/>
		<path d="M113.9,61.5L113.9,61.5c0,0.1-0.1,0.3-0.1,0.4c-0.1,0.1-0.1,0.3-0.2,0.4c-0.1,0.1-0.2,0.2-0.3,0.3
			c-0.1,0.1-0.3,0.2-0.4,0.2c-0.2,0.1-0.4,0.1-0.6,0.1c-0.2,0-0.4-0.1-0.6-0.2c-0.2-0.1-0.4-0.3-0.5-0.5c-0.2-0.2-0.3-0.5-0.4-0.8
			c-0.1-0.3-0.2-0.6-0.2-0.9c0-0.3,0-0.5,0.1-0.7c0.1-0.2,0.2-0.4,0.4-0.6c0.2-0.2,0.4-0.3,0.6-0.4c0.2-0.1,0.5-0.1,0.7-0.2
			c0.2,0,0.4,0,0.6,0l0,0l-0.2-0.4c-0.1-0.2-0.1-0.3-0.2-0.4c-0.1-0.1-0.1-0.2-0.2-0.3c-0.2-0.2-0.4-0.3-0.6-0.4
			c-0.2-0.1-0.5,0-0.8,0.1c-0.2,0.1-0.4,0.2-0.6,0.3c-0.2,0.1-0.3,0.3-0.5,0.5l-0.3-0.8c0.1-0.1,0.1-0.2,0.2-0.2
			c0.1-0.1,0.2-0.2,0.3-0.2c0.1-0.1,0.2-0.1,0.3-0.2c0.1-0.1,0.2-0.1,0.4-0.2c0.4-0.2,0.9-0.2,1.2-0.1c0.4,0.1,0.7,0.3,0.9,0.6
			c0.1,0.1,0.2,0.3,0.3,0.4c0.1,0.2,0.2,0.3,0.2,0.5l1.5,4.1l-0.6,0.2L113.9,61.5z M113.1,59.5c-0.2,0-0.3,0-0.5,0
			c-0.2,0-0.4,0.1-0.6,0.2c-0.3,0.1-0.5,0.3-0.6,0.5c-0.1,0.2-0.1,0.6,0.1,0.9c0.1,0.2,0.2,0.3,0.3,0.5s0.2,0.2,0.3,0.3
			c0.1,0.1,0.2,0.1,0.3,0.1c0.1,0,0.2,0,0.4-0.1c0.2-0.1,0.3-0.1,0.4-0.3s0.2-0.2,0.3-0.4c0.1-0.1,0.1-0.2,0.2-0.4
			c0-0.1,0.1-0.2,0.1-0.3L113.1,59.5z"/>
		<path d="M115.6,54.5c0.2-0.1,0.4-0.1,0.5-0.1c0.2,0,0.3,0,0.5,0.1c0.1,0.1,0.3,0.1,0.4,0.2c0.1,0.1,0.2,0.1,0.2,0.2l0,0l-0.1-0.7
			l0.5-0.2l2.4,6.4c0.2,0.5,0.3,0.9,0.3,1.3c0,0.4,0,0.7-0.1,1c-0.1,0.3-0.3,0.6-0.5,0.8c-0.2,0.2-0.5,0.4-0.9,0.5
			c-0.3,0.1-0.6,0.2-0.8,0.2c-0.3,0-0.5,0-0.6,0l-0.3-0.8c0.1,0,0.3,0,0.4,0c0.1,0,0.2,0,0.3,0c0.1,0,0.2,0,0.3-0.1s0.2-0.1,0.4-0.1
			c0.5-0.2,0.9-0.5,1-1c0.2-0.4,0.1-1-0.2-1.7l-0.3-0.8l0,0c-0.1,0.3-0.2,0.5-0.4,0.8c-0.2,0.2-0.4,0.4-0.7,0.5
			c-0.1,0-0.3,0.1-0.4,0.1c-0.2,0-0.3,0-0.5,0c-0.2,0-0.4-0.1-0.6-0.2c-0.2-0.1-0.4-0.2-0.6-0.4c-0.2-0.2-0.4-0.4-0.5-0.7
			c-0.2-0.3-0.3-0.6-0.5-1c-0.2-0.6-0.3-1.1-0.4-1.5c0-0.5,0-0.9,0.1-1.2c0.1-0.3,0.2-0.6,0.4-0.9C115.2,54.7,115.4,54.5,115.6,54.5
			z M115.6,58.1c0.2,0.5,0.4,0.9,0.6,1.1c0.2,0.3,0.4,0.5,0.6,0.6c0.2,0.1,0.4,0.2,0.6,0.2c0.2,0,0.3,0,0.5-0.1
			c0.2-0.1,0.4-0.2,0.6-0.4s0.3-0.4,0.3-0.7l-1.2-3.2c-0.1-0.1-0.2-0.1-0.3-0.2s-0.2-0.1-0.4-0.2c-0.1,0-0.3-0.1-0.4-0.1
			c-0.1,0-0.3,0-0.4,0.1c-0.2,0.1-0.4,0.2-0.5,0.4c-0.1,0.2-0.2,0.4-0.2,0.6c0,0.3,0,0.5,0,0.8C115.4,57.5,115.5,57.8,115.6,58.1z"
			/>
		<path d="M123.2,57.9c0.2-0.1,0.5-0.2,0.6-0.3c0.2-0.1,0.3-0.3,0.5-0.5l0.3,0.8c-0.1,0.2-0.3,0.3-0.5,0.5c-0.2,0.2-0.5,0.3-0.7,0.4
			c-0.3,0.1-0.6,0.2-1,0.2c-0.3,0-0.6-0.1-0.9-0.3c-0.3-0.2-0.6-0.4-0.8-0.8c-0.3-0.4-0.5-0.8-0.7-1.4c-0.2-0.6-0.3-1.1-0.4-1.5
			c0-0.4,0-0.8,0.1-1.2c0.1-0.3,0.2-0.6,0.4-0.9c0.2-0.2,0.4-0.4,0.7-0.5c0.2-0.1,0.5-0.1,0.8-0.1c0.3,0,0.5,0.1,0.8,0.3
			c0.3,0.2,0.5,0.4,0.7,0.8c0.2,0.3,0.5,0.8,0.7,1.3c0,0.1,0,0.1,0,0.1c0,0,0,0.1,0.1,0.2l-3.1,1.2c0.1,0.4,0.3,0.7,0.5,0.9
			c0.2,0.2,0.4,0.4,0.6,0.5c0.2,0.1,0.4,0.2,0.7,0.2C122.7,58,123,58,123.2,57.9z M121.1,53.4c-0.2,0.1-0.3,0.2-0.4,0.3
			c-0.1,0.1-0.2,0.3-0.2,0.5c0,0.2-0.1,0.4-0.1,0.6c0,0.2,0.1,0.5,0.1,0.7l2.3-0.9c-0.1-0.2-0.2-0.5-0.3-0.6
			c-0.1-0.2-0.3-0.3-0.4-0.5c-0.1-0.1-0.3-0.2-0.5-0.2C121.4,53.3,121.2,53.3,121.1,53.4z"/>
		<path d="M41.4,100.8L41.4,100.8c0-0.2,0.1-0.3,0.1-0.5c0.1-0.2,0.1-0.3,0.2-0.4c0.1-0.1,0.2-0.3,0.3-0.4c0.1-0.1,0.3-0.2,0.4-0.3
			c0.2-0.1,0.4-0.1,0.6-0.1c0.2,0,0.4,0.1,0.6,0.2c0.2,0.1,0.4,0.3,0.6,0.6c0.2,0.2,0.3,0.6,0.5,1l1.5,4.1l-0.7,0.3l-1.5-3.9
			c-0.2-0.5-0.4-0.9-0.7-1c-0.2-0.2-0.5-0.2-0.8-0.1c-0.3,0.1-0.5,0.3-0.6,0.6c-0.2,0.3-0.3,0.6-0.3,1l1.6,4.3l-0.7,0.3l-2.3-6.1
			L41,100L41.4,100.8z"/>
		<path d="M44.8,95.7l0.8-0.3l0.4,3.5l-0.7,0.3L44.8,95.7z"/>
		<path d="M48.7,98.1L48.7,98.1c0-0.2,0.1-0.3,0.1-0.5c0.1-0.2,0.1-0.3,0.2-0.4c0.1-0.1,0.2-0.3,0.3-0.4c0.1-0.1,0.3-0.2,0.4-0.2
			c0.2-0.1,0.3-0.1,0.5-0.1c0.2,0,0.4,0,0.6,0.2c0.2,0.1,0.4,0.3,0.6,0.5c0.2,0.2,0.4,0.6,0.5,1l1.5,4.1l-0.7,0.3l-1.5-3.9
			c-0.2-0.5-0.4-0.8-0.6-1c-0.2-0.2-0.5-0.2-0.8-0.1c-0.3,0.1-0.5,0.3-0.6,0.6c-0.2,0.3-0.3,0.6-0.3,1l1.6,4.3l-0.7,0.3l-3.5-9.3
			l0.7-0.3L48.7,98.1z"/>
		<path d="M56.8,100.2c0.2-0.1,0.4-0.2,0.6-0.3c0.2-0.1,0.3-0.3,0.5-0.5l0.3,0.8c-0.1,0.2-0.3,0.3-0.5,0.5c-0.2,0.2-0.5,0.3-0.7,0.4
			c-0.3,0.1-0.6,0.2-1,0.2c-0.3,0-0.6-0.1-0.9-0.3c-0.3-0.2-0.6-0.4-0.8-0.8s-0.5-0.8-0.7-1.4c-0.2-0.6-0.3-1.1-0.4-1.5
			c0-0.4,0-0.8,0.1-1.2c0.1-0.3,0.2-0.6,0.4-0.9c0.2-0.2,0.4-0.4,0.7-0.5c0.2-0.1,0.5-0.1,0.8-0.1c0.3,0,0.5,0.1,0.8,0.3
			c0.3,0.2,0.5,0.4,0.7,0.8c0.2,0.3,0.5,0.8,0.7,1.3c0,0.1,0,0.1,0,0.1s0,0.1,0.1,0.2l-3.1,1.2c0.1,0.4,0.3,0.7,0.5,0.9
			c0.2,0.2,0.4,0.4,0.6,0.5s0.4,0.2,0.7,0.2C56.4,100.3,56.6,100.3,56.8,100.2z M54.2,91.2l0.1,2.5L53.7,94l-0.3-2.4L54.2,91.2z
			 M54.7,95.6c-0.2,0.1-0.3,0.2-0.4,0.3c-0.1,0.1-0.2,0.3-0.2,0.5c0,0.2-0.1,0.4-0.1,0.6c0,0.2,0.1,0.5,0.1,0.7l2.3-0.9
			c-0.1-0.2-0.2-0.5-0.3-0.6c-0.1-0.2-0.3-0.3-0.4-0.5c-0.1-0.1-0.3-0.2-0.5-0.2C55,95.6,54.8,95.6,54.7,95.6z"/>
		<path d="M58.6,95.2c0.1,0.2,0.1,0.3,0.2,0.4c0.1,0.1,0.2,0.1,0.3,0.2c0.1,0,0.2,0,0.4,0c0.1,0,0.3,0,0.4,0c0.2,0,0.4,0,0.5,0
			c0.2,0,0.3,0,0.5,0.1c0.2,0.1,0.3,0.2,0.5,0.4c0.2,0.2,0.3,0.4,0.4,0.8c0.1,0.3,0.2,0.6,0.2,0.9c0,0.3,0,0.5-0.1,0.7
			c-0.1,0.2-0.2,0.4-0.4,0.6c-0.2,0.2-0.4,0.3-0.7,0.4c-0.2,0.1-0.3,0.1-0.5,0.1c-0.1,0-0.3,0-0.4,0c-0.1,0-0.2,0-0.3,0
			s-0.2,0-0.2,0L59.1,99c0.2,0,0.4,0,0.6,0c0.2,0,0.4-0.1,0.6-0.1c0.2-0.1,0.3-0.1,0.4-0.2c0.1-0.1,0.2-0.2,0.3-0.3
			c0.1-0.1,0.1-0.3,0.1-0.4c0-0.1,0-0.3-0.1-0.5c-0.1-0.2-0.1-0.3-0.2-0.4s-0.2-0.2-0.3-0.2s-0.2-0.1-0.4-0.1s-0.3,0-0.4,0
			c-0.2,0-0.4,0-0.5,0c-0.2,0-0.4,0-0.5-0.1c-0.2-0.1-0.3-0.2-0.5-0.3c-0.2-0.2-0.3-0.4-0.4-0.7c-0.1-0.3-0.2-0.6-0.2-0.9
			c0-0.3,0-0.5,0.1-0.7c0.1-0.2,0.2-0.4,0.4-0.5c0.2-0.1,0.3-0.3,0.6-0.3C59,93,59.2,93,59.4,93c0.2,0,0.5,0,0.7,0l0.3,0.8
			c-0.2,0-0.4,0-0.6,0c-0.2,0-0.4,0-0.6,0.1c-0.2,0.1-0.3,0.1-0.4,0.2c-0.1,0.1-0.2,0.2-0.2,0.3c0,0.1-0.1,0.2-0.1,0.4
			C58.5,95,58.5,95.1,58.6,95.2z"/>
		<path d="M60.8,90.9l-0.4-1.1l0.7-0.3l0.4,1.1L60.8,90.9z M63.7,98.4l-2.3-6.1l0.7-0.3l2.3,6.1L63.7,98.4z"/>
		<path d="M68.2,96.7c0,0.1-0.1,0.1-0.2,0.2c-0.1,0.1-0.3,0.2-0.4,0.2c-0.2,0.1-0.5,0.1-0.7,0.1c-0.2,0-0.4-0.1-0.6-0.2
			c-0.2-0.1-0.3-0.3-0.5-0.4c-0.1-0.2-0.3-0.4-0.3-0.7l-1.4-3.7l-0.9,0.3l-0.3-0.9l0.9-0.3l-0.6-1.7l0.7-0.3l0.6,1.7l1.3-0.5
			l0.3,0.9L64.8,92l1.3,3.5c0.1,0.1,0.1,0.3,0.2,0.4c0.1,0.1,0.2,0.2,0.3,0.3c0.1,0.1,0.2,0.1,0.3,0.1c0.1,0,0.2,0,0.4-0.1
			c0.1,0,0.2-0.1,0.3-0.1c0.1-0.1,0.2-0.1,0.3-0.2L68.2,96.7z"/>
		<path d="M71,94.8c0.2-0.1,0.5-0.2,0.6-0.3s0.3-0.3,0.5-0.5l0.3,0.8c-0.1,0.2-0.3,0.3-0.5,0.5c-0.2,0.2-0.5,0.3-0.7,0.4
			c-0.3,0.1-0.6,0.2-1,0.2c-0.3,0-0.6-0.1-0.9-0.3c-0.3-0.2-0.6-0.4-0.8-0.8c-0.3-0.4-0.5-0.8-0.7-1.4c-0.2-0.6-0.3-1.1-0.4-1.5
			c0-0.4,0-0.8,0.1-1.2c0.1-0.3,0.2-0.6,0.4-0.9c0.2-0.2,0.4-0.4,0.7-0.5c0.2-0.1,0.5-0.1,0.8-0.1c0.3,0,0.5,0.1,0.8,0.3
			c0.3,0.2,0.5,0.4,0.7,0.8c0.2,0.3,0.5,0.8,0.7,1.3c0,0.1,0,0.1,0,0.1c0,0,0,0.1,0.1,0.2l-3.1,1.2c0.1,0.4,0.3,0.7,0.5,0.9
			c0.2,0.2,0.4,0.4,0.6,0.5c0.2,0.1,0.4,0.2,0.7,0.2C70.6,94.9,70.8,94.9,71,94.8z M68.9,90.3c-0.2,0.1-0.3,0.2-0.4,0.3
			c-0.1,0.1-0.2,0.3-0.2,0.5c0,0.2-0.1,0.4-0.1,0.6c0,0.2,0.1,0.5,0.1,0.7l2.3-0.9c-0.1-0.2-0.2-0.5-0.3-0.6
			c-0.1-0.2-0.3-0.3-0.4-0.5c-0.1-0.1-0.3-0.2-0.5-0.2C69.2,90.2,69,90.2,68.9,90.3z"/>
		<path d="M74.1,88.5L74.1,88.5l-2.5,0.9l-0.3-0.9l3.4-1.3l0.2,0.6l-0.7,5.5l0,0l2.6-1l0.3,0.9l-3.6,1.4l-0.2-0.5L74.1,88.5z"/>
		<path d="M82.9,87.6c0.2,0.4,0.3,0.8,0.3,1.2c0.1,0.3,0.1,0.7,0.1,0.9c0,0.3,0,0.5-0.1,0.7c-0.1,0.2-0.2,0.4-0.3,0.6
			c-0.1,0.2-0.2,0.3-0.4,0.4c-0.1,0.1-0.3,0.2-0.4,0.2c-0.3,0.1-0.5,0.1-0.8,0.1c-0.2,0-0.5-0.2-0.7-0.3l0,0l1.3,3.5l-0.7,0.3
			l-3.4-9l0.5-0.2l0.4,0.6l0,0c0-0.1,0-0.2,0.1-0.3c0-0.1,0.1-0.2,0.2-0.4c0.1-0.1,0.2-0.3,0.3-0.4c0.1-0.1,0.3-0.2,0.5-0.3
			c0.3-0.1,0.5-0.1,0.8-0.1c0.3,0,0.6,0.1,0.8,0.3c0.3,0.2,0.5,0.5,0.8,0.8C82.4,86.5,82.7,87,82.9,87.6z M82.1,87.9
			c-0.1-0.4-0.3-0.7-0.4-0.9c-0.2-0.3-0.3-0.5-0.5-0.6C81,86.2,80.8,86,80.6,86s-0.4,0-0.6,0.1c-0.2,0.1-0.3,0.1-0.4,0.2
			s-0.2,0.2-0.3,0.3c-0.1,0.1-0.1,0.2-0.2,0.4s-0.1,0.2-0.1,0.3l1.2,3.2c0.2,0.2,0.5,0.3,0.7,0.3c0.2,0,0.5,0,0.7-0.1
			c0.1-0.1,0.3-0.1,0.4-0.3c0.1-0.1,0.2-0.3,0.3-0.5c0.1-0.2,0.1-0.5,0-0.9C82.4,88.7,82.3,88.3,82.1,87.9z"/>
		<path d="M87.6,88.6L87.6,88.6c0,0.1-0.1,0.3-0.1,0.4c-0.1,0.1-0.1,0.3-0.2,0.4c-0.1,0.1-0.2,0.2-0.3,0.3c-0.1,0.1-0.3,0.2-0.4,0.2
			C86.3,90,86,90,85.8,90c-0.2,0-0.4-0.1-0.6-0.2c-0.2-0.1-0.4-0.3-0.5-0.5s-0.3-0.5-0.4-0.8c-0.1-0.3-0.2-0.6-0.2-0.9
			c0-0.3,0-0.5,0.1-0.7c0.1-0.2,0.2-0.4,0.4-0.6c0.2-0.2,0.4-0.3,0.6-0.4c0.2-0.1,0.5-0.1,0.7-0.2c0.2,0,0.4,0,0.6,0l0,0l-0.2-0.4
			c-0.1-0.2-0.1-0.3-0.2-0.4c-0.1-0.1-0.1-0.2-0.2-0.3c-0.2-0.2-0.4-0.3-0.6-0.4c-0.2-0.1-0.5,0-0.8,0.1c-0.2,0.1-0.4,0.2-0.6,0.3
			c-0.2,0.1-0.3,0.3-0.5,0.5l-0.3-0.8c0.1-0.1,0.1-0.2,0.2-0.2c0.1-0.1,0.2-0.2,0.3-0.2s0.2-0.1,0.3-0.2c0.1-0.1,0.2-0.1,0.4-0.2
			c0.4-0.2,0.9-0.2,1.2-0.1c0.4,0.1,0.7,0.3,0.9,0.6c0.1,0.1,0.2,0.3,0.3,0.4c0.1,0.2,0.2,0.3,0.2,0.5l1.5,4.1l-0.6,0.2L87.6,88.6z
			 M86.8,86.6c-0.2,0-0.3,0-0.5,0c-0.2,0-0.4,0.1-0.6,0.2c-0.3,0.1-0.5,0.3-0.6,0.5c-0.1,0.2-0.1,0.6,0.1,0.9
			c0.1,0.2,0.2,0.3,0.3,0.5c0.1,0.1,0.2,0.2,0.3,0.3c0.1,0.1,0.2,0.1,0.3,0.1c0.1,0,0.2,0,0.4-0.1c0.2-0.1,0.3-0.1,0.4-0.3
			c0.1-0.1,0.2-0.2,0.3-0.4c0.1-0.1,0.1-0.2,0.2-0.4c0-0.1,0.1-0.2,0.1-0.3L86.8,86.6z"/>
		<path d="M88.7,83.8c0.1,0.2,0.1,0.3,0.2,0.4c0.1,0.1,0.2,0.1,0.3,0.2c0.1,0,0.2,0,0.4,0c0.1,0,0.3,0,0.4,0c0.2,0,0.4,0,0.5,0
			c0.2,0,0.3,0,0.5,0.1c0.2,0.1,0.3,0.2,0.5,0.4c0.2,0.2,0.3,0.4,0.4,0.8c0.1,0.3,0.2,0.6,0.2,0.9c0,0.3,0,0.5-0.1,0.7
			c-0.1,0.2-0.2,0.4-0.4,0.6c-0.2,0.2-0.4,0.3-0.7,0.4c-0.2,0.1-0.3,0.1-0.5,0.1c-0.1,0-0.3,0-0.4,0s-0.2,0-0.3,0
			c-0.1,0-0.2,0-0.2,0l-0.3-0.8c0.2,0,0.4,0,0.6,0c0.2,0,0.4-0.1,0.6-0.1c0.2-0.1,0.3-0.1,0.4-0.2c0.1-0.1,0.2-0.2,0.3-0.3
			c0.1-0.1,0.1-0.3,0.1-0.4c0-0.1,0-0.3-0.1-0.5c-0.1-0.2-0.1-0.3-0.2-0.4s-0.2-0.2-0.3-0.2c-0.1,0-0.2-0.1-0.4-0.1s-0.3,0-0.4,0
			c-0.2,0-0.4,0-0.5,0s-0.4,0-0.5-0.1c-0.2-0.1-0.3-0.2-0.5-0.3c-0.2-0.2-0.3-0.4-0.4-0.7c-0.1-0.3-0.2-0.6-0.2-0.9
			c0-0.3,0-0.5,0.1-0.7c0.1-0.2,0.2-0.4,0.4-0.5c0.2-0.1,0.3-0.3,0.6-0.3c0.2-0.1,0.5-0.1,0.7-0.2c0.2,0,0.5,0,0.7,0l0.3,0.8
			c-0.2,0-0.4,0-0.6,0s-0.4,0-0.6,0.1c-0.2,0.1-0.3,0.1-0.4,0.2c-0.1,0.1-0.2,0.2-0.2,0.3c0,0.1-0.1,0.2-0.1,0.4
			C88.7,83.5,88.7,83.7,88.7,83.8z"/>
		<path d="M93.5,76.3l1.4,2l-0.6,0.2l-1.6-1.9L93.5,76.3z M98,84.6L98,84.6c0,0.1-0.1,0.3-0.1,0.4c-0.1,0.1-0.1,0.3-0.2,0.4
			c-0.1,0.1-0.2,0.2-0.3,0.3c-0.1,0.1-0.3,0.2-0.4,0.2c-0.2,0.1-0.4,0.1-0.6,0.1c-0.2,0-0.4-0.1-0.6-0.2c-0.2-0.1-0.4-0.3-0.5-0.5
			c-0.2-0.2-0.3-0.5-0.4-0.8c-0.1-0.3-0.2-0.6-0.2-0.9c0-0.3,0-0.5,0.1-0.7c0.1-0.2,0.2-0.4,0.4-0.6c0.2-0.2,0.4-0.3,0.6-0.4
			c0.2-0.1,0.5-0.1,0.7-0.2c0.2,0,0.4,0,0.6,0l0,0l-0.2-0.4c-0.1-0.2-0.1-0.3-0.2-0.4c-0.1-0.1-0.1-0.2-0.2-0.3
			c-0.2-0.2-0.4-0.3-0.6-0.4c-0.2-0.1-0.5,0-0.8,0.1c-0.2,0.1-0.4,0.2-0.6,0.3c-0.2,0.1-0.3,0.3-0.5,0.5l-0.3-0.8
			c0.1-0.1,0.1-0.2,0.2-0.2c0.1-0.1,0.2-0.2,0.3-0.2c0.1-0.1,0.2-0.1,0.3-0.2s0.2-0.1,0.4-0.2c0.4-0.2,0.9-0.2,1.2-0.1
			c0.4,0.1,0.7,0.3,0.9,0.6c0.1,0.1,0.2,0.3,0.3,0.4c0.1,0.2,0.2,0.3,0.2,0.5L99,85l-0.6,0.2L98,84.6z M97.3,82.6
			c-0.2,0-0.3,0-0.5,0c-0.2,0-0.4,0.1-0.6,0.2c-0.3,0.1-0.5,0.3-0.6,0.5c-0.1,0.2-0.1,0.6,0.1,0.9c0.1,0.2,0.2,0.3,0.3,0.5
			c0.1,0.1,0.2,0.2,0.3,0.3c0.1,0.1,0.2,0.1,0.3,0.1c0.1,0,0.2,0,0.4-0.1c0.2-0.1,0.3-0.1,0.4-0.3c0.1-0.1,0.2-0.2,0.3-0.4
			c0.1-0.1,0.1-0.2,0.2-0.4s0.1-0.2,0.1-0.3L97.3,82.6z"/>
		<path d="M101,78.2L101,78.2c0-0.2,0.1-0.3,0.1-0.5c0.1-0.2,0.1-0.3,0.2-0.4c0.1-0.1,0.2-0.3,0.3-0.4c0.1-0.1,0.3-0.2,0.4-0.3
			c0.2-0.1,0.4-0.1,0.6-0.1c0.2,0,0.4,0.1,0.6,0.2c0.2,0.1,0.4,0.3,0.6,0.6c0.2,0.2,0.3,0.6,0.5,1l1.5,4.1l-0.7,0.3l-1.5-3.9
			c-0.2-0.5-0.4-0.9-0.7-1c-0.2-0.2-0.5-0.2-0.8-0.1c-0.2,0.1-0.5,0.3-0.6,0.6c-0.2,0.3-0.3,0.6-0.3,1l1.6,4.3l-0.7,0.3l-2.3-6.1
			l0.6-0.2L101,78.2z"/>
		<path d="M110.2,77.3c0.2,0.5,0.3,0.9,0.3,1.4c0,0.4,0,0.8,0,1.2c-0.1,0.3-0.2,0.6-0.4,0.9c-0.2,0.3-0.5,0.4-0.8,0.6
			c-0.3,0.1-0.7,0.2-1,0.1c-0.3-0.1-0.6-0.2-0.9-0.4c-0.3-0.2-0.6-0.5-0.8-0.8c-0.2-0.4-0.5-0.8-0.6-1.2c-0.2-0.5-0.3-0.9-0.3-1.4
			c0-0.4,0-0.8,0-1.2c0.1-0.4,0.2-0.7,0.4-0.9c0.2-0.3,0.5-0.4,0.8-0.6c0.3-0.1,0.7-0.2,1-0.1c0.3,0.1,0.6,0.2,0.9,0.4
			c0.3,0.2,0.6,0.5,0.8,0.9S110,76.8,110.2,77.3z M109.4,77.6c-0.1-0.4-0.3-0.7-0.5-1s-0.4-0.5-0.6-0.6c-0.2-0.2-0.4-0.3-0.6-0.3
			c-0.2,0-0.4,0-0.6,0c-0.2,0.1-0.4,0.2-0.5,0.4c-0.1,0.2-0.2,0.4-0.3,0.6c0,0.2,0,0.5,0,0.8c0,0.3,0.1,0.7,0.3,1
			c0.1,0.4,0.3,0.7,0.5,1s0.4,0.5,0.6,0.6c0.2,0.2,0.4,0.3,0.6,0.3c0.2,0,0.4,0,0.6,0c0.2-0.1,0.4-0.2,0.5-0.4
			c0.1-0.2,0.2-0.4,0.3-0.6s0-0.5,0-0.8C109.7,78.3,109.6,78,109.4,77.6z"/>
		<path d="M114.3,79.4c-0.2,0.1-0.5,0.1-0.7,0.1c-0.2,0-0.4,0-0.6-0.1s-0.4-0.2-0.5-0.3c-0.2-0.1-0.3-0.3-0.4-0.5
			c-0.1-0.1-0.2-0.3-0.3-0.5c-0.1-0.2-0.2-0.4-0.3-0.6l-1.4-3.7l0.7-0.3l1.4,3.7c0.1,0.3,0.3,0.6,0.4,0.8c0.2,0.2,0.4,0.4,0.6,0.5
			c0.2,0.1,0.5,0.1,0.7,0c0.3-0.1,0.5-0.3,0.6-0.5c0.1-0.2,0.1-0.5,0.1-0.8c0-0.2-0.1-0.5-0.2-0.8l-1.4-3.7l0.7-0.3l1.4,3.7
			c0.1,0.2,0.1,0.4,0.2,0.6c0,0.2,0.1,0.4,0.1,0.5c0,0.2,0,0.5,0,0.7c0,0.2-0.1,0.4-0.2,0.6c-0.1,0.2-0.2,0.3-0.4,0.5
			C114.7,79.2,114.5,79.3,114.3,79.4z"/>
		<path d="M116.3,73.4c0.1,0.2,0.1,0.3,0.2,0.4c0.1,0.1,0.2,0.1,0.3,0.2c0.1,0,0.2,0,0.4,0c0.1,0,0.3,0,0.4,0c0.2,0,0.4,0,0.5,0
			s0.3,0,0.5,0.1c0.2,0.1,0.3,0.2,0.5,0.4c0.2,0.2,0.3,0.4,0.4,0.8c0.1,0.3,0.2,0.6,0.2,0.9c0,0.3,0,0.5-0.1,0.7
			c-0.1,0.2-0.2,0.4-0.4,0.6c-0.2,0.2-0.4,0.3-0.7,0.4c-0.2,0.1-0.3,0.1-0.5,0.1c-0.1,0-0.3,0-0.4,0c-0.1,0-0.2,0-0.3,0
			c-0.1,0-0.2,0-0.2,0l-0.3-0.8c0.2,0,0.4,0,0.6,0c0.2,0,0.4-0.1,0.6-0.1c0.2-0.1,0.3-0.1,0.4-0.2c0.1-0.1,0.2-0.2,0.3-0.3
			c0.1-0.1,0.1-0.3,0.1-0.4c0-0.1,0-0.3-0.1-0.5c-0.1-0.2-0.1-0.3-0.2-0.4c-0.1-0.1-0.2-0.2-0.3-0.2c-0.1,0-0.2-0.1-0.4-0.1
			c-0.1,0-0.3,0-0.4,0c-0.2,0-0.4,0-0.5,0c-0.2,0-0.4,0-0.5-0.1c-0.2-0.1-0.3-0.2-0.5-0.3c-0.2-0.2-0.3-0.4-0.4-0.7
			c-0.1-0.3-0.2-0.6-0.2-0.9c0-0.3,0-0.5,0.1-0.7c0.1-0.2,0.2-0.4,0.4-0.5c0.2-0.1,0.3-0.3,0.6-0.3c0.2-0.1,0.5-0.1,0.7-0.2
			c0.2,0,0.5,0,0.7,0l0.3,0.8c-0.2,0-0.4,0-0.6,0c-0.2,0-0.4,0-0.6,0.1c-0.2,0.1-0.3,0.1-0.4,0.2c-0.1,0.1-0.2,0.2-0.2,0.3
			c0,0.1-0.1,0.2-0.1,0.4S116.2,73.2,116.3,73.4z"/>
		<path d="M122.8,68.9c0.2-0.1,0.4-0.1,0.7-0.1c0.2,0,0.4,0,0.6,0.1l0.3,0.8c-0.2,0-0.4,0-0.6,0c-0.2,0-0.4,0-0.5,0.1
			c-0.2,0.1-0.3,0.2-0.5,0.3c-0.1,0.1-0.3,0.3-0.3,0.6c-0.1,0.2-0.1,0.5-0.1,0.9c0,0.3,0.1,0.7,0.3,1.2c0.1,0.3,0.3,0.6,0.4,0.9
			c0.2,0.3,0.4,0.5,0.6,0.6s0.4,0.3,0.7,0.3c0.2,0,0.5,0,0.7-0.1c0.2-0.1,0.4-0.2,0.5-0.3c0.2-0.1,0.3-0.3,0.5-0.4l0.3,0.8
			c0,0.1-0.1,0.1-0.2,0.2c-0.1,0.1-0.1,0.1-0.2,0.2c-0.1,0.1-0.2,0.1-0.3,0.2c-0.1,0.1-0.2,0.1-0.3,0.2c-0.3,0.1-0.6,0.2-0.9,0.1
			c-0.3,0-0.6-0.1-0.9-0.3c-0.3-0.2-0.6-0.4-0.8-0.8c-0.3-0.3-0.5-0.8-0.7-1.3c-0.2-0.4-0.3-0.8-0.3-1.1c-0.1-0.3-0.1-0.7-0.1-0.9
			c0-0.3,0.1-0.5,0.1-0.8c0.1-0.2,0.2-0.4,0.3-0.6c0.1-0.2,0.3-0.3,0.4-0.4C122.5,69,122.6,68.9,122.8,68.9z"/>
		<path d="M130.3,69.7c0.2,0.5,0.3,0.9,0.3,1.4c0,0.4,0,0.8,0,1.2c-0.1,0.3-0.2,0.6-0.4,0.9c-0.2,0.3-0.5,0.4-0.8,0.6
			c-0.3,0.1-0.7,0.2-1,0.1s-0.6-0.2-0.9-0.4c-0.3-0.2-0.6-0.5-0.8-0.8c-0.2-0.4-0.5-0.8-0.6-1.2c-0.2-0.5-0.3-0.9-0.3-1.4
			s0-0.8,0-1.2c0.1-0.4,0.2-0.7,0.4-0.9c0.2-0.3,0.5-0.4,0.8-0.6c0.3-0.1,0.7-0.2,1-0.1c0.3,0.1,0.6,0.2,0.9,0.4
			c0.3,0.2,0.6,0.5,0.8,0.9S130.1,69.2,130.3,69.7z M129.5,70c-0.1-0.4-0.3-0.7-0.5-1c-0.2-0.3-0.4-0.5-0.6-0.6
			c-0.2-0.2-0.4-0.3-0.6-0.3c-0.2,0-0.4,0-0.6,0s-0.4,0.2-0.5,0.4c-0.1,0.2-0.2,0.4-0.3,0.6c0,0.2,0,0.5,0,0.8c0,0.3,0.1,0.7,0.3,1
			c0.1,0.4,0.3,0.7,0.5,1c0.2,0.3,0.4,0.5,0.6,0.6c0.2,0.2,0.4,0.3,0.6,0.3c0.2,0,0.4,0,0.6,0c0.2-0.1,0.4-0.2,0.5-0.4
			c0.1-0.2,0.2-0.4,0.3-0.6c0-0.2,0-0.5,0-0.8C129.7,70.7,129.6,70.3,129.5,70z"/>
		<path d="M131.3,66.8L131.3,66.8c0-0.2,0.1-0.3,0.1-0.5c0.1-0.2,0.1-0.3,0.2-0.4c0.1-0.1,0.2-0.3,0.3-0.4c0.1-0.1,0.3-0.2,0.4-0.3
			c0.2-0.1,0.4-0.1,0.6-0.1c0.2,0,0.4,0.1,0.6,0.2c0.2,0.1,0.4,0.3,0.6,0.6c0.2,0.2,0.3,0.6,0.5,1l1.5,4.1l-0.7,0.3l-1.5-3.9
			c-0.2-0.5-0.4-0.9-0.7-1c-0.2-0.2-0.5-0.2-0.8-0.1c-0.2,0.1-0.5,0.3-0.6,0.6c-0.2,0.3-0.3,0.6-0.3,1l1.6,4.3l-0.7,0.3l-2.3-6.1
			l0.6-0.2L131.3,66.8z"/>
		<path d="M139.9,69.5c0,0.1-0.1,0.1-0.3,0.2c-0.1,0.1-0.3,0.2-0.4,0.2c-0.2,0.1-0.5,0.1-0.7,0.1c-0.2,0-0.4-0.1-0.6-0.2
			c-0.2-0.1-0.3-0.2-0.5-0.4c-0.1-0.2-0.3-0.4-0.3-0.7l-1.4-3.7l-0.9,0.3l-0.3-0.9l0.9-0.3l-0.6-1.7l0.7-0.3l0.6,1.7l1.3-0.5
			l0.3,0.9l-1.3,0.5l1.3,3.5c0.1,0.1,0.1,0.3,0.2,0.4c0.1,0.1,0.2,0.2,0.3,0.3s0.2,0.1,0.3,0.1c0.1,0,0.2,0,0.4-0.1
			c0.1,0,0.2-0.1,0.3-0.1c0.1-0.1,0.2-0.1,0.3-0.2L139.9,69.5z"/>
		<path d="M143.3,67.4L143.3,67.4c0,0.1-0.1,0.3-0.1,0.4c-0.1,0.1-0.1,0.3-0.2,0.4s-0.2,0.2-0.3,0.3c-0.1,0.1-0.3,0.2-0.4,0.2
			c-0.2,0.1-0.4,0.1-0.6,0.1c-0.2,0-0.4-0.1-0.6-0.2c-0.2-0.1-0.4-0.3-0.5-0.5c-0.2-0.2-0.3-0.5-0.4-0.8c-0.1-0.3-0.2-0.6-0.2-0.9
			c0-0.3,0-0.5,0.1-0.7c0.1-0.2,0.2-0.4,0.4-0.6c0.2-0.2,0.4-0.3,0.6-0.4c0.2-0.1,0.5-0.1,0.7-0.2c0.2,0,0.4,0,0.6,0l0,0l-0.2-0.4
			c-0.1-0.2-0.1-0.3-0.2-0.4c-0.1-0.1-0.1-0.2-0.2-0.3c-0.2-0.2-0.4-0.3-0.6-0.4c-0.2-0.1-0.5,0-0.8,0.1c-0.2,0.1-0.4,0.2-0.6,0.3
			c-0.2,0.1-0.3,0.3-0.5,0.5l-0.3-0.8c0.1-0.1,0.1-0.2,0.2-0.2c0.1-0.1,0.2-0.2,0.3-0.2c0.1-0.1,0.2-0.1,0.3-0.2s0.2-0.1,0.4-0.2
			c0.4-0.2,0.9-0.2,1.2-0.1c0.4,0.1,0.7,0.3,0.9,0.6c0.1,0.1,0.2,0.3,0.3,0.4c0.1,0.2,0.2,0.3,0.2,0.5l1.5,4.1l-0.6,0.2L143.3,67.4z
			 M142.5,65.5c-0.2,0-0.3,0-0.5,0c-0.2,0-0.4,0.1-0.6,0.2c-0.3,0.1-0.5,0.3-0.6,0.5c-0.1,0.2-0.1,0.6,0.1,0.9
			c0.1,0.2,0.2,0.3,0.3,0.5c0.1,0.1,0.2,0.2,0.3,0.3c0.1,0.1,0.2,0.1,0.3,0.1c0.1,0,0.2,0,0.4-0.1c0.2-0.1,0.3-0.1,0.4-0.3
			c0.1-0.1,0.2-0.2,0.3-0.4c0.1-0.1,0.1-0.2,0.2-0.4c0-0.1,0.1-0.2,0.1-0.3L142.5,65.5z"/>
		<path d="M145.2,60.4c0.2-0.1,0.4-0.1,0.7-0.1c0.2,0,0.4,0,0.6,0.1l0.3,0.8c-0.2,0-0.4,0-0.6,0c-0.2,0-0.4,0-0.5,0.1
			c-0.2,0.1-0.3,0.2-0.5,0.3c-0.1,0.1-0.3,0.3-0.3,0.6c-0.1,0.2-0.1,0.5-0.1,0.9c0,0.3,0.1,0.7,0.3,1.2c0.1,0.3,0.3,0.6,0.4,0.9
			c0.2,0.3,0.4,0.5,0.6,0.6s0.4,0.3,0.7,0.3c0.2,0,0.5,0,0.7-0.1c0.2-0.1,0.4-0.2,0.5-0.3c0.2-0.1,0.3-0.3,0.5-0.4l0.3,0.8
			c0,0.1-0.1,0.1-0.2,0.2c-0.1,0.1-0.1,0.1-0.2,0.2c-0.1,0.1-0.2,0.1-0.3,0.2c-0.1,0.1-0.2,0.1-0.3,0.2c-0.3,0.1-0.6,0.2-0.9,0.1
			c-0.3,0-0.6-0.1-0.9-0.3c-0.3-0.2-0.6-0.4-0.8-0.8c-0.3-0.3-0.5-0.8-0.7-1.3c-0.2-0.4-0.3-0.8-0.3-1.1s-0.1-0.7-0.1-0.9
			c0-0.3,0.1-0.5,0.1-0.8c0.1-0.2,0.2-0.4,0.3-0.6c0.1-0.2,0.3-0.3,0.4-0.4C144.8,60.5,145,60.4,145.2,60.4z"/>
		<path d="M152.2,64.9c0,0.1-0.1,0.1-0.3,0.2c-0.1,0.1-0.3,0.2-0.4,0.2c-0.2,0.1-0.5,0.1-0.7,0.1c-0.2,0-0.4-0.1-0.6-0.2
			c-0.2-0.1-0.3-0.3-0.5-0.4s-0.3-0.4-0.3-0.7l-1.4-3.7l-0.9,0.3l-0.3-0.9l0.9-0.3l-0.6-1.7l0.7-0.3l0.6,1.7l1.3-0.5l0.3,0.9
			l-1.3,0.5l1.3,3.5c0.1,0.1,0.1,0.3,0.2,0.4c0.1,0.1,0.2,0.2,0.3,0.3c0.1,0.1,0.2,0.1,0.3,0.1c0.1,0,0.2,0,0.4-0.1
			c0.1,0,0.2-0.1,0.3-0.1c0.1-0.1,0.2-0.1,0.3-0.2L152.2,64.9z"/>
		<path d="M155,63c0.2-0.1,0.5-0.2,0.6-0.3s0.3-0.3,0.5-0.5l0.3,0.8c-0.1,0.2-0.3,0.3-0.5,0.5c-0.2,0.2-0.5,0.3-0.7,0.4
			c-0.3,0.1-0.6,0.2-1,0.2c-0.3,0-0.6-0.1-0.9-0.3c-0.3-0.2-0.6-0.4-0.8-0.8c-0.3-0.4-0.5-0.8-0.7-1.4c-0.2-0.6-0.3-1.1-0.4-1.5
			c0-0.4,0-0.8,0.1-1.2c0.1-0.3,0.2-0.6,0.4-0.9c0.2-0.2,0.4-0.4,0.7-0.5c0.3-0.1,0.5-0.1,0.8-0.1c0.3,0,0.5,0.1,0.8,0.3
			c0.3,0.2,0.5,0.4,0.7,0.8s0.5,0.8,0.7,1.3c0,0.1,0,0.1,0,0.1s0,0.1,0.1,0.2l-3.1,1.2c0.1,0.4,0.3,0.7,0.5,0.9
			c0.2,0.2,0.4,0.4,0.6,0.5c0.2,0.1,0.4,0.2,0.7,0.2C154.5,63.1,154.8,63.1,155,63z M152.8,58.4c-0.2,0.1-0.3,0.2-0.4,0.3
			c-0.1,0.1-0.2,0.3-0.2,0.5c0,0.2-0.1,0.4-0.1,0.6c0,0.2,0.1,0.5,0.1,0.7l2.3-0.9c-0.1-0.2-0.2-0.5-0.3-0.6
			c-0.1-0.2-0.3-0.3-0.4-0.5c-0.1-0.1-0.3-0.2-0.5-0.2C153.2,58.4,153,58.4,152.8,58.4z"/>
		<path d="M158.4,56.5L158.4,56.5c-0.2,0.1-0.4,0.2-0.5,0.3c-0.1,0.1-0.3,0.2-0.4,0.4c-0.1,0.1-0.2,0.3-0.3,0.5
			c-0.1,0.2-0.1,0.4-0.1,0.6l1.6,4.2l-0.7,0.3l-2.3-6.1l0.6-0.2l0.5,0.9l0,0c0-0.2,0-0.4,0.1-0.5c0.1-0.2,0.1-0.3,0.2-0.5
			c0.1-0.2,0.2-0.3,0.3-0.4c0.1-0.1,0.3-0.2,0.5-0.3c0,0,0.1,0,0.1,0c0,0,0.1,0,0.1,0L158.4,56.5z"/>
		<path d="M53.4,114.3c0.1,0.2,0.1,0.3,0.2,0.4c0.1,0.1,0.2,0.1,0.3,0.2s0.2,0,0.4,0c0.1,0,0.3,0,0.4,0c0.2,0,0.4,0,0.5,0
			c0.2,0,0.3,0,0.5,0.1c0.2,0.1,0.3,0.2,0.5,0.4c0.2,0.2,0.3,0.4,0.4,0.8c0.1,0.3,0.2,0.6,0.2,0.9c0,0.3,0,0.5-0.1,0.7
			c-0.1,0.2-0.2,0.4-0.4,0.6c-0.2,0.2-0.4,0.3-0.7,0.4c-0.2,0.1-0.3,0.1-0.5,0.1c-0.1,0-0.3,0-0.4,0c-0.1,0-0.2,0-0.3,0
			c-0.1,0-0.2,0-0.2,0L54,118c0.2,0,0.4,0,0.6,0c0.2,0,0.4-0.1,0.6-0.1c0.2-0.1,0.3-0.1,0.4-0.2c0.1-0.1,0.2-0.2,0.3-0.3
			c0.1-0.1,0.1-0.3,0.1-0.4s0-0.3-0.1-0.5c-0.1-0.2-0.1-0.3-0.2-0.4c-0.1-0.1-0.2-0.2-0.3-0.2c-0.1,0-0.2-0.1-0.4-0.1
			c-0.1,0-0.3,0-0.4,0c-0.2,0-0.4,0-0.5,0s-0.4,0-0.5-0.1c-0.2-0.1-0.3-0.2-0.5-0.3c-0.2-0.2-0.3-0.4-0.4-0.7
			c-0.1-0.3-0.2-0.6-0.2-0.9c0-0.3,0-0.5,0.1-0.7c0.1-0.2,0.2-0.4,0.4-0.5c0.2-0.1,0.3-0.3,0.6-0.3c0.2-0.1,0.5-0.1,0.7-0.2
			c0.2,0,0.5,0,0.7,0l0.3,0.8c-0.2,0-0.4,0-0.6,0c-0.2,0-0.4,0.1-0.6,0.1c-0.2,0.1-0.3,0.1-0.4,0.2c-0.1,0.1-0.2,0.2-0.2,0.3
			c0,0.1-0.1,0.2-0.1,0.4C53.4,114,53.4,114.1,53.4,114.3z"/>
		<path d="M60.3,117c-0.2,0.1-0.5,0.1-0.7,0.1c-0.2,0-0.4,0-0.6-0.1c-0.2-0.1-0.4-0.2-0.5-0.3c-0.2-0.1-0.3-0.3-0.4-0.5
			c-0.1-0.1-0.2-0.3-0.3-0.5c-0.1-0.2-0.2-0.4-0.3-0.6l-1.4-3.7l0.7-0.3l1.4,3.7c0.1,0.3,0.3,0.6,0.4,0.8c0.2,0.2,0.4,0.4,0.6,0.5
			c0.2,0.1,0.5,0.1,0.7,0c0.3-0.1,0.5-0.3,0.6-0.5c0.1-0.2,0.1-0.5,0.1-0.8c0-0.2-0.1-0.5-0.2-0.8l-1.4-3.7l0.7-0.3l1.4,3.7
			c0.1,0.2,0.1,0.4,0.2,0.6c0,0.2,0.1,0.4,0.1,0.5c0,0.2,0,0.5,0,0.7c0,0.2-0.1,0.4-0.2,0.6c-0.1,0.2-0.2,0.3-0.4,0.5
			C60.7,116.8,60.5,116.9,60.3,117z"/>
		<path d="M63.9,109.4L63.9,109.4c-0.2,0.1-0.4,0.2-0.5,0.3c-0.1,0.1-0.3,0.2-0.4,0.4c-0.1,0.1-0.2,0.3-0.3,0.5
			c-0.1,0.2-0.1,0.4-0.1,0.6l1.6,4.2l-0.7,0.3l-2.3-6.1l0.6-0.2l0.5,0.9l0,0c0-0.2,0-0.4,0.1-0.5s0.1-0.3,0.2-0.5s0.2-0.3,0.3-0.4
			c0.1-0.1,0.3-0.2,0.5-0.3c0,0,0.1,0,0.1,0c0,0,0.1,0,0.1,0L63.9,109.4z"/>
		<path d="M65,104.4l1.2-0.4l0.6,1.6l-1.2,0.4L65,104.4z M66.2,107.5l1.1-0.4l2.3,6.2l-1.1,0.4L66.2,107.5z"/>
		<path d="M69.9,107.1L69.9,107.1c0-0.2,0.1-0.3,0.1-0.5s0.1-0.3,0.2-0.5c0.1-0.1,0.2-0.3,0.3-0.4c0.1-0.1,0.3-0.2,0.5-0.3
			c0.2-0.1,0.3-0.1,0.5-0.1s0.3,0,0.5,0.1c0.2,0.1,0.3,0.2,0.5,0.3c0.2,0.1,0.3,0.3,0.5,0.5c0.1,0.1,0.2,0.3,0.2,0.4
			c0.1,0.2,0.1,0.3,0.2,0.5l1.5,4l-1.1,0.4l-1.4-3.8c-0.1-0.2-0.1-0.3-0.2-0.4c-0.1-0.1-0.1-0.2-0.2-0.3c-0.1-0.2-0.3-0.3-0.4-0.3
			c-0.1,0-0.3,0-0.5,0c-0.2,0.1-0.4,0.2-0.5,0.4c-0.1,0.2-0.2,0.5-0.3,0.8l1.6,4.3l-1.1,0.4l-2.3-6.2l0.9-0.3L69.9,107.1z"/>
		<path d="M76,101.7c-0.1,0-0.3,0-0.4,0c-0.1,0-0.3,0.1-0.4,0.1c-0.1,0-0.2,0.1-0.3,0.2c-0.1,0.1-0.1,0.2-0.2,0.3c0,0.1,0,0.3,0,0.4
			c0,0.2,0.1,0.3,0.2,0.6l0.3,0.8l1.3-0.5l0.5,1.2l-1.3,0.5l1.9,4.9l-1.1,0.4l-1.9-4.9l-0.8,0.3l-0.5-1.2l0.8-0.3l-0.3-0.7
			c-0.2-0.4-0.3-0.8-0.3-1.2c0-0.3,0-0.7,0.1-0.9c0.1-0.3,0.2-0.5,0.4-0.7c0.2-0.2,0.4-0.3,0.6-0.4c0.2-0.1,0.3-0.1,0.5-0.1
			c0.2,0,0.3,0,0.4,0L76,101.7z"/>
		<path d="M82.5,104.8c0.2,0.5,0.3,0.9,0.3,1.4c0,0.4,0,0.8-0.1,1.2c-0.1,0.4-0.2,0.7-0.5,0.9s-0.5,0.5-0.9,0.6
			c-0.4,0.1-0.7,0.2-1,0.1c-0.3,0-0.7-0.2-1-0.4c-0.3-0.2-0.6-0.5-0.8-0.9c-0.3-0.4-0.5-0.8-0.7-1.3c-0.2-0.5-0.3-0.9-0.3-1.4
			c0-0.4,0-0.8,0.1-1.2c0.1-0.4,0.2-0.7,0.5-0.9c0.2-0.3,0.5-0.5,0.9-0.6c0.4-0.1,0.7-0.2,1-0.1c0.3,0,0.7,0.2,1,0.4
			c0.3,0.2,0.6,0.5,0.8,0.9C82.1,103.9,82.3,104.3,82.5,104.8z M81.3,105.3c-0.1-0.3-0.3-0.6-0.4-0.8s-0.3-0.4-0.5-0.5
			c-0.2-0.1-0.3-0.2-0.5-0.2c-0.2,0-0.3,0-0.5,0c-0.2,0.1-0.3,0.2-0.4,0.3c-0.1,0.1-0.2,0.3-0.2,0.5s0,0.4,0,0.7s0.1,0.6,0.2,0.9
			c0.1,0.3,0.3,0.6,0.4,0.8c0.2,0.2,0.3,0.4,0.5,0.5c0.2,0.1,0.3,0.2,0.5,0.2c0.2,0,0.3,0,0.5,0s0.3-0.2,0.4-0.3
			c0.1-0.1,0.2-0.3,0.2-0.5c0-0.2,0-0.4,0-0.7C81.5,105.9,81.4,105.6,81.3,105.3z"/>
		<path d="M89.6,104.8c0,0.1-0.1,0.2-0.1,0.4c-0.1,0.1-0.1,0.3-0.2,0.4c-0.1,0.1-0.2,0.2-0.3,0.3c-0.1,0.1-0.3,0.2-0.4,0.2
			c-0.2,0.1-0.4,0.1-0.6,0.1c-0.2,0-0.4-0.1-0.6-0.2c-0.2-0.1-0.4-0.3-0.5-0.5c-0.2-0.2-0.3-0.5-0.4-0.7c-0.1-0.3-0.2-0.6-0.2-0.9
			c0-0.3,0-0.5,0.1-0.8c0.1-0.2,0.2-0.4,0.4-0.6c0.2-0.2,0.4-0.3,0.6-0.4c0.2-0.1,0.4-0.1,0.6-0.2c0.2,0,0.3,0,0.4,0l-0.1-0.2
			c-0.1-0.1-0.1-0.3-0.2-0.4s-0.2-0.2-0.3-0.3c-0.1-0.1-0.2-0.1-0.4-0.1c-0.1,0-0.3,0-0.5,0.1c-0.2,0.1-0.4,0.2-0.6,0.3
			c-0.2,0.1-0.4,0.3-0.6,0.6l-0.4-1.1c0.1-0.1,0.1-0.2,0.2-0.3c0.1-0.1,0.2-0.2,0.3-0.3c0.1-0.1,0.2-0.2,0.4-0.2
			c0.1-0.1,0.3-0.1,0.4-0.2c0.3-0.1,0.6-0.2,0.9-0.2c0.3,0,0.5,0.1,0.8,0.2c0.2,0.1,0.4,0.3,0.6,0.5c0.2,0.2,0.3,0.5,0.4,0.8
			l0.9,2.5c0,0.1,0.1,0.2,0.1,0.3c0,0.1,0.1,0.1,0.1,0.2c0,0,0.1,0.1,0.1,0.1c0.1,0,0.1,0,0.2,0c0.1-0.1,0.3-0.2,0.3-0.3
			c0.1-0.2,0.1-0.4,0.1-0.6c0-0.3,0-0.5-0.1-0.9c-0.1-0.3-0.2-0.7-0.3-1.1c-0.3-0.7-0.6-1.3-0.9-1.7c-0.4-0.5-0.8-0.8-1.2-1
			c-0.4-0.2-0.9-0.4-1.3-0.4c-0.4,0-0.9,0-1.3,0.2c-0.6,0.2-1,0.5-1.4,1c-0.3,0.4-0.5,0.9-0.6,1.4c-0.1,0.5-0.1,1.1,0,1.7
			c0.1,0.6,0.3,1.2,0.5,1.8c0.2,0.7,0.6,1.2,0.9,1.7c0.4,0.5,0.8,0.9,1.2,1.2c0.4,0.3,0.9,0.5,1.5,0.6c0.5,0.1,1.1,0,1.7-0.2
			c0.3-0.1,0.5-0.2,0.7-0.3c0.2-0.1,0.4-0.3,0.6-0.4c0.2-0.1,0.4-0.3,0.5-0.4c0.2-0.1,0.3-0.3,0.4-0.4l0.4,1
			c-0.1,0.1-0.3,0.3-0.4,0.4c-0.2,0.1-0.4,0.3-0.6,0.4c-0.2,0.1-0.4,0.3-0.7,0.4c-0.2,0.1-0.5,0.2-0.7,0.3c-0.4,0.2-0.8,0.2-1.2,0.3
			c-0.4,0-0.8,0-1.2-0.1c-0.4-0.1-0.8-0.3-1.2-0.5c-0.4-0.2-0.7-0.5-1.1-0.8c-0.3-0.3-0.7-0.7-0.9-1.2c-0.3-0.5-0.5-1-0.8-1.6
			c-0.3-0.9-0.5-1.7-0.6-2.5c-0.1-0.8,0-1.5,0.1-2.2s0.4-1.2,0.9-1.7c0.4-0.5,0.9-0.8,1.6-1.1c0.6-0.2,1.2-0.3,1.7-0.2
			c0.6,0.1,1.1,0.2,1.7,0.6s1,0.7,1.4,1.3c0.4,0.5,0.8,1.2,1.1,2c0.2,0.6,0.4,1.1,0.4,1.6s0.1,0.9,0,1.3c-0.1,0.4-0.2,0.7-0.4,0.9
			c-0.2,0.3-0.4,0.4-0.7,0.5c-0.2,0.1-0.3,0.1-0.4,0.1c-0.1,0-0.2,0-0.3-0.1c-0.1,0-0.2-0.1-0.3-0.2
			C89.8,104.9,89.7,104.9,89.6,104.8L89.6,104.8z M88.7,102.9c-0.1,0-0.2,0-0.4,0c-0.1,0-0.3,0.1-0.4,0.1c-0.3,0.1-0.4,0.2-0.5,0.4
			c-0.1,0.2-0.1,0.4,0,0.7c0.1,0.1,0.1,0.2,0.2,0.3c0.1,0.1,0.1,0.2,0.2,0.2c0.1,0,0.2,0.1,0.3,0.1c0.1,0,0.2,0,0.3,0
			c0.1,0,0.2-0.1,0.3-0.2c0.1-0.1,0.1-0.2,0.2-0.2c0.1-0.1,0.1-0.2,0.1-0.3c0-0.1,0.1-0.2,0.1-0.3L88.7,102.9z"/>
		<path d="M97.4,102.9c0-0.1-0.1-0.2-0.1-0.3c0-0.1-0.1-0.2-0.1-0.3l0,0c0,0.1-0.1,0.2-0.1,0.3c-0.1,0.1-0.1,0.2-0.2,0.3
			s-0.2,0.2-0.3,0.3c-0.1,0.1-0.2,0.2-0.4,0.2c-0.2,0.1-0.5,0.1-0.8,0.1c-0.3,0-0.5-0.1-0.8-0.3c-0.3-0.2-0.5-0.5-0.8-0.8
			c-0.3-0.4-0.5-0.8-0.7-1.4s-0.3-1.1-0.4-1.5c0-0.5,0-0.9,0-1.2c0.1-0.4,0.2-0.6,0.4-0.9c0.2-0.2,0.4-0.4,0.7-0.5
			c0.3-0.1,0.6-0.1,0.8,0c0.3,0.1,0.5,0.2,0.8,0.4l0,0l-0.2-0.7l1-0.4l2.4,6.3c0.1,0.4,0.2,0.7,0.3,1c0.1,0.3,0.1,0.5,0.1,0.8
			c0,0.3-0.1,0.5-0.1,0.8s-0.2,0.4-0.4,0.6c-0.2,0.2-0.3,0.4-0.6,0.5c-0.2,0.1-0.5,0.3-0.7,0.4c-0.2,0.1-0.3,0.1-0.4,0.1
			s-0.3,0.1-0.4,0.1c-0.1,0-0.3,0-0.4,0c-0.1,0-0.2,0-0.3,0l-0.5-1.2c0.2,0,0.5,0,0.7,0c0.2,0,0.5-0.1,0.7-0.2
			c0.5-0.2,0.8-0.5,1-0.8c0.2-0.4,0.2-0.8,0-1.3L97.4,102.9z M96,102c0.1,0,0.2-0.1,0.3-0.2c0.1-0.1,0.2-0.2,0.2-0.3
			s0.1-0.2,0.2-0.3c0-0.1,0.1-0.2,0.1-0.3l-1-2.8c-0.2-0.1-0.4-0.3-0.6-0.3c-0.2-0.1-0.4-0.1-0.6,0c-0.1,0-0.1,0.1-0.2,0.1
			c-0.1,0.1-0.1,0.1-0.2,0.2c-0.1,0.1-0.1,0.2-0.1,0.3c0,0.1,0,0.3,0,0.5c0,0.2,0,0.4,0.1,0.6c0,0.2,0.1,0.5,0.2,0.8
			c0.1,0.3,0.2,0.6,0.4,0.8c0.1,0.2,0.3,0.4,0.4,0.6c0.2,0.1,0.3,0.2,0.5,0.3C95.7,102.1,95.8,102.1,96,102z"/>
		<path d="M101.6,99.9c0.2-0.1,0.4-0.2,0.6-0.3c0.2-0.1,0.4-0.3,0.6-0.5l0.5,1.2c-0.1,0.1-0.3,0.3-0.6,0.5c-0.3,0.2-0.6,0.3-0.9,0.5
			c-0.3,0.1-0.6,0.2-1,0.2c-0.3,0-0.7-0.1-1-0.3c-0.3-0.2-0.6-0.4-0.9-0.8c-0.3-0.4-0.5-0.8-0.7-1.4c-0.2-0.6-0.3-1.1-0.4-1.5
			s0-0.9,0.1-1.2c0.1-0.4,0.2-0.6,0.5-0.9c0.2-0.2,0.4-0.4,0.7-0.5c0.3-0.1,0.6-0.1,0.9-0.1c0.3,0,0.6,0.1,0.8,0.3
			c0.3,0.2,0.5,0.5,0.8,0.8c0.3,0.4,0.5,0.8,0.7,1.4c0.1,0.2,0.1,0.4,0.2,0.5l-3,1.1c0.1,0.3,0.3,0.5,0.4,0.7
			c0.2,0.2,0.3,0.3,0.5,0.4c0.2,0.1,0.4,0.1,0.5,0.1C101.3,100,101.5,100,101.6,99.9z M99.6,96c-0.1,0.1-0.3,0.1-0.3,0.2
			c-0.1,0.1-0.1,0.2-0.2,0.4c0,0.2,0,0.3,0,0.5c0,0.2,0,0.4,0.1,0.6L101,97c-0.1-0.2-0.2-0.3-0.3-0.5c-0.1-0.1-0.2-0.3-0.3-0.4
			c-0.1-0.1-0.2-0.2-0.4-0.2C99.9,95.9,99.8,95.9,99.6,96z"/>
		<path d="M103.6,94.3L103.6,94.3c0-0.2,0.1-0.3,0.1-0.5c0.1-0.2,0.1-0.3,0.2-0.5c0.1-0.1,0.2-0.3,0.3-0.4c0.1-0.1,0.3-0.2,0.5-0.3
			c0.2-0.1,0.3-0.1,0.5-0.1c0.2,0,0.3,0,0.5,0.1c0.2,0.1,0.3,0.2,0.5,0.3c0.2,0.1,0.3,0.3,0.5,0.5c0.1,0.1,0.2,0.3,0.2,0.4
			c0.1,0.2,0.1,0.3,0.2,0.5l1.5,4l-1.1,0.4l-1.4-3.8c-0.1-0.2-0.1-0.3-0.2-0.4c-0.1-0.1-0.1-0.2-0.2-0.3c-0.1-0.2-0.3-0.3-0.4-0.3
			c-0.1,0-0.3,0-0.5,0c-0.2,0.1-0.4,0.2-0.5,0.4c-0.1,0.2-0.2,0.5-0.3,0.8l1.6,4.3l-1.1,0.4l-2.3-6.2l0.9-0.3L103.6,94.3z"/>
		<path d="M111.9,96c0.2-0.1,0.4-0.2,0.6-0.3c0.2-0.1,0.4-0.3,0.6-0.5l0.5,1.2c-0.1,0.1-0.3,0.3-0.6,0.5c-0.3,0.2-0.6,0.3-0.9,0.5
			c-0.3,0.1-0.6,0.2-1,0.2c-0.3,0-0.7-0.1-1-0.3c-0.3-0.2-0.6-0.4-0.9-0.8c-0.3-0.4-0.5-0.8-0.7-1.4c-0.2-0.6-0.3-1.1-0.4-1.5
			s0-0.9,0.1-1.2c0.1-0.4,0.2-0.6,0.4-0.9c0.2-0.2,0.4-0.4,0.7-0.5c0.3-0.1,0.6-0.1,0.9-0.1s0.6,0.1,0.8,0.3
			c0.3,0.2,0.5,0.5,0.8,0.8c0.3,0.4,0.5,0.8,0.7,1.4c0.1,0.2,0.1,0.4,0.2,0.5l-3,1.1c0.1,0.3,0.3,0.5,0.4,0.7
			c0.2,0.2,0.3,0.3,0.5,0.4c0.2,0.1,0.4,0.1,0.5,0.1C111.5,96.1,111.7,96.1,111.9,96z M109.9,92.1c-0.1,0.1-0.3,0.1-0.3,0.2
			c-0.1,0.1-0.1,0.2-0.2,0.4c0,0.2,0,0.3,0,0.5c0,0.2,0,0.4,0.1,0.6l1.8-0.7c-0.1-0.2-0.2-0.3-0.3-0.5c-0.1-0.1-0.2-0.3-0.3-0.4
			s-0.2-0.2-0.4-0.2C110.2,92,110,92,109.9,92.1z"/>
		<path d="M116.5,88.4l0.6,6.9l-1.1,0.4l-4.1-5.5l1.2-0.4l1.5,2.1c0.4,0.6,0.8,1.2,1.3,1.8l0,0c-0.1-0.6-0.2-1.3-0.3-2.1l-0.3-2.6
			L116.5,88.4z"/>
		<path d="M121.5,92.4c0.2-0.1,0.4-0.2,0.6-0.3s0.4-0.3,0.6-0.5l0.5,1.2c-0.1,0.1-0.3,0.3-0.6,0.5c-0.3,0.2-0.6,0.3-0.9,0.5
			c-0.3,0.1-0.6,0.2-1,0.2c-0.3,0-0.7-0.1-1-0.3c-0.3-0.2-0.6-0.4-0.9-0.8c-0.3-0.4-0.5-0.8-0.7-1.4c-0.2-0.6-0.3-1.1-0.4-1.5
			c0-0.5,0-0.9,0.1-1.2s0.2-0.6,0.5-0.9c0.2-0.2,0.4-0.4,0.7-0.5c0.3-0.1,0.6-0.1,0.9-0.1c0.3,0,0.6,0.1,0.8,0.3
			c0.3,0.2,0.5,0.5,0.8,0.8c0.3,0.4,0.5,0.8,0.7,1.4c0.1,0.2,0.1,0.4,0.2,0.5l-3,1.1c0.1,0.3,0.3,0.5,0.4,0.7
			c0.2,0.2,0.3,0.3,0.5,0.4c0.2,0.1,0.4,0.1,0.5,0.1C121.1,92.5,121.3,92.5,121.5,92.4z M119.5,88.4c-0.1,0.1-0.3,0.1-0.3,0.2
			c-0.1,0.1-0.1,0.2-0.2,0.4c0,0.2,0,0.3,0,0.5c0,0.2,0,0.4,0.1,0.6l1.8-0.7c-0.1-0.2-0.2-0.3-0.3-0.5c-0.1-0.1-0.2-0.3-0.3-0.4
			c-0.1-0.1-0.2-0.2-0.4-0.2C119.7,88.4,119.6,88.4,119.5,88.4z"/>
		<path d="M127.7,91.1c-0.1,0.1-0.3,0.3-0.4,0.4c-0.2,0.1-0.4,0.2-0.6,0.3c-0.3,0.1-0.7,0.2-1,0.2c-0.3,0-0.7-0.1-1-0.3
			c-0.3-0.2-0.6-0.4-0.9-0.8c-0.3-0.4-0.5-0.8-0.7-1.3c-0.2-0.6-0.3-1.1-0.4-1.6s0-0.9,0.2-1.2c0.1-0.3,0.3-0.6,0.5-0.9
			c0.2-0.2,0.5-0.4,0.8-0.5c0.2-0.1,0.4-0.1,0.6-0.1c0.2,0,0.4,0,0.6,0l0.5,1.2c-0.2,0-0.3,0-0.5,0c-0.2,0-0.3,0-0.5,0.1
			c-0.2,0.1-0.3,0.2-0.5,0.3c-0.1,0.1-0.2,0.3-0.3,0.5c-0.1,0.2-0.1,0.5-0.1,0.8c0,0.3,0.1,0.6,0.3,1c0.1,0.3,0.2,0.5,0.4,0.7
			c0.1,0.2,0.3,0.4,0.5,0.5c0.2,0.1,0.4,0.2,0.6,0.3c0.2,0,0.4,0,0.7-0.1c0.2-0.1,0.4-0.2,0.5-0.3c0.1-0.1,0.3-0.2,0.4-0.4
			L127.7,91.1z"/>
		<path d="M130.7,90.3c-0.5,0.2-0.9,0.2-1.3,0.1c-0.4-0.1-0.7-0.3-1-0.6c-0.2-0.2-0.3-0.3-0.4-0.6c-0.1-0.2-0.2-0.5-0.3-0.7
			l-1.4-3.8l1.1-0.4l1.4,3.6c0.1,0.2,0.2,0.4,0.2,0.5c0.1,0.1,0.2,0.3,0.2,0.4c0.1,0.2,0.3,0.3,0.5,0.3c0.2,0,0.4,0,0.5,0
			c0.2-0.1,0.4-0.2,0.5-0.3s0.2-0.4,0.1-0.6c0-0.2-0.1-0.5-0.2-0.9l-1.4-3.7l1.1-0.4l1.4,3.8c0.2,0.5,0.3,1,0.3,1.3
			c0,0.2,0,0.4-0.1,0.6c-0.1,0.2-0.1,0.4-0.2,0.6c-0.1,0.2-0.3,0.3-0.4,0.5C131.2,90.1,131,90.2,130.7,90.3z"/>
		<path d="M133.9,88.9l-3.5-9.3l1.1-0.4l3.5,9.3L133.9,88.9z"/>
		<path d="M139.1,86.9c-0.1,0.1-0.2,0.2-0.4,0.3s-0.3,0.2-0.5,0.2c-0.4,0.1-0.7,0.2-1,0.1c-0.3-0.1-0.6-0.3-0.8-0.5
			c-0.2-0.2-0.3-0.5-0.5-0.9l-1.2-3.2l-0.8,0.3l-0.5-1.2l0.8-0.3l-0.7-1.7l1.1-0.4l0.7,1.7l1.3-0.5l0.5,1.2l-1.3,0.5l1.1,3
			c0.1,0.2,0.2,0.4,0.3,0.5c0.2,0.2,0.4,0.2,0.7,0.1c0.1,0,0.2-0.1,0.4-0.2c0.1-0.1,0.2-0.2,0.3-0.2L139.1,86.9z"/>
		<path d="M136.4,77.3l1.2-0.4l0.6,1.6l-1.2,0.4L136.4,77.3z M137.6,80.4l1.1-0.4l2.3,6.2l-1.1,0.4L137.6,80.4z"/>
		<path d="M144,78l0.6,6.9l-1.1,0.4l-4.1-5.5l1.2-0.4l1.5,2.1c0.4,0.6,0.8,1.2,1.3,1.8l0,0c-0.1-0.6-0.2-1.3-0.3-2.1l-0.3-2.6
			L144,78z"/>
		<path d="M149,82c0.2-0.1,0.4-0.2,0.6-0.3s0.4-0.3,0.6-0.5l0.5,1.2c-0.1,0.1-0.3,0.3-0.6,0.5c-0.3,0.2-0.6,0.3-0.9,0.5
			c-0.3,0.1-0.6,0.2-1,0.2c-0.3,0-0.7-0.1-1-0.3c-0.3-0.2-0.6-0.4-0.9-0.8c-0.3-0.4-0.5-0.8-0.7-1.4c-0.2-0.6-0.3-1.1-0.4-1.5
			c0-0.5,0-0.9,0.1-1.2c0.1-0.4,0.2-0.6,0.4-0.9c0.2-0.2,0.4-0.4,0.7-0.5c0.3-0.1,0.6-0.1,0.9-0.1c0.3,0,0.6,0.1,0.8,0.3
			s0.5,0.5,0.8,0.8c0.3,0.4,0.5,0.8,0.7,1.4c0.1,0.2,0.1,0.4,0.2,0.5l-3,1.1c0.1,0.3,0.3,0.5,0.4,0.7c0.2,0.2,0.3,0.3,0.5,0.4
			c0.2,0.1,0.4,0.1,0.5,0.1C148.6,82.1,148.8,82,149,82z M147,78c-0.1,0.1-0.3,0.1-0.3,0.2c-0.1,0.1-0.1,0.2-0.2,0.4
			c0,0.2,0,0.3,0,0.5c0,0.2,0,0.4,0.1,0.6l1.8-0.7c-0.1-0.2-0.2-0.3-0.3-0.5c-0.1-0.1-0.2-0.3-0.3-0.4c-0.1-0.1-0.2-0.2-0.4-0.2
			C147.2,78,147.1,78,147,78z"/>
		<path d="M151.5,80.3l1.3-0.5l0.6,1.7l-1.3,0.5L151.5,80.3z"/>
		<path d="M158,79.6c-0.1,0.1-0.3,0.3-0.4,0.4c-0.2,0.1-0.4,0.2-0.6,0.3c-0.3,0.1-0.7,0.2-1,0.2c-0.3,0-0.7-0.1-1-0.3
			c-0.3-0.2-0.6-0.4-0.9-0.8c-0.3-0.4-0.5-0.8-0.7-1.3c-0.2-0.6-0.3-1.1-0.4-1.6c0-0.5,0-0.9,0.2-1.2c0.1-0.4,0.3-0.6,0.5-0.9
			c0.2-0.2,0.5-0.4,0.8-0.5c0.2-0.1,0.4-0.1,0.6-0.1c0.2,0,0.4,0,0.6,0l0.5,1.2c-0.2,0-0.3,0-0.5,0c-0.2,0-0.3,0-0.5,0.1
			c-0.2,0.1-0.3,0.2-0.5,0.3c-0.1,0.1-0.2,0.3-0.3,0.5c-0.1,0.2-0.1,0.5-0.1,0.8c0,0.3,0.1,0.6,0.3,1c0.1,0.3,0.2,0.5,0.4,0.7
			c0.1,0.2,0.3,0.4,0.5,0.5c0.2,0.1,0.4,0.2,0.6,0.3c0.2,0,0.4,0,0.7-0.1c0.2-0.1,0.4-0.2,0.5-0.3c0.1-0.1,0.3-0.2,0.4-0.4L158,79.6
			z"/>
		<path d="M157.6,72.2c0.1,0.3,0.2,0.6,0.3,0.8c0.1,0.2,0.1,0.4,0.2,0.6l0,0c0-0.1,0.1-0.3,0.1-0.4c0-0.2,0.1-0.3,0.2-0.4
			c0.1-0.1,0.2-0.3,0.3-0.4s0.3-0.2,0.4-0.3c0.1-0.1,0.3-0.1,0.5-0.1c0.2,0,0.3,0,0.5,0s0.3,0.1,0.5,0.2c0.2,0.1,0.3,0.2,0.4,0.4
			c0.1,0.1,0.2,0.3,0.3,0.5c0.1,0.2,0.2,0.4,0.3,0.7l1.5,4l-1.1,0.4l-1.4-3.8c-0.1-0.2-0.1-0.3-0.2-0.5c-0.1-0.1-0.1-0.2-0.2-0.3
			c-0.1-0.2-0.3-0.3-0.4-0.3c-0.2,0-0.3,0-0.5,0c-0.2,0.1-0.4,0.2-0.5,0.4c-0.1,0.2-0.2,0.5-0.3,0.8l1.6,4.3l-1.1,0.4l-3.5-9.3
			l1.1-0.4L157.6,72.2z"/>
	</g>
</g>
</svg>