<svg version="1.1" 
	 xmlns="http://www.w3.org/2000/svg" xmlns:xlink="http://www.w3.org/1999/xlink" x="0px" y="0px" width="130px" height="130px"
	 viewBox="0 0 130 130" style="enable-background:new 0 0 130 130;" xml:space="preserve">
<g id="accueil_x5F_ciuffo" class="st6">
	<g class="st5">
		<g>
			<g>
				<path class="st0" d="M30.8,5.9c0,0-36.8-27.1-59.1-30.6c-15-2.4,31.8,0.8,42.2,3.9C24.3-17.7,30.8,5.9,30.8,5.9z"/>
			</g>
			<g>
				<path class="st0" d="M39.1,2.7c0,0,3.2-46.2,6.1-57.9c2.9-11.7-9.6,24.9-11.7,33.3C31.4-13.5,39.1,2.7,39.1,2.7z"/>
			</g>
			<g>
				<path class="st0" d="M32.9,1.1c0,0-4.5-43.6-3.7-56.5c0.8-12.9-3.7,22.9-4.2,32.1C24.4-14.1,32.9,1.1,32.9,1.1z"/>
			</g>
		</g>
	</g>
	<g class="st5">
		<g>
			<g>
				<path class="st0" d="M99.6,120.9c0,0,9.4,3.8,14.5,3.3c3.4-0.3-6.9,1.6-9.3,1.5C102.3,125.6,99.6,120.9,99.6,120.9z"/>
			</g>
			<g>
				<path class="st0" d="M98,122c0,0,1.9,10.2,1.9,12.8c0,2.7,0.7-5.9,0.7-7.8S98,122,98,122z"/>
			</g>
			<g>
				<path class="st0" d="M99.4,122.1c0,0,3.4,9.2,3.9,12c0.5,2.8-0.5-5.1-0.9-7.2C102.1,124.9,99.4,122.1,99.4,122.1z"/>
			</g>
		</g>
	</g>
</g>
<g id="Acceuil_x5F_logo">
	<circle class="st1" cx="65" cy="65" r="63.9"/>
	<path class="st2" d="M96.1,876.2l-1.9,0.5l-1.1,1.1l-1.6,0l-1.1,0.2l-1.5,0.2l-0.9,0.4v0.4l0.8,0.6l2.2-0.2c0,0,0.9-0.2,1.1-0.1
		c0.2,0.1,0.1,1.1,0.1,1.1s-0.8,0.7-1.1,0.8c-0.2,0.1-1.6,0-1.6,0H88c0,0-0.2,0-0.8,0c-0.6,0,0,0.8,0,0.8l1.4,0.2l1.2,0
		c0,0,0.5,0.1,0.2,0.5s-0.6,0.6-0.6,0.6l-0.4,0.2l-0.7,0.2l-1.6,0.1l-0.8,0.8v0.4l-0.7,0.7c0,0-0.5,0.5,0,0.5c0.5,0,2.8,0.6,2.8,0.6
		l1.5-0.6h1.2l1.6-1.6l1.1-1.1l1.1-1.1l0.9-0.9l1.8-0.8v0.8l0.3,1.9c0,0-0.1,1.2-0.4,1.5c-0.3,0.3-0.8,2.7-0.8,2.7l-0.6,2.6v3.6
		l-2.3,33.4l28.2,17.9l4.1-49.6l-0.7-7.7l-1.3-5.4l-1-4.9l-1.2-3.5l-1.3-1.3l1.6-3.8l1.4-4.3l0.5-3.3l1.2-1.2l0.4-1.8l0.8-0.8v-4
		l-0.5-4.2l-0.7-2.3l-1.8-1.8l-2.3-1.3l-2.4-1.2l-0.4-1.2l0.2-4.8l-0.7-4.1l-0.4-3.9l-0.8-3l-1.2-4.2l-2.2-2.2l-5.2-0.4h-3.2
		l-2.3,1.6l-1.5,3.6c0,0-1.2,2.5-1.2,3.1s0,3,0,3.6c0,0.6,0.1,3.5,0.1,3.8s-0.3,2.9-0.3,2.9l-0.3,2.2l-1.7,1.1c0,0-1.7,0.9-2,1.2
		c-0.3,0.3-1.7,1.4-2.3,1.4c-0.6,0-1.4,0.4-1.4,0.9s-1.2,1.6-1.2,1.6l-1.2,2.7l-2.2,3.1l-0.3,2l-0.9,0.9l0.3,1l-2.3,3.9l-1.3,2.5
		c0,0-2.1,0-2.5,0s-2.2-0.2-2.2-0.2l-1.2-1.2l-1.5-0.5h-1.9l-1.6,1l-1.1,1.1l-1.1,1.5l0.5,2.3l0.6,1.7l1.3,1.3l2.5-0.7
		c0,0,1.6-0.8,2.1-1c0.5-0.2,1.1-0.8,1.1-0.8l1,0.2c0,0,2.8,0.3,3.2,0.3s3.6,0.4,3.6,0.4l2.4-3.2l2.8-3.3l3-3.1l1,8.1v2.7
		L96.1,876.2"/>
</g>
<g id="testo">
	<g>
		<circle class="st4" cx="65" cy="65" r="63.9"/>
		<path class="st3" d="M34.3,47.3l-3.3,15c-1.3,6.1-3.7,10-10.2,10c-3.8,0-5.6-2.8-5.6-5.5c0-2.7,1.7-5.5,4.9-5.5
			c1.6,0,3.9,0.1,3.9,2.7c0,0.4-0.1,1-0.2,1.6c-1-0.8-1.6-1-2.4-1c-1.8,0-2.8,1.6-2.8,3c0,1.4,0.8,2.7,2.5,2.7c1.8,0,3.1-0.8,4-4.9
			l1.6-7.2c-2.3,1.2-4.5,1.4-4.9,1.4c-6.5,0-8.6-4.7-8.6-10.2c0-7.6,5.2-15.4,14.2-15.4c3.7,0,7.4,1.5,7.4,5.4
			c0,2.1-0.8,3.7-2.8,3.7c-0.6,0-2-0.2-2.8-1c1-0.3,1.8-2.3,1.8-3.3c0-0.6-0.2-2.8-2.8-2.8c-4.4,0-8.9,7.5-8.9,13.8
			c0,3.6,1.3,6.6,4.6,6.6c1.5,0,2.6-0.4,3.4-1.5l1.7-7.6H34.3z"/>
		<path class="st3" d="M44,61.2c2,0,5.3-2.3,6.7-5.3h1.8C50.2,60,46.4,64,41.2,64c-3.8,0-5.9-2.9-5.9-6.4c0-5.1,2.2-14,9.4-14
			c3.3,0,5.1,1.4,5.1,4.2c0,4.9-5.2,7.7-9,8.2c-0.1,0.6-0.1,1.2-0.1,1.7C40.7,60.4,42.4,61.2,44,61.2z M46.1,45.8
			c-2.2,0-4.1,4.5-4.9,8.3c3.7,0,6.3-3.2,6.3-6C47.5,47.2,47.3,45.8,46.1,45.8z"/>
		<path class="st3" d="M67.1,57.6c-0.1,0.4-0.2,0.9-0.2,1.3c0,0.9,0.4,1.5,2,1.5c1.6,0,2.2-1.2,3.8-2.5h1.4c-1.8,1.8-4.9,6.2-8,6.2
			s-5-1.4-5-4.4c0-0.6,0.1-1.3,0.2-2l1.5-7.2c0.1-0.4,0.1-0.7,0.1-1c0-1.4-0.8-2.4-1.8-2.4c-1,0-1.7,0.3-2.5,0.8L55.2,64h-5.8
			l4.2-20h5.8L59,46.2c1.6-1.2,3.5-2.2,5.2-2.2c2.2,0,4.6,2.3,4.6,5c0,0.3,0,0.6-0.1,1L67.1,57.6z"/>
		<path class="st3" d="M76.2,57.7c0,2.6,1.7,3.4,3.3,3.4c2,0,5.3-2.3,6.7-5.3H88C85.7,60,81.9,64,76.7,64c-3.8,0-5.9-2.9-5.9-6.4
			c0-5.1,2.2-14,9.4-14c3.3,0,5.1,1.4,5.1,4.2c0,4.9-5.2,7.7-9,8.2C76.2,56.6,76.2,57.2,76.2,57.7z M78.3,41.6h3l-1.2-7.6h-4.2
			L78.3,41.6z M83,48c0-0.8-0.2-2.2-1.4-2.2c-2.2,0-4.1,4.5-4.9,8.3C80.3,54,82.9,50.9,83,48z"/>
		<path class="st3" d="M101.9,46.8c0,6.2-3.2,17.2-11.2,17.2c-3.1,0-5-1.4-5-4.4c0-0.6,0-1.3,0.2-2L88.8,44h5.8l-2.9,13.6
			c-0.1,0.6-0.2,1-0.2,1.5c0,0.8,0.4,1.3,1.5,1.3c3.9,0,6.6-8.8,6.6-13.1c-0.2,0.1-0.6,0.2-0.8,0.2c-1.2,0-1.7-1.1-1.7-2.2
			c0-0.8,1-2,2.3-2C101,43.2,101.9,44.8,101.9,46.8z"/>
		<path class="st3" d="M102.3,57.7c0-5.1,2.2-14,9.4-14c3.3,0,5.1,1.4,5.1,4.2c0,4.9-5.2,7.7-9,8.2c-0.1,0.6-0.1,1.2-0.1,1.7
			c0,2.6,1.3,3.4,2.9,3.4c1.9,0,3.5-1.1,5.1-2.6c0,4.3-3.5,5.4-7.5,5.4C104.4,64,102.3,61.1,102.3,57.7z M113,45.8
			c-2.2,0-4.1,4.5-4.9,8.3c3.7,0,6.3-3.2,6.3-6C114.4,47.2,114.2,45.8,113,45.8z"/>
		<path class="st3" d="M18.3,89.6c0-1.1,0.2-2.1,0.6-3.1c0.4-1,1-1.9,1.7-2.7c0.7-0.8,1.6-1.4,2.5-1.9c0.9-0.5,2-0.7,3-0.7
			c0.5,0,1,0.1,1.5,0.2c0.6,0.1,1.1,0.3,1.6,0.5c0.5,0.2,0.9,0.6,1.2,1c0.3,0.4,0.5,0.9,0.5,1.5c0,0.1,0,0.3-0.1,0.6
			c-0.1,0.3-0.1,0.6-0.2,0.9c-0.1,0.3-0.2,0.6-0.3,0.8C30.2,86.9,30,87,29.9,87c0-1.1-0.3-2.1-0.9-2.9S27.4,83,26.2,83
			c-0.9,0-1.8,0.2-2.5,0.6c-0.7,0.4-1.3,0.9-1.8,1.5s-0.9,1.3-1.1,2.1c-0.3,0.8-0.4,1.6-0.4,2.4c0,1.1,0.2,2,0.6,2.8
			c0.4,0.7,0.9,1.3,1.5,1.8c0.6,0.4,1.4,0.8,2.2,1c0.8,0.2,1.7,0.4,2.6,0.4c0.9,0.1,1.8,0.1,2.8,0.1s1.8-0.1,2.7-0.1
			c0.1,0,0.2,0,0.4,0.1c0.2,0.1,0.3,0.2,0.3,0.2V96c0,0,0,0.1,0,0.1c0,0,0,0,0,0.1c0,0.3-0.1,0.5-0.4,0.7c-0.3,0.2-0.6,0.3-1,0.5
			c-0.4,0.1-0.8,0.2-1.3,0.3s-0.9,0.1-1.4,0.1c-0.4,0-0.8,0-1.2,0c-0.3,0-0.6,0-0.7,0c-1.4,0-2.7-0.2-3.8-0.5
			c-1.1-0.3-2.1-0.8-2.9-1.5c-0.8-0.7-1.4-1.5-1.8-2.5C18.6,92.3,18.3,91,18.3,89.6z"/>
		<path class="st3" d="M48.8,92.5c-0.6,0.3-1,0.7-1.4,1.1c-0.4,0.4-0.8,0.9-1.2,1.3s-0.9,0.8-1.4,1.1c-0.5,0.3-1.1,0.4-1.9,0.4
			c-0.9,0-1.7-0.2-2.4-0.6s-1.3-0.9-1.9-1.5c-0.5-0.6-1-1.4-1.4-2.2c-0.4-0.8-0.7-1.7-1-2.5c-0.3-0.9-0.4-1.7-0.6-2.6
			c-0.1-0.8-0.2-1.6-0.2-2.3c-0.2-1.3-0.2-2.3,0.1-3.1c0.3-0.7,0.6-1.2,1-1.4c0.4-0.2,0.7-0.2,1,0.2s0.3,0.8,0.1,1.6
			c0,0.1-0.1,0.2-0.1,0.5c0,0.2-0.1,0.4-0.1,0.6s-0.1,0.4-0.1,0.6s0,0.3,0,0.4c0,0.5,0,1.1,0.2,1.8c0.1,0.7,0.3,1.4,0.5,2.2
			c0.2,0.8,0.5,1.5,0.8,2.2c0.3,0.7,0.7,1.4,1.1,2c0.4,0.6,0.9,1.1,1.5,1.4c0.6,0.4,1.2,0.5,1.9,0.5c0.4,0,0.9-0.2,1.5-0.6
			c0.6-0.4,1.1-0.9,1.6-1.5c0.5-0.6,0.9-1.2,1.3-1.8c0.3-0.6,0.5-1.2,0.5-1.6c0-0.2,0-0.6,0-1.2c0-0.6,0-1.2,0-1.8s0-1.2,0-1.8
			c0-0.6,0-1,0-1.2c0.1-0.3,0.3-0.4,0.5-0.6c0.2-0.1,0.4-0.2,0.6-0.2c0.3,0,0.5,0.2,0.7,0.6c0.2,0.4,0.3,0.9,0.5,1.5
			c0.1,0.6,0.2,1.3,0.2,2c0,0.7,0.1,1.4,0.1,2.1s0,1.2,0.1,1.7c0,0.5,0.1,0.8,0.1,1c0.1,0.5,0.3,1,0.5,1.6c0.2,0.6,0.5,1.2,0.7,1.8
			s0.4,1.1,0.6,1.6c0.2,0.5,0.2,0.8,0.2,1.1c0,0.4-0.1,0.6-0.3,0.7c-0.2,0.1-0.5,0.1-0.8,0.1c-0.4,0-0.7-0.1-0.8-0.3
			c-0.2-0.2-0.3-0.4-0.4-0.7c-0.1-0.3-0.2-0.6-0.2-1c0-0.4-0.1-0.8-0.2-1.1s-0.3-0.7-0.5-1.1C49.5,93,49.2,92.7,48.8,92.5z"/>
		<path class="st3" d="M55.4,97.5c-0.3-1.7-0.4-3.5-0.5-5.2c-0.1-1.7-0.1-3.4-0.1-5.2c0-1.7,0-3.4,0.1-5.1c0-1.7,0.1-3.4,0-5.1
			c0-0.2,0.1-0.3,0.2-0.4c0.1-0.1,0.3-0.1,0.5-0.1c0.2,0,0.4,0.1,0.6,0.2c0.2,0.2,0.3,0.4,0.4,0.6c0.1,0.2,0.2,0.5,0.3,0.7
			c0.1,0.2,0.1,0.4,0.1,0.6c0.1,3.5,0.2,6.4,0.3,8.7c0,2.3,0,4.2,0,5.6c0,1.4-0.1,2.5-0.2,3.2s-0.3,1.1-0.4,1.4
			c-0.2,0.2-0.4,0.3-0.6,0.3C55.9,97.6,55.6,97.5,55.4,97.5z"/>
		<path class="st3" d="M63.6,85.2c-0.2,0-0.5,0-1,0c-0.5,0-1-0.1-1.5-0.1s-1-0.2-1.4-0.4c-0.4-0.2-0.6-0.5-0.7-0.8
			c0-0.1,0-0.3,0.1-0.4c0-0.2,0.2-0.3,0.4-0.3l3.8-0.3c0.1-0.9,0.2-1.6,0.2-2.2c0-0.6,0-1.1,0-1.6c0-0.5-0.1-1-0.1-1.6
			c0-0.5-0.1-1.3-0.1-2.1c0-0.2,0-0.3,0.1-0.4c0.1-0.1,0.2-0.2,0.3-0.2s0.2-0.1,0.4-0.1c0.1,0,0.2,0,0.3,0c0.1,0,0.3,0,0.5,0.1
			c0.2,0.1,0.3,0.2,0.4,0.4c0.1,0.1,0.2,0.3,0.3,0.5c0.1,0.2,0.1,0.3,0.1,0.5l0.3,6.8l3.1,0.1c0.4,0,0.8,0.1,1.2,0.3
			c0.4,0.2,0.5,0.6,0.6,1.1c-0.3,0.3-0.6,0.5-1.1,0.6c-0.4,0.1-0.8,0.1-1.3,0.1c-0.5,0-0.9,0-1.3,0c-0.4,0-0.8,0.1-1.1,0.3
			c0,0.1,0,0.5,0,1.2c0,0.7,0,1.4,0.1,2.3c0,0.9,0.1,1.9,0.1,2.9c0,1,0.1,2,0.1,2.8c0,0.9,0.1,1.6,0.1,2.2c0,0.6,0,1,0,1
			c-0.6,0.3-1,0.3-1.4-0.1c-0.3-0.4-0.6-1-0.8-1.8c-0.2-0.8-0.4-1.7-0.4-2.8C63.6,92,63.5,91,63.5,90c0-1,0-2,0-2.8
			C63.6,86.3,63.6,85.6,63.6,85.2z"/>
		<path class="st3" d="M71.7,76c0-0.3,0.1-0.5,0.2-0.6c0.2-0.1,0.4-0.1,0.7-0.1c0.2,0,0.4,0.1,0.7,0.3c0.3,0.2,0.5,0.5,0.7,0.8
			c0.2,0.3,0.3,0.6,0.3,0.8c0,0.3-0.2,0.4-0.5,0.5h-0.2c-0.4,0-0.7,0-0.9-0.1c-0.2,0-0.4-0.1-0.6-0.2c-0.1-0.1-0.2-0.3-0.3-0.5
			S71.7,76.4,71.7,76z M73.6,85.1c0-0.1,0-0.3,0-0.6c0-0.3,0-0.5,0-0.8c0-0.3,0-0.6,0-0.8c0-0.3,0-0.5,0-0.6
			c-0.1-0.7,0.1-1.1,0.7-1.1c0.3,0,0.5,0.1,0.6,0.2c0.2,0.1,0.3,0.3,0.5,0.6c-0.1,1.3,0,2.5,0.2,3.7s0.4,2.3,0.6,3.5
			s0.5,2.3,0.7,3.5c0.2,1.2,0.3,2.4,0.3,3.6c0,0.3-0.1,0.7-0.3,1c-0.2,0.3-0.5,0.5-0.9,0.5c-0.3,0-0.6-0.3-0.8-0.8s-0.4-1.2-0.6-2.1
			c-0.2-0.8-0.3-1.8-0.4-2.8c-0.1-1-0.2-2-0.3-2.9s-0.1-1.8-0.1-2.5S73.6,85.4,73.6,85.1z"/>
		<path class="st3" d="M78.5,84.8c0-0.1,0.1-0.2,0.1-0.3c0.1-0.1,0.1-0.2,0.2-0.4c0.1-0.1,0.2-0.2,0.3-0.3s0.2-0.1,0.3-0.1
			c0,0,0,0,0,0c0,0,0,0,0.1,0h0.1c0.6,0.3,1,0.7,1.4,1.2c0.4,0.5,0.7,1.1,1,1.7s0.5,1.3,0.8,2s0.5,1.4,0.8,2.1
			c0.3,0.7,0.7,1.4,1.1,2c0.4,0.6,0.9,1.2,1.6,1.7c0.2-0.7,0.4-1.4,0.7-2.1c0.2-0.7,0.5-1.4,0.8-2.1c0.3-0.7,0.6-1.4,1-2.2
			c0.4-0.8,0.8-1.6,1.3-2.4c0.6-0.3,1.1-0.4,1.4-0.5c0.4,0,0.6,0,0.7,0.1c0.1,0.1,0.2,0.3,0.1,0.6s-0.3,0.6-0.6,1
			c-0.2,0.2-0.4,0.6-0.7,1.2c-0.3,0.6-0.5,1.3-0.8,2.1s-0.6,1.7-0.9,2.6s-0.7,1.7-1,2.5c-0.3,0.7-0.7,1.4-1,1.8
			c-0.3,0.5-0.7,0.7-1,0.7c-0.3,0-0.7-0.3-1.1-0.8s-0.9-1.2-1.4-2s-1-1.7-1.5-2.7c-0.5-1-1-2-1.4-2.9c-0.4-1-0.9-1.9-1.2-2.7
			C79.1,85.8,78.8,85.2,78.5,84.8z"/>
		<path class="st3" d="M93.7,88c0-1.3,0.2-2.5,0.6-3.6c0.4-1.2,0.9-2.2,1.6-3s1.6-1.6,2.6-2.1s2.2-0.8,3.6-0.8
			c0.8,0.1,1.5,0.3,2.1,0.7s1.1,0.7,1.5,1.2c0.4,0.5,0.7,1.1,0.8,1.7c0.2,0.6,0.3,1.3,0.2,2.1c0,0.9-0.3,1.7-0.8,2.4
			c-0.5,0.7-1.2,1.3-1.9,1.8c-0.8,0.5-1.6,0.8-2.5,1.1c-0.9,0.3-1.7,0.4-2.5,0.4c-0.3,0-0.6,0-0.9,0c-0.3,0-0.6-0.1-0.8-0.2
			c-0.2-0.1-0.4-0.2-0.6-0.4c-0.1-0.2-0.2-0.5-0.2-0.9c0-0.1,0-0.2,0.1-0.3s0.1-0.1,0.3-0.2c0.2,0,0.4,0,0.7,0s0.8,0.1,1.4,0.2
			c0.3,0,0.8-0.1,1.5-0.3c0.7-0.2,1.3-0.5,2-0.9c0.7-0.4,1.2-0.8,1.7-1.2s0.7-0.9,0.7-1.4c0-0.5-0.1-0.9-0.2-1.4
			c-0.2-0.5-0.4-0.9-0.7-1.3c-0.3-0.4-0.7-0.7-1.1-0.9s-0.9-0.3-1.4-0.3c-0.9,0.1-1.6,0.3-2.3,0.7c-0.7,0.4-1.3,0.9-1.8,1.5
			c-0.5,0.6-0.9,1.3-1.1,2.1s-0.4,1.5-0.4,2.4c0,0.6,0,1.3,0,1.9c0,0.6,0.1,1.3,0.3,1.9c0.2,0.6,0.4,1.2,0.8,1.7s0.9,1,1.5,1.5
			c0.7,0.4,1.5,0.8,2.5,1.1c1,0.3,2.3,0.5,3.8,0.5l6.5-0.4c-0.4,0.5-0.9,1-1.5,1.3c-0.6,0.3-1.2,0.6-1.9,0.8c-0.7,0.2-1.3,0.4-2,0.5
			c-0.7,0.1-1.3,0.1-1.8,0.1c-1.4,0-2.7-0.2-4-0.7c-1.2-0.5-2.3-1.1-3.3-2s-1.7-1.9-2.2-3.1S93.7,89.5,93.7,88z"/>
	</g>
</g>
</svg>
