<svg version="1.1" id="testo" 
	 xmlns="http://www.w3.org/2000/svg" xmlns:xlink="http://www.w3.org/1999/xlink" x="0px" y="0px" width="206px" height="40px"
	 viewBox="0 0 206 40" style="enable-background:new 0 0 206 40;" xml:space="preserve">
<g>
	<rect y="2.8" class="st1" width="206" height="37.3"/>
	<path class="st0" d="M25,13.8l-3.3,14.7c-1.3,6-3.7,9.7-10.2,9.7c-3.8,0-5.5-2.7-5.5-5.4c0-2.7,1.7-5.3,4.9-5.3
		c1.6,0,3.9,0.1,3.9,2.6c0,0.4-0.1,1-0.2,1.6c-1-0.8-1.6-1-2.4-1c-1.8,0-2.8,1.5-2.8,3c0,1.4,0.8,2.7,2.5,2.7c1.8,0,3.1-0.8,4-4.8
		l1.6-7c-2.3,1.2-4.5,1.4-4.9,1.4c-6.5,0-8.6-4.6-8.6-10c0-7.5,5.2-15,14.1-15c3.7,0,7.4,1.4,7.4,5.2c0,2.1-0.8,3.6-2.8,3.6
		c-0.6,0-2-0.2-2.8-1c1-0.3,1.8-2.2,1.8-3.2c0-0.6-0.2-2.8-2.8-2.8c-4.4,0-8.8,7.3-8.8,13.5c0,3.5,1.3,6.4,4.6,6.4
		c1.5,0,2.6-0.4,3.4-1.4l1.7-7.4H25z"/>
	<path class="st0" d="M34.7,27.3c2,0,5.3-2.3,6.7-5.2h1.8c-2.3,4-6.1,8-11.2,8c-3.8,0-5.9-2.9-5.9-6.2c0-5,2.2-13.7,9.4-13.7
		c3.3,0,5.1,1.3,5.1,4.1c0,4.8-5.2,7.5-9,8c-0.1,0.6-0.1,1.2-0.1,1.7C31.4,26.5,33.1,27.3,34.7,27.3z M36.7,12.3
		c-2.2,0-4.1,4.4-4.9,8.1c3.7,0,6.3-3.1,6.3-5.9C38.1,13.6,37.9,12.3,36.7,12.3z"/>
	<path class="st0" d="M57.7,23.8c-0.1,0.4-0.2,0.9-0.2,1.3c0,0.9,0.4,1.4,2,1.4c1.6,0,2.2-1.2,3.8-2.5h1.4c-1.8,1.8-4.9,6-8,6
		s-4.9-1.3-4.9-4.3c0-0.6,0.1-1.3,0.2-2l1.5-7c0.1-0.4,0.1-0.7,0.1-1c0-1.4-0.8-2.3-1.8-2.3c-1,0-1.7,0.3-2.5,0.8l-3.4,15.8h-5.7
		l4.2-19.5h5.7l-0.5,2.1c1.6-1.2,3.5-2.1,5.2-2.1c2.2,0,4.6,2.3,4.6,4.9c0,0.3,0,0.6-0.1,0.9L57.7,23.8z"/>
	<path class="st0" d="M66.8,23.9c0,2.6,1.7,3.4,3.3,3.4c2,0,5.3-2.3,6.7-5.2h1.8c-2.3,4-6.1,8-11.2,8c-3.8,0-5.9-2.9-5.9-6.2
		c0-5,2.2-13.7,9.4-13.7c3.3,0,5.1,1.3,5.1,4.1c0,4.8-5.2,7.5-9,8C66.8,22.9,66.8,23.4,66.8,23.9z M68.8,8.2h3l-1.2-7.4h-4.2
		L68.8,8.2z M73.5,14.5c0-0.8-0.2-2.2-1.4-2.2c-2.2,0-4.1,4.4-4.9,8.1C70.9,20.3,73.4,17.2,73.5,14.5z"/>
	<path class="st0" d="M92.3,13.3c0,6.1-3.1,16.8-11.2,16.8c-3.1,0-4.9-1.3-4.9-4.3c0-0.6,0-1.3,0.2-2l2.9-13.3H85l-2.9,13.3
		c-0.1,0.5-0.2,1-0.2,1.4c0,0.7,0.4,1.2,1.5,1.2c3.9,0,6.6-8.6,6.6-12.8c-0.2,0.1-0.6,0.2-0.8,0.2c-1.2,0-1.7-1.1-1.7-2.2
		c0-0.8,1-1.9,2.3-1.9C91.5,9.8,92.3,11.3,92.3,13.3z"/>
	<path class="st0" d="M92.7,23.9c0-5,2.2-13.7,9.4-13.7c3.3,0,5.1,1.3,5.1,4.1c0,4.8-5.2,7.5-9,8c-0.1,0.6-0.1,1.2-0.1,1.7
		c0,2.6,1.3,3.4,2.9,3.4c1.9,0,3.5-1.1,5.1-2.5c0,4.2-3.5,5.3-7.5,5.3C94.8,30.1,92.7,27.2,92.7,23.9z M103.5,12.3
		c-2.2,0-4.1,4.4-4.9,8.1c3.7,0,6.3-3.1,6.3-5.9C104.9,13.6,104.7,12.3,103.5,12.3z"/>
	<path class="st0" d="M109.1,22.2c0-1,0.2-2.1,0.6-3.1c0.4-1,1-1.9,1.7-2.6c0.7-0.8,1.5-1.4,2.5-1.8c0.9-0.5,1.9-0.7,3-0.7
		c0.5,0,1,0.1,1.5,0.2c0.6,0.1,1.1,0.3,1.6,0.5c0.5,0.2,0.9,0.6,1.2,0.9c0.3,0.4,0.5,0.9,0.5,1.5c0,0.1,0,0.3-0.1,0.6
		c-0.1,0.3-0.1,0.6-0.2,0.9c-0.1,0.3-0.2,0.5-0.3,0.8s-0.2,0.3-0.4,0.3c0-1.1-0.3-2.1-0.9-2.8c-0.6-0.7-1.5-1.1-2.8-1.1
		c-0.9,0-1.7,0.2-2.5,0.6s-1.3,0.9-1.8,1.5c-0.5,0.6-0.9,1.3-1.1,2.1c-0.3,0.8-0.4,1.6-0.4,2.4c0,1.1,0.2,2,0.6,2.7
		c0.4,0.7,0.9,1.3,1.5,1.7c0.6,0.4,1.4,0.8,2.2,1c0.8,0.2,1.7,0.4,2.6,0.4c0.9,0.1,1.8,0.1,2.8,0.1c0.9,0,1.8-0.1,2.7-0.1
		c0.1,0,0.2,0,0.4,0.1c0.2,0.1,0.3,0.2,0.3,0.2v0.1c0,0,0,0.1,0,0.1c0,0,0,0,0,0.1c0,0.3-0.1,0.5-0.4,0.7c-0.3,0.2-0.6,0.3-1,0.5
		c-0.4,0.1-0.8,0.2-1.3,0.3c-0.5,0.1-0.9,0.1-1.4,0.1c-0.4,0-0.8,0-1.2,0c-0.3,0-0.6,0-0.7,0c-1.4,0-2.7-0.2-3.8-0.5
		s-2.1-0.8-2.9-1.4c-0.8-0.6-1.4-1.5-1.8-2.5C109.3,24.7,109.1,23.5,109.1,22.2z"/>
	<path class="st0" d="M139.4,24.9c-0.6,0.3-1,0.7-1.4,1.1c-0.4,0.4-0.8,0.9-1.2,1.3c-0.4,0.4-0.9,0.7-1.4,1
		c-0.5,0.3-1.1,0.4-1.9,0.4c-0.9,0-1.7-0.2-2.4-0.6s-1.3-0.9-1.9-1.5c-0.5-0.6-1-1.3-1.4-2.1c-0.4-0.8-0.7-1.6-1-2.5
		c-0.3-0.8-0.4-1.7-0.6-2.5c-0.1-0.8-0.2-1.6-0.2-2.2c-0.2-1.3-0.2-2.3,0.1-3c0.3-0.7,0.6-1.2,1-1.4c0.4-0.2,0.7-0.1,1,0.1
		c0.3,0.3,0.3,0.8,0.1,1.6c0,0.1-0.1,0.2-0.1,0.4c0,0.2-0.1,0.4-0.1,0.6c0,0.2-0.1,0.4-0.1,0.6c0,0.2,0,0.3,0,0.4
		c0,0.5,0,1.1,0.1,1.8c0.1,0.7,0.3,1.4,0.5,2.1c0.2,0.7,0.5,1.5,0.8,2.2c0.3,0.7,0.7,1.4,1.1,1.9c0.4,0.6,0.9,1,1.5,1.4
		c0.6,0.4,1.2,0.5,1.9,0.5c0.4,0,0.9-0.2,1.5-0.6s1.1-0.9,1.6-1.5c0.5-0.6,0.9-1.2,1.3-1.8c0.3-0.6,0.5-1.1,0.5-1.5
		c0-0.2,0-0.6,0-1.2c0-0.6,0-1.1,0-1.7s0-1.2,0-1.7c0-0.6,0-0.9,0-1.1c0.1-0.2,0.3-0.4,0.5-0.6c0.2-0.1,0.4-0.2,0.6-0.2
		c0.3,0,0.5,0.2,0.7,0.6c0.2,0.4,0.3,0.9,0.5,1.5c0.1,0.6,0.2,1.2,0.2,1.9c0,0.7,0.1,1.4,0.1,2c0,0.6,0,1.2,0.1,1.7
		c0,0.5,0.1,0.8,0.1,1c0.1,0.5,0.3,1,0.5,1.6c0.2,0.6,0.5,1.2,0.7,1.7c0.2,0.6,0.4,1.1,0.6,1.5c0.2,0.5,0.2,0.8,0.2,1
		c0,0.4-0.1,0.6-0.3,0.6c-0.2,0.1-0.5,0.1-0.8,0.1c-0.4,0-0.7-0.1-0.8-0.3c-0.2-0.2-0.3-0.4-0.4-0.7c-0.1-0.3-0.2-0.6-0.2-1
		c0-0.4-0.1-0.7-0.2-1.1c-0.1-0.4-0.3-0.7-0.5-1.1C140.1,25.4,139.8,25.1,139.4,24.9z"/>
	<path class="st0" d="M146,29.8c-0.3-1.7-0.4-3.4-0.5-5.1c-0.1-1.7-0.1-3.4-0.1-5c0-1.7,0-3.3,0.1-5c0-1.7,0.1-3.3,0-5
		c0-0.2,0.1-0.3,0.2-0.4s0.3-0.1,0.5-0.1c0.2,0,0.4,0.1,0.6,0.2s0.3,0.4,0.4,0.6c0.1,0.2,0.2,0.5,0.3,0.7c0.1,0.2,0.1,0.4,0.1,0.6
		c0.1,3.4,0.2,6.2,0.3,8.5c0,2.3,0,4.1,0,5.5c0,1.4-0.1,2.4-0.2,3.1c-0.1,0.7-0.3,1.1-0.4,1.4c-0.2,0.2-0.4,0.3-0.6,0.3
		C146.5,29.9,146.3,29.9,146,29.8z"/>
	<path class="st0" d="M154.3,17.9c-0.2,0-0.5,0-1,0c-0.5,0-1-0.1-1.5-0.1s-1-0.2-1.4-0.4s-0.6-0.5-0.7-0.8c0-0.1,0-0.2,0.1-0.4
		c0-0.2,0.2-0.3,0.4-0.3l3.8-0.3c0.1-0.9,0.2-1.6,0.2-2.1s0-1.1,0-1.6c0-0.5,0-1-0.1-1.5c0-0.5-0.1-1.2-0.1-2.1c0-0.2,0-0.3,0.1-0.4
		c0.1-0.1,0.2-0.2,0.3-0.2c0.1-0.1,0.2-0.1,0.4-0.1c0.1,0,0.2,0,0.3,0c0.1,0,0.3,0,0.4,0.1s0.3,0.2,0.4,0.3s0.2,0.3,0.3,0.5
		c0.1,0.2,0.1,0.3,0.1,0.5l0.3,6.6l3.1,0.1c0.4,0,0.8,0,1.2,0.3c0.4,0.2,0.5,0.6,0.6,1.1c-0.3,0.3-0.6,0.5-1,0.5
		c-0.4,0.1-0.8,0.1-1.3,0.1c-0.5,0-0.9,0-1.3,0c-0.4,0-0.8,0.1-1.1,0.3c0,0.1,0,0.5,0,1.2c0,0.6,0,1.4,0.1,2.3
		c0,0.9,0.1,1.8,0.1,2.8c0,1,0.1,1.9,0.1,2.8s0,1.6,0.1,2.2c0,0.6,0,0.9,0,1c-0.6,0.3-1,0.3-1.4-0.1c-0.3-0.4-0.6-1-0.8-1.7
		c-0.2-0.8-0.4-1.7-0.4-2.7c-0.1-1-0.1-2.1-0.1-3.1c0-1,0-1.9,0-2.8C154.2,18.9,154.2,18.3,154.3,17.9z"/>
	<path class="st0" d="M162.3,8.8c0-0.3,0.1-0.5,0.2-0.6c0.2-0.1,0.4-0.1,0.7-0.1c0.2,0,0.4,0.1,0.7,0.3c0.3,0.2,0.5,0.5,0.7,0.8
		c0.2,0.3,0.3,0.6,0.3,0.8c0,0.3-0.2,0.4-0.5,0.5h-0.2c-0.4,0-0.7,0-0.9-0.1c-0.2,0-0.4-0.1-0.6-0.2c-0.1-0.1-0.2-0.3-0.3-0.5
		S162.3,9.2,162.3,8.8z M164.2,17.8c0-0.1,0-0.3,0-0.5s0-0.5,0-0.8c0-0.3,0-0.6,0-0.8c0-0.3,0-0.4,0-0.5c-0.1-0.7,0.1-1.1,0.7-1.1
		c0.3,0,0.5,0.1,0.6,0.2c0.2,0.1,0.3,0.3,0.5,0.5c-0.1,1.2,0,2.4,0.1,3.6s0.4,2.3,0.6,3.4c0.2,1.1,0.5,2.3,0.7,3.4s0.3,2.3,0.3,3.6
		c0,0.3-0.1,0.6-0.3,1s-0.5,0.5-0.9,0.5c-0.3,0-0.6-0.3-0.8-0.8c-0.2-0.5-0.4-1.2-0.6-2c-0.2-0.8-0.3-1.7-0.4-2.7
		c-0.1-1-0.2-1.9-0.3-2.9c-0.1-0.9-0.1-1.7-0.1-2.4S164.2,18,164.2,17.8z"/>
	<path class="st0" d="M169.1,17.4c0-0.1,0.1-0.2,0.1-0.3c0.1-0.1,0.1-0.2,0.2-0.3c0.1-0.1,0.2-0.2,0.3-0.3c0.1-0.1,0.2-0.1,0.3-0.1
		c0,0,0,0,0,0s0,0,0.1,0h0.1c0.6,0.3,1,0.6,1.4,1.1c0.4,0.5,0.7,1,1,1.7c0.3,0.6,0.5,1.3,0.8,2s0.5,1.4,0.8,2.1
		c0.3,0.7,0.7,1.3,1.1,2c0.4,0.6,0.9,1.2,1.6,1.7c0.2-0.7,0.4-1.4,0.7-2.1c0.2-0.7,0.5-1.4,0.7-2c0.3-0.7,0.6-1.4,1-2.1
		s0.8-1.5,1.3-2.4c0.6-0.2,1-0.4,1.4-0.4c0.4,0,0.6,0,0.7,0.1c0.1,0.1,0.2,0.3,0.1,0.6s-0.3,0.6-0.6,0.9c-0.2,0.2-0.4,0.5-0.7,1.1
		c-0.3,0.6-0.5,1.3-0.8,2.1c-0.3,0.8-0.6,1.6-0.9,2.5c-0.3,0.9-0.7,1.7-1,2.4c-0.3,0.7-0.7,1.3-1,1.8s-0.7,0.7-1,0.7
		c-0.3,0-0.7-0.3-1.1-0.8c-0.4-0.5-0.9-1.2-1.4-2s-1-1.7-1.5-2.7c-0.5-1-1-1.9-1.4-2.9c-0.4-0.9-0.9-1.8-1.2-2.6
		C169.6,18.5,169.3,17.9,169.1,17.4z"/>
	<path class="st0" d="M184.3,20.6c0-1.2,0.2-2.4,0.6-3.5c0.4-1.1,0.9-2.1,1.6-3c0.7-0.9,1.6-1.5,2.6-2c1-0.5,2.2-0.8,3.6-0.8
		c0.8,0.1,1.5,0.3,2.1,0.6c0.6,0.3,1.1,0.7,1.5,1.2s0.7,1,0.8,1.7c0.2,0.6,0.2,1.3,0.2,2c0,0.9-0.3,1.6-0.8,2.3
		c-0.5,0.7-1.2,1.3-1.9,1.7c-0.8,0.5-1.6,0.8-2.5,1.1c-0.9,0.2-1.7,0.4-2.5,0.4c-0.3,0-0.6,0-0.9,0s-0.6-0.1-0.8-0.1
		s-0.4-0.2-0.6-0.4c-0.1-0.2-0.2-0.5-0.2-0.9c0-0.1,0-0.2,0.1-0.3c0-0.1,0.1-0.1,0.3-0.2c0.2,0,0.4,0,0.7,0s0.8,0.1,1.4,0.2
		c0.3,0,0.8-0.1,1.5-0.3c0.7-0.2,1.3-0.5,2-0.9s1.2-0.8,1.7-1.2c0.5-0.5,0.7-0.9,0.7-1.4c0-0.5-0.1-0.9-0.2-1.4
		c-0.2-0.5-0.4-0.9-0.7-1.2c-0.3-0.4-0.7-0.6-1.1-0.9c-0.4-0.2-0.9-0.3-1.4-0.3c-0.9,0.1-1.6,0.3-2.3,0.7c-0.7,0.4-1.3,0.9-1.8,1.5
		s-0.9,1.3-1.1,2c-0.3,0.7-0.4,1.5-0.4,2.3c0,0.6,0,1.2,0,1.9c0,0.6,0.1,1.2,0.3,1.8c0.2,0.6,0.4,1.2,0.8,1.7c0.4,0.5,0.9,1,1.5,1.4
		s1.5,0.8,2.5,1c1,0.3,2.3,0.4,3.8,0.5l6.5-0.4c-0.4,0.5-0.9,0.9-1.5,1.3c-0.6,0.3-1.2,0.6-1.9,0.8c-0.7,0.2-1.3,0.4-2,0.4
		c-0.7,0.1-1.3,0.1-1.8,0.1c-1.4,0-2.7-0.2-4-0.7c-1.2-0.4-2.3-1.1-3.3-1.9c-0.9-0.8-1.7-1.8-2.2-3S184.3,22,184.3,20.6z"/>
</g>
</svg>
