<svg version="1.1" 
	 xmlns="http://www.w3.org/2000/svg" xmlns:xlink="http://www.w3.org/1999/xlink" x="0px" y="0px" width="200px" height="42px"
	 viewBox="0 0 200 42" style="enable-background:new 0 0 200 42;" xml:space="preserve">
<g id="rirquadri_pas_selectionne">
</g>
<g id="accueil_x5F_riquadri">
	<g>
		<path class="st2" d="M179.2,1c10.9,0,19.8,9,19.8,20s-8.9,20-19.8,20H20.8C9.9,41,1,32,1,21C1,10,9.9,1,20.8,1L179.2,1 M179.2,2
			L20.8,2C10.4,2,2,10.5,2,21c0,10.5,8.4,19,18.8,19h158.4c10.4,0,18.8-8.5,18.8-19S189.6,2,179.2,2L179.2,2z"/>
	</g>
</g>
<g id="accueil_x5F_icone">
	<g>
		<path class="st2" d="M179,1c11,0,20,9,20,20s-9,20-20,20s-20-9-20-20S168,1,179,1 M179,2c-10.5,0-19,8.5-19,19
			c0,10.5,8.5,19,19,19s19-8.5,19-19C198,10.5,189.5,2,179,2L179,2z"/>
	</g>
	<g>
		<path class="st0" d="M184.6,12.1c0,1.4-1.6,2.7-2.9,3.6c-0.6,0.4-0.8,4.3-1.2,4.3c-0.5,0-2.2-3.1-2.9-3.1c-3.4,0-6.2-2.2-6.2-4.8
			c0-2.7,2.9-3.9,6.2-4.8C182.5,5.8,184.6,9.4,184.6,12.1z"/>
		<path class="st2" d="M183.4,19.8c0.1,1.4,1.8,3.2,3,4.1c0.6,0.4,0.2,4.1,0.6,4c0.4,0,2.5-2.7,3.1-2.4c2.8,1.2,6.6-0.5,6.7-4.2
			c0.1-2.7-2.4-4.8-5.2-6.1C187.2,13.2,183.3,17.2,183.4,19.8z"/>
		<path class="st1" d="M177.1,17.2c0.7,1.7-0.9,5.5-2.5,6.8c-0.6,0.4,1,2.2,0,3.9c-0.4,0.6-2.8-2.7-3.6-2.5c-4.1,0.8-7-0.9-7.6-3.8
			c-0.6-3,1.4-6.1,5.5-6.9C173,14,175.8,14.3,177.1,17.2z"/>
	</g>
</g>
</svg>
