<svg version="1.1" 
	 xmlns="http://www.w3.org/2000/svg" xmlns:xlink="http://www.w3.org/1999/xlink" x="0px" y="0px" width="200px" height="42px"
	 viewBox="0 0 200 42" style="enable-background:new 0 0 200 42;" xml:space="preserve">
<g id="rirquadri_pas_selectionne">
</g>
<g id="accueil_x5F_riquadri">
	<g>
		<path class="st1" d="M179.2,1c10.9,0,19.8,9,19.8,20s-8.9,20-19.8,20H20.8C9.9,41,1,32,1,21C1,10,9.9,1,20.8,1L179.2,1 M179.2,2
			L20.8,2C10.4,2,2,10.5,2,21c0,10.5,8.4,19,18.8,19h158.4c10.4,0,18.8-8.5,18.8-19S189.6,2,179.2,2L179.2,2z"/>
	</g>
</g>
<g id="accueil_x5F_icone">
	<g>
		<path class="st1" d="M179,1c11,0,20,9,20,20s-9,20-20,20c-11,0-20-9-20-20S168,1,179,1 M179,2c-10.5,0-19,8.5-19,19
			c0,10.5,8.5,19,19,19s19-8.5,19-19C198,10.5,189.5,2,179,2L179,2z"/>
	</g>
	<g>
		<g>
			<path class="st0" d="M160.5,21.4c0,0,6.7-1.6,9.9-4.2s8.9-4.9,8.9-4.9s4.1,4.2,6.6,5.8c2.5,1.7,12.1,2.4,12.1,2.4
				s-7,1.9-11.2,6.6c-2.4,2.7-9.1,6.2-9.1,6.2s-3.4-2.7-9.5-4.3C162,27.4,160.5,21.4,160.5,21.4z"/>
			<path class="st0" d="M163,25.9c0,0,7.7-2.2,9.6-4.2c2-2,9.3-6.9,9.3-6.9"/>
			<path class="st0" d="M165.6,19.7c0,0,2.3,4.5,8.2,5.5c5.5,1,9.5,4.7,9.5,4.7"/>
			<path class="st0" d="M173.5,15.1c0,0,1.1,3.5,7,4.6c5.5,1,9.5,4.7,9.5,4.7"/>
			<path class="st0" d="M170.5,29.7c0,0,5.5-2.1,7.4-4c2-2,9.3-6.9,9.3-6.9"/>
		</g>
		<g>
			<g>
				<path class="st1" d="M188.9,8.3c-2.1,0-3.7,1.8-3.7,4c0,2.2,3.2,4.3,3.7,8.8c0.8-3.7,3.7-6.6,3.7-8.8
					C192.7,10.1,191,8.3,188.9,8.3z M189.9,14.7c-0.7,0-1.3-0.6-1.3-1.3c0-0.7,0.6-1.3,1.3-1.3c0.7,0,1.3,0.6,1.3,1.3
					C191.2,14.1,190.6,14.7,189.9,14.7z"/>
			</g>
		</g>
	</g>
</g>
</svg>
