<svg version="1.1" 
	 xmlns="http://www.w3.org/2000/svg" xmlns:xlink="http://www.w3.org/1999/xlink" x="0px" y="0px" width="200px" height="42px"
	 viewBox="0 0 200 42" style="enable-background:new 0 0 200 42;" xml:space="preserve">
<g id="rirquadri_pas_selectionne">
</g>
<g id="accueil_x5F_riquadri">
	<g>
		<path class="st1" d="M179.2,1c10.9,0,19.8,9,19.8,20s-8.9,20-19.8,20H20.8C9.9,41,1,32,1,21C1,10,9.9,1,20.8,1L179.2,1 M179.2,2
			L20.8,2C10.4,2,2,10.5,2,21c0,10.5,8.4,19,18.8,19h158.4c10.4,0,18.8-8.5,18.8-19S189.6,2,179.2,2L179.2,2z"/>
	</g>
</g>
<g id="accueil_x5F_icone">
	<g>
		<path class="st1" d="M179,1c11,0,20,9,20,20s-9,20-20,20s-20-9-20-20S168,1,179,1 M179,2c-10.5,0-19,8.5-19,19s8.5,19,19,19
			s19-8.5,19-19S189.5,2,179,2L179,2z"/>
	</g>
	<g>
		<path class="st0" d="M182,35.4c1.4-1.1,2.3-3.4,1.1-7.1c0.3-4.7,2.5-6.9,2.5-6.9c0.7-1.1,1.1-2.4,1.1-3.9c0-3.9-3.2-7.1-7.1-7.1
			s-7.1,3.2-7.1,7.1c0,1.5,0.4,2.7,1.2,3.9c0,0,2.8,2.8,3.3,6.6c-0.9,3.7-0.2,6.1,1,7.3h0.7l0.4,0.9h2l0.3-0.9H182z"/>
		<line class="st0" x1="177.1" y1="28.3" x2="183.2" y2="28.3"/>
		<line class="st0" x1="183" y1="29.6" x2="176.9" y2="30.6"/>
		<line class="st0" x1="183" y1="31.2" x2="176.9" y2="32.2"/>
		<line class="st0" x1="183" y1="32.8" x2="177.5" y2="33.7"/>
		<polyline class="st0" points="178.8,27.9 179.1,22.9 181.1,22.9 181.5,27.9 		"/>
		<line class="st0" x1="180" y1="22.2" x2="179.2" y2="19.1"/>
		<line class="st0" x1="180.1" y1="22.3" x2="180.9" y2="19.2"/>
		<polyline class="st0" points="179.1,22.9 176.6,17 177.5,16.3 178.3,17.1 179.2,16.3 180,17.3 180.8,16.3 181.8,17.3 182.6,16.3 
			183.3,17 181.1,22.9 		"/>
		<line class="st0" x1="166.9" y1="13.9" x2="170.1" y2="15"/>
		<line class="st0" x1="172" y1="6.9" x2="173.6" y2="9.4"/>
		<line class="st0" x1="180" y1="7.6" x2="180" y2="4.7"/>
		<line class="st0" x1="170.3" y1="21.2" x2="167.9" y2="22.6"/>
		<line class="st0" x1="188.4" y1="22" x2="191.2" y2="23.4"/>
		<line class="st0" x1="188.9" y1="15.4" x2="191.9" y2="14.6"/>
		<line class="st0" x1="185.9" y1="9.5" x2="187.9" y2="7.5"/>
	</g>
</g>
</svg>
