<svg version="1.1" 
	 xmlns="http://www.w3.org/2000/svg" xmlns:xlink="http://www.w3.org/1999/xlink" x="0px" y="0px" width="200px" height="42px"
	 viewBox="0 0 200 42" style="enable-background:new 0 0 200 42;" xml:space="preserve">
<g id="rirquadri_pas_selectionne">
</g>
<g id="accueil_x5F_riquadri">
	<g>
		<path class="st0" d="M179.2,1c10.9,0,19.8,9,19.8,20s-8.9,20-19.8,20H20.8C9.9,41,1,32,1,21C1,10,9.9,1,20.8,1L179.2,1 M179.2,2
			L20.8,2C10.4,2,2,10.5,2,21c0,10.5,8.4,19,18.8,19h158.4c10.4,0,18.8-8.5,18.8-19S189.6,2,179.2,2L179.2,2z"/>
	</g>
</g>
<g id="accueil_x5F_icone">
	<g>
		<path class="st0" d="M179,1c11,0,20,9,20,20s-9,20-20,20s-20-9-20-20S168,1,179,1 M179,2c-10.5,0-19,8.5-19,19s8.5,19,19,19
			s19-8.5,19-19S189.5,2,179,2L179,2z"/>
	</g>
	<g>
		<g>
			<path class="st0" d="M188.5,13.7c0-2-1.2-3.6-2.8-3.6c-1.5,0-2.8,1.6-2.8,3.6c0,2,1.2,3.6,2.8,3.6
				C187.2,17.3,188.5,15.7,188.5,13.7z M185.7,17.3c-1.5,0-4.2-0.2-6.8-0.1c1.3-0.3,2.4-1.7,2.4-3.5c0-2-1.2-3.6-2.8-3.6
				c-1.5,0-2.8,1.6-2.8,3.6c0,1.9,1.2,3.5,2.6,3.6c-1.8,0.1-3.5,0.4-4.7,1c0.6-0.8,0.9-2,0.6-3.3c-0.5-1.9-2-3.2-3.5-2.9
				c-1.5,0.3-2.3,2.2-1.9,4.1s2,3.2,3.5,2.9c-2.6,2.6-5.5,3.7-5.5,6.7l6.4-2.5v8.3c0,0,11.3,4.4,14.1-1.4c0-5.8,0-7.7,0-7.7
				s4.4,6.9,4.4,4.1C191.8,23.9,188.7,17.3,185.7,17.3z"/>
		</g>
	</g>
</g>
</svg>
