<svg version="1.1" 
	 xmlns="http://www.w3.org/2000/svg" xmlns:xlink="http://www.w3.org/1999/xlink" x="0px" y="0px" width="200px" height="42px"
	 viewBox="0 0 200 42" style="enable-background:new 0 0 200 42;" xml:space="preserve">
<g id="rirquadri_pas_selectionne">
</g>
<g id="accueil_x5F_riquadri">
	<g>
		<path class="st4" d="M179.2,1c10.9,0,19.8,9,19.8,20s-8.9,20-19.8,20H20.8C9.9,41,1,32,1,21C1,10,9.9,1,20.8,1L179.2,1 M179.2,2
			L20.8,2C10.4,2,2,10.5,2,21c0,10.5,8.4,19,18.8,19h158.4c10.4,0,18.8-8.5,18.8-19S189.6,2,179.2,2L179.2,2z"/>
	</g>
</g>
<g id="accueil_x5F_icone">
	<g>
		<path class="st4" d="M179,1c11,0,20,9,20,20s-9,20-20,20s-20-9-20-20S168,1,179,1 M179,2c-10.5,0-19,8.5-19,19s8.5,19,19,19
			s19-8.5,19-19S189.5,2,179,2L179,2z"/>
	</g>
	<g>
		<line class="st3" x1="185.3" y1="24.4" x2="185.3" y2="29.1"/>
		<line class="st0" x1="171.7" y1="11.7" x2="171.7" y2="29.1"/>
		<line class="st5" x1="180.8" y1="19.1" x2="180.8" y2="29.1"/>
		<line class="st2" x1="176.3" y1="15.3" x2="176.3" y2="29.1"/>
		<line class="st1" x1="164" y1="29.1" x2="193.7" y2="29.1"/>
		<g>
			<g>
				<path class="st4" d="M172.1,5.8c0,0.7-0.7,1.9-1.5,1.9c-0.5,0-0.7-0.5-0.7-0.9c0-1,1.1-1.8,1.6-1.8c0.1,0,0.3,0.1,0.3,0.2
					c0,0.1,0,0.1-0.1,0.1C172.1,5.3,172.1,5.5,172.1,5.8z M172.5,6.9c0.6-0.7,1.2-1.3,1.9-1.7c0.1,0.4,0,0.7-0.9,1.6
					c-0.8,0.9-1.9,2.2-2.5,3.2c-0.1,0.2-0.2,0.3-0.3,0.5c0,0.1-0.1,0.3-0.2,0.3c-0.2,0-0.4-0.3-0.4-0.5c0-0.4,0.6-1.1,0.8-1.4
					L172.5,6.9z M170.5,6.8c0,0.1,0,0.2,0.1,0.2c0.5,0.1,1.2-1.1,1.2-1.3c0-0.1-0.1-0.1-0.1-0.1c-0.1,0-0.2,0.2-0.3,0.2
					c-0.1,0-0.1,0-0.2-0.1C170.8,5.9,170.5,6.4,170.5,6.8z M174.4,8.7c0,0.7-0.7,1.9-1.5,1.9c-0.5,0-0.7-0.5-0.7-0.9
					c0-1,1.1-1.8,1.6-1.8c0.1,0,0.3,0.1,0.3,0.2c0,0.1,0,0.1-0.1,0.1C174.3,8.2,174.4,8.4,174.4,8.7z M172.7,9.6
					c0,0.1,0,0.2,0.1,0.2c0.5,0.1,1.2-1.1,1.2-1.3c0-0.1-0.1-0.1-0.1-0.1c-0.1,0-0.2,0.2-0.3,0.2c-0.1,0-0.1,0-0.2-0.1
					C173.1,8.8,172.7,9.2,172.7,9.6z"/>
			</g>
		</g>
		<polygon class="st4" points="191.7,32.1 191.7,26.1 194.7,29.1 		"/>
	</g>
</g>
</svg>
