<svg version="1.1" 
	 xmlns="http://www.w3.org/2000/svg" xmlns:xlink="http://www.w3.org/1999/xlink" x="0px" y="0px" width="200px" height="42px"
	 viewBox="0 0 200 42" style="enable-background:new 0 0 200 42;" xml:space="preserve">
<g id="rirquadri_pas_selectionne">
</g>
<g id="accueil_x5F_riquadri">
	<g>
		<path class="st1" d="M179.2,1c10.9,0,19.8,9,19.8,20s-8.9,20-19.8,20H20.8C9.9,41,1,32,1,21C1,10,9.9,1,20.8,1L179.2,1 M179.2,2
			L20.8,2C10.4,2,2,10.5,2,21c0,10.5,8.4,19,18.8,19h158.4c10.4,0,18.8-8.5,18.8-19S189.6,2,179.2,2L179.2,2z"/>
	</g>
</g>
<g id="accueil_x5F_icone">
	<g>
		<path class="st1" d="M179,1c11,0,20,9,20,20s-9,20-20,20s-20-9-20-20S168,1,179,1 M179,2c-10.5,0-19,8.5-19,19s8.5,19,19,19
			s19-8.5,19-19S189.5,2,179,2L179,2z"/>
	</g>
	<g>
		<path class="st0" d="M160.7,20.2c2.4,2.4,8.7,7.4,10.9,10.9c3-3,12.2-1.2,15.4-1.2c4.7-8,10-8.4,10-8.4S188.9,15,184.9,11
			c-3.9,0-10,7.9-10,7.9S163.1,17.9,160.7,20.2z"/>
		<line class="st0" x1="174.9" y1="18.9" x2="186.8" y2="29.7"/>
		<path class="st0" d="M187.2,29.6c0,0,7.3-6.1,10.2-6.5l-1.1-1.1"/>
		<path class="st0" d="M187.2,29.7c0,0,7.7-5,10.6-5.4l-0.6-0.7"/>
		<path class="st1" d="M179.5,16.6c1.4,1,3,3,3,3s2.8-3.3,4.9-4.3c-1.9-1.8-3-2.6-3-2.6S181.4,14.2,179.5,16.6z"/>
		<path class="st0" d="M186.8,26.5c1-1.6,3.3-4.1,6.3-5.6"/>
		<path class="st0" d="M185.5,25.2c1-1.6,3.3-4.1,6.2-5.6"/>
		<path class="st0" d="M184.1,23.9c1-1.6,3.3-4.1,6.2-5.6"/>
		<path class="st0" d="M166.2,21.7c0,0,2.4-0.5,4.8-0.4"/>
		<path class="st0" d="M167.6,23.1c0,0,2.4-0.5,4.8-0.4"/>
		<path class="st0" d="M169.1,24.6c0,0,2.4-0.5,4.8-0.4"/>
	</g>
</g>
</svg>
