<svg version="1.1" 
	 xmlns="http://www.w3.org/2000/svg" xmlns:xlink="http://www.w3.org/1999/xlink" x="0px" y="0px" width="200px" height="42px"
	 viewBox="0 0 200 42" style="enable-background:new 0 0 200 42;" xml:space="preserve">
<g id="rirquadri_pas_selectionne">
</g>
<g id="accueil_x5F_riquadri">
	<g>
		<path class="st3" d="M179.2,1c10.9,0,19.8,9,19.8,20s-8.9,20-19.8,20H20.8C9.9,41,1,32,1,21C1,10,9.9,1,20.8,1L179.2,1 M179.2,2
			L20.8,2C10.4,2,2,10.5,2,21c0,10.5,8.4,19,18.8,19h158.4c10.4,0,18.8-8.5,18.8-19S189.6,2,179.2,2L179.2,2z"/>
	</g>
</g>
<g id="accueil_x5F_icone">
	<g>
		<path class="st3" d="M179,1c11,0,20,9,20,20s-9,20-20,20c-11,0-20-9-20-20S168,1,179,1 M179,2c-10.5,0-19,8.5-19,19s8.5,19,19,19
			s19-8.5,19-19S189.5,2,179,2L179,2z"/>
	</g>
	<path class="st4" d="M175.4,21.7c2.3,0.5-1-0.1,4.4,1c5.4,1.1,10,12.1,4.2,14.8c-5.8,2.7-14.2-0.4-16.9-3.3
		C164.4,31.2,170.3,20.7,175.4,21.7z"/>
	<path class="st4" d="M175.7,20.7c-0.8-1.2-3.6-6.5-1.8-6.8c1.9-0.3,2.5,2.3,2.5,2.3s1.6-1.8,3.6-1.4c2,0.4,1.6,2.4,1.6,2.4
		s2.1-2,3.1-0.3c1,1.6-2.1,3.5-3.5,4.4C179.8,22.3,176.5,22,175.7,20.7z"/>
	<g>
		<path class="st1" d="M174.4,32c-0.2,0.1-0.6,0.2-1.2,0.2c-1.3,0-2.2-0.8-2.2-2.3c0-1.4,1-2.4,2.3-2.4c0.6,0,0.9,0.1,1.1,0.2
			l-0.1,0.5c-0.2-0.1-0.5-0.2-0.9-0.2c-1.1,0-1.8,0.7-1.8,1.9c0,1.1,0.6,1.8,1.7,1.8c0.4,0,0.7-0.1,1-0.2L174.4,32z"/>
		<path class="st1" d="M175.7,27.7v1.9h2.2v-1.9h0.6v4.5h-0.6v-2.1h-2.2v2.1h-0.6v-4.5H175.7z"/>
		<path class="st1" d="M179.5,27.7h2.4v0.5h-1.8v1.5h1.7v0.5h-1.7v2h-0.6V27.7z"/>
	</g>
	<g>
		<path class="st2" d="M181.3,11.1c0,1.7-1.4,3.1-3.1,3.1c-1.7,0-3.1-1.4-3.1-3.1c0-1.7,1.4-3.1,3.1-3.1
			C179.9,8,181.3,9.4,181.3,11.1z"/>
		<circle class="st4" cx="177" cy="10.4" r="0.5"/>
		<circle class="st4" cx="178.8" cy="10.1" r="0.5"/>
		<path class="st0" d="M177.1,12.3c1.1,1.1,2.4,0.5,2.8-0.7"/>
	</g>
	<g>
		<path class="st2" d="M193.8,13c-0.5,1.6-2.3,2.5-3.9,2c-1.6-0.5-2.5-2.3-2-3.9c0.5-1.6,2.3-2.5,3.9-2
			C193.4,9.7,194.3,11.4,193.8,13z"/>
		<circle class="st4" cx="190" cy="11" r="0.5"/>
		<circle class="st4" cx="191.8" cy="11.3" r="0.5"/>
		<path class="st0" d="M189.5,12.8c0.7,1.4,2.1,1.2,2.9,0.2"/>
	</g>
	<g>
		<path class="st2" d="M187.9,9.1c-1.1,1.3-3,1.5-4.4,0.4c-1.3-1.1-1.5-3-0.4-4.4c1.1-1.3,3-1.5,4.4-0.4
			C188.8,5.8,189,7.7,187.9,9.1z"/>
		<circle class="st4" cx="185.1" cy="5.7" r="0.5"/>
		<path class="st4" d="M187.1,7c-0.2,0.2-0.5,0.2-0.7,0.1c-0.2-0.2-0.2-0.5-0.1-0.7c0.2-0.2,0.5-0.2,0.7-0.1
			C187.2,6.5,187.3,6.8,187.1,7z"/>
		<path class="st0" d="M184,7.3c0.1,1.5,1.5,1.9,2.6,1.3"/>
	</g>
</g>
</svg>
