<svg version="1.1" 
	 xmlns="http://www.w3.org/2000/svg" xmlns:xlink="http://www.w3.org/1999/xlink" x="0px" y="0px" width="200px" height="42px"
	 viewBox="0 0 200 42" style="enable-background:new 0 0 200 42;" xml:space="preserve">
<g id="rirquadri_pas_selectionne">
</g>
<g id="accueil_x5F_riquadri">
	<g>
		<path class="st1" d="M179.2,1c10.9,0,19.8,9,19.8,20s-8.9,20-19.8,20H20.8C9.9,41,1,32,1,21C1,10,9.9,1,20.8,1L179.2,1 M179.2,2
			L20.8,2C10.4,2,2,10.5,2,21c0,10.5,8.4,19,18.8,19h158.4c10.4,0,18.8-8.5,18.8-19S189.6,2,179.2,2L179.2,2z"/>
	</g>
</g>
<g id="accueil_x5F_icone">
	<g>
		<path class="st1" d="M179,1c11,0,20,9,20,20s-9,20-20,20c-11,0-20-9-20-20S168,1,179,1 M179,2c-10.5,0-19,8.5-19,19s8.5,19,19,19
			s19-8.5,19-19S189.5,2,179,2L179,2z"/>
	</g>
	<g>
		<g>
			<rect x="171.6" y="10.3" class="st1" width="3.8" height="3.8"/>
			<line class="st0" x1="176.9" y1="13.3" x2="188.9" y2="13.3"/>
		</g>
		<g>
			<rect x="171.6" y="15.9" class="st1" width="3.8" height="3.8"/>
			<line class="st0" x1="176.9" y1="18.9" x2="188.9" y2="18.9"/>
		</g>
		<g>
			<rect x="171.6" y="21.5" class="st1" width="3.8" height="3.8"/>
			<line class="st0" x1="176.9" y1="24.5" x2="188.9" y2="24.5"/>
		</g>
		<g>
			<rect x="171.6" y="27.1" class="st1" width="3.8" height="3.8"/>
			<line class="st0" x1="176.9" y1="30.1" x2="188.9" y2="30.1"/>
		</g>
	</g>
</g>
</svg>
