<svg version="1.1" id="icone"
	 xmlns="http://www.w3.org/2000/svg" xmlns:xlink="http://www.w3.org/1999/xlink" x="0px" y="0px" width="18px" height="18px"
	 viewBox="0 0 18 18" style="enable-background:new 0 0 18 18;" xml:space="preserve">
<path class="st1" d="M9,17.8c-4.8,0-8.8-3.9-8.8-8.8S4.2,0.3,9,0.3c4.8,0,8.8,3.9,8.8,8.8S13.9,17.8,9,17.8L9,17.8z"/>
<g>
	<path class="st3" d="M11.5,5c0,0.6-0.7,1.2-1.3,1.6C10,6.9,9.9,8.6,9.7,8.6c-0.2,0-1-1.4-1.3-1.4c-1.5,0-2.8-1-2.8-2.2
		c0-1.2,1.3-1.7,2.8-2.2C10.6,2.2,11.5,3.8,11.5,5z"/>
	<path class="st2" d="M11,8.5c0,0.6,0.8,1.5,1.3,1.8c0.2,0.2,0.1,1.8,0.3,1.8c0.2,0,1.1-1.2,1.4-1.1c1.2,0.5,3-0.2,3-1.9
		c0-1.2-1.1-2.1-2.3-2.7C12.7,5.5,11,7.3,11,8.5z"/>
	<path class="st0" d="M8.2,7.4C8.5,8.1,7.8,9.8,7,10.4c-0.2,0.2,0.4,1,0,1.8c-0.2,0.3-1.3-1.2-1.6-1.1C3.5,11.4,2.2,10.7,2,9.3
		C1.7,8,2.6,6.6,4.5,6.2C6.3,5.9,7.6,6,8.2,7.4z"/>
</g>
<g>
	<path class="st2" d="M9,0c5,0,9,4,9,9c0,5-4,9-9,9c-5,0-9-4-9-9C0,4.1,4,0,9,0 M9,0.5C4.3,0.5,0.5,4.3,0.5,9c0,4.7,3.8,8.6,8.5,8.6
		s8.5-3.8,8.5-8.6C17.6,4.3,13.7,0.5,9,0.5L9,0.5z"/>
</g>
</svg>
