<svg version="1.1" id="icone" 
	 xmlns="http://www.w3.org/2000/svg" xmlns:xlink="http://www.w3.org/1999/xlink" x="0px" y="0px" width="18px" height="18px"
	 viewBox="0 0 18 18" style="enable-background:new 0 0 18 18;" xml:space="preserve">
<path class="st0" d="M9,17.8c-4.8,0-8.8-3.9-8.8-8.8S4.2,0.2,9,0.2c4.8,0,8.8,3.9,8.8,8.8S13.9,17.8,9,17.8L9,17.8z"/>
<g>
	<g>
		<path class="st1" d="M13.3,5.7c0-0.9-0.6-1.6-1.2-1.6c-0.7,0-1.2,0.7-1.2,1.6c0,0.9,0.6,1.6,1.2,1.6C12.7,7.3,13.3,6.6,13.3,5.7z
			 M12,7.3c-0.7,0-1.9-0.1-3.1,0C9.6,7.2,10,6.5,10,5.7c0-0.9-0.6-1.6-1.2-1.6c-0.7,0-1.2,0.7-1.2,1.6c0,0.9,0.5,1.6,1.2,1.6
			C8,7.4,7.2,7.5,6.6,7.8C6.9,7.4,7,6.9,6.9,6.3C6.7,5.5,6,4.9,5.3,5c-0.7,0.2-1,1-0.8,1.9C4.6,7.8,5.3,8.3,6,8.2
			c-1.2,1.2-2.5,1.6-2.5,3l2.9-1.1v3.7c0,0,5.1,2,6.3-0.6c0-2.6,0-3.5,0-3.5s2,3.1,2,1.9C14.8,10.3,13.4,7.3,12,7.3z"/>
	</g>
</g>
<g>
	<path class="st1" d="M9,0c5,0,9,4,9,9s-4,9-9,9s-9-4-9-9S4,0,9,0 M9,0.5C4.3,0.5,0.5,4.3,0.5,9s3.8,8.5,8.6,8.5s8.5-3.8,8.5-8.5
		S13.7,0.5,9,0.5L9,0.5z"/>
</g>
</svg>
