<svg version="1.1" id="icone" 
	 xmlns="http://www.w3.org/2000/svg" xmlns:xlink="http://www.w3.org/1999/xlink" x="0px" y="0px" width="18px" height="18px"
	 viewBox="0 0 18 18" style="enable-background:new 0 0 18 18;" xml:space="preserve">
<path class="st0" d="M9,17.8c-4.8,0-8.8-3.9-8.8-8.8S4.2,0.3,9,0.3c4.8,0,8.8,3.9,8.8,8.8S13.9,17.8,9,17.8L9,17.8z"/>
<g>
	<path class="st2" d="M10.4,15.5c0.6-0.5,1-1.5,0.5-3.2c0.2-2.1,1.1-3.1,1.1-3.1c0.3-0.5,0.5-1.1,0.5-1.7c0-1.8-1.4-3.2-3.2-3.2
		c-1.8,0-3.2,1.4-3.2,3.2c0,0.7,0.2,1.2,0.5,1.7c0,0,1.3,1.2,1.5,3c-0.4,1.7-0.1,2.8,0.4,3.3H9l0.2,0.4h0.9l0.1-0.4H10.4z"/>
	<line class="st2" x1="8.2" y1="12.3" x2="10.9" y2="12.3"/>
	<line class="st2" x1="10.9" y1="12.9" x2="8.1" y2="13.3"/>
	<line class="st2" x1="10.9" y1="13.6" x2="8.1" y2="14.1"/>
	<line class="st2" x1="10.9" y1="14.4" x2="8.4" y2="14.7"/>
	<polyline class="st2" points="8.9,12.1 9.1,9.9 10,9.9 10.2,12.1 	"/>
	<line class="st2" x1="9.5" y1="9.6" x2="9.1" y2="8.2"/>
	<line class="st2" x1="9.5" y1="9.6" x2="9.9" y2="8.2"/>
	<polyline class="st2" points="9.1,9.9 8,7.2 8.4,6.9 8.7,7.3 9.1,6.9 9.5,7.4 9.9,6.9 10.3,7.4 10.6,6.9 11,7.2 10,9.9 	"/>
	<line class="st2" x1="3.6" y1="5.8" x2="5.1" y2="6.3"/>
	<line class="st2" x1="5.9" y1="2.7" x2="6.6" y2="3.8"/>
	<line class="st2" x1="9.5" y1="3" x2="9.5" y2="1.7"/>
	<line class="st2" x1="5.1" y1="9.1" x2="4" y2="9.8"/>
	<line class="st2" x1="13.3" y1="9.5" x2="14.5" y2="10.1"/>
	<line class="st2" x1="13.5" y1="6.5" x2="14.9" y2="6.2"/>
	<line class="st2" x1="12.1" y1="3.9" x2="13" y2="3"/>
</g>
<g>
	<path class="st1" d="M9,0c5,0,9,4,9,9s-4,9-9,9c-5,0-9-4-9-9S4.1,0,9,0 M9,0.5C4.3,0.5,0.5,4.3,0.5,9s3.8,8.5,8.5,8.5
		s8.5-3.8,8.5-8.5S13.8,0.5,9,0.5L9,0.5z"/>
</g>
</svg>
