<svg version="1.1" id="icone"
	 xmlns="http://www.w3.org/2000/svg" xmlns:xlink="http://www.w3.org/1999/xlink" x="0px" y="0px" width="18px" height="18px"
	 viewBox="0 0 18 18" style="enable-background:new 0 0 18 18;" xml:space="preserve">
<path class="st1" d="M9,17.8c-4.8,0-8.8-3.9-8.8-8.8S4.2,0.2,9,0.2c4.8,0,8.8,3.9,8.8,8.8S13.9,17.8,9,17.8L9,17.8z"/>
<g id="Livello_3">
	<g id="Livello_2">
		<path class="st2" d="M7.5,8.9C7.2,8.3,5.9,6,6.7,5.8s1.1,1.1,1.1,1.1s0.7-0.8,1.6-0.6c0.9,0.2,0.7,1.1,0.7,1.1s0.9-0.9,1.4-0.2
			c0.5,0.7-0.9,1.6-1.6,2C9.4,9.6,7.9,9.5,7.5,8.9z"/>
		<path class="st2" d="M7.4,9.3c1,0.2-0.4-0.1,2,0.4c2.4,0.5,4.5,5.5,1.9,6.7c-2.6,1.2-6.4-0.2-7.6-1.5S5.1,8.9,7.4,9.3z"/>
		<g>
			<path class="st1" d="M7,14c-0.1,0-0.3,0.1-0.5,0.1c-0.6,0-1-0.4-1-1c0-0.6,0.4-1.1,1.1-1.1C6.7,12,6.9,12,7,12.1l-0.1,0.2
				c-0.1,0-0.2-0.1-0.4-0.1c-0.5,0-0.8,0.3-0.8,0.8c0,0.5,0.3,0.8,0.8,0.8c0.2,0,0.3,0,0.4-0.1L7,14z"/>
			<path class="st1" d="M7.6,12v0.8h1V12h0.3v2H8.5v-0.9h-1V14H7.3v-2H7.6z"/>
			<path class="st1" d="M9.2,12h1.1v0.2H9.5v0.7h0.8v0.2H9.5V14H9.2V12z"/>
		</g>
	</g>
	<g>
		<circle class="st0" cx="12" cy="2.8" r="1.4"/>
		<circle class="st2" cx="11.8" cy="2.1" r="0.2"/>
		<circle class="st2" cx="12.5" cy="2.6" r="0.2"/>
		<path class="st3" d="M11.3,2.8c0.1,0.7,0.7,0.9,1.2,0.6"/>
	</g>
	<g>
		<circle class="st0" cx="14.4" cy="5" r="1.4"/>
		<circle class="st2" cx="13.9" cy="4.5" r="0.2"/>
		<circle class="st2" cx="14.8" cy="4.6" r="0.2"/>
		<path class="st3" d="M13.8,5.3c0.3,0.6,1,0.5,1.3,0.1"/>
	</g>
	<g>
		<circle class="st0" cx="8.7" cy="4.6" r="1.4"/>
		<circle class="st2" cx="8.1" cy="4.2" r="0.2"/>
		<circle class="st2" cx="8.9" cy="4.1" r="0.2"/>
		<path class="st3" d="M8.2,5.1c0.5,0.5,1.1,0.2,1.3-0.3"/>
	</g>
</g>
<g>
	<path class="st2" d="M9,0c5,0,9,4,9,9s-4,9-9,9c-5,0-9-4-9-9S4.1,0,9,0 M9,0.5C4.3,0.5,0.5,4.3,0.5,9s3.8,8.5,8.5,8.5
		s8.5-3.8,8.5-8.5S13.7,0.5,9,0.5L9,0.5z"/>
</g>
</svg>
