<svg version="1.1" id="icone" 
	 xmlns="http://www.w3.org/2000/svg" xmlns:xlink="http://www.w3.org/1999/xlink" x="0px" y="0px" width="18px" height="18px"
	 viewBox="0 0 18 18" style="enable-background:new 0 0 18 18;" xml:space="preserve">
<path class="st0" d="M9,17.8c-4.8,0-8.8-3.9-8.8-8.8S4.2,0.3,9,0.3c4.8,0,8.8,3.9,8.8,8.8S13.9,17.8,9,17.8L9,17.8z"/>
<g>
	<line class="st4" x1="11.9" y1="10.6" x2="11.9" y2="12.7"/>
	<line class="st6" x1="5.8" y1="4.8" x2="5.8" y2="12.7"/>
	<line class="st2" x1="9.8" y1="8.2" x2="9.8" y2="12.7"/>
	<line class="st1" x1="7.8" y1="6.5" x2="7.8" y2="12.7"/>
	<line class="st5" x1="2.3" y1="12.7" x2="15.6" y2="12.7"/>
	<g>
		<g>
			<path class="st3" d="M5.9,2.2C5.9,2.5,5.6,3,5.3,3C5,3,4.9,2.8,4.9,2.6c0-0.5,0.5-0.8,0.7-0.8c0.1,0,0.1,0.1,0.1,0.1
				c0,0,0,0,0,0.1C5.9,2,5.9,2.1,5.9,2.2z M6.1,2.7C6.3,2.4,6.6,2.1,7,1.9c0,0.2,0,0.3-0.4,0.7C6.2,3,5.7,3.6,5.4,4.1
				c0,0.1-0.1,0.1-0.1,0.2c0,0.1,0,0.1-0.1,0.1C5.1,4.4,5,4.3,5,4.2C5,4,5.2,3.7,5.4,3.6L6.1,2.7z M5.2,2.6c0,0,0,0.1,0,0.1
				c0.2,0,0.5-0.5,0.5-0.6c0,0,0,0-0.1,0c-0.1,0-0.1,0.1-0.1,0.1c0,0-0.1,0-0.1,0C5.3,2.2,5.2,2.5,5.2,2.6z M7,3.5
				c0,0.3-0.3,0.9-0.7,0.9c-0.2,0-0.3-0.2-0.3-0.4c0-0.5,0.5-0.8,0.7-0.8c0.1,0,0.1,0.1,0.1,0.1c0,0,0,0,0,0.1C6.9,3.3,7,3.3,7,3.5z
				 M6.2,3.9c0,0,0,0.1,0,0.1c0.2,0,0.5-0.5,0.5-0.6c0,0,0,0-0.1,0c-0.1,0-0.1,0.1-0.1,0.1c0,0-0.1,0-0.1,0C6.4,3.5,6.2,3.7,6.2,3.9
				z"/>
		</g>
	</g>
	<polygon class="st3" points="14.7,14 14.7,11.3 16.1,12.7 	"/>
</g>
<g>
	<path class="st3" d="M9,0c5,0,9,4,9,9s-4,9-9,9s-9-4-9-9S4.1,0,9,0 M9,0.5C4.3,0.5,0.5,4.3,0.5,9s3.8,8.5,8.5,8.5s8.5-3.8,8.5-8.5
		S13.7,0.5,9,0.5L9,0.5z"/>
</g>
</svg>
