<svg version="1.1" id="icone"
	 xmlns="http://www.w3.org/2000/svg" xmlns:xlink="http://www.w3.org/1999/xlink" x="0px" y="0px" width="18px" height="18px"
	 viewBox="0 0 18 18" style="enable-background:new 0 0 18 18;" xml:space="preserve">
<path class="st0" d="M9,17.8c-4.8,0-8.8-3.9-8.8-8.8S4.2,0.2,9,0.2c4.8,0,8.8,3.9,8.8,8.8S13.9,17.8,9,17.8L9,17.8z"/>
<g>
	<g>
		<path class="st2" d="M0.7,9.2c0,0,3-0.7,4.4-1.9s4-2.2,4-2.2s1.8,1.9,3,2.6c1.1,0.8,5.4,1.1,5.4,1.1s-3.2,0.9-5,3
			c-1.1,1.2-4.1,2.8-4.1,2.8s-1.6-1.2-4.3-1.9C1.4,11.9,0.7,9.2,0.7,9.2z"/>
		<path class="st2" d="M1.8,11.2c0,0,3.4-1,4.3-1.9c0.9-0.9,4.2-3.1,4.2-3.1"/>
		<path class="st2" d="M3,8.4c0,0,1,2,3.7,2.5C9.2,11.4,11,13,11,13"/>
		<path class="st2" d="M6.5,6.4c0,0,0.5,1.6,3.1,2.1c2.5,0.4,4.3,2.1,4.3,2.1"/>
		<path class="st2" d="M5.2,12.9c0,0,2.5-0.9,3.3-1.8C9.4,10.2,12.7,8,12.7,8"/>
	</g>
	<g>
		<g>
			<path class="st1" d="M13.5,3.3c-0.9,0-1.7,0.8-1.7,1.8c0,1,1.4,1.9,1.7,3.9c0.3-1.7,1.7-2.9,1.7-3.9C15.2,4.1,14.4,3.3,13.5,3.3z
				 M13.9,6.2c-0.3,0-0.6-0.3-0.6-0.6c0-0.3,0.3-0.6,0.6-0.6c0.3,0,0.6,0.3,0.6,0.6C14.5,5.9,14.2,6.2,13.9,6.2z"/>
		</g>
	</g>
</g>
<g>
	<path class="st1" d="M9,0c5,0,9,4,9,9c0,5-4,9-9,9s-9-4-9-9C0,4,4,0,9,0 M9,0.5C4.3,0.5,0.5,4.3,0.5,9c0,4.7,3.8,8.5,8.5,8.5
		s8.5-3.8,8.5-8.5C17.6,4.3,13.7,0.5,9,0.5L9,0.5z"/>
</g>
</svg>
