<svg version="1.1" id="icone"
	 xmlns="http://www.w3.org/2000/svg" xmlns:xlink="http://www.w3.org/1999/xlink" x="0px" y="0px" width="18px" height="18px"
	 viewBox="0 0 18 18" style="enable-background:new 0 0 18 18;" xml:space="preserve">
<path class="st0" d="M9,17.8c-4.8,0-8.8-3.9-8.8-8.8S4.2,0.2,9,0.2c4.8,0,8.8,3.9,8.8,8.8S13.9,17.8,9,17.8L9,17.8z"/>
<g>
	<g>
		<rect x="5.7" y="4.2" class="st1" width="1.7" height="1.7"/>
		<line class="st2" x1="8" y1="5.5" x2="13.5" y2="5.5"/>
	</g>
	<g>
		<rect x="5.7" y="6.7" class="st1" width="1.7" height="1.7"/>
		<line class="st2" x1="8" y1="8.1" x2="13.5" y2="8.1"/>
	</g>
	<g>
		<rect x="5.7" y="9.3" class="st1" width="1.7" height="1.7"/>
		<line class="st2" x1="8" y1="10.6" x2="13.5" y2="10.6"/>
	</g>
	<g>
		<rect x="5.7" y="11.8" class="st1" width="1.7" height="1.7"/>
		<line class="st2" x1="8" y1="13.1" x2="13.5" y2="13.1"/>
	</g>
</g>
<g>
	<path class="st1" d="M9,0c5,0,9,4,9,9s-4,9-9,9c-5,0-9-4-9-9S4,0,9,0 M9,0.5C4.3,0.5,0.5,4.3,0.5,9s3.8,8.5,8.5,8.5
		s8.5-3.8,8.5-8.5S13.7,0.5,9,0.5L9,0.5z"/>
</g>
</svg>
