<svg version="1.1" id="icone"
	 xmlns="http://www.w3.org/2000/svg" xmlns:xlink="http://www.w3.org/1999/xlink" x="0px" y="0px" width="18px" height="18px"
	 viewBox="0 0 18 18" style="enable-background:new 0 0 18 18;" xml:space="preserve">
<path class="st3" d="M9,17.8c-4.8,0-8.8-3.9-8.8-8.8c0-4.8,3.9-8.8,8.8-8.8c4.8,0,8.8,3.9,8.8,8.8C17.8,13.9,13.9,17.8,9,17.8
	L9,17.8z"/>
<g>
	<g>
		<g>
			<path class="st1" d="M11.9,14.1c0,0-6.4-4.7-10.3-5.3C-1,8.4,7.1,8.9,9,9.5C10.8,10,11.9,14.1,11.9,14.1z"/>
		</g>
		<g>
			<path class="st1" d="M13.3,13.5c0,0,0.6-8,1.1-10.1c0.5-2-1.7,4.3-2,5.8C12,10.7,13.3,13.5,13.3,13.5z"/>
		</g>
		<g>
			<path class="st1" d="M12.3,13.3c0,0-0.8-7.6-0.6-9.8c0.1-2.2-0.6,4-0.7,5.6C10.8,10.6,12.3,13.3,12.3,13.3z"/>
		</g>
		<g class="st4">
			<path class="st0" d="M8.3,11.3l0-0.4C8.2,10,8.5,9,9.3,8.1c0.7-0.8,1.1-1.5,1.1-2.2c0-0.8-0.5-1.4-1.5-1.4C8.3,4.5,7.7,4.7,7.3,5
				L6.9,4c0.5-0.4,1.4-0.6,2.3-0.6c1.8,0,2.7,1.1,2.7,2.4c0,1.1-0.6,1.9-1.4,2.8c-0.7,0.8-1,1.6-0.9,2.4l0,0.4H8.3z M8,13.5
				c0-0.6,0.4-1,0.9-1c0.6,0,0.9,0.4,0.9,1c0,0.6-0.4,1-1,1C8.4,14.5,8,14.1,8,13.5z"/>
		</g>
	</g>
</g>
<path class="st2" d="M9,0c5,0,9,4,9,9s-4,9-9,9c-5,0-9-4-9-9S4.1,0,9,0 M9,0.5C4.3,0.5,0.5,4.3,0.5,9c0,4.7,3.8,8.5,8.5,8.5
	s8.5-3.8,8.5-8.5C17.6,4.3,13.8,0.5,9,0.5L9,0.5z"/>
</svg>
