<svg version="1.1" id="icone"
	 xmlns="http://www.w3.org/2000/svg" xmlns:xlink="http://www.w3.org/1999/xlink" x="0px" y="0px" width="18px" height="18px"
	 viewBox="0 0 18 18" style="enable-background:new 0 0 18 18;" xml:space="preserve">
<path class="st0" d="M9,17.8c-4.8,0-8.8-3.9-8.8-8.8S4.2,0.3,9,0.3c4.8,0,8.8,3.9,8.8,8.8S13.9,17.8,9,17.8L9,17.8z"/>
<g>
	<path class="st2" d="M0.8,8.7c1.1,1.1,3.9,3.3,4.9,4.9c1.4-1.4,5.5-0.5,6.9-0.5c2.1-3.6,4.5-3.8,4.5-3.8s-3.7-3-5.4-4.7
		c-1.8,0-4.5,3.6-4.5,3.6S1.9,7.6,0.8,8.7z"/>
	<line class="st2" x1="7.2" y1="8.1" x2="12.5" y2="13"/>
	<path class="st2" d="M12.7,12.9c0,0,3.3-2.7,4.6-2.9l-0.5-0.5"/>
	<path class="st2" d="M12.7,13c0,0,3.5-2.3,4.8-2.4l-0.3-0.3"/>
	<path class="st1" d="M9.2,7.1c0.6,0.4,1.3,1.4,1.3,1.4s1.3-1.5,2.2-1.9c-0.9-0.8-1.4-1.2-1.4-1.2S10.1,6,9.2,7.1z"/>
	<path class="st2" d="M12.5,11.5C13,10.8,14,9.7,15.3,9"/>
	<path class="st2" d="M12,10.9c0.5-0.7,1.5-1.8,2.8-2.5"/>
	<path class="st2" d="M11.3,10.3c0.5-0.7,1.5-1.8,2.8-2.5"/>
	<path class="st2" d="M3.3,9.4c0,0,1.1-0.2,2.1-0.2"/>
	<path class="st2" d="M3.9,10C3.9,10,5,9.7,6,9.8"/>
	<path class="st2" d="M4.6,10.7c0,0,1.1-0.2,2.1-0.2"/>
</g>
<g>
	<path class="st1" d="M9,0c5,0,9,4,9,9s-4,9-9,9s-9-4-9-9S4.1,0,9,0 M9,0.5C4.3,0.5,0.5,4.3,0.5,9s3.8,8.5,8.5,8.5s8.6-3.8,8.6-8.5
		S13.7,0.5,9,0.5L9,0.5z"/>
</g>
</svg>
