<svg version="1.1" 
	 xmlns="http://www.w3.org/2000/svg" xmlns:xlink="http://www.w3.org/1999/xlink" x="0px" y="0px" width="216px" height="42px"
	 viewBox="0 0 216 42" style="enable-background:new 0 0 216 42;" xml:space="preserve">
<g id="rirquadri_pas_selectionne">
</g>
<g id="accueil_x5F_riquadri">
</g>
<g id="accueil_x5F_icone">
	<path class="st3" d="M22.6,41C10.7,41,1,32,1,21C1,10,10.7,1,22.6,1h172.6c10.9,0,19.8,9,19.8,20c0,11-8.9,20-19.8,20H22.6z"/>
	<g>
		<path class="st4" d="M195,40.5c-10.8,0-19.5-8.7-19.5-19.5c0-10.7,8.7-19.5,19.5-19.5s19.5,8.7,19.5,19.5
			C214.5,31.8,205.8,40.5,195,40.5L195,40.5z"/>
		<path class="st2" d="M195,1c11,0,20,9,20,20c0,11-9,20-20,20c-11,0-20-9-20-20C175,10,184,1,195,1 M195,2c-10.5,0-19,8.5-19,19
			c0,10.5,8.5,19,19,19s19-8.5,19-19C214,10.5,205.5,2,195,2L195,2z"/>
	</g>
	<g>
		<g>
			<path class="st2" d="M201.6,26.6c0.7,0,1-3.1,1.3-4l-1.8-0.2C201.2,24.5,200.7,26.6,201.6,26.6z M205.2,22.9l-1.9-0.2
				c0.5,1.1,0.7,5.4,1.7,4.5C205.3,25.6,205.2,25.2,205.2,22.9z M203,22.4c-0.1,0-0.1,0.1-0.2,0.2l0.4,0
				C203.2,22.5,203.1,22.4,203,22.4z"/>
		</g>
	</g>
	<polyline class="st1" points="180.5,24.3 181.5,25.5 182.4,24.1 	"/>
	<polyline class="st1" points="184.4,21.9 185.4,23.1 186.2,21.7 	"/>
	<polyline class="st1" points="183.8,25.9 184.8,27.1 185.6,25.7 	"/>
	<polyline class="st1" points="181.1,20.2 182.1,21.4 182.9,20 	"/>
	<polyline class="st1" points="184.3,17.6 185.3,18.8 186.1,17.4 	"/>
	<polyline class="st1" points="180.1,16.5 181.1,17.7 181.9,16.3 	"/>
	<polyline class="st1" points="178.1,13.7 179.1,14.9 179.9,13.5 	"/>
	<polyline class="st1" points="180.4,10 181.4,11.2 182.2,9.8 	"/>
	<polyline class="st1" points="176.6,19.6 177.6,20.8 178.4,19.4 	"/>
	<polyline class="st1" points="177,22.4 178.1,23.6 178.9,22.2 	"/>
	<polyline class="st1" points="178.3,27.3 179.3,28.5 180.1,27.1 	"/>
	<polyline class="st1" points="187.4,23.1 188.5,24.4 189.3,22.9 	"/>
	<polyline class="st1" points="187.8,19.9 188.8,21.1 189.6,19.7 	"/>
	<g>
		<g>
			<path class="st2" d="M192.2,6.9c-0.3,0-0.5,0-0.7,0c0.6-0.1,1-0.8,1-1.5c0-0.8-0.5-1.5-1.2-1.5s-1.2,0.7-1.2,1.5
				c0,0.7,0.4,1.3,0.9,1.5c-0.7,0-1.2,0.1-1.9,0.8c-1.1,1.1-1.2,2.7-1.2,4l0.6-0.4l1-1.7V13c0,0,0.2,5.4,0.9,5.6
				c0.3,0.1,0.6-4.8,0.9-4.8c0.5-0.1,0.8,4.9,1.6,4.2c0-2.5,0-8.8,0-8.8s1.9,3,1.9,1.8S193.5,6.9,192.2,6.9z"/>
		</g>
	</g>
	<g>
		<g>
			<path class="st2" d="M199.2,21l15.6,2.8C213.4,33.5,205.1,41,195,41c-7.3,0-12.7-3.9-16.7-9L199.2,21 M199.4,22.1l-19.5,10.3
				c4.3,5.1,9.4,7.6,15.1,7.6c9.1,0,16.9-6.5,18.7-15.4L199.4,22.1L199.4,22.1z"/>
		</g>
	</g>
	<g>
		<g>
			<path class="st2" d="M187.9,12.1c0,0,0-0.1,0-0.2c0-0.1,0-0.3,0-0.5c0-0.3-0.1-0.8-0.3-1c-0.2-0.3-0.6-0.6-1-0.5
				c-0.8,0-1.4,1-1.8,1.6c-0.1,0.3-0.2,0.6-0.2,0.9c0,0.2,0.1,0.3,0.2,0.5c0,0.1,0,0.1-0.1,0.2c0,0.2,0.2,0.4,0.3,0.4
				c0.1,0.2,0.2,0.3,0,0.5s-0.6,0.3-0.6,0.3c-0.3,0.1-0.7,0.1-1,0.1c-0.4,0-0.8,0.1-1.2,0c-0.2,0-0.5-0.1-0.7-0.1
				c-0.1,0-0.1,0.2-0.1,0.2c0,0.1,0.1,0.2,0.1,0.3c0.1,0.2,1,0.7,1.1,0.3c0-0.1,0-0.2,0-0.2c0.1,0,0.2,0,0.3-0.1
				c0.2,0,0.3-0.1,0.5-0.1c0.4,0,0.8,0,1.1,0.1c0.4,0,0.9,0,1.2,0.2c0.2,0.1,0.3,0.2,0.5,0.3c0.1,0.1,0.3,0.2,0.5,0.3
				c0.9-0.2,2.1-1.7,2.1-2.4C188.5,13,188.2,12.6,187.9,12.1z M186.8,10.9c-0.3-0.1-0.5,0-0.7,0.1c-0.4,0.3-0.7,0.7-1,1
				c0,0,0.2-0.9,1-1.5c0.4-0.2,0.9-0.3,1.1,0.2c0.1,0.2,0.1,0.5,0.2,0.7C187.2,11.3,187,11,186.8,10.9z"/>
		</g>
	</g>
	<g>
		<g>
			<path class="st2" d="M206.7,11.7c-0.4,0-0.7,0-1.1,0c0.8-0.2,1.4-1.1,1.4-2.2c0-1.2-0.8-2.2-1.7-2.2c-0.9,0-1.7,1-1.7,2.2
				c0,1.1,0.6,1.9,1.3,2.2c-0.9,0-1.7,0.2-2.8,1.2c-1.6,1.6-1.8,3.8-1.8,5.7l0.9-0.6l1.4-2.5v2.2l5,0.9c0-2.1,0-3.6,0-3.6
				s2.7,4.3,2.7,2.6S208.6,11.7,206.7,11.7z"/>
		</g>
	</g>
	<g>
		<polygon class="st0" points="191.1,20.1 206.1,23.1 213.2,19.5 197.6,16.7 191.1,20.1 		"/>
		<line class="st1" x1="213.2" y1="19.5" x2="213.2" y2="28.3"/>
		<line class="st1" x1="206.1" y1="23.1" x2="206.1" y2="31.8"/>
		<line class="st1" x1="197.6" y1="21.4" x2="197.6" y2="25.5"/>
		<line class="st1" x1="191.1" y1="20.1" x2="191.1" y2="28.8"/>
	</g>
	<polygon class="st2" points="195.4,15.5 196.3,19.2 201.7,20.4 205,18.9 201.7,18.2 201.3,16.5 	"/>
	<path class="st1" d="M193.6,18.8c0,0-12.5-5.1-8.4-14.5"/>
</g>
</svg>
