<svg version="1.1" 
	 xmlns="http://www.w3.org/2000/svg" xmlns:xlink="http://www.w3.org/1999/xlink" x="0px" y="0px" width="216px" height="42px"
	 viewBox="0 0 216 42" style="enable-background:new 0 0 216 42;" xml:space="preserve">
<g id="rirquadri_pas_selectionne">
</g>
<g id="accueil_x5F_riquadri">
</g>
<g id="accueil_x5F_icone">
	<path class="st2" d="M22.6,41C10.7,41,1,32,1,21C1,10,10.7,1,22.6,1h172.6c10.9,0,19.8,9,19.8,20c0,11-8.9,20-19.8,20H22.6z"/>
	<g>
		<path class="st3" d="M195,40.5c-10.8,0-19.5-8.8-19.5-19.5c0-10.8,8.7-19.5,19.5-19.5s19.5,8.7,19.5,19.5
			C214.5,31.8,205.8,40.5,195,40.5L195,40.5z"/>
		<path class="st1" d="M195,1c11,0,20,9,20,20c0,11-9,20-20,20c-11,0-20-9-20-20C175,10,184,1,195,1 M195,2c-10.5,0-19,8.5-19,19
			c0,10.5,8.5,19,19,19s19-8.5,19-19C214,10.5,205.5,2,195,2L195,2z"/>
	</g>
	<polygon class="st3" points="205,27.5 205,29.1 197.8,32 197.8,30.4 	"/>
	<g>
		<g>
			<path class="st1" d="M198.6,13.5c0,1.8-1.6,3.3-3.4,3.2c-1.8-0.1-3.3-1.6-3.2-3.4c0.1-1.8,1.6-3.3,3.4-3.2
				C197.2,10.1,198.7,11.7,198.6,13.5z"/>
			<path class="st1" d="M194.6,10.5c0,0,0.2-1.5-1.7-2.8"/>
			<path class="st1" d="M197.6,8c0,0-0.8-0.3-1.6,2.4"/>
			<path class="st1" d="M193.5,7.8c0,0.3-0.3,0.6-0.6,0.6c-0.3,0-0.6-0.3-0.6-0.6c0-0.3,0.3-0.6,0.6-0.6
				C193.3,7.2,193.5,7.4,193.5,7.8z"/>
			<path class="st1" d="M198.3,7.6c0,0.3-0.3,0.6-0.6,0.6c-0.3,0-0.6-0.3-0.6-0.6c0-0.3,0.3-0.6,0.6-0.6
				C198.1,7,198.3,7.3,198.3,7.6z"/>
			<g>
				<path class="st1" d="M191.2,29.1c0.8,2.5,2.1,2.9,3.6,3c1.5,0,2.9-0.4,3.8-2.9C196.7,29.4,193.2,29.4,191.2,29.1z"/>
				<path class="st1" d="M199.9,22.5c0-0.7-0.1-1.4-0.2-2.1c-2.2,0.3-7.3,0.3-9.1-0.3c-0.1,0.7-0.3,1.4-0.3,2.1
					C191.7,22.8,197.6,22.9,199.9,22.5z"/>
				<path class="st1" d="M199.1,18.2c-0.8-2.1-2.2-3.5-3.8-3.5c-1.6,0-3.1,1.3-4,3.4C193.2,18.4,196.9,18.4,199.1,18.2z"/>
				<path class="st1" d="M190.3,24.6c0,0.7,0.1,1.4,0.3,2.1c2,0.3,6.7,0.3,8.8,0.1c0.1-0.6,0.3-1.2,0.3-1.9
					C197.6,25.2,192,25.3,190.3,24.6z"/>
				<path class="st0" d="M190.2,17.7c0,0,0,0.1,0,0.1C190.3,17.5,190.4,17.4,190.2,17.7z"/>
				<path class="st3" d="M199.7,20.5c-0.1-0.8-0.3-1.6-0.6-2.3c-2.2,0.2-6,0.1-7.8-0.1c-0.3,0.6-0.5,1.3-0.7,2.1
					C192.4,20.8,197.6,20.8,199.7,20.5z"/>
				<path class="st0" d="M190.1,22.1c0,0,0,0.1,0,0.1C190.2,21.9,190.3,21.8,190.1,22.1z"/>
				<path class="st3" d="M199.8,24.9c0.1-0.6,0.1-1.2,0.1-1.7c0-0.2,0-0.4,0-0.6c-2.3,0.3-8.3,0.3-9.6-0.2c0,0.2,0,0.3,0,0.5
					c0,0.6,0,1.1,0,1.7C192,25.3,197.6,25.2,199.8,24.9z"/>
				<path class="st0" d="M189.8,26.3C189.7,26.3,189.7,26.4,189.8,26.3C189.9,26.1,190,26,189.8,26.3z"/>
				<path class="st3" d="M190.6,26.7c0.2,0.8,0.4,1.6,0.6,2.4c2,0.3,5.5,0.3,7.5,0.1c0.3-0.8,0.5-1.6,0.7-2.4
					C197.3,27,192.6,27,190.6,26.7z"/>
			</g>
			<path class="st1" d="M193.3,17c1.3,1.3-0.8,5.7-3,8.1c-2.2,2.4-5.1,3.3-6.4,2c-1.3-1.2-0.7-4.2,1.5-6.5
				C187.7,18.2,192,15.7,193.3,17z"/>
			<path class="st1" d="M197.9,16.2c1.6-1,5.3,2.3,7,5.1c1.7,2.8,1.8,5.8,0.2,6.7c-1.6,1-4.2-0.5-5.9-3.3
				C197.6,22,196.4,17.2,197.9,16.2z"/>
		</g>
	</g>
</g>
</svg>
