<svg version="1.1" 
	 xmlns="http://www.w3.org/2000/svg" xmlns:xlink="http://www.w3.org/1999/xlink" x="0px" y="0px" width="216px" height="42px"
	 viewBox="0 0 216 42" style="enable-background:new 0 0 216 42;" xml:space="preserve">
<g id="rirquadri_pas_selectionne">
</g>
<g id="accueil_x5F_riquadri">
</g>
<g id="accueil_x5F_icone">
	<path class="st1" d="M22.6,41C10.7,41,1,32,1,21C1,10,10.7,1,22.6,1h172.6c10.9,0,19.8,9,19.8,20c0,11-8.9,20-19.8,20H22.6z"/>
	<g>
		<path class="st2" d="M195,40.5c-10.8,0-19.5-8.7-19.5-19.5c0-10.8,8.7-19.5,19.5-19.5s19.5,8.7,19.5,19.5
			C214.5,31.8,205.8,40.5,195,40.5L195,40.5z"/>
		<path class="st0" d="M195,1c11,0,20,9,20,20c0,11-9,20-20,20c-11,0-20-9-20-20C175,10,184,1,195,1 M195,2c-10.5,0-19,8.5-19,19
			c0,10.5,8.5,19,19,19s19-8.5,19-19C214,10.5,205.5,2,195,2L195,2z"/>
	</g>
	<g>
		<g>
			<path class="st2" d="M195,40.5c-6.1,0-11.4-2.8-15.9-8.3l20.2-10.7l15,2.7C212.7,33.5,204.5,40.5,195,40.5L195,40.5z"/>
			<path class="st0" d="M199.2,21l15.6,2.8C213.4,33.5,205.1,41,195,41c-7.3,0-12.7-3.9-16.7-9L199.2,21 M199.4,22.1l-19.5,10.3
				c4.3,5.1,9.4,7.6,15.1,7.6c9.1,0,16.9-6.5,18.7-15.4L199.4,22.1L199.4,22.1z"/>
		</g>
	</g>
	<g>
		<g>
			<path class="st0" d="M206.7,11.7c-0.4,0-0.7,0-1.1,0c0.8-0.2,1.4-1.1,1.4-2.2c0-1.2-0.8-2.2-1.7-2.2c-0.9,0-1.7,1-1.7,2.2
				c0,1.1,0.6,1.9,1.3,2.2c-0.9,0-1.7,0.2-2.8,1.2c-1.6,1.6-1.8,3.8-1.8,5.7l0.9-0.6l1.4-2.5v5.1c0,0,0.3,7.8,1.4,8
				c0.4,0.1,0.9-6.9,1.3-7c0.7-0.2,1.2,7.1,2.3,6c0-3.6,0-12.7,0-12.7s2.7,4.3,2.7,2.6S208.6,11.7,206.7,11.7z"/>
		</g>
	</g>
	<g>
		<path class="st0" d="M178.6,31.5c-2-3.1-3.1-6.8-3.1-10.5c0-10.8,8.7-19.5,19.5-19.5c1.2,0,2.5,0.1,3.7,0.3l0,18.9L178.6,31.5
			L178.6,31.5z"/>
		<path class="st2" d="M195,1c1.4,0,2.8,0.1,4.2,0.4l0,19.6l-20.8,11.2c-2.2-3.2-3.4-7-3.4-11.2C175,10,184,1,195,1 M195,2
			c-10.5,0-19,8.5-19,19c0,3.5,1,6.9,2.8,9.9l19.4-10.4l0-18.2C197.1,2.1,196.1,2,195,2L195,2z"/>
	</g>
	<polygon class="st2" points="192.5,15.4 193.1,18.7 194.7,18.7 195.4,15.4 	"/>
	<polygon class="st2" points="188.9,17.6 189.5,20.9 191.1,20.9 191.8,17.6 	"/>
	<polygon class="st2" points="185,19.9 185.6,23.2 187.2,23.2 187.9,19.9 	"/>
	<polygon class="st2" points="181,22.4 181.6,25.7 183.2,25.7 183.9,22.4 	"/>
	<polygon class="st2" points="192.5,10.4 193.1,13.7 194.7,13.7 195.4,10.4 	"/>
	<polygon class="st2" points="188.9,12.5 189.5,15.8 191.1,15.8 191.8,12.5 	"/>
	<polygon class="st2" points="185,14.9 185.6,18.2 187.2,18.2 187.9,14.9 	"/>
	<polygon class="st2" points="181,17.3 181.6,20.6 183.2,20.6 183.9,17.3 	"/>
	<polygon class="st2" points="192.5,5 193.1,8.3 194.7,8.3 195.4,5 	"/>
	<polygon class="st2" points="188.9,7.1 189.5,10.4 191.1,10.4 191.8,7.1 	"/>
	<polygon class="st2" points="185,9.4 185.6,12.7 187.2,12.7 187.9,9.4 	"/>
	<polygon class="st2" points="181,11.9 181.6,15.2 183.2,15.2 183.9,11.9 	"/>
</g>
</svg>
