<svg version="1.1"
	 xmlns="http://www.w3.org/2000/svg" xmlns:xlink="http://www.w3.org/1999/xlink" x="0px" y="0px" width="216px" height="42px"
	 viewBox="0 0 216 42" style="enable-background:new 0 0 216 42;" xml:space="preserve">
<style type="text/css">
</style>
<g id="rirquadri_pas_selectionne">
</g>
<g id="accueil_x5F_riquadri">
</g>
<g id="accueil_x5F_icone">
	<path class="st2" d="M22.6,41C10.7,41,1,32,1,21C1,10,10.7,1,22.6,1h172.6c10.9,0,19.8,9,19.8,20c0,11-8.9,20-19.8,20H22.6z"/>
	<g>
		<path class="st3" d="M195,40.5c-10.8,0-19.5-8.7-19.5-19.5c0-10.8,8.7-19.5,19.5-19.5s19.5,8.7,19.5,19.5
			C214.5,31.8,205.8,40.5,195,40.5L195,40.5z"/>
		<path class="st6" d="M195,1c11,0,20,9,20,20c0,11-9,20-20,20c-11,0-20-9-20-20C175,10,184,1,195,1 M195,2c-10.5,0-19,8.5-19,19
			c0,10.5,8.5,19,19,19s19-8.5,19-19C214,10.5,205.5,2,195,2L195,2z"/>
	</g>
	<g>
		<g>
			<path class="st3" d="M195,40.5c-6.1,0-11.4-2.8-15.9-8.3l20.2-10.7l15,2.7C212.7,33.5,204.5,40.5,195,40.5L195,40.5z"/>
			<path class="st6" d="M199.2,21l15.6,2.8C213.4,33.5,205.1,41,195,41c-7.3,0-12.7-3.9-16.7-9L199.2,21 M199.4,22.1l-19.5,10.3
				c4.3,5.1,9.4,7.6,15.1,7.6c9.1,0,16.9-6.5,18.6-15.4L199.4,22.1L199.4,22.1z"/>
		</g>
	</g>
	<g>
		<g>
			<path class="st3" d="M212.6,29.5l-17.2-5.8l3.9-2.1l15,2.7C213.9,26.1,213.4,27.8,212.6,29.5L212.6,29.5z"/>
			<path class="st6" d="M199.2,21l15.6,2.8c-0.3,2.2-1,4.3-2,6.2l-18.7-6.4L199.2,21 M199.4,22.1l-2.7,1.4l15.7,5.3
				c0.6-1.3,1.1-2.7,1.3-4.2L199.4,22.1L199.4,22.1z"/>
		</g>
	</g>
	<g>
		<g>
			<path class="st3" d="M195,40.5c-6.1,0-11.4-2.8-15.9-8.3l7-3.7l18.6,9.4C201.7,39.6,198.4,40.5,195,40.5L195,40.5z"/>
			<path class="st6" d="M186.1,27.9l19.6,10c-3.1,2-6.8,3.1-10.7,3.1c-7.3,0-12.7-3.9-16.7-9L186.1,27.9 M186.1,29.1l-6.2,3.3
				c4.3,5.1,9.4,7.6,15.1,7.6c3,0,5.9-0.7,8.6-2.1L186.1,29.1L186.1,29.1z"/>
		</g>
	</g>
	<g>
		<g>
			<path class="st6" d="M206.7,11.7c-0.4,0-0.7,0-1.1,0c0.8-0.2,1.4-1.1,1.4-2.2c0-1.2-0.8-2.2-1.7-2.2c-0.9,0-1.7,1-1.7,2.2
				c0,1.1,0.6,1.9,1.3,2.2c-0.9,0-1.7,0.2-2.8,1.2c-1.6,1.6-1.8,3.8-1.8,5.7l0.9-0.6l1.4-2.5v5.1c0,0,0.3,7.8,1.4,8
				c0.4,0.1,0.9-6.9,1.3-7c0.7-0.2,1.2,7.1,2.3,6c0-3.6,0-12.7,0-12.7s2.7,4.3,2.7,2.6C210.5,15.8,208.6,11.7,206.7,11.7z"/>
		</g>
	</g>
	<polyline class="st1" points="201.9,31.3 202.9,32.5 203.7,31.1 	"/>
	<polyline class="st1" points="204.8,30.2 205.8,31.4 206.6,30 	"/>
	<polyline class="st1" points="205.1,32.9 206.1,34.1 206.9,32.7 	"/>
	<polyline class="st1" points="201.1,28.3 202.1,29.5 202.9,28.1 	"/>
	<polyline class="st1" points="198.3,26.3 199.3,27.5 200.1,26.1 	"/>
	<polyline class="st1" points="198.4,29.4 199.4,30.6 200.2,29.2 	"/>
	<polyline class="st1" points="195.1,30.4 196.1,31.6 196.9,30.2 	"/>
	<polyline class="st1" points="199.6,32.6 200.6,33.8 201.5,32.4 	"/>
	<polyline class="st1" points="207.8,31.2 208.8,32.4 209.6,30.9 	"/>
	<polygon class="st0" points="199.6,21.7 199.6,7.3 197.6,3.4 195.4,8 195.4,23.6 	"/>
	<polygon class="st4" points="195.4,8 189.8,6.2 192.8,2.3 197.6,3.4 	"/>
	<polygon class="st0" points="186.1,28.5 186.1,14 183,11.1 179.1,16.6 179.1,32.2 	"/>
	<polygon class="st4" points="179.1,16.6 176.3,15.3 179.3,9.5 183,11.1 	"/>
	<polyline class="st5" points="189.8,6.2 189.8,21.4 195.4,23.6 	"/>
	<polygon class="st3" points="189.8,22 196.2,24.4 188.4,29.1 184.7,26.6 	"/>
	<g>
		<g>
			<path class="st6" d="M187.4,18c-0.4,0-0.7,0-1.1,0c0.8-0.2,1.4-1.1,1.4-2.2c0-1.2-0.8-2.2-1.7-2.2c-0.9,0-1.7,1-1.7,2.2
				c0,1.1,0.6,1.9,1.3,2.2c-0.9,0-1.7,0.2-2.8,1.2c-1.6,1.6-1.8,3.8-1.8,5.7l0.9-0.6l1.4-2.5v5.1c0,0,0.3,7.8,1.4,8
				c0.4,0.1,0.9-6.9,1.3-7c0.7-0.2,1.2,7.1,2.3,6c0-3.6,0-12.7,0-12.7s2.7,4.3,2.7,2.6S189.2,18,187.4,18z"/>
		</g>
	</g>
	<g>
		<g>
			<path class="st6" d="M196.7,14c-0.4,0-0.7,0-1.1,0c0.8-0.2,1.4-1.1,1.4-2.2c0-1.2-0.8-2.2-1.7-2.2c-0.9,0-1.7,1-1.7,2.2
				c0,1.1,0.6,1.9,1.3,2.2c-0.9,0-1.7,0.2-2.8,1.2c-1.6,1.6-1.8,3.8-1.8,5.7l0.9-0.6l1.4-2.5v5.1c0,0,0.3,7.8,1.4,8
				c0.4,0.1,0.9-6.9,1.3-7c0.7-0.2,1.2,7.1,2.3,6c0-3.6,0-12.7,0-12.7s2.7,4.3,2.7,2.6C200.4,18.1,198.5,14,196.7,14z"/>
		</g>
	</g>
	<polyline class="st1" points="190.6,27.4 191.7,28.6 192.5,27.2 	"/>
	<polyline class="st1" points="188.9,24.5 189.9,25.8 190.8,24.3 	"/>
</g>
</svg>