<svg version="1.1" 
	 xmlns="http://www.w3.org/2000/svg" xmlns:xlink="http://www.w3.org/1999/xlink" x="0px" y="0px" width="216px" height="42px"
	 viewBox="0 0 216 42" style="enable-background:new 0 0 216 42;" xml:space="preserve">
<g id="rirquadri_pas_selectionne">
</g>
<g id="accueil_x5F_riquadri">
</g>
<g id="accueil_x5F_icone">
	<path class="st0" d="M22.6,41C10.7,41,1,32,1,21C1,10,10.7,1,22.6,1h172.6c10.9,0,19.8,9,19.8,20c0,11-8.9,20-19.8,20H22.6z"/>
	<g>
		<path class="st4" d="M195,40.5c-10.8,0-19.5-8.8-19.5-19.5c0-10.8,8.7-19.5,19.5-19.5s19.5,8.7,19.5,19.5
			C214.5,31.8,205.8,40.5,195,40.5L195,40.5z"/>
		<path class="st6" d="M195,1c11,0,20,9,20,20c0,11-9,20-20,20s-20-9-20-20C175,10,184,1,195,1 M195,2c-10.5,0-19,8.5-19,19
			c0,10.5,8.5,19,19,19s19-8.5,19-19C214,10.5,205.5,2,195,2L195,2z"/>
	</g>
	<g>
		<polyline class="st3" points="206.3,15.3 206.3,20.5 183.9,20.5 183.9,15.3 		"/>
		<line class="st1" x1="183.9" y1="17.3" x2="206.3" y2="17.3"/>
		<path class="st6" d="M190.6,17c-0.7,0-4.5-5.6-3-6.3c1.5,1.5-0.9-3.7,0.7-3.7s-0.1-3.4,1.6-2.3s-0.4,2.3,1.2,2.3s-0.7,2.1,0.6,3.4
			C192.9,11.7,191.2,17,190.6,17z"/>
		<path class="st6" d="M195.7,16.7c-1.1,1.1-4.7-5.2-2.6-6.1c2.1-0.9-2.4-2.7-0.4-3.3s1-3.4,2.6-2.6c1.6,0.8-0.3,0.9,1.2,2.3
			c1.5,1.5-1.9,2.5-0.6,3.7C197.2,12,197.4,15,195.7,16.7z"/>
		<path class="st6" d="M200.1,16.9c-0.6,0.2-1.7-2.9-1.4-4.4c0.3-1.4-2.2-2.2-1.1-2.6c2.1-0.9-1.6-2.7,0.4-3.3
			c2.1-0.6,1-3.4,2.6-2.6c1.6,0.8-0.3,0.9,1.2,2.3c2.3,2.3-0.8,3,0.4,4.3C203.5,11.8,201.4,16.5,200.1,16.9z"/>
		<polyline class="st2" points="190.2,14.9 189.9,11 189.1,8.2 		"/>
		<polyline class="st2" points="200.4,14.9 200.7,11.2 200.3,9.1 200.3,6.5 		"/>
		<polyline class="st2" points="195.1,15.3 195.1,12.4 194.8,9.1 194.8,7.9 		"/>
		<rect x="183.9" y="23.2" class="st5" width="22.5" height="11.5"/>
		<path class="st4" d="M188.1,29.4c0,0,3.4-2.8,6.3-2.8c2.9,0,6.5,2.5,6.5,2.5l2.6-2.6v5.8l-2.5-2.5c0,0-5.2,2.9-7.3,2.9
			C191.6,32.7,188.1,29.4,188.1,29.4z"/>
		<circle class="st6" cx="191.1" cy="29.2" r="0.4"/>
		<circle class="st4" cx="186.8" cy="27.9" r="0.4"/>
		<circle class="st4" cx="187.8" cy="25.9" r="0.6"/>
		<circle class="st4" cx="186.9" cy="25" r="0.3"/>
	</g>
</g>
</svg>
