<!DOCTYPE svg PUBLIC "-//W3C//DTD SVG 1.1//EN" "http://www.w3.org/Graphics/SVG/1.1/DTD/svg11.dtd" [
]>
<svg version="1.1" 
	 xmlns="http://www.w3.org/2000/svg" xmlns:xlink="http://www.w3.org/1999/xlink" x="0px" y="0px" width="216px" height="42px"
	 viewBox="0 0 216 42" style="enable-background:new 0 0 216 42;" xml:space="preserve">
<g id="rirquadri_pas_selectionne">
	<path class="st1" d="M22.6,41C10.7,41,1,32,1,21C1,10,10.7,1,22.6,1h172.6c10.9,0,19.8,9,19.8,20c0,11-8.9,20-19.8,20H22.6z"/>
</g>
<g id="accueil_x5F_riquadri">
	<g>
		<path class="st2" d="M195,40.5c-10.8,0-19.5-8.7-19.5-19.5c0-10.8,8.7-19.5,19.5-19.5s19.5,8.7,19.5,19.5
			C214.5,31.8,205.8,40.5,195,40.5L195,40.5z"/>
		<g>
			<path class="st3" d="M195,1c11,0,20,9,20,20c0,11-9,20-20,20c-11,0-20-9-20-20C175,10,184,1,195,1 M195,2c-10.5,0-19,8.5-19,19
				c0,10.5,8.5,19,19,19s19-8.5,19-19C214,10.5,205.5,2,195,2L195,2z"/>
		</g>
	</g>
</g>
<g id="accueil_x5F_icone">
	<g>
		<g>
			<path class="st2" d="M195,40.5c-6.1,0-11.4-2.8-15.9-8.3l20.2-10.7l15,2.7C212.7,33.5,204.5,40.5,195,40.5L195,40.5z"/>
			<g>
				<path class="st3" d="M199.2,21l15.6,2.8C213.4,33.5,205.1,41,195,41c-7.3,0-12.7-3.9-16.7-9L199.2,21 M199.4,22.1l-19.5,10.3
					c4.3,5.1,9.4,7.6,15.1,7.6c9.1,0,16.9-6.5,18.7-15.4L199.4,22.1L199.4,22.1z"/>
			</g>
		</g>
	</g>
	<g>
		<g>
			<path class="st3" d="M206.7,11.7c-0.4,0-0.7,0-1.1,0c0.8-0.2,1.4-1.1,1.4-2.2c0-1.2-0.8-2.2-1.7-2.2c-0.9,0-1.7,1-1.7,2.2
				c0,1.1,0.6,1.9,1.3,2.2c-0.9,0-1.7,0.2-2.8,1.2c-1.6,1.6-1.8,3.8-1.8,5.7l0.9-0.6l1.4-2.5v5.1c0,0,0.3,7.8,1.4,8
				c0.4,0.1,0.9-6.9,1.3-7c0.7-0.2,1.2,7.1,2.3,6c0-3.6,0-12.7,0-12.7s2.7,4.3,2.7,2.6C210.5,15.8,208.6,11.7,206.7,11.7z"/>
		</g>
	</g>
	<polyline class="st0" points="193.9,35.1 194.9,36.3 195.7,34.9 	"/>
	<polyline class="st0" points="196.8,32.8 197.8,34 198.6,32.6 	"/>
	<polyline class="st0" points="200.7,35 201.7,36.2 202.6,34.8 	"/>
	<polyline class="st0" points="196.8,36.4 197.8,37.6 198.6,36.2 	"/>
	<polyline class="st0" points="197.3,29.3 198.3,30.5 199.1,29.1 	"/>
	<polyline class="st0" points="194.4,26.9 195.4,28.2 196.2,26.7 	"/>
	<polyline class="st0" points="198.2,24.1 199.3,25.4 200.1,23.9 	"/>
	<polyline class="st0" points="200.5,27.5 201.6,28.7 202.4,27.3 	"/>
	<polyline class="st0" points="201.7,30.8 202.7,32 203.5,30.6 	"/>
	<polyline class="st0" points="205.5,30.8 206.5,32 207.3,30.6 	"/>
	<polyline class="st0" points="193.1,30.9 194.1,32.1 194.9,30.7 	"/>
	<polyline class="st0" points="189.9,29.2 191,30.4 191.8,29 	"/>
	<polyline class="st0" points="188.4,32 189.4,33.2 190.2,31.8 	"/>
	<polyline class="st0" points="184.6,32.5 185.6,33.8 186.4,32.3 	"/>
	<polyline class="st0" points="190.1,35.6 191.1,36.9 191.9,35.4 	"/>
</g>
</svg>
