<svg version="1.1" 
	 xmlns="http://www.w3.org/2000/svg" xmlns:xlink="http://www.w3.org/1999/xlink" x="0px" y="0px" width="216px" height="42px"
	 viewBox="0 0 216 42" style="enable-background:new 0 0 216 42;" xml:space="preserve">
<g id="rirquadri_pas_selectionne">
</g>
<g id="accueil_x5F_riquadri">
</g>
<g id="accueil_x5F_icone">
	<path class="st2" d="M22.6,41C10.7,41,1,32,1,21C1,10,10.7,1,22.6,1h172.6c10.9,0,19.8,9,19.8,20c0,11-8.9,20-19.8,20H22.6z"/>
	<g>
		<path class="st5" d="M195,40.5c-10.8,0-19.5-8.7-19.5-19.5c0-10.8,8.8-19.5,19.5-19.5c10.8,0,19.5,8.7,19.5,19.5
			C214.5,31.8,205.8,40.5,195,40.5L195,40.5z"/>
		<path class="st1" d="M195,1c11.1,0,20,9,20,20c0,11-9,20-20,20c-11.1,0-20-9-20-20C175,10,183.9,1,195,1 M195,2
			c-10.5,0-19,8.5-19,19c0,10.5,8.5,19,19,19c10.5,0,19-8.5,19-19C214,10.5,205.5,2,195,2L195,2z"/>
	</g>
	<g>
		<path class="st3" d="M193.8,23.8l5.3-2.8l15.2,2.7c-1.3,9.5-9.5,16.7-19.3,16.7l0,0c-7.1,0-12.4-3.8-16.3-8.7l4.4-2.3l0-0.9
			l9.1-4.8L193.8,23.8"/>
		<path class="st3" d="M190.4,8.7c1.1,0.3,2,1,2.3,2.4l-0.1,12.3l1.2,0.1l0.4-12.3C193.8,9.3,192.2,8.5,190.4,8.7"/>
		<path class="st3" d="M199.1,1.9"/>
		<path class="st3" d="M199.1,17.3"/>
		<path class="st3" d="M193.8,23.8"/>
		<polyline class="st3" points="182.7,26 180.6,27.1 178.2,28.3 177.3,29.3 		"/>
		<polyline class="st3" points="176.3,25.5 178.2,24.7 180.4,23.7 183.1,22.5 		"/>
		<polyline class="st3" points="179.1,27.5 179.1,26.1 178.8,24.7 		"/>
		<line class="st3" x1="180.6" y1="20" x2="180.6" y2="22.8"/>
		<line class="st3" x1="175.7" y1="22.1" x2="182.5" y2="19.3"/>
		<polyline class="st3" points="194.3,15.4 196.4,15 198.6,13.9 		"/>
		<polyline class="st3" points="195.8,15.4 196.2,17.9 194.1,18.7 		"/>
		<line class="st3" x1="196.2" y1="17.9" x2="198.6" y2="16.9"/>
		<polyline class="st3" points="194.5,21 197.7,19.5 198.8,19.2 		"/>
		<line class="st3" x1="197.5" y1="20" x2="197.5" y2="21.5"/>
		<polyline class="st3" points="197.2,14 197.2,11.6 198.6,11.3 		"/>
		<line class="st3" x1="196.9" y1="11.5" x2="194.2" y2="12.2"/>
		<polyline class="st3" points="183,16.4 179.8,17.2 177.9,17.9 175.5,18.6 		"/>
		<polyline class="st3" points="176.9,15 179.5,14 181.7,13.5 183.3,13.1 		"/>
		<polyline class="st3" points="193.7,9.7 195.5,9.4 197.2,9 198.6,8.9 		"/>
		<polyline class="st3" points="198.6,6.5 196.1,6.5 191.6,6.5 189.2,7 185.2,7.6 182.7,8.9 180.2,9.5 179,9.6 		"/>
		<path class="st3" d="M184.1,5.1l4.1-0.8c0,0,2.8-0.4,3.1-0.4c0.2,0,2.8-0.4,2.8-0.4l2.3-0.2l1.8-0.1h0.5"/>
		<polyline class="st3" points="195.2,4.2 195.3,5.8 195.3,6.2 		"/>
		<polyline class="st3" points="194.4,7.1 194.4,8.7 194.3,9.3 		"/>
		<line class="st3" x1="190.7" y1="7" x2="190" y2="8.8"/>
		<line class="st3" x1="186.7" y1="7.8" x2="187.9" y2="9"/>
		<polyline class="st3" points="183.3,9 183.3,10.5 182.8,11.5 182.8,12.9 		"/>
		<polyline class="st3" points="179.1,10.1 179.2,11.5 179.4,13.1 179.1,14.1 		"/>
		<polyline class="st3" points="180.5,14.2 180.5,15.5 180.3,16.6 180.3,17 		"/>
		<polyline class="st3" points="177.6,18.4 177.6,20.4 177.9,21.2 		"/>
		<polyline class="st3" points="183.7,5.1 183.7,6.6 183.7,7.9 184,8.3 		"/>
		<polyline class="st3" points="187.5,4.9 187.5,6.1 187.5,7 		"/>
		<polyline class="st3" points="190.9,4.6 190.9,5.5 190.7,6.4 		"/>
		<polyline class="st3" points="192.5,3.4 192.3,2.3 192.3,1.8 		"/>
		<g>
			<g>
				<path class="st1" d="M206.5,11.9c-0.4,0-0.7,0-1,0c0.8-0.2,1.4-1.1,1.4-2.1c0-1.2-0.7-2.2-1.7-2.2s-1.7,1-1.7,2.2
					c0,1,0.6,1.9,1.3,2.1c-0.9,0-1.7,0.2-2.7,1.2c-1.6,1.6-1.7,3.7-1.7,5.6l0.9-0.6l1.4-2.4v5c0,0,0.3,7.6,1.3,7.8
					c0.4,0.1,0.9-6.7,1.3-6.8c0.7-0.2,1.2,6.9,2.2,5.9c0-3.5,0-12.4,0-12.4s2.7,4.2,2.7,2.5C210.1,15.9,208.3,11.9,206.5,11.9z"/>
			</g>
		</g>
		<polygon class="st3" points="182.2,17.8 176.7,19.7 176.7,16.8 182.3,15 		"/>
	</g>
	<path class="st1" d="M195.7,37.3l-0.3,0.1l-0.2,0.2l0.2,0.1c0,0,0.3,0,0.4,0c0.1,0,0.3-0.2,0.3-0.2h0.3l0.2,0l0.1,0.1l0.2,0.1
		l0.1,0.1l0.1-0.1l-0.1-0.1l-0.1-0.3V37l0.1,0.1v-0.3l0.1-0.5l0.2,0.2h0.2l0.1,0l-0.1-0.1l-0.1-0.1l-0.3-0.1l0.2-0.6l0.2-0.2
		l0.2-0.2l0.2-0.5l0.4-0.1l0.6-0.1l0.5-0.2V34l0.3-0.1l0.3-0.3v-0.3l0.1-0.1c0,0,0-0.3,0-0.4s-0.2-0.2-0.2-0.2l0.1-0.1V32l0.3-0.1
		v-0.2l0.2-0.2v-0.3h0.2V31l0.1-0.2l0.2-0.2v-0.3v-0.3l0.2-0.2l-0.2-0.2l0.2-0.2v-0.3V29l-0.1-0.1v-0.2h-0.2v-0.3l0.2-0.2v-0.3
		l-0.1-0.2l-0.1-0.1h-0.3v-0.2v-0.2l-0.3-0.3l-0.2-0.2H200v-0.1l-0.3,0.3l-0.1,0.5l-0.1-0.1l-0.1,0.6l-0.2,0.7l-0.4,0.8l-0.4,0.4
		h-0.6l-0.6,0.1l-1-0.5l-0.3-1.5c-0.1-1-1-1.7-1-1.7l0.2-0.2v-0.4l-0.4,0.1l0.1-0.4l-0.3,0.3V25l-0.3,0.6l-0.2-0.4l-0.1,0.6
		l-0.3-0.2l0,0.6l0.3,0.1v0.2c0,0-0.4,0.2-0.3,0.3c0.1,0.1,0.4,0.1,0.4,0.1s-0.1,0.3,0,0.5s0.2,0.3,0.2,0.3l-0.1,0.3l-0.1,0.4
		c0,0-0.1,0.1-0.2,0.8c-0.4,0.7-0.2,2-0.2,2s0.2,0.7,0.6,1.2c0.3,0.3,0.3,0.3,0.3,0.3l0.3,0.3l0.2,0.2l0.3,0.3l0.3,0.2l0.2,0.3
		l0.3,0.3l0.4,0.1l0.2,0.2l0.2,0.2l0.1,0.3l-0.1,0.5l0.1,0.8l0,0.1h-0.2l-0.2,0l-0.2,0l-0.2,0h-0.2l-0.1,0.1l0.1,0l0.1,0.1l0.1,0.1
		l0.2,0l0.3,0l-0.2,0.1l-0.2,0.1l-0.1,0.1l-0.1,0.1v0.1l0.1-0.1h0.1l0.1,0l0.2-0.1c0,0,0.1,0,0.2,0c0,0,0.1-0.1,0.2-0.1
		c0,0,0.2,0,0.2,0h0.1l-0.1,0.2l-0.2,0.1l-0.2,0l-0.1,0l-0.2,0h-0.1h-0.1h-0.2l0.2,0.1l0.1,0.1l0.1,0l0.2,0l0.1,0l-0.3,0.1
		L195.7,37.3z"/>
	<g>
		<path class="st5" d="M179.1,31c-1.9-3-3-6.5-3-10.1c0-10.4,8.4-18.8,18.8-18.8c1,0,2.7,0.2,3.5,0.4l0.1,18.3l-4.2,2.2V11.5
			c-0.4-2-1.8-3-3.8-3c-3.4,0-7.5,2.9-7.7,6.5l0,14L179.1,31L179.1,31z"/>
		<path class="st4" d="M199.1,1.9l-4.2-0.3l4,0.4l0.1,19l-5.2,2.7V11.5c-0.4-1.8-1.7-2.5-3.3-2.5c-3,0-7,2.6-7.3,6.1v14.3l-4.4,2.3
			c-2.1-3.1-3.3-10.8-3.3-10.8c0-10.6,8.6-19.3,19.3-19.3 M194.9,1.6"/>
	</g>
	<g>
		<path class="st3" d="M199.1,1.9"/>
		<path class="st3" d="M199.1,17.3"/>
		<path class="st3" d="M193.8,23.8"/>
		<polyline class="st3" points="183.3,26 180.6,27.1 178.2,28.3 177.3,29.3 		"/>
		<polyline class="st3" points="176.3,25.5 178.2,24.7 180.4,23.7 183.1,22.5 		"/>
		<polyline class="st3" points="179.1,27.8 179.1,26.1 178.8,24.7 		"/>
		<line class="st3" x1="180.6" y1="20" x2="180.8" y2="23.6"/>
		<line class="st3" x1="175.7" y1="22.1" x2="183.3" y2="19.1"/>
		<polyline class="st3" points="193.8,15.4 196.4,15 199,13.9 		"/>
		<polyline class="st3" points="195.8,15.4 196.2,17.9 194.1,18.7 		"/>
		<line class="st3" x1="196.2" y1="17.9" x2="199" y2="16.8"/>
		<polyline class="st3" points="194.1,21.4 197.7,19.5 198.8,19.2 		"/>
		<line class="st3" x1="197.5" y1="19.6" x2="197.5" y2="21.9"/>
		<polyline class="st0" points="197.2,14.6 197.2,11.6 199.2,11.3 		"/>
		<line class="st3" x1="197.2" y1="11.6" x2="194.2" y2="12.2"/>
		<polyline class="st3" points="183,16.4 179.8,17.2 177.9,17.9 175.5,18.6 		"/>
		<polyline class="st3" points="176.9,15 179.5,14 181.7,13.5 183.8,13.1 		"/>
		<polyline class="st3" points="193.1,9.7 195.5,9.4 197.2,9 198.6,8.9 		"/>
		<polyline class="st3" points="198.6,6.5 196.1,6.5 191.6,6.5 189.2,7 185.2,7.6 182.7,8.9 180.2,9.5 179,9.6 		"/>
		<path class="st3" d="M184.1,5.1l4.1-0.8c0,0,2.8-0.4,3.1-0.4c0.2,0,2.8-0.4,2.8-0.4l2.3-0.2l1.8-0.1h0.5"/>
		<polyline class="st3" points="195.2,3.4 195.3,5.8 195.3,6.2 		"/>
		<polyline class="st3" points="194.4,6.5 194.4,8.7 194.3,9.3 		"/>
		<line class="st3" x1="190.7" y1="7" x2="190" y2="8.8"/>
		<line class="st3" x1="186.4" y1="7.4" x2="188.3" y2="9.4"/>
		<polyline class="st3" points="183.1,8.7 183.3,10.5 182.8,11.5 182.8,12.9 		"/>
		<polyline class="st3" points="179.1,10.1 179.2,11.5 179.4,13.1 179.1,14.1 		"/>
		<polyline class="st3" points="180.5,13.7 180.5,15.5 180.3,16.6 180.3,17 		"/>
		<polyline class="st3" points="177.6,18.4 177.6,20.4 177.9,21.2 		"/>
		<polyline class="st3" points="183.7,5.1 183.7,6.6 183.7,7.9 184,8.3 		"/>
		<polyline class="st3" points="187.5,4.5 187.5,6.1 187.5,7 		"/>
		<polyline class="st3" points="190.9,4 190.9,5.5 190.7,6.4 		"/>
		<polyline class="st3" points="192.5,3.8 192.3,2.3 192.3,1.8 		"/>
		<polygon class="st1" points="182.2,17.8 176.7,19.7 176.7,16.8 182.3,15 		"/>
	</g>
</g>
</svg>
