<svg version="1.1" 
	 xmlns="http://www.w3.org/2000/svg" xmlns:xlink="http://www.w3.org/1999/xlink" x="0px" y="0px" width="216px" height="42px"
	 viewBox="0 0 216 42" style="enable-background:new 0 0 216 42;" xml:space="preserve">
<g id="rirquadri_pas_selectionne">
</g>
<g id="accueil_x5F_riquadri">
</g>
<g id="accueil_x5F_icone">
	<path class="st1" d="M22.6,41C10.7,41,1,32,1,21C1,10,10.7,1,22.6,1h172.6c10.9,0,19.8,9,19.8,20c0,11-8.9,20-19.8,20H22.6z"/>
	<g>
		<path class="st2" d="M195,40.5c-10.8,0-19.5-8.8-19.5-19.5c0-10.8,8.7-19.5,19.5-19.5s19.5,8.7,19.5,19.5
			C214.5,31.8,205.8,40.5,195,40.5L195,40.5z"/>
		<path class="st0" d="M195,1c11,0,20,9,20,20c0,11-9,20-20,20c-11,0-20-9-20-20C175,10,184,1,195,1 M195,2c-10.5,0-19,8.5-19,19
			c0,10.5,8.5,19,19,19s19-8.5,19-19C214,10.5,205.5,2,195,2L195,2z"/>
	</g>
	<path class="st0" d="M193,33.8l-0.6,0.1l-0.5,0.3l0.4,0.2c0,0,0.6-0.1,0.8-0.1s0.7-0.3,0.7-0.3h0.6l0.4,0l0.3,0.3l0.4,0.2l0.3,0.3
		l0.2-0.2l-0.2-0.2l-0.2-0.6v-0.6l0.3,0.3v-0.6l0.2-1.1l0.3,0.3h0.5l0.2-0.1l-0.2-0.2l-0.1-0.1l-0.7-0.3l0.5-1.1l0.3-0.3l0.5-0.5
		l0.4-0.9l0.9-0.1l1.1-0.2l0.9-0.4v-0.7l0.6-0.2l0.7-0.7v-0.6l0.2-0.2c0,0,0-0.6,0-0.8s-0.4-0.4-0.4-0.4l0.2-0.2v-0.7l0.7-0.3v-0.3
		l0.3-0.3v-0.6h0.3v-0.5l0.3-0.4l0.4-0.4V20v-0.5l0.3-0.4l-0.5-0.5l0.3-0.3v-0.5v-0.5l-0.3-0.3v-0.4h-0.4v-0.6l0.4-0.4v-0.6
		l-0.2-0.5l-0.3-0.3h-0.6V14v-0.5l-0.5-0.5l-0.4-0.4h-0.4v-0.2l-0.6,0.6l-0.3,0.9l-0.2-0.2l-0.3,1.1l-0.4,1.3l-0.8,1.7l-0.8,0.8
		h-1.1l-1.2,0.2l-2-1l-0.6-3c-0.2-2-2-3.3-2-3.3l0.5-0.5v-0.7l-0.8,0.3l0.2-0.8l-0.7,0.7v-1l-0.6,1.1l-0.3-0.8l-0.3,1.1l-0.5-0.5
		l0,1.2l0.5,0.2v0.3c0,0-0.7,0.5-0.6,0.6c0.1,0.1,0.8,0.1,0.8,0.1s-0.2,0.5-0.1,1c0.1,0.5,0.4,0.5,0.4,0.5l-0.1,0.6l-0.2,0.8
		c0,0-0.2,0.3-0.4,1.6c-0.8,1.4-0.3,4-0.3,4s0.4,1.4,1.3,2.3c0.6,0.6,0.6,0.6,0.6,0.6l0.6,0.6l0.4,0.4l0.5,0.5l0.5,0.4l0.3,0.6
		l0.5,0.5l0.8,0.3l0.4,0.4l0.4,0.4L195,29l-0.2,1l0.1,1.5l0,0.1h-0.4l-0.3,0l-0.3,0l-0.4-0.1h-0.3l-0.3,0.1l0.2,0.1l0.1,0.1l0.1,0.1
		l0.3,0l0.5,0l-0.4,0.2l-0.4,0.1l-0.2,0.1l-0.3,0.3v0.2l0.2-0.2h0.2l0.2,0l0.3-0.1c0,0,0.3,0.1,0.3,0c0.1-0.1,0.2-0.2,0.3-0.2
		s0.3,0,0.3,0h0.2l-0.1,0.3l-0.4,0.1l-0.5,0.1l-0.3,0l-0.4,0H193h-0.3h-0.4l0.5,0.1l0.2,0.2l0.2,0.1l0.4,0l0.3,0.1l-0.6,0.2
		L193,33.8z"/>
</g>
</svg>
