<svg version="1.1" 
	 xmlns="http://www.w3.org/2000/svg" xmlns:xlink="http://www.w3.org/1999/xlink" x="0px" y="0px" width="216px" height="42px"
	 viewBox="0 0 216 42" style="enable-background:new 0 0 216 42;" xml:space="preserve">
<g id="rirquadri_pas_selectionne">
</g>
<g id="accueil_x5F_riquadri">
</g>
<g id="accueil_x5F_icone">
	<path class="st0" d="M22.6,41C10.7,41,1,32,1,21C1,10,10.7,1,22.6,1h172.6c10.9,0,19.8,9,19.8,20c0,11-8.9,20-19.8,20H22.6z"/>
	<g>
		<path class="st2" d="M195,40.5c-10.8,0-19.5-8.7-19.5-19.5c0-10.8,8.7-19.5,19.5-19.5s19.5,8.7,19.5,19.5
			C214.5,31.8,205.8,40.5,195,40.5L195,40.5z"/>
		<path class="st1" d="M195,1c11,0,20,9,20,20c0,11-9,20-20,20c-11,0-20-9-20-20C175,10,184,1,195,1 M195,2c-10.5,0-19,8.5-19,19
			c0,10.5,8.5,19,19,19s19-8.5,19-19C214,10.5,205.5,2,195,2L195,2z"/>
	</g>
	<g>
		<g>
			<path class="st1" d="M202,19.8c8.2,0,12.8,4,12.8,4C213.4,33.5,205.1,41,195,41c-7.3,0-12.7-3.9-16.7-9c0,0,8.4-2,13.7-10.4
				C195.8,20.3,199.1,19.8,202,19.8 M202,20.8c-3,0-6.1,0.6-9.3,1.7c-4.2,6.4-10,9.1-12.7,10.1c4.3,4.9,9.3,7.4,15,7.4
				c9.2,0,17.2-6.7,18.7-15.7C212.4,23.4,208.3,20.8,202,20.8L202,20.8z"/>
		</g>
	</g>
	<g>
		<path class="st1" d="M191.7,39.9c0,0-5.4-3.1-8.5-3.3c-2.1-0.1,4.3-0.4,5.8-0.1C190.4,36.8,191.7,39.9,191.7,39.9z"/>
		<path class="st1" d="M193.4,39.1c0,0-0.3-6.3,0-8c0.2-1.6-0.8,3.6-1.1,4.7C191.7,38.2,193.4,39.1,193.4,39.1z"/>
		<path class="st1" d="M191.9,39.3c0,0-1.3-5.9-1.4-7.6c-0.1-1.8-0.2,3.2-0.1,4.4S191.9,39.3,191.9,39.3z"/>
		<path class="st1" d="M200,38.4c0,0-2.9-6.9-4.8-8.8c-1.3-1.3,2.8,2,3.7,3.1S200,38.4,200,38.4z"/>
		<path class="st1" d="M201.4,38.2c0,0,1.8-6,2.5-7.4c0.7-1.4-0.4,3.4-0.9,4.4C202.5,36.3,201.4,38.2,201.4,38.2z"/>
		<path class="st1" d="M200.8,37.8c1-6.2,0.7-4.8,1.5-7.6c0.5-1.7-1.1,2.9-1.5,4.1C200.5,35.5,200.8,37.8,200.8,37.8z"/>
		<path class="st1" d="M196.5,38.1c1-6.2,0.7-4.8,1.5-7.6c0.5-1.7-1.1,2.9-1.5,4.1C196.2,35.8,196.5,38.1,196.5,38.1z"/>
		<path class="st1" d="M193.8,29.2c0.3,6.3,2,5.3,1.9,9.2c0,0-1.6-1.1-1.2-5.7C194.6,31.4,193.8,29.2,193.8,29.2z"/>
		<g>
			<path class="st1" d="M190,36.7c0,0-1.7-2.6-4-3.4"/>
			<path class="st1" d="M185.9,33.3c0,0,0.3,1.7-0.5,2.2c0,0-0.5-0.6-0.1-2.3"/>
			<path class="st1" d="M185.5,33.2c0,0-0.7,1.6-1.6,1.6c0,0-0.2-0.8,1.2-1.9"/>
			<path class="st1" d="M185.3,33.1c0,0-1.4,1.1-2.2,0.6c0,0,0.2-0.7,1.9-1.2"/>
			<path class="st1" d="M185.2,32.9c0,0-1.7-0.2-2-1.1c0,0,0.7-0.4,2.2,0.5"/>
			<path class="st1" d="M185.3,32.6c0,0-1.4-1.1-1.1-1.9c0,0,0.8,0,1.6,1.6"/>
			<path class="st1" d="M185.4,32.4c0,0-0.4-1.7,0.4-2.2c0,0,0.6,0.5,0.2,2.3"/>
			<path class="st1" d="M185.6,32.5c0,0,0.7-1.6,1.6-1.6c0,0,0.2,0.8-1.1,2"/>
			<path class="st1" d="M186,32.6c0,0,1.5-1,2.2-0.4c0,0-0.3,0.7-2,1"/>
			<path class="st1" d="M186.2,32.8c0,0,1.7,0,2.1,0.9c0,0-0.6,0.4-2.2-0.4"/>
			<path class="st1" d="M186.1,33c0,0,1.3,1.2,1,2c0,0-0.8-0.1-1.5-1.7"/>
			<ellipse transform="matrix(0.8593 -0.5115 0.5115 0.8593 9.3344 99.5618)" class="st1" cx="185.6" cy="32.8" rx="0.5" ry="0.6"/>
		</g>
		<g>
			<path class="st1" d="M190.4,37.3c0,0-1.2-8.2-3.6-9"/>
			<path class="st1" d="M186.8,28.3c0,0,0.3,1.7-0.5,2.2c0,0-0.5-0.6-0.1-2.3"/>
			<path class="st1" d="M186.4,28.2c0,0-0.7,1.6-1.6,1.6c0,0-0.2-0.8,1.2-1.9"/>
			<path class="st1" d="M186.2,28.1c0,0-1.4,1.1-2.2,0.6c0,0,0.2-0.7,1.9-1.2"/>
			<path class="st1" d="M186.1,27.8c0,0-1.7-0.2-2-1.1c0,0,0.7-0.4,2.2,0.5"/>
			<path class="st1" d="M186.2,27.6c0,0-1.4-1.1-1.1-1.9c0,0,0.8,0,1.6,1.6"/>
			<path class="st1" d="M186.3,27.4c0,0-0.4-1.7,0.4-2.2c0,0,0.6,0.5,0.2,2.3"/>
			<path class="st1" d="M186.5,27.4c0,0,0.7-1.6,1.6-1.6c0,0,0.2,0.8-1.1,2"/>
			<path class="st1" d="M186.9,27.6c0,0,1.5-1,2.2-0.4c0,0-0.3,0.7-2,1"/>
			<path class="st1" d="M187.1,27.8c0,0,1.7,0,2.1,0.9c0,0-0.6,0.4-2.2-0.3"/>
			<path class="st1" d="M187.1,28c0,0,1.3,1.2,1,2c0,0-0.8-0.1-1.5-1.7"/>
			
				<ellipse transform="matrix(0.8574 -0.5146 0.5146 0.8574 12.3045 99.9524)" class="st1" cx="186.5" cy="27.8" rx="0.5" ry="0.6"/>
		</g>
		<g>
			<path class="st1" d="M193.9,38.5c0,0,0.3-10.3-2.1-11.1"/>
			<path class="st1" d="M191.8,27.5c0,0,0.3,1.7-0.5,2.2c0,0-0.5-0.6-0.1-2.3"/>
			<path class="st1" d="M191.3,27.3c0,0-0.7,1.6-1.6,1.6c0,0-0.2-0.8,1.2-1.9"/>
			<path class="st1" d="M191.1,27.2c0,0-1.4,1.1-2.2,0.6c0,0,0.2-0.7,1.9-1.2"/>
			<path class="st1" d="M191,27c0,0-1.7-0.2-2-1.1c0,0,0.7-0.4,2.2,0.5"/>
			<path class="st1" d="M191.2,26.8c0,0-1.4-1.1-1.1-1.9c0,0,0.8,0,1.6,1.6"/>
			<path class="st1" d="M191.2,26.5c0,0-0.4-1.7,0.4-2.2c0,0,0.6,0.5,0.2,2.3"/>
			<path class="st1" d="M191.4,26.6c0,0,0.7-1.6,1.6-1.6c0,0,0.2,0.8-1.1,2"/>
			<path class="st1" d="M191.8,26.8c0,0,1.5-1,2.2-0.4c0,0-0.3,0.7-2,1"/>
			<path class="st1" d="M192,27c0,0,1.7,0,2.1,0.9c0,0-0.6,0.4-2.2-0.3"/>
			<path class="st1" d="M192,27.1c0,0,1.3,1.2,1,2c0,0-0.8-0.1-1.5-1.7"/>
			
				<ellipse transform="matrix(0.8569 -0.5154 0.5154 0.8569 13.5117 102.5364)" class="st1" cx="191.5" cy="26.9" rx="0.5" ry="0.6"/>
		</g>
		<g>
			<path class="st1" d="M200,37.6c0,0,1.9-11.5,4.2-11.8"/>
			<path class="st1" d="M204.3,25.9c0,0-0.6,1.6,0,2.3c0,0,0.6-0.4,0.6-2.2"/>
			<path class="st1" d="M204.7,25.8c0,0,0.3,1.7,1.1,1.9c0,0,0.3-0.7-0.6-2.1"/>
			<path class="st1" d="M204.9,25.8c0,0,1,1.3,1.8,1.1c0,0,0-0.8-1.5-1.6"/>
			<path class="st1" d="M205,25.6c0,0,1.6,0.2,2-0.6c0,0-0.5-0.5-2.1,0.1"/>
			<path class="st1" d="M204.9,25.3c0,0,1.5-0.7,1.5-1.7c0,0-0.7-0.1-1.8,1.2"/>
			<path class="st1" d="M204.9,25.1c0,0,0.7-1.6,0.1-2.3c0,0-0.6,0.4-0.7,2.2"/>
			<path class="st1" d="M204.7,25.1c0,0-0.3-1.7-1.1-1.9c0,0-0.3,0.7,0.6,2.2"/>
			<path class="st1" d="M204.3,25.2c0,0-1.1-1.2-1.9-0.9c0,0,0.1,0.8,1.6,1.4"/>
			<path class="st1" d="M204.1,25.3c0,0-1.6-0.3-2.1,0.4c0,0,0.5,0.6,2.1,0.1"/>
			<path class="st1" d="M204.1,25.5c0,0-1.4,0.8-1.3,1.8c0,0,0.7,0.1,1.7-1.3"/>
			<path class="st1" d="M204.3,25.1c-0.2,0.2-0.2,0.6,0,0.8c0.2,0.2,0.5,0.2,0.8-0.1c0.2-0.2,0.2-0.6,0-0.8
				C204.8,24.8,204.5,24.8,204.3,25.1z"/>
		</g>
		<g>
			<path class="st1" d="M196,37.8c0,0-1.6-13.8,0.8-14.1"/>
			<path class="st1" d="M196.8,23.7c0,0-0.6,1.6,0,2.3c0,0,0.6-0.4,0.6-2.2"/>
			<path class="st1" d="M197.2,23.6c0,0,0.3,1.7,1.1,1.9c0,0,0.3-0.7-0.6-2.1"/>
			<path class="st1" d="M197.5,23.6c0,0,1,1.3,1.8,1.1c0,0,0-0.8-1.5-1.6"/>
			<path class="st1" d="M197.6,23.4c0,0,1.6,0.2,2-0.6c0,0-0.5-0.5-2.1,0.1"/>
			<path class="st1" d="M197.5,23.1c0,0,1.5-0.7,1.5-1.7c0,0-0.7-0.1-1.8,1.2"/>
			<path class="st1" d="M197.5,22.9c0,0,0.7-1.6,0.1-2.3c0,0-0.6,0.4-0.7,2.2"/>
			<path class="st1" d="M197.3,22.9c0,0-0.3-1.7-1.1-1.9c0,0-0.3,0.7,0.6,2.2"/>
			<path class="st1" d="M196.9,23c0,0-1.1-1.2-1.9-0.9c0,0,0.1,0.8,1.6,1.4"/>
			<path class="st1" d="M196.7,23.1c0,0-1.6-0.3-2.1,0.4c0,0,0.5,0.6,2.1,0.1"/>
			<path class="st1" d="M196.7,23.3c0,0-1.4,0.8-1.3,1.8c0,0,0.7,0.1,1.7-1.3"/>
			<path class="st1" d="M196.9,22.9c-0.2,0.2-0.2,0.6,0,0.8c0.2,0.2,0.5,0.2,0.8-0.1c0.2-0.2,0.2-0.6,0-0.8
				C197.4,22.6,197.1,22.6,196.9,22.9z"/>
		</g>
	</g>
	<path class="st1" d="M192,21.2c0,0,0.8-15.3,0.2-16.7c-1.4-2.3-6,13.2-6,13.2l2.4,5.3c0,0,2.1-14.1,2.4-13.7
		C191.3,9.7,192,21.2,192,21.2z"/>
</g>
</svg>
