<svg version="1.1" 
	 xmlns="http://www.w3.org/2000/svg" xmlns:xlink="http://www.w3.org/1999/xlink" x="0px" y="0px" width="216px" height="42px"
	 viewBox="0 0 216 42" style="enable-background:new 0 0 216 42;" xml:space="preserve">
<g id="rirquadri_pas_selectionne">
</g>
<g id="accueil_x5F_riquadri">
</g>
<g id="accueil_x5F_icone">
	<path class="st5" d="M22.6,41C10.7,41,1,32,1,21C1,10,10.7,1,22.6,1h172.6c10.9,0,19.8,9,19.8,20c0,11-8.9,20-19.8,20H22.6z"/>
	<g>
		<path class="st6" d="M195,40.5c-10.8,0-19.5-8.8-19.5-19.5c0-10.8,8.7-19.5,19.5-19.5s19.5,8.7,19.5,19.5
			C214.5,31.8,205.8,40.5,195,40.5L195,40.5z"/>
		<path class="st2" d="M195,1c11,0,20,9,20,20c0,11-9,20-20,20c-11,0-20-9-20-20C175,10,184,1,195,1 M195,2c-10.5,0-19,8.5-19,19
			c0,10.5,8.5,19,19,19s19-8.5,19-19C214,10.5,205.5,2,195,2L195,2z"/>
	</g>
	<g>
		<polygon class="st7" points="184.9,27.1 188.1,23.9 188.1,18.4 184.9,21.6 		"/>
		<polygon class="st3" points="184.9,27.1 188.1,23.9 205.9,23.9 202.7,27.1 		"/>
		<polygon class="st0" points="205,10.6 187.3,10.6 186.3,11.6 204,11.6 		"/>
		<polygon class="st0" points="202.7,21.6 184.9,21.6 186.3,11.6 204,11.6 		"/>
		<rect x="184.9" y="21.6" class="st1" width="17.8" height="5.5"/>
		<rect x="184.9" y="27.1" class="st8" width="17.8" height="5.5"/>
		<polygon class="st6" points="187,21.6 184.9,21.6 186.3,11.6 188.4,11.6 		"/>
		<polygon class="st6" points="190.2,21.6 188,21.6 189.4,11.6 191.5,11.6 		"/>
		<polygon class="st6" points="193.3,21.6 191.2,21.6 192.5,11.6 194.7,11.6 		"/>
		<polygon class="st6" points="196.4,21.6 194.3,21.6 195.7,11.6 197.8,11.6 		"/>
		<polygon class="st6" points="199.5,21.6 197.4,21.6 198.8,11.6 200.9,11.6 		"/>
		<polygon class="st6" points="202.7,21.6 200.5,21.6 201.9,11.6 204,11.6 		"/>
		<path class="st4" d="M187,21.6c0,0.6-0.5,1.1-1.1,1.1c-0.6,0-1.1-0.5-1.1-1.1"/>
		<path class="st4" d="M190.2,21.6c0,0.6-0.5,1.1-1.1,1.1c-0.6,0-1.1-0.5-1.1-1.1"/>
		<path class="st4" d="M193.3,21.6c0,0.6-0.5,1.1-1.1,1.1c-0.6,0-1.1-0.5-1.1-1.1"/>
		<path class="st4" d="M196.4,21.6c0,0.6-0.5,1.1-1.1,1.1c-0.6,0-1.1-0.5-1.1-1.1"/>
		<path class="st4" d="M199.5,21.6c0,0.6-0.5,1.1-1.1,1.1c-0.6,0-1.1-0.5-1.1-1.1"/>
		<path class="st4" d="M202.7,21.6c0,0.6-0.5,1.1-1.1,1.1c-0.6,0-1.1-0.5-1.1-1.1"/>
		<polygon class="st8" points="202.7,27.1 202.7,32.6 205.9,29.4 205.9,23.9 		"/>
		<polygon class="st8" points="202.7,21.6 205.9,18.4 205,10.6 204,11.6 		"/>
		<polygon class="st7" points="202.7,27.1 205.9,23.9 205.9,18.4 202.7,21.6 		"/>
	</g>
</g>
</svg>
