<svg version="1.1" 
	 xmlns="http://www.w3.org/2000/svg" xmlns:xlink="http://www.w3.org/1999/xlink" x="0px" y="0px" width="216px" height="42px"
	 viewBox="0 0 216 42" style="enable-background:new 0 0 216 42;" xml:space="preserve">
<g id="rirquadri_pas_selectionne">
</g>
<g id="accueil_x5F_riquadri">
</g>
<g id="accueil_x5F_icone">
	<path class="st3" d="M22.6,41C10.7,41,1,32,1,21C1,10,10.7,1,22.6,1h172.6c10.9,0,19.8,9,19.8,20c0,11-8.9,20-19.8,20H22.6z"/>
	<g>
		<path class="st1" d="M195,40.5c-10.8,0-19.5-8.8-19.5-19.5c0-10.8,8.7-19.5,19.5-19.5s19.5,8.7,19.5,19.5
			C214.5,31.8,205.8,40.5,195,40.5L195,40.5z"/>
		<path class="st2" d="M195,1c11,0,20,9,20,20c0,11-9,20-20,20c-11,0-20-9-20-20C175,10,184,1,195,1 M195,2c-10.5,0-19,8.5-19,19
			c0,10.5,8.5,19,19,19s19-8.5,19-19C214,10.5,205.5,2,195,2L195,2z"/>
	</g>
	<path class="st0" d="M197.4,32.6c5.9,0.3,7.3-4.7,7.5-7c0.2-2.3-1.4-6.1-3.7-5.9c-2.3,0.2-3.2,1.4-3.2,1.4s0.2-0.6-1.3-0.9
		c-1.5-0.3-3.5,1.2-3.5,1.2s-1.7-2.5-4.1-0.7c-2.5,1.9-2.6,4.3-2.6,4.3s-1.1,4.5,3.1,6.7C193.6,34,191.5,32.3,197.4,32.6"/>
	<path class="st2" d="M188.8,19.2l3.1,1.2l-1.3,2.8l3.9-2.7l1-0.4l4.1,2.9l-1-2.6l3.6,0.6l-1.4-1.7l-4.4-0.9c0,0-0.5-2.2,0-3.9
		c0.4-1.7-0.6-1.5-0.7-0.4c-0.1,1.1-0.6,4.6-0.6,4.6L188.8,19.2z"/>
	<polygon class="st2" points="195.8,17.7 197.7,14.2 198,10.4 199.2,12.3 200.1,8.7 201.3,11 203,8.7 203.2,10.9 205,11.4 
		203.2,12.7 204.5,14 202.4,15.3 203.8,16.2 201.3,16.7 202.4,18.2 200.4,18.1 198.8,16.7 	"/>
	<polygon class="st2" points="196.3,15.9 192.5,14.9 188.7,15.5 190.3,13.9 186.6,13.9 188.6,12.2 185.9,11.1 188,10.3 188,8.5 
		189.8,9.9 190.7,8.4 192.4,10.1 193,8.5 194.1,10.8 195.3,9.4 195.7,11.4 194.7,13.2 	"/>
</g>
</svg>
