<svg version="1.1"
	 xmlns="http://www.w3.org/2000/svg" xmlns:xlink="http://www.w3.org/1999/xlink" x="0px" y="0px" width="216px" height="42px"
	 viewBox="0 0 216 42" style="enable-background:new 0 0 216 42;" xml:space="preserve">
<g id="rirquadri_pas_selectionne">
</g>
<g id="accueil_x5F_riquadri">
</g>
<g id="accueil_x5F_icone">
	<path class="st6" d="M22.6,41C10.7,41,1,32,1,21C1,10,10.7,1,22.6,1h172.6c10.9,0,19.8,9,19.8,20c0,11-8.9,20-19.8,20H22.6z"/>
	<g>
		<path class="st3" d="M195.2,40.5c-10.8,0-19.5-8.8-19.5-19.5c0-10.8,8.7-19.5,19.5-19.5s19.5,8.7,19.5,19.5
			C214.7,31.8,206,40.5,195.2,40.5L195.2,40.5z"/>
		<path class="st5" d="M195.2,1c11,0,20,9,20,20c0,11-9,20-20,20c-11,0-20-9-20-20C175.2,10,184.2,1,195.2,1 M195.2,2
			c-10.5,0-19,8.5-19,19c0,10.5,8.5,19,19,19s19-8.5,19-19C214.2,10.5,205.7,2,195.2,2L195.2,2z"/>
	</g>
	<g>
		<g>
			<path class="st3" d="M212.8,29.5l-17.2-5.8l3.9-2.1l15,2.7C214.1,26.1,213.6,27.8,212.8,29.5L212.8,29.5z"/>
			<path class="st5" d="M199.4,21l15.6,2.8c-0.3,2.2-1,4.3-2,6.2l-18.7-6.4L199.4,21 M199.6,22.1l-2.7,1.4l15.7,5.3
				c0.6-1.3,1.1-2.7,1.3-4.2L199.6,22.1L199.6,22.1z"/>
		</g>
	</g>
	<g>
		<g>
			<path class="st5" d="M193.2,24.3l19.2,7c-1.2,2-3.2,4-5.1,5.6l-19.9-9.4L193.2,24.3z M193.3,25.3l-3.9,2.2l18,8.2
				c1.9-1.6,2.5-2.4,3.4-3.7L193.3,25.3z"/>
		</g>
	</g>
	<g>
		<g>
			<path class="st5" d="M180.3,15.8l15.7,4.3l-4.7,2.5l-14.4-5.4L180.3,15.8z M180.3,16.4l-1.8,0.7l12.7,4.4l2.4-1.2L180.3,16.4z"/>
		</g>
	</g>
	<g>
		<g>
			<path class="st5" d="M176.4,18.5l13.5,4.8l-5.5,2.8l-8.7-3.8L176.4,18.5z M176.3,19.3l-0.1,2.5l8.1,3.5l3.6-1.9L176.3,19.3z"/>
		</g>
	</g>
	<g>
		<g>
			<path class="st5" d="M175.3,23l8.2,3.7l-5.4,2.9l-1.6-2L175.3,23z M176.4,24.3l0.8,2.9l0.6,1.3l3.6-1.9L176.4,24.3z"/>
		</g>
	</g>
	<g>
		<g>
			<path class="st3" d="M195.2,40.5c-6.1,0-11.4-2.8-15.9-8.3l7-3.7l18.6,9.4C202,39.6,198.6,40.5,195.2,40.5L195.2,40.5z"/>
			<path class="st5" d="M186.3,27.9l19.6,10c-3.1,2-6.8,3.1-10.7,3.1c-7.3,0-12.7-3.9-16.7-9L186.3,27.9 M186.3,29.1l-6.2,3.3
				c4.3,5.1,9.4,7.6,15.1,7.6c3,0,5.9-0.7,8.6-2.1L186.3,29.1L186.3,29.1z"/>
		</g>
	</g>
	<polyline class="st0" points="204.4,24.1 205.4,25.3 206.2,23.9 	"/>
	<polyline class="st0" points="201.1,23.1 202.1,24.3 202.9,22.9 	"/>
	<polyline class="st4" points="184.6,18.1 185.1,18.8 185.6,18 	"/>
	<polyline class="st4" points="182.7,17.5 183.3,18.2 183.7,17.4 	"/>
	<polyline class="st4" points="180.5,16.8 181.1,17.5 181.5,16.7 	"/>
	<polyline class="st4" points="189.7,20 190.3,20.7 190.8,19.9 	"/>
	<polyline class="st4" points="187.9,19.4 188.5,20.1 188.9,19.3 	"/>
	<polyline class="st0" points="197.7,37.5 198.7,38.7 199.6,37.3 	"/>
	<polyline class="st0" points="194.2,35 195.2,36.2 196,34.8 	"/>
	<polyline class="st0" points="190.4,35.9 191.4,37.1 192.2,35.7 	"/>
	<polyline class="st0" points="188.5,32.4 189.5,33.6 190.4,32.2 	"/>
	<polyline class="st0" points="185.5,34.5 186.5,35.7 187.3,34.3 	"/>
	<polyline class="st0" points="210.5,25.9 211.5,27.2 212.3,25.7 	"/>
	<polygon class="st2" points="207.4,17.1 207.4,7.4 205,5.4 203.2,9.1 203.2,19.7 	"/>
	<polygon class="st1" points="203.2,9.1 191.6,6.5 194.1,3.2 205,5.4 	"/>
	<polyline class="st2" points="191.6,6.5 191.6,16.7 203.2,19.7 	"/>
	<polyline class="st0" points="185.3,30.6 186.3,31.8 187.1,30.4 	"/>
	<g>
		<g>
			<path class="st5" d="M209.7,15.2c-0.2,0-0.5,0-0.7,0c0.5-0.1,0.9-0.7,0.9-1.4c0-0.8-0.5-1.4-1.1-1.4c-0.6,0-1.1,0.6-1.1,1.4
				c0,0.7,0.4,1.2,0.8,1.4c-0.6,0-1.1,0.1-1.8,0.8c-1,1-1.1,2.4-1.1,3.6l0.6-0.4l0.9-1.6v3.2c0,0,0.2,4.9,0.9,5.1
				c0.3,0.1,0.6-4.3,0.8-4.4c0.4-0.1,0.8,4.5,1.4,3.8c0-2.3,0-8,0-8s1.7,2.7,1.7,1.6C212.1,17.8,210.9,15.2,209.7,15.2z"/>
		</g>
	</g>
	<g>
		<g>
			<path class="st5" d="M196.1,16.1c-0.3,0-0.6,0-0.8,0c0.6-0.1,1.1-0.8,1.1-1.7c0-0.9-0.6-1.7-1.3-1.7c-0.7,0-1.3,0.8-1.3,1.7
				c0,0.8,0.4,1.5,1,1.7c-0.7,0-1.3,0.1-2.2,0.9c-1.3,1.3-1.4,3-1.4,4.4l0.7-0.5l1.1-1.9v4c0,0,0.3,6,1,6.2c0.3,0.1,0.7-5.3,1-5.4
				c0.5-0.1,0.9,5.5,1.8,4.6c0-2.8,0-9.8,0-9.8s2.1,3.3,2.1,2C199,19.3,197.6,16.1,196.1,16.1z"/>
		</g>
	</g>
	<g>
		<g>
			<path class="st5" d="M188.2,12.1c-0.2,0-0.4,0-0.5,0c0.4,0,0.7-0.5,0.7-1c0-0.5-0.3-1-0.8-1s-0.8,0.4-0.8,1c0,0.5,0.3,0.9,0.7,1
				c-0.5,0-0.8,0-1.3,0.5c-0.7,0.7-0.8,1.7-0.8,2.5l0.4-0.3l0.6-1.1V16c0,0,0.1,3.5,0.6,3.6c0.2,0,0.4-3.1,0.6-3.1
				c0.3-0.1,0.5,3.2,1,2.7c0-1.6,0-5.6,0-5.6s1.2,1.9,1.2,1.1C189.8,13.9,189,12.1,188.2,12.1z"/>
		</g>
	</g>
</g>
</svg>