<svg version="1.1"
	 xmlns="http://www.w3.org/2000/svg" xmlns:xlink="http://www.w3.org/1999/xlink" x="0px" y="0px" width="216px" height="42px"
	 viewBox="0 0 216 42" style="enable-background:new 0 0 216 42;" xml:space="preserve">
<g id="rirquadri_pas_selectionne">
</g>
<g id="accueil_x5F_riquadri">
</g>
<g id="accueil_x5F_icone">
	<path class="st0" d="M22.6,41C10.7,41,1,32,1,21C1,10,10.7,1,22.6,1h172.6c10.9,0,19.8,9,19.8,20c0,11-8.9,20-19.8,20H22.6z"/>
	<g>
		<path class="st1" d="M195.2,40.5c-10.8,0-19.5-8.8-19.5-19.5c0-10.8,8.7-19.5,19.5-19.5s19.5,8.7,19.5,19.5
			C214.7,31.8,206,40.5,195.2,40.5L195.2,40.5z"/>
		<path class="st2" d="M195.2,1c11,0,20,9,20,20c0,11-9,20-20,20c-11,0-20-9-20-20C175.2,10,184.2,1,195.2,1 M195.2,2
			c-10.5,0-19,8.5-19,19c0,10.5,8.5,19,19,19s19-8.5,19-19C214.2,10.5,205.7,2,195.2,2L195.2,2z"/>
	</g>
	<g>
		<g>
			<path class="st2" d="M195.2,40.5c-6.1,0-11.4-2.8-15.9-8.3l20.2-10.7l15,2.7C212.9,33.5,204.7,40.5,195.2,40.5L195.2,40.5z"/>
			<g>
				<path class="st2" d="M199.4,21l15.6,2.8c-1.4,9.7-9.7,17.2-19.8,17.2c-7.3,0-12.7-3.9-16.7-9L199.4,21 M199.6,22.1l-19.5,10.3
					c4.3,5.1,9.4,7.6,15.1,7.6c9.1,0,16.9-6.5,18.7-15.4L199.6,22.1L199.6,22.1z"/>
			</g>
		</g>
	</g>
	<g>
		<g>
			<path class="st2" d="M193.1,10.9c-0.4,0-0.7,0-1.1,0c0.8-0.2,1.4-1.1,1.4-2.2c0-1.2-0.8-2.2-1.7-2.2c-0.9,0-1.7,1-1.7,2.2
				c0,1.1,0.6,1.9,1.3,2.2c-0.9,0-1.7,0.2-2.8,1.2c-1.6,1.6-1.8,3.8-1.8,5.7l0.9-0.6l1.4-2.5v5.1c0,0,0.3,7.8,1.4,8
				c0.4,0.1,0.9-6.9,1.3-7c0.7-0.2,1.2,7.1,2.3,6c0-3.6,0-12.7,0-12.7s2.7,4.3,2.7,2.6C196.8,15,195,10.9,193.1,10.9z"/>
		</g>
	</g>
	<g>
		<path class="st1" d="M199.2,33.9l0-0.5c-0.1-1,0.2-2,1.1-3.1c0.8-1,1.3-1.7,1.3-2.5c0-0.9-0.6-1.5-1.7-1.5c-0.6,0-1.4,0.2-1.8,0.6
			l-0.4-1.1c0.6-0.4,1.6-0.7,2.6-0.7c2.1,0,3,1.3,3,2.6c0,1.2-0.7,2.1-1.5,3.1c-0.8,0.9-1.1,1.7-1,2.7l0,0.5H199.2z M198.8,36.5
			c0-0.7,0.5-1.1,1.1-1.1c0.6,0,1.1,0.5,1.1,1.1c0,0.6-0.4,1.1-1.1,1.1C199.3,37.6,198.8,37.1,198.8,36.5z"/>
	</g>
</g>
</svg>
