<svg version="1.1" 
	 xmlns="http://www.w3.org/2000/svg" xmlns:xlink="http://www.w3.org/1999/xlink" x="0px" y="0px" width="216px" height="42px"
	 viewBox="0 0 216 42" style="enable-background:new 0 0 216 42;" xml:space="preserve">
<g id="rirquadri_pas_selectionne">
</g>
<g id="accueil_x5F_riquadri">
</g>
<g id="accueil_x5F_icone">
	<path class="st1" d="M22.6,41C10.7,41,1,32,1,21C1,10,10.7,1,22.6,1h172.6c10.9,0,19.8,9,19.8,20c0,11-8.9,20-19.8,20H22.6z"/>
	<g>
		<path class="st3" d="M195,40.5c-10.8,0-19.5-8.7-19.5-19.5c0-10.8,8.7-19.5,19.5-19.5s19.5,8.7,19.5,19.5
			C214.5,31.8,205.8,40.5,195,40.5L195,40.5z"/>
		<path class="st0" d="M195,1c11,0,20,9,20,20c0,11-9,20-20,20c-11,0-20-9-20-20C175,10,184,1,195,1 M195,2c-10.5,0-19,8.5-19,19
			c0,10.5,8.5,19,19,19s19-8.5,19-19C214,10.5,205.5,2,195,2L195,2z"/>
	</g>
	<g>
		<g>
			<path class="st3" d="M195,40.5c-6.1,0-11.4-2.8-15.9-8.3l20.2-10.7l15,2.7C212.7,33.5,204.5,40.5,195,40.5L195,40.5z"/>
			<path class="st0" d="M199.2,21l15.6,2.8C213.4,33.5,205.1,41,195,41c-7.3,0-12.7-3.9-16.7-9L199.2,21 M199.4,22.1l-19.5,10.3
				c4.3,5.1,9.4,7.6,15.1,7.6c9.1,0,16.9-6.5,18.6-15.4L199.4,22.1L199.4,22.1z"/>
		</g>
	</g>
	<polyline class="st2" points="201.9,31.3 202.9,32.5 203.7,31.1 	"/>
	<polyline class="st2" points="205.7,29.9 206.7,31.1 207.5,29.7 	"/>
	<polyline class="st2" points="205.1,32.9 206.1,34.1 206.9,32.7 	"/>
	<polyline class="st2" points="202.4,28.1 203.5,29.4 204.3,27.9 	"/>
	<polyline class="st2" points="197.9,26.6 199,27.9 199.8,26.4 	"/>
	<polyline class="st2" points="198.4,29.4 199.4,30.6 200.2,29.2 	"/>
	<polyline class="st2" points="194.9,29.5 195.9,30.7 196.7,29.3 	"/>
	<polyline class="st2" points="199.6,32.6 200.6,33.8 201.5,32.4 	"/>
	<polyline class="st2" points="208.8,30.2 209.8,31.4 210.6,30 	"/>
	<polyline class="st2" points="205.7,25.5 206.8,26.7 207.6,25.3 	"/>
	<polyline class="st2" points="195.3,34 196.4,35.3 197.2,33.8 	"/>
	<polyline class="st2" points="191.9,31.1 192.9,32.3 193.7,30.9 	"/>
	<polyline class="st2" points="186.6,36.4 187.6,37.6 188.4,36.2 	"/>
	<polyline class="st2" points="201.7,24.6 202.7,25.8 203.5,24.4 	"/>
	<polyline class="st2" points="209.1,26.9 210.1,28.2 210.9,26.7 	"/>
	<polyline class="st2" points="201.7,36.2 202.7,37.4 203.5,36 	"/>
	<polyline class="st2" points="197.8,37.3 198.8,38.5 199.6,37.1 	"/>
	<polyline class="st2" points="193,36.8 194,38 194.8,36.6 	"/>
	<polyline class="st2" points="189.9,34.6 190.9,35.8 191.7,34.4 	"/>
	<polygon class="st0" points="212.4,11.2 192,7.1 192,17.1 197.8,14.1 214.6,17.1 	"/>
	<line class="st2" x1="192" y1="7.1" x2="199.8" y2="2.3"/>
	<polygon class="st3" points="194.4,10.7 196,11 196,13 194.4,12.7 	"/>
	<polygon class="st3" points="194.4,13.8 196,14.2 196,16.2 194.4,15.8 	"/>
	<polygon class="st3" points="197.6,11.3 199.2,11.7 199.2,13.7 197.6,13.4 	"/>
	<polygon class="st3" points="200.8,12 202.5,12.3 202.5,14.3 200.8,14 	"/>
	<polygon class="st3" points="204.1,12.7 205.7,13 205.7,15 204.1,14.7 	"/>
	<polygon class="st3" points="207.3,13.3 208.9,13.7 208.9,15.7 207.3,15.3 	"/>
	<polygon class="st3" points="210.5,14 212.1,14.3 212.1,16.3 210.5,16 	"/>
	<polygon class="st2" points="214,17 197.8,14.1 176.1,25.6 177,28.4 198.7,16.8 214.4,19.6 	"/>
	<g>
		<g>
			<path class="st0" d="M186.4,18c-0.4,0-0.7,0-1.1,0c0.8-0.2,1.4-1.1,1.4-2.2c0-1.2-0.8-2.2-1.7-2.2c-0.9,0-1.7,1-1.7,2.2
				c0,1.1,0.6,1.9,1.3,2.2c-0.9,0-1.7,0.2-2.8,1.2c-1.6,1.6-1.8,3.8-1.8,5.7l0.9-0.6l1.4-2.5v5.1c0,0,0.3,7.8,1.4,8
				c0.4,0.1,0.9-6.9,1.3-7c0.7-0.2,1.2,7.1,2.3,6c0-3.6,0-12.7,0-12.7s2.7,4.3,2.7,2.6S188.2,18,186.4,18z"/>
		</g>
	</g>
	<line class="st2" x1="199.2" y1="21" x2="199.2" y2="16.9"/>
	<line class="st2" x1="199.2" y1="21.5" x2="199.2" y2="16.9"/>
</g>
</svg>
