<svg version="1.1" id="Livello_2" 
	 xmlns="http://www.w3.org/2000/svg" xmlns:xlink="http://www.w3.org/1999/xlink" x="0px" y="0px" width="306px" height="246px"
	 viewBox="0 0 306 246" style="enable-background:new 0 0 306 246;" xml:space="preserve">
<g>
	<g>
		<path class="st0" d="M237.7,82.6c-2.5-8.9-16.2-56.4-19.6-69c-3.4-12.5-16.2-6.1-16.2-6.1S106.6,39.6,89.1,45
			c-20.6,7.2-19.2,9.1-17.4,13.6c4.3,11.2,29.4,76.1,29.4,76.1s5.1,14.6,17.6,9.5c22.5-9.3,26.4-11.5,39.9-15.1
			c9-1.1,10.8,10.7,11.1,20.7c0.3,10,2.4,93.2,2.4,93.2s1.7,0,4.1,0c2.3,0,5.7-5.8,5.7-5.8l3-97.7c0,0-0.6-19.8,10.8-25
			c13.6-5.2,25.4-9.8,35.2-13.5C240.7,97.1,240.2,91.5,237.7,82.6z M227.5,99.8c-9.3,3.6-20.7,7.9-33.6,12.9
			c0,0-63.4,23.3-75.2,28.4c-11.8,5.2-15.3-9.1-15.3-9.1s-24-62-28.1-72.7c-1.7-4.3-3.1-6.1,16.6-13c16.7-5.2,107.8-35.8,107.8-35.8
			s12.2-6.2,15.5,5.8c3.3,12,16.3,57.4,18.7,65.9C236.3,90.9,236.8,96.2,227.5,99.8z"/>
	</g>
	<g>
		<path class="st2" d="M237.7,82.6c-2.5-8.9-16.2-56.4-19.6-69c-3.4-12.5-16.2-6.1-16.2-6.1S106.6,39.6,89.1,45
			c-20.6,7.2-19.2,9.1-17.4,13.6c4.3,11.2,29.4,76.1,29.4,76.1s5.1,14.6,17.6,9.5c22.5-9.3,26.4-11.5,39.9-15.1
			c9-1.1,10.8,10.7,11.1,20.7c0.3,10,2.4,93.2,2.4,93.2s1.7,0,4.1,0c2.3,0,5.7-5.8,5.7-5.8l3-97.7c0,0-0.6-19.8,10.8-25
			c13.6-5.2,25.4-9.8,35.2-13.5C240.7,97.1,240.2,91.5,237.7,82.6z M227.5,99.8c-9.3,3.6-20.7,7.9-33.6,12.9
			c0,0-63.4,23.3-75.2,28.4c-11.8,5.2-15.3-9.1-15.3-9.1s-24-62-28.1-72.7c-1.7-4.3-3.1-6.1,16.6-13c16.7-5.2,107.8-35.8,107.8-35.8
			s12.2-6.2,15.5,5.8c3.3,12,16.3,57.4,18.7,65.9C236.3,90.9,236.8,96.2,227.5,99.8z"/>
	</g>
</g>
<g>
	<g>
		<g>
			<path class="st1" d="M163.8,243.6c0,0-18-28.9-32.5-37.5c-9.8-5.8,21.8,9.3,28.2,14.4C165.9,225.5,163.8,243.6,163.8,243.6z"/>
		</g>
		<g>
			<path class="st1" d="M170.5,243.7c0,0,15-31.2,20.2-38.5c5.2-7.3-13.6,14.6-17.3,19.9C169.7,230.4,170.5,243.7,170.5,243.7z"/>
		</g>
		<g>
			<path class="st1" d="M166.6,240.9c0,0,8.9-31.5,13.1-40.2c4.1-8.7-8.8,14.8-11.8,21.1C164.9,228,166.6,240.9,166.6,240.9z"/>
		</g>
	</g>
</g>
<path class="st1" d="M278.9,243.7c0,0,17.1-35.6,23.1-43.9c6-8.3-15.5,16.7-19.7,22.7C278,228.4,278.9,243.7,278.9,243.7z"/>
<path class="st1" d="M48.1,243.7c0,0,13.5-48.9,19.5-57.2c0,0-16.1,37.2-16.1,36C51.5,215.1,48.1,243.7,48.1,243.7z"/>
<path class="st1" d="M275.4,243.6c0,0-21.5-52.7-10.3-35s9.7,20,9.7,25.1S275.4,243.6,275.4,243.6z"/>
<path class="st1" d="M267.4,243.6c-4.6,0-6.3-19.6-6.3-19.6l5.8,13.1c0-6.4,17.7-61.1,17.7-61.1S269.8,243.6,267.4,243.6z"/>
<path class="st1" d="M10.7,241.4c0,0-1.3-56.1-7.6-66.4c0,0,10.4,46.3,10.9,45.1C17,213.3,10.7,241.4,10.7,241.4z"/>
<path class="st1" d="M24.1,243.6c0,0-3.8-58.2,2.2-66.5c0,0,1.2,46.5,1.2,45.3C27.4,215.1,24.1,243.6,24.1,243.6z"/>
<path class="st1" d="M3.2,206.2c0,0,9.4,10.7,15.1,17.9c5.6,7.2,2.9,19.5,2.9,19.5L3.2,206.2z"/>
<path class="st1" d="M38.5,243.9c3.6,0,7.5-19.6,7.5-19.6l-7.1,13.1c0-6.4-14.4-22.6-14.4-22.6S36.6,243.9,38.5,243.9z"/>
<path class="st1" d="M59.7,243.6c0,0,17.1-35.6,23.1-43.9c6-8.3-15.5,16.7-19.7,22.7C58.8,228.4,59.7,243.6,59.7,243.6z"/>
<path class="st1" d="M100.7,243.6c0,0-3.8-36.6,2.2-44.9c0,0,1.2,24.9,1.2,23.7C104,215.1,100.7,243.6,100.7,243.6z"/>
<path class="st1" d="M75.5,243.5c0,0,10.2-36,14.9-45.9c4.7-10-10.1,16.9-13.5,24.1C73.5,228.9,75.5,243.5,75.5,243.5z"/>
<path class="st1" d="M79.8,206.2c0,0,9.4,10.7,15.1,17.9c5.6,7.2,2.9,19.5,2.9,19.5L79.8,206.2z"/>
<path class="st1" d="M56.2,243.5c0,0-21.5-52.7-10.3-35c11.2,17.6,9.7,20,9.7,25.1S56.2,243.5,56.2,243.5z"/>
<path class="st1" d="M115,243.9c3.6,0,6-54.9,6-54.9l-5.7,48.3c0-6.4-14.4-22.6-14.4-22.6S113.1,243.9,115,243.9z"/>
<path class="st1" d="M142.5,243.6c0,0,9-21.4,14.9-29.7c6-8.3-7.3,2.5-11.6,8.5C141.6,228.4,142.5,243.6,142.5,243.6z"/>
<path class="st1" d="M139,243.5c0,0-21.5-52.7-10.3-35c11.2,17.6,9.7,20,9.7,25.1S139,243.5,139,243.5z"/>
<path class="st1" d="M130.9,243.5c-4.6,0-36.8-71-36.8-71l36.4,64.4c0-6.4,7.9-29.1,7.9-29.1S133.3,243.5,130.9,243.5z"/>
<path class="st1" d="M190.5,244c3.6,0-5.9-69.9-5.9-69.9l6.3,63.4c0-6.4-14.4-22.6-14.4-22.6S188.6,244,190.5,244z"/>
<path class="st1" d="M211.8,243.7c0,0,17.1-35.6,23.1-43.9c6-8.3-15.5,16.7-19.7,22.7C210.8,228.5,211.8,243.7,211.8,243.7z"/>
<path class="st1" d="M252.7,243.7c0,0-3.8-36.6,2.2-44.9c0,0,1.2,24.9,1.2,23.7C256.1,215.2,252.7,243.7,252.7,243.7z"/>
<path class="st1" d="M227.5,243.6c0,0,10.2-36,14.9-45.9c4.7-10-10.1,16.9-13.5,24.1C225.6,228.9,227.5,243.6,227.5,243.6z"/>
<path class="st1" d="M231.8,206.3c0,0,9.4,10.7,15.1,17.9c5.6,7.2,2.9,19.5,2.9,19.5L231.8,206.3z"/>
<path class="st1" d="M208.3,243.6c0,0-21.5-52.7-10.3-35s9.7,20,9.7,25.1S208.3,243.6,208.3,243.6z"/>
<path class="st1" d="M200.2,243.6c-4.6,0-9.3-34.2-9.3-34.2l8.8,27.6c0-6.4,15.3-36.5,15.3-36.5S202.6,243.6,200.2,243.6z"/>
<g>
	<path class="st7" d="M214.4,243.6c0,0,11.5-59.3-1.1-68.3"/>
	<path class="st6" d="M213.3,175.4c0,0-1.4,10.6-6.9,12.1c0,0-2.2-4.2,3.6-13.5"/>
	<path class="st6" d="M211.1,173.8c0,0-6.9,8.1-12.3,6.4c0,0,0.5-4.8,10.3-9.4"/>
	<path class="st6" d="M209.9,172.8c0,0-9.9,4-13.9-0.1c0,0,2.6-4,13.5-3.5"/>
	<path class="st6" d="M210,171.4c0,0-9.8-4.3-9.7-9.9c0,0,4.7-1,12,7.1"/>
	<path class="st6" d="M211.1,170.2c0,0-6.2-8.7-3.3-13.5c0,0,4.5,1.6,6.6,12.2"/>
	<path class="st6" d="M211.9,169c0,0,0.9-10.7,6.2-12.4c0,0,2.4,4.1-2.9,13.6"/>
	<path class="st6" d="M213,169.7c0,0,6.8-8.2,12.2-6.6c0,0-0.4,4.8-10.2,9.5"/>
	<path class="st6" d="M215,171.4c0,0,10.3-3,13.8,1.3c0,0-3,3.7-13.7,2.3"/>
	<path class="st6" d="M215.8,173c0,0,10.2,3.4,10.6,9c0,0-4.6,1.4-12.5-6"/>
	<path class="st6" d="M215.3,173.9c0,0,5.6,9.1,2.3,13.7c0,0-4.4-1.9-5.7-12.7"/>
	<path class="st5" d="M211.6,168.1c1.8-0.4,3.6,0.8,4.1,2.8c0.5,2-0.5,4-2.3,4.4c-1.7,0.4-3.6-0.8-4.1-2.8
		C208.8,170.6,209.8,168.6,211.6,168.1z"/>
</g>
<g>
	<path class="st9" d="M77.7,239.1c0,0-10.5-51.2,2.8-79.5"/>
	<path class="st6" d="M80.5,159.6c0,0,1.7,10.6-3.1,13.5c0,0-3.3-3.4-0.4-13.9"/>
	<path class="st11" d="M78,158.7c0,0-4.3,9.8-10,9.7c0,0-0.9-4.7,7.2-11.9"/>
	<path class="st6" d="M76.5,158.1c0,0-8.4,6.6-13.3,3.9c0,0,1.4-4.6,11.9-7.2"/>
	<path class="st6" d="M76.1,156.7c0,0-10.6-1.2-12.2-6.7c0,0,4.2-2.3,13.5,3.4"/>
	<path class="st6" d="M76.9,155.3c0,0-8.5-6.5-7-12c0,0,4.8,0.2,9.9,9.8"/>
	<path class="st6" d="M77.3,153.9c0,0-2.2-10.5,2.4-13.7c0,0,3.5,3.2,1.2,13.9"/>
	<path class="st6" d="M78.6,154.3c0,0,4.2-9.9,9.8-9.8c0,0,1,4.7-7,12"/>
	<path class="st6" d="M80.9,155.3c0,0,9-5.9,13.6-2.7c0,0-1.8,4.4-12.5,6.1"/>
	<path class="st6" d="M82.2,156.6c0,0,10.7,0.3,12.7,5.6c0,0-4,2.6-13.8-2.1"/>
	<path class="st6" d="M81.9,157.6c0,0,8,7.1,6.1,12.5c0,0-4.7-0.6-9.1-10.5"/>
	<path class="st5" d="M81.4,154.7c1.1,1.8,0.7,4-0.9,4.9c-1.5,0.9-3.7,0.3-4.7-1.5c-1.1-1.8-0.6-4,0.9-4.9
		C78.3,152.2,80.4,152.9,81.4,154.7z"/>
</g>
<g>
	<path class="st7" d="M260.9,239.6c0,0,11.5-77.4,25.9-79.1"/>
	<path class="st6" d="M286.8,160.5c0,0-3.8,9.9-0.1,13.9c0,0,3.8-2.6,3.4-13.5"/>
	<path class="st6" d="M289.3,160.2c0,0,1.8,10.5,7,11.6c0,0,1.9-4.4-4-13.2"/>
	<path class="st6" d="M290.8,159.9c0,0,6.2,8.3,11.3,6.7c0,0-0.2-4.8-9.3-9.6"/>
	<path class="st6" d="M291.4,158.7c0,0,10,1.1,12.6-3.9c0,0-3.4-3.1-13.1,0.3"/>
	<path class="st6" d="M291.1,157.1c0,0,9.2-4.5,9-10.2c0,0-4.4-0.8-11.1,7.4"/>
	<path class="st6" d="M290.9,155.6c0,0,4.3-9.7,0.8-13.9c0,0-3.9,2.4-4.1,13.3"/>
	<path class="st6" d="M289.7,155.7c0,0-1.7-10.5-6.8-11.7c0,0-1.9,4.3,3.8,13.3"/>
	<path class="st6" d="M287.4,156.2c0,0-6.9-7.7-11.9-5.6c0,0,0.6,4.7,10.1,8.7"/>
	<path class="st6" d="M285.9,157.2c0,0-9.8-2-12.8,2.7c0,0,3.1,3.4,13,0.9"/>
	<path class="st6" d="M285.9,158.2c0,0-8.8,5.2-8.3,10.8c0,0,4.5,0.5,10.6-8.3"/>
	<path class="st5" d="M287,155.5c-1.3,1.5-1.5,3.7-0.2,5c1.2,1.2,3.3,1,4.6-0.5c1.4-1.5,1.5-3.7,0.3-4.9
		C290.5,153.8,288.4,154,287,155.5z"/>
</g>
<g>
	<path class="st7" d="M236.3,240.6c0,0-9.6-91.8,4.8-93.5"/>
	<path class="st6" d="M241.1,147.1c0,0-3.8,9.9-0.1,13.9c0,0,3.8-2.6,3.4-13.5"/>
	<path class="st6" d="M243.7,146.8c0,0,1.8,10.5,7,11.6c0,0,1.9-4.4-4-13.2"/>
	<path class="st6" d="M245.2,146.5c0,0,6.2,8.3,11.3,6.7c0,0-0.2-4.8-9.3-9.6"/>
	<path class="st6" d="M245.7,145.2c0,0,10,1.1,12.6-3.9c0,0-3.3-3.1-13.1,0.3"/>
	<path class="st6" d="M245.4,143.7c0,0,9.2-4.5,9-10.2c0,0-4.4-0.8-11.1,7.4"/>
	<path class="st6" d="M245.3,142.2c0,0,4.3-9.7,0.8-13.9c0,0-3.9,2.4-4.1,13.3"/>
	<path class="st6" d="M244.1,142.3c0,0-1.7-10.5-6.8-11.7c0,0-1.9,4.3,3.8,13.3"/>
	<path class="st6" d="M241.7,142.8c0,0-6.9-7.7-11.9-5.6c0,0,0.6,4.7,10.1,8.7"/>
	<path class="st6" d="M240.2,143.7c0,0-9.8-2-12.8,2.7c0,0,3.1,3.4,13,0.9"/>
	<path class="st6" d="M240.3,144.8c0,0-8.8,5.2-8.3,10.8c0,0,4.4,0.5,10.6-8.3"/>
	<path class="st5" d="M241.3,142.1c-1.3,1.5-1.5,3.7-0.2,5c1.2,1.2,3.3,1,4.6-0.5c1.4-1.5,1.5-3.7,0.3-5
		C244.8,140.4,242.7,140.6,241.3,142.1z"/>
</g>
<g>
	<path class="st8" d="M73.7,241.1c0,0-10.8-70.7-24.3-72.4"/>
	<path class="st4" d="M49.4,168.8c0,0,3.6,9.9,0.1,13.9c0,0-3.6-2.6-3.2-13.5"/>
	<path class="st4" d="M47,168.5c0,0-1.7,10.5-6.6,11.6c0,0-1.8-4.4,3.7-13.2"/>
	<path class="st4" d="M45.6,168.2c0,0-5.8,8.3-10.6,6.7c0,0,0.2-4.8,8.7-9.6"/>
	<path class="st4" d="M45,166.9c0,0-9.4,1.1-11.8-3.9c0,0,3.1-3.1,12.3,0.3"/>
	<path class="st4" d="M45.4,165.3c0,0-8.6-4.5-8.5-10.2c0,0,4.1-0.8,10.5,7.4"/>
	<path class="st4" d="M45.5,163.9c0,0-4.1-9.7-0.7-13.9c0,0,3.7,2.4,3.8,13.3"/>
	<path class="st4" d="M46.6,164c0,0,1.6-10.5,6.4-11.7c0,0,1.8,4.3-3.6,13.3"/>
	<path class="st4" d="M48.8,164.5c0,0,6.5-7.7,11.1-5.6c0,0-0.6,4.7-9.5,8.7"/>
	<path class="st4" d="M50.2,165.4c0,0,9.2-2,12.1,2.7c0,0-2.9,3.4-12.2,0.9"/>
	<path class="st4" d="M50.2,166.5c0,0,8.3,5.2,7.8,10.8c0,0-4.2,0.5-10-8.3"/>
	<path class="st3" d="M49.2,163.8c1.3,1.5,1.4,3.7,0.2,5c-1.1,1.2-3.1,1-4.3-0.5c-1.3-1.5-1.4-3.7-0.2-4.9
		C45.9,162.1,47.9,162.3,49.2,163.8z"/>
</g>
<path id="bianco_1_" class="st10" d="M193.8,112.7c13-5,24.3-9.3,33.6-12.9c9.3-3.6,8.9-9,6.5-17.5c-2.4-8.5-15.5-53.9-18.7-65.9
	c-3.3-12-15.5-5.8-15.5-5.8s-91,30.6-107.8,35.8c-19.7,6.9-18.3,8.7-16.6,13c4.1,10.7,28.1,72.7,28.1,72.7s3.5,14.2,15.3,9.1
	C130.4,136,193.8,112.7,193.8,112.7z"/>
<g>
	<g>
		<path d="M101.6,76.5c-0.6,0.2-1,0.5-1.4,0.9c-0.4,0.4-0.7,0.9-0.9,1.5c-0.2,0.6-0.2,1.3-0.2,2.1c0.1,0.8,0.2,1.6,0.6,2.6
			c0.3,0.9,0.7,1.7,1.2,2.3c0.4,0.6,0.9,1.1,1.4,1.4c0.5,0.3,1,0.5,1.6,0.5c0.6,0,1.2-0.1,1.8-0.3c0.2-0.1,0.3-0.1,0.5-0.2
			c0.2-0.1,0.3-0.2,0.5-0.3c0.2-0.1,0.3-0.2,0.5-0.4c0.2-0.1,0.3-0.2,0.4-0.4l0.5,1.4c-0.2,0.3-0.5,0.5-0.9,0.7
			c-0.4,0.2-0.7,0.4-1.1,0.6c-0.8,0.3-1.6,0.4-2.3,0.3c-0.7-0.1-1.4-0.3-2.1-0.8c-0.6-0.4-1.2-1-1.8-1.8c-0.5-0.8-1-1.7-1.4-2.7
			c-0.4-1-0.6-2-0.7-3c-0.1-1,0-1.8,0.2-2.6s0.6-1.5,1.1-2.1c0.5-0.6,1.1-1,1.9-1.3c0.2-0.1,0.4-0.1,0.6-0.2c0.2,0,0.4-0.1,0.6-0.1
			c0.2,0,0.4,0,0.6,0c0.2,0,0.3,0,0.5,0l0.5,1.4c-0.3,0-0.7,0-1.1,0C102.4,76.3,102,76.4,101.6,76.5z"/>
		<path d="M114.6,80.3c0.3,0.8,0.4,1.5,0.5,2.1c0.1,0.7,0,1.3-0.1,1.8c-0.1,0.5-0.3,1-0.7,1.4c-0.3,0.4-0.7,0.7-1.2,0.9
			c-0.5,0.2-1,0.2-1.5,0.1s-1-0.3-1.4-0.6c-0.4-0.3-0.9-0.8-1.2-1.3c-0.4-0.6-0.7-1.2-1-2c-0.3-0.8-0.5-1.5-0.5-2.1
			c-0.1-0.7,0-1.3,0.1-1.8c0.1-0.5,0.3-1,0.7-1.4c0.3-0.4,0.7-0.7,1.2-0.9c0.5-0.2,1-0.2,1.5-0.1c0.5,0.1,1,0.3,1.4,0.6
			c0.4,0.3,0.9,0.8,1.2,1.3C114,78.9,114.3,79.5,114.6,80.3z M113.4,80.7c-0.2-0.6-0.5-1.1-0.7-1.5s-0.6-0.8-0.9-1
			c-0.3-0.2-0.6-0.4-0.9-0.5s-0.6,0-0.9,0.1c-0.3,0.1-0.6,0.3-0.8,0.6s-0.3,0.6-0.4,1c-0.1,0.4-0.1,0.8,0,1.3c0.1,0.5,0.2,1,0.4,1.6
			c0.2,0.6,0.5,1.1,0.7,1.5c0.3,0.4,0.6,0.8,0.9,1c0.3,0.2,0.6,0.4,0.9,0.5c0.3,0.1,0.6,0,0.9-0.1c0.3-0.1,0.6-0.3,0.8-0.6
			c0.2-0.3,0.3-0.6,0.4-1c0.1-0.4,0.1-0.8,0-1.3C113.8,81.8,113.6,81.3,113.4,80.7z"/>
		<path d="M123.8,82.3l-1.1,0.4l-2.2-6.1c-0.2-0.4-0.3-0.8-0.5-1c-0.2-0.3-0.4-0.5-0.5-0.6c-0.2-0.1-0.4-0.2-0.6-0.2
			c-0.2,0-0.4,0-0.6,0.1c-0.4,0.1-0.7,0.4-0.9,0.9c-0.2,0.4-0.4,0.9-0.4,1.6l2.5,6.8l-1.1,0.4l-3.5-9.5l0.9-0.3l0.7,1.2l0,0
			c0-0.3,0.1-0.5,0.2-0.8c0.1-0.2,0.2-0.5,0.3-0.7c0.1-0.2,0.3-0.4,0.5-0.6c0.2-0.2,0.4-0.3,0.7-0.4c0.5-0.2,1-0.2,1.5,0
			c0.5,0.2,0.9,0.6,1.3,1.1l0,0c0.1-0.7,0.3-1.3,0.5-1.8c0.3-0.5,0.7-0.8,1.2-1c0.2-0.1,0.5-0.1,0.8-0.1c0.3,0,0.6,0.1,0.9,0.2
			c0.3,0.2,0.6,0.4,1,0.8c0.3,0.4,0.6,0.9,0.9,1.6l2.3,6.4l-1.1,0.4l-2.2-6.1c-0.2-0.4-0.3-0.8-0.5-1c-0.2-0.3-0.4-0.5-0.5-0.6
			c-0.2-0.1-0.4-0.2-0.6-0.2c-0.2,0-0.4,0-0.6,0.1c-0.4,0.1-0.7,0.4-1,0.9c-0.2,0.4-0.4,0.9-0.5,1.6L123.8,82.3z"/>
		<path d="M136.3,77.7l-1.1,0.4l-2.2-6.1c-0.2-0.4-0.3-0.8-0.5-1c-0.2-0.3-0.4-0.5-0.5-0.6s-0.4-0.2-0.6-0.2c-0.2,0-0.4,0-0.6,0.1
			c-0.4,0.1-0.7,0.4-0.9,0.9c-0.2,0.4-0.4,0.9-0.4,1.6l2.5,6.8l-1.1,0.4l-3.5-9.5l0.9-0.3l0.7,1.2l0,0c0-0.3,0.1-0.5,0.2-0.8
			c0.1-0.2,0.2-0.5,0.3-0.7c0.1-0.2,0.3-0.4,0.5-0.6c0.2-0.2,0.4-0.3,0.7-0.4c0.5-0.2,1-0.2,1.5,0s0.9,0.6,1.3,1.1l0,0
			c0.1-0.7,0.3-1.3,0.5-1.8c0.3-0.5,0.7-0.8,1.2-1c0.2-0.1,0.5-0.1,0.8-0.1c0.3,0,0.6,0.1,0.9,0.2c0.3,0.2,0.6,0.4,1,0.8
			c0.3,0.4,0.6,0.9,0.9,1.6l2.3,6.4l-1.1,0.4l-2.2-6.1c-0.2-0.4-0.3-0.8-0.5-1c-0.2-0.3-0.4-0.5-0.5-0.6c-0.2-0.1-0.4-0.2-0.6-0.2
			c-0.2,0-0.4,0-0.6,0.1c-0.4,0.1-0.7,0.4-1,0.9c-0.2,0.4-0.4,0.9-0.5,1.6L136.3,77.7z"/>
		<path d="M146,72.9c0.4-0.1,0.7-0.3,1-0.5c0.3-0.2,0.5-0.4,0.8-0.7l0.5,1.3c-0.2,0.3-0.4,0.5-0.8,0.7c-0.3,0.2-0.7,0.4-1.1,0.6
			c-0.5,0.2-1,0.3-1.5,0.3c-0.5,0-1-0.2-1.4-0.4c-0.5-0.3-0.9-0.7-1.3-1.2c-0.4-0.6-0.8-1.3-1.1-2.2c-0.3-0.9-0.5-1.7-0.6-2.4
			c-0.1-0.7,0-1.3,0.1-1.9c0.1-0.5,0.4-1,0.7-1.3c0.3-0.4,0.7-0.6,1.1-0.8c0.4-0.1,0.8-0.2,1.2-0.1c0.4,0.1,0.8,0.2,1.2,0.5
			c0.4,0.3,0.8,0.7,1.1,1.3c0.4,0.6,0.7,1.2,1,2.1c0,0.1,0.1,0.1,0.1,0.2c0,0.1,0.1,0.2,0.1,0.4l-4.8,1.8c0.2,0.6,0.5,1.1,0.8,1.5
			c0.3,0.4,0.6,0.7,0.9,0.8c0.3,0.2,0.7,0.3,1,0.3C145.3,73.1,145.7,73.1,146,72.9z M142.7,65.8c-0.3,0.1-0.5,0.3-0.7,0.5
			c-0.2,0.2-0.3,0.5-0.4,0.8c-0.1,0.3-0.1,0.6-0.1,1c0,0.4,0.1,0.7,0.2,1.1l3.6-1.3c-0.1-0.4-0.3-0.7-0.5-1
			c-0.2-0.3-0.4-0.5-0.6-0.7c-0.2-0.2-0.5-0.3-0.7-0.4C143.3,65.7,143,65.7,142.7,65.8z"/>
		<path d="M148.7,63.9L148.7,63.9c0.1-0.3,0.1-0.5,0.2-0.8s0.2-0.5,0.3-0.7c0.1-0.2,0.3-0.4,0.5-0.6c0.2-0.2,0.4-0.3,0.7-0.4
			c0.3-0.1,0.6-0.2,1-0.1c0.3,0,0.6,0.1,0.9,0.3c0.3,0.2,0.6,0.5,0.9,0.9s0.5,0.9,0.8,1.5l2.3,6.4l-1.1,0.4l-2.2-6.1
			c-0.3-0.8-0.6-1.4-1-1.7c-0.4-0.3-0.8-0.3-1.2-0.2c-0.4,0.1-0.7,0.4-1,0.9c-0.3,0.4-0.4,1-0.5,1.6l2.5,6.8l-1.1,0.4l-3.5-9.5
			l0.9-0.3L148.7,63.9z"/>
		<path d="M162.3,68.3c-0.1,0.1-0.2,0.2-0.4,0.3c-0.2,0.1-0.4,0.2-0.7,0.3c-0.4,0.1-0.7,0.2-1,0.2c-0.3,0-0.6-0.1-0.9-0.3
			c-0.3-0.2-0.5-0.4-0.7-0.7c-0.2-0.3-0.4-0.6-0.5-1l-2.1-5.8l-1.3,0.5l-0.5-1.3l1.3-0.5l-1-2.6l1.1-0.4l1,2.6l2.1-0.8l0.5,1.3
			l-2.1,0.8l2,5.6c0.1,0.2,0.2,0.4,0.3,0.6c0.1,0.2,0.2,0.3,0.4,0.4s0.3,0.2,0.5,0.2s0.4,0,0.6-0.1c0.2-0.1,0.3-0.1,0.5-0.2
			c0.2-0.1,0.3-0.2,0.4-0.3L162.3,68.3z"/>
		<path d="M162.5,54.8l-0.6-1.7l1.1-0.4l0.6,1.7L162.5,54.8z M166.9,66.5l-3.5-9.5l1.1-0.4l3.5,9.5L166.9,66.5z"/>
		<path d="M168.4,56.7L168.4,56.7c0.1-0.3,0.1-0.5,0.2-0.8s0.2-0.5,0.3-0.7c0.1-0.2,0.3-0.4,0.5-0.6c0.2-0.2,0.4-0.3,0.7-0.4
			c0.3-0.1,0.6-0.2,1-0.1c0.3,0,0.6,0.1,0.9,0.3c0.3,0.2,0.6,0.5,0.9,0.9s0.5,0.9,0.8,1.5l2.3,6.4l-1.1,0.4l-2.2-6.1
			c-0.3-0.8-0.6-1.4-1-1.7c-0.4-0.3-0.8-0.3-1.2-0.2c-0.4,0.1-0.7,0.4-1,0.9c-0.3,0.4-0.4,1-0.5,1.6l2.5,6.8l-1.1,0.4l-3.5-9.5
			l0.9-0.3L168.4,56.7z"/>
		<path d="M176.5,55.1c0.1,0.3,0.2,0.5,0.4,0.6c0.1,0.1,0.3,0.2,0.5,0.3c0.2,0.1,0.4,0.1,0.6,0.1c0.2,0,0.4,0,0.6,0
			c0.3,0,0.6,0,0.8,0c0.3,0,0.5,0.1,0.8,0.2c0.3,0.1,0.5,0.3,0.8,0.6c0.2,0.3,0.5,0.7,0.7,1.2c0.2,0.5,0.3,0.9,0.3,1.4
			c0,0.4-0.1,0.8-0.2,1.1c-0.2,0.3-0.4,0.6-0.7,0.9s-0.7,0.5-1.1,0.6c-0.3,0.1-0.5,0.2-0.7,0.2c-0.2,0-0.4,0.1-0.6,0.1
			c-0.2,0-0.3,0-0.5,0c-0.1,0-0.2,0-0.3-0.1l-0.5-1.3c0.3,0.1,0.7,0.1,1,0.1c0.3,0,0.6-0.1,1-0.2c0.3-0.1,0.5-0.2,0.7-0.4
			c0.2-0.1,0.3-0.3,0.5-0.5c0.1-0.2,0.2-0.4,0.2-0.6c0-0.2,0-0.5-0.1-0.7c-0.1-0.3-0.2-0.5-0.4-0.6c-0.1-0.1-0.3-0.3-0.5-0.3
			c-0.2-0.1-0.4-0.1-0.6-0.1c-0.2,0-0.4,0-0.6,0c-0.3,0-0.6,0-0.8,0c-0.3,0-0.6-0.1-0.8-0.2c-0.3-0.1-0.5-0.3-0.8-0.6
			c-0.2-0.3-0.5-0.6-0.6-1.1c-0.2-0.5-0.3-1-0.3-1.4c0-0.4,0.1-0.8,0.2-1.1c0.1-0.3,0.3-0.6,0.6-0.8c0.3-0.2,0.5-0.4,0.9-0.5
			c0.4-0.1,0.8-0.2,1.1-0.2c0.4,0,0.7,0,1,0.1l0.5,1.3c-0.3,0-0.7-0.1-1-0.1c-0.3,0-0.7,0.1-1,0.2c-0.3,0.1-0.5,0.2-0.6,0.4
			c-0.2,0.1-0.3,0.3-0.3,0.5c-0.1,0.2-0.1,0.4-0.1,0.6C176.4,54.7,176.4,54.9,176.5,55.1z"/>
		<path d="M183.8,49.3c0.3-0.1,0.7-0.2,1-0.2c0.3,0,0.7,0,0.9,0.1l0.5,1.3c-0.4,0-0.7-0.1-1,0c-0.3,0-0.6,0.1-0.8,0.2
			c-0.3,0.1-0.5,0.3-0.8,0.5c-0.2,0.2-0.4,0.5-0.5,0.9c-0.1,0.4-0.2,0.8-0.1,1.4c0,0.5,0.2,1.1,0.5,1.9c0.2,0.5,0.4,1,0.7,1.4
			c0.3,0.4,0.5,0.7,0.9,1c0.3,0.2,0.7,0.4,1,0.5c0.4,0.1,0.7,0,1.1-0.1c0.3-0.1,0.6-0.3,0.8-0.4c0.3-0.2,0.5-0.4,0.7-0.7l0.5,1.3
			c-0.1,0.1-0.1,0.2-0.3,0.3c-0.1,0.1-0.2,0.2-0.4,0.3c-0.1,0.1-0.3,0.2-0.5,0.3c-0.2,0.1-0.3,0.2-0.5,0.2c-0.5,0.2-1,0.2-1.4,0.2
			c-0.5,0-1-0.2-1.4-0.5s-0.9-0.7-1.3-1.3c-0.4-0.5-0.8-1.2-1.1-2.1c-0.2-0.6-0.4-1.2-0.5-1.8c-0.1-0.5-0.1-1-0.1-1.5
			c0-0.4,0.1-0.8,0.2-1.2c0.1-0.3,0.3-0.7,0.5-0.9c0.2-0.3,0.4-0.5,0.6-0.7C183.3,49.5,183.5,49.4,183.8,49.3z"/>
		<path d="M191.8,48.1L191.8,48.1c-0.4,0.1-0.6,0.3-0.8,0.4c-0.2,0.2-0.4,0.4-0.6,0.6c-0.2,0.2-0.3,0.5-0.4,0.7
			c-0.1,0.3-0.2,0.6-0.2,0.9l2.4,6.7l-1.1,0.4l-3.5-9.5l0.9-0.3l0.8,1.4l0,0c0-0.3,0.1-0.6,0.2-0.8c0.1-0.3,0.2-0.5,0.4-0.8
			c0.1-0.2,0.3-0.4,0.5-0.6c0.2-0.2,0.5-0.3,0.7-0.4c0,0,0.1,0,0.2-0.1c0.1,0,0.1,0,0.1,0L191.8,48.1z"/>
		<path d="M191.7,44.1l-0.6-1.7l1.1-0.4l0.6,1.7L191.7,44.1z M196.1,55.9l-3.5-9.5l1.1-0.4l3.5,9.5L196.1,55.9z"/>
		<path d="M200.3,44.9L200.3,44.9c-0.4,0.1-0.6,0.3-0.8,0.4c-0.2,0.2-0.4,0.4-0.6,0.6c-0.2,0.2-0.3,0.5-0.4,0.7
			c-0.1,0.3-0.2,0.6-0.2,0.9l2.4,6.7l-1.1,0.4l-3.5-9.5l0.9-0.3l0.8,1.4l0,0c0-0.3,0.1-0.6,0.2-0.8c0.1-0.3,0.2-0.5,0.4-0.8
			c0.1-0.2,0.3-0.4,0.5-0.6c0.2-0.2,0.5-0.3,0.7-0.4c0,0,0.1,0,0.2-0.1c0.1,0,0.1,0,0.1,0L200.3,44.9z"/>
		<path d="M207.5,50.4c0.4-0.1,0.7-0.3,1-0.5c0.3-0.2,0.5-0.4,0.8-0.7l0.5,1.3c-0.2,0.3-0.4,0.5-0.8,0.7c-0.3,0.2-0.7,0.4-1.1,0.6
			c-0.5,0.2-1,0.3-1.5,0.3c-0.5,0-1-0.2-1.4-0.4c-0.5-0.3-0.9-0.7-1.3-1.2c-0.4-0.6-0.8-1.3-1.1-2.2c-0.3-0.9-0.5-1.7-0.6-2.4
			c-0.1-0.7,0-1.3,0.1-1.9c0.1-0.5,0.4-1,0.7-1.3c0.3-0.4,0.7-0.6,1.1-0.8c0.4-0.1,0.8-0.2,1.2-0.1c0.4,0.1,0.8,0.2,1.2,0.5
			s0.8,0.7,1.1,1.3c0.4,0.6,0.7,1.2,1,2.1c0,0.1,0.1,0.1,0.1,0.2c0,0.1,0.1,0.2,0.1,0.4l-4.8,1.8c0.2,0.6,0.5,1.1,0.8,1.5
			c0.3,0.4,0.6,0.7,0.9,0.8s0.7,0.3,1,0.3C206.7,50.6,207.1,50.6,207.5,50.4z M204.2,43.3c-0.3,0.1-0.5,0.3-0.7,0.5
			c-0.2,0.2-0.3,0.5-0.4,0.8c-0.1,0.3-0.1,0.6-0.1,1c0,0.4,0.1,0.7,0.2,1.1l3.6-1.3c-0.1-0.4-0.3-0.7-0.5-1
			c-0.2-0.3-0.4-0.5-0.6-0.7c-0.2-0.2-0.5-0.3-0.7-0.4C204.7,43.2,204.4,43.2,204.2,43.3z"/>
		<path d="M136.9,105.8c-0.4,0.1-0.7,0.2-1,0.2c-0.3,0-0.6-0.1-0.9-0.2c-0.3-0.1-0.6-0.3-0.8-0.5s-0.5-0.5-0.7-0.8
			c-0.2-0.2-0.3-0.5-0.4-0.7c-0.1-0.3-0.3-0.6-0.4-0.9l-2.1-5.9l1.1-0.4l2.1,5.9c0.2,0.5,0.4,1,0.6,1.3c0.3,0.4,0.6,0.6,0.9,0.7
			c0.3,0.1,0.7,0.1,1.1,0c0.4-0.2,0.7-0.4,0.9-0.8c0.2-0.4,0.2-0.8,0.2-1.2c0-0.4-0.1-0.8-0.3-1.3l-2.1-5.9l1.1-0.4l2.1,5.9
			c0.1,0.3,0.2,0.6,0.3,0.9c0.1,0.3,0.1,0.6,0.2,0.8c0,0.4,0,0.7,0,1c-0.1,0.3-0.2,0.6-0.3,0.9c-0.2,0.3-0.4,0.5-0.6,0.8
			C137.6,105.5,137.3,105.7,136.9,105.8z"/>
		<path d="M139.9,95.1L139.9,95.1c0.1-0.3,0.1-0.5,0.2-0.8c0.1-0.2,0.2-0.5,0.3-0.7c0.1-0.2,0.3-0.4,0.5-0.6
			c0.2-0.2,0.4-0.3,0.7-0.4c0.3-0.1,0.6-0.2,1-0.1c0.3,0,0.6,0.1,0.9,0.3c0.3,0.2,0.6,0.5,0.9,0.9c0.3,0.4,0.5,0.9,0.8,1.5l2.3,6.4
			l-1.1,0.4l-2.2-6.1c-0.3-0.8-0.6-1.4-1-1.7c-0.4-0.3-0.8-0.3-1.2-0.2c-0.4,0.1-0.7,0.4-1,0.9c-0.3,0.4-0.4,1-0.5,1.6l2.5,6.8
			l-1.1,0.4l-3.5-9.5l0.9-0.3L139.9,95.1z"/>
		<path d="M148.7,87.9l-0.6-1.7l1.1-0.4l0.6,1.7L148.7,87.9z M154.9,101.3c0.3,0.9,0.4,1.6,0.2,2.3c-0.2,0.6-0.7,1.1-1.5,1.4
			c-0.2,0.1-0.4,0.1-0.6,0.2c-0.2,0-0.4,0-0.5,0l-0.5-1.3c0.2,0,0.3,0,0.5,0s0.3-0.1,0.5-0.1c0.5-0.2,0.8-0.4,0.9-0.8
			c0.1-0.3,0.1-0.8-0.1-1.3l-4.2-11.5l1.1-0.4L154.9,101.3z"/>
		<path d="M160.1,95.8L160.1,95.8c-0.1,0.2-0.1,0.4-0.2,0.6c-0.1,0.2-0.2,0.4-0.3,0.6c-0.1,0.2-0.3,0.4-0.5,0.5
			c-0.2,0.2-0.4,0.3-0.7,0.4c-0.3,0.1-0.7,0.2-1,0.1c-0.3,0-0.6-0.1-0.9-0.3c-0.3-0.2-0.6-0.5-0.8-0.8c-0.3-0.3-0.5-0.8-0.6-1.2
			c-0.2-0.5-0.3-0.9-0.3-1.3c0-0.4,0-0.8,0.2-1.1s0.3-0.6,0.6-0.9c0.3-0.3,0.6-0.5,1-0.6c0.4-0.1,0.7-0.2,1.1-0.2c0.3,0,0.6,0,0.9,0
			l0,0l-0.2-0.7c-0.1-0.3-0.2-0.5-0.3-0.7c-0.1-0.2-0.2-0.4-0.3-0.5c-0.2-0.3-0.5-0.5-0.9-0.6c-0.4-0.1-0.8-0.1-1.2,0.1
			c-0.4,0.1-0.7,0.3-0.9,0.5c-0.3,0.2-0.5,0.4-0.8,0.7l-0.5-1.3c0.1-0.1,0.2-0.3,0.3-0.4c0.1-0.1,0.3-0.3,0.4-0.4
			c0.2-0.1,0.3-0.2,0.5-0.3c0.2-0.1,0.4-0.2,0.6-0.3c0.7-0.3,1.3-0.3,1.9-0.1c0.6,0.2,1.1,0.5,1.5,1c0.2,0.2,0.3,0.4,0.4,0.7
			c0.1,0.2,0.2,0.5,0.4,0.8l2.3,6.4l-1,0.4L160.1,95.8z M158.9,92.7c-0.2,0-0.5,0-0.8,0c-0.3,0-0.6,0.1-1,0.2
			c-0.5,0.2-0.8,0.5-1,0.8c-0.2,0.4-0.1,0.9,0.1,1.4c0.1,0.3,0.2,0.5,0.4,0.7c0.1,0.2,0.3,0.3,0.5,0.4c0.2,0.1,0.4,0.2,0.5,0.2
			c0.2,0,0.4,0,0.6-0.1c0.2-0.1,0.5-0.2,0.6-0.4c0.2-0.2,0.3-0.4,0.4-0.6c0.1-0.2,0.2-0.4,0.3-0.6c0.1-0.2,0.1-0.3,0.1-0.4
			L158.9,92.7z"/>
		<path d="M164.6,86L164.6,86c-0.4,0.1-0.6,0.3-0.8,0.4c-0.2,0.2-0.4,0.4-0.6,0.6c-0.2,0.2-0.3,0.5-0.4,0.7
			c-0.1,0.3-0.2,0.6-0.2,0.9l2.4,6.7l-1.1,0.4l-3.5-9.5l0.9-0.3l0.8,1.4l0,0c0-0.3,0.1-0.6,0.2-0.8c0.1-0.3,0.2-0.5,0.3-0.8
			c0.1-0.2,0.3-0.4,0.5-0.6c0.2-0.2,0.5-0.3,0.7-0.4c0,0,0.1,0,0.2,0c0.1,0,0.1,0,0.1,0L164.6,86z"/>
		<path d="M166.8,89.3c-0.2-0.7-0.4-1.3-0.5-1.8c-0.1-0.5-0.1-1-0.1-1.5c0-0.4,0.1-0.8,0.2-1.2c0.1-0.3,0.3-0.6,0.4-0.9
			c0.2-0.2,0.4-0.4,0.6-0.6c0.2-0.2,0.4-0.3,0.6-0.3c0.4-0.2,0.8-0.2,1.2-0.1c0.4,0.1,0.8,0.3,1.2,0.5l0,0l-2.2-5.9l1.1-0.4
			l5.3,14.6l-0.9,0.3l-0.6-1l0,0c0,0.2-0.1,0.4-0.1,0.6c-0.1,0.2-0.1,0.4-0.3,0.6c-0.1,0.2-0.3,0.4-0.4,0.5
			c-0.2,0.2-0.4,0.3-0.7,0.4c-0.4,0.1-0.8,0.2-1.2,0.1c-0.4,0-0.9-0.2-1.3-0.5c-0.4-0.3-0.8-0.7-1.3-1.3
			C167.4,90.9,167.1,90.2,166.8,89.3z M167.9,88.9c0.2,0.5,0.4,1,0.7,1.4c0.3,0.4,0.5,0.7,0.8,1c0.3,0.2,0.6,0.4,0.9,0.5
			c0.3,0.1,0.6,0.1,1-0.1c0.2-0.1,0.4-0.2,0.6-0.4c0.2-0.2,0.3-0.3,0.4-0.5c0.1-0.2,0.2-0.4,0.2-0.6c0.1-0.2,0.1-0.4,0.1-0.5l-1.8-5
			c-0.4-0.2-0.7-0.4-1.1-0.5c-0.4-0.1-0.8-0.1-1.1,0.1c-0.2,0.1-0.4,0.2-0.6,0.4c-0.2,0.2-0.3,0.5-0.4,0.8c-0.1,0.4-0.1,0.8-0.1,1.3
			C167.5,87.5,167.7,88.1,167.9,88.9z"/>
		<path d="M172.7,79.1l-0.6-1.7l1.1-0.4l0.6,1.7L172.7,79.1z M177,90.9l-3.5-9.5l1.1-0.4l3.5,9.5L177,90.9z"/>
		<path d="M178.5,81L178.5,81c0.1-0.3,0.1-0.5,0.2-0.8c0.1-0.2,0.2-0.5,0.3-0.7c0.1-0.2,0.3-0.4,0.5-0.6s0.4-0.3,0.7-0.4
			c0.3-0.1,0.6-0.2,1-0.1c0.3,0,0.6,0.1,0.9,0.3c0.3,0.2,0.6,0.5,0.9,0.9s0.5,0.9,0.8,1.5l2.3,6.4l-1.1,0.4l-2.2-6.1
			c-0.3-0.8-0.6-1.4-1-1.7c-0.4-0.3-0.8-0.3-1.2-0.2c-0.4,0.1-0.7,0.4-1,0.9c-0.3,0.4-0.4,1-0.5,1.6l2.5,6.8l-1.1,0.4l-3.5-9.5
			l0.9-0.3L178.5,81z"/>
		<path d="M188.6,86.6l-0.7-2l1.4-0.5l0.7,2L188.6,86.6z"/>
		<path d="M192.5,85.2l-0.7-2l1.4-0.5l0.7,2L192.5,85.2z"/>
		<path d="M196.5,83.7l-0.7-2l1.4-0.5l0.7,2L196.5,83.7z"/>
	</g>
</g>
</svg>
